<svg width="288" height="962" fill="none" xmlns="http://www.w3.org/2000/svg"><path d="M267.948 521.521a36.126 36.126 0 00-6.817-8.616c-1.144-1.238-2.684-2.49-4.301-1.757-2.821 1.086-5.17.2-7.519-.686-3.904-1.741-7.823-3.085-11.728-4.827-1.952-.87-3.111-1.71-2.638-3.682.061-1.589.534-3.56-1.83-4.048-5.125-.993-6.955-5.041-7.977-9.457-.35-1.207-.686-2.811-1.86-3.254-1.571-.458-2.41.703-3.249 1.864-1.265 1.941-2.043 1.513-3.995.643-3.905-1.742-7.794-3.88-11.256-6.798-1.54-1.253-2.699-2.093-2.608-4.476 1.983.076 3.142.916 4.713 1.374 1.556.855 2.776.106 3.614-1.055.854-1.559-.716-2.017-1.479-2.842-2.318-1.68-5.048-2.978-6.939-5.438-1.129-1.635-2.257-3.27-.199-5.18 2.913-3.469 3.005-5.852.778-9.916-3.737-6.112-8.297-11.459-14.519-14.88-2.73-1.299-5.429-3.392-7.748-5.072-5.795-4.201-10.34-9.945-16.151-13.749-6.573-4.629-11.529-9.991-15.22-17.294-2.959-5.684-7.123-11.016-8.465-17.433-1.372-5.622-4.758-10.527-7.336-15.798-.732-1.619-2.287-2.475-3.874-2.536-4.788.612-7.884-1.496-10.934-4.796-5.323-6.172-11.912-10.403-19.308-14.268-3.89-2.138-7.809-3.482-10.89-5.987-7.686-6.661-16.7-9.792-26.124-12.541-1.953-.87-4.332-.962-6.726-.656-9.578 1.224-17.401-1.861-24.707-8.109-1.54-1.253-3.477-2.521-5.017-3.773-8.144-5.087-16.35-8.585-25.866-8.95-5.155-.198-10.69-.808-15.815-1.8-4.347-.565-8.647-2.321-12.536-4.46 3.98-.245 8.357-.475 12.277.869 6.268 2.23 13.024 2.091 19.414 1.143 2.79-.291 5.597-.979 7.992-1.285 5.993-.964 11.895.456 17.843.685 5.551.213 10.736-.384 15.25-4.19 2.868-2.277 4.24-6.998 2.73-9.045-2.653-3.285-5.322-6.173-10.065-6.752-6.726-.656-13.1-.105-19.155 2.447-3.218 1.071-6.42 1.743-9.593 1.622-14.32.644-28.687 2.48-42.047 9.128-1.22.749-2.82 1.086-4.422 1.422-.809.367-1.602.337-2.41.703 2.349-9.458 3.92-19.344 5.093-29.246 2.227 4.064 4.866 7.746 7.9 11.444 3.798 4.522 7.016 3.452 8.419-2.065.03-.794.457-1.573.9-2.75l2.287 2.475c5.72 6.187 7.687 6.661 14.977 2.962.412-.382 1.22-.749 1.616-.734 2.013-.718 3.645-1.849 3.752-4.63.107-2.781-2.242-3.667-4.21-4.14-3.934-.947-7.869-1.894-11.392-3.223-.793-.03-1.57-.458-1.54-1.252.015-.398.823-.764 1.235-1.146 2.837-1.483 5.277-2.981 8.495-4.051 4.423-1.422 8.8-1.652 12.658 1.281 3.08 2.506 6.207 3.819 9.76 4.354 1.968.473 3.127 1.313 4.24 3.345 2.212 4.461 4.424 8.923 10.371 9.151 1.586.061 3.523 1.329 4.393-.627 1.265-1.941.549-3.958-.184-5.577-1.113-2.032-2.653-3.285-4.163-5.332 2.028-1.116 4.026-1.437 5.17-.2 3.462 2.918 7.793 3.88 11.286 6.003 1.952.871 3.08 2.506 3.4 4.507.306 2.399 1.023 4.416 1.724 6.83 1.083 2.827 3.386 4.904 6.558 5.026 3.569.137 6.024-1.758 6.954-5.303.473-1.971 1.647-1.528 3.218-1.07 7.061 2.26 12.08 6.033 14.184 13.275.701 2.414 2.196 4.859 3.294 7.288.732 1.62 2.273 2.872 4.27 2.551 1.998-.321 2.075-2.307 2.136-3.896.167-4.37-1.678-8.022-4.744-10.925-3.813-4.124-7.61-8.647-14.275-10.892 2.806-.688 4.82-1.406 6.817-1.727 2.013-.719 3.234-1.468 3.325-3.851.076-1.987-.244-3.988-2.181-5.256-.778-.428-1.952-.871-3.126-1.314-6.68-1.847-13.055-1.296-19.78-1.952-1.587-.061-3.585.26-4.82 1.406-2.867 2.277-6.04 2.156-9.15.445-3.127-1.314-6.208-3.819-8.983-3.926-8.358.475-15.74-3.786-23.624-5.282-.793-.031-1.571-.459-3.142-.917 6.009-1.361 10.813-2.37 15.922-.98.793.03 1.556.855 1.983.076.427-.78.473-1.971.106-2.781-1.875-2.857-4.62-3.758-7.823-3.085-2.395.306-4.82 1.406-7.245 2.507-5.657 2.568-11.682 4.326-18.01 3.685-5.537-.61-11.042-2.015-16.258-.624l-1.983-.076c-3.126-1.313-5.932-.625-8.403 1.667-1.235 1.146-2.852 1.88-4.468 2.614-.412.382-1.22.749-1.632 1.131.64-6.342 1.28-12.683 1.54-19.436 3.462 2.917 7.305 6.248 10.767 9.166 2.7 2.093 4.331.962 4.453-2.217-.259-3.59-1.342-6.417-4.453-8.128-2.73-1.298-5.475-2.199-8.22-3.1-.793-.031-1.952-.871-2.364-.489l.122-3.178c.793.031 1.601-.336 2.41-.703 4.056-2.232 8.448-2.859 12.78-1.897 3.934.947 7.412 3.467 10.492 5.973 2.7 2.093 5.857 2.612 9.044 2.336 2.394-.306 4.407-1.024 6.787-.933 3.172.122 4.468-2.614 3.385-5.44-1.48-2.842-3.4-4.507-6.543-5.423-1.952-.871-4.316-1.36-6.283-1.833.839-1.161 2.044-1.513 2.837-1.483 6.024-1.758 12.43-3.103 18.82-4.052 5.184-.596 9.546-.429 13.801 2.519 1.556.856 3.127 1.314 4.682 2.169.778.428 2.364.489 1.922 1.665-.442 1.177-1.617.734-2.821 1.086-1.602.336-4.301-1.757-4.393.627-.076 1.986 2.715 1.695 4.682 2.169l.397.015c1.967.473 3.98-.245 4.85-2.201.869-1.956.549-3.958-.992-5.21-1.144-1.238-2.303-2.078-4.224-3.743 2.013-.719 3.614-1.055 5.215-1.391 3.203-.673 6.04-2.156 7.717-4.479 3.355-4.645 5.551-10.131 10.843-13.509.824-.764.87-1.956.519-3.163-.763-.825-1.586-.06-2.395.306-3.63 1.453-6.878 3.317-10.858 3.562-3.98.245-7.61 1.698-10.904 4.754-1.647 1.528-3.676 2.644-6.131 4.539.457-1.574.473-1.971.488-2.368.015-.398.442-1.177.457-1.574.488-2.369.199-5.165-2.135-6.448-1.937-1.268-4.331-.962-6.36.154-5.688 3.362-9.44 7.993-11.27 14.288-.915 3.148-2.15 4.294-5.749 4.952-6.39.948-13.192 2.279-19.597 3.624-7.61 1.698-14.84 3.807-21.748 7.919 0 0-.396-.015-.412.382-.091-7.961-.183-15.922-.671-23.897l1.19.045c2.775.107 5.124.993 7.884 1.496 3.95.55 7.84 2.688 11.484.839 2.837-1.483 5.658-2.568 8.876-3.638 2.806-.688 2.47-2.293.945-3.942-.762-.825-1.54-1.253-2.318-1.681-5.032-3.376-10.523-5.178-16.898-4.627-3.187.276-6.725-.656-9.943.414-.809.367-1.602.337-2.029 1.116-.335-1.604-.29-2.796-.625-4.4.397.015.412-.382.808-.367 5.689-3.363 10.996-7.138 14.793-12.96 2.105-3.102 4.987-5.776 8.25-8.038 3.265-2.262 6.467-2.935 10.402-1.988 4.331.962 9.044 2.336 13.863.93 1.601-.337 2.38.091 3.523 1.328 2.654 3.285 5.704 6.585 8.739 10.282 4.56 5.347 12.826 7.256 19.277 4.718 3.233-1.467 3.676-2.644 2.211-5.883-2.18-5.255-6.832-8.219-11.072-11.565-2.7-2.092-5.551-.213-8.327-.319-.793-.03-2.364-.489-2.425 1.101-.06 1.589 1.525 1.649 2.334 1.283 6.39-.949 11.01 2.809 15.235 6.552 1.16.84 2.715 1.696 2.258 3.27-.458 1.573-2.425 1.1-3.615 1.054-1.19-.045-2.379-.091-3.187.276-7.93-.304-13.39-2.901-17.127-9.012-.382-.413-.366-.81-.336-1.605.961-4.339.198-5.164-4.194-4.537-6.39.949-12.383 1.912-18.652-.318-3.126-1.313-6.329-.64-9.18 1.239-9.334 5.212-16.38 12.899-24.203 20.158-1.877-13.201-4.18-25.623-7.688-37.693.412-.382.84-1.162 1.22-.749 3.157.519 6.802-1.331 9.03 2.733 3.37 5.302 10.248 1.985 11.59-1.942.884-2.353.991-5.134.29-7.548-.717-2.017.121-3.178 2.134-3.897 3.615-1.055 5.689-3.362 6.634-7.305.519-3.163 2.944-4.263 6.1-3.744 3.554.534 7.138.274 10.356-.796 4.011-1.04 4.896-3.393 3.05-7.045-1.113-2.032-2.654-3.285-4.59-4.552-4.286-2.154-9.09-1.145-13.864-.93-1.586-.061-2.821 1.085-2.5 3.087.29 2.796-.961 4.339-3.752 4.63-1.19-.046-2.791.291-3.63 1.452-1.678 2.323-4.072 2.629-6.04 2.156l-1.982-.076c-.793-.031-2.41.703-2.745-.902-.366-.809.473-1.971 1.296-2.735.839-1.161 2.06-1.91 3.294-3.056.824-.764.87-1.956.519-3.163-.366-.81-1.129-1.635-2.318-1.681-3.98.246-7.961.491-10.844 3.165-2.867 2.277-5.734 4.554-8.22 7.244-1.632 1.131-2.104 3.102-1.769 4.706-.03.795.351 1.207.32 2.002-24.356-68.968-74.136-117.03-133.614-119.312-87.235-3.347-161.643 93.66-166.353 216.417-.594 15.494.016 30.636 1.435 45.411-2.608-4.476-3.203-9.671-3.783-15.264-.244-3.988-1.281-8.006-1.922-12.009-.32-2.002-1.876-2.857-3.889-2.139-1.998.322-1.662 1.926-1.327 3.53.336 1.604 1.083 2.827 1.831 4.049 2.257 3.269 2.12 6.845 1.967 10.818-1.174-.443-1.54-1.253-2.318-1.681-3.843-3.33-5.231-8.556-8.663-12.268-5.734-5.79-7.854-12.635-7.153-20.565l.092-2.384c.366-9.534-4.942-16.104-10.661-22.291-1.525-1.65-3.126-1.314-3.614 1.055-.458 1.574-.534 3.56-1.785 5.104-1.555-.856-1.51-2.048-2.257-3.27l-10.889-26.676c-1.434-4.034-3.676-7.701-6.742-10.603-2.302-2.078-6.634-3.04-8.281-1.512-2.47 2.293-1.372 4.722-.274 7.151 1.815 4.446 4.85 8.144 8.296 11.459 4.225 3.742 7.23 8.234 9.014 13.475 2.516 6.86 5.826 13.75 10.356 19.892.381.413 1.159.84.335 1.604-8.632-2.718-17.157-8.217-22.892-14.007-2.287-2.475-4.666-2.566-7.473-1.878-.808.366-1.616.733-1.25 1.543.686 2.811 2.608 4.477 5.368 4.98.793.031 1.983.076 2.745.901 3.402 4.507 8.495 6.294 13.589 8.081 7.046 2.658 12.811 7.653 17.768 13.015 1.525 1.65 2.272 2.873-.915 3.148-1.205.352-2.791.291-3.63 1.452-3.34 4.249-6.07 2.95-9.517-.365-2.287-2.475-6.649-2.642-9.775-3.956-1.571-.458-2.715-1.695-4.362-.167-1.235 1.146-1.296 2.735-.961 4.34.366.809.717 2.016-.488 2.368-.808.367-1.571-.458-1.937-1.268a21.688 21.688 0 01-4.392-9.717c-1.724-6.83-5.46-12.941-10.432-17.906-4.225-3.743-7.244-7.837-9.837-12.711-1.114-2.032-2.227-4.064-4.149-5.729-1.54-1.253-3.111-1.711-5.124-.993-2.013.719-1.677 2.323-1.738 3.912.289 2.796.579 5.593 2.47 8.052.382.413 1.144 1.238.321 2.002-4.637-3.361-9.685-6.34-13.894-10.48-4.606-4.155-10.111-5.56-16.044-6.185-3.569-.137-4.438 1.819-3.37 5.042 1.464 3.24 4.148 5.73 7.274 7.043 7.412 3.467 13.101 10.449 21.367 12.358.397.015.381.412.763.825-7.839-2.688-15.739-3.787-23.136-7.651-5.841-3.01-12.094-5.637-18.835-5.895-4.362-.168-8.708-.732-13.085-.502-1.983-.076-4.392.627-4.88 2.995-.473 1.971 1.891 2.46 3.05 3.3 3.858 2.933 8.983 3.926 13.283 5.682-2.409.703-5.246 2.186-7.625 2.095-10.706-.411-19.994 3.609-29.312 8.423-.808.367-2.013.719-2.074 2.308-.046 1.192 1.113 2.032 1.891 2.46l5.856 2.612c-1.25 1.543-2.851 1.879-4.453 2.216-3.202.673-6.42 1.743-9.653 3.21-8.053 2.874-13.192 12.623-11.53 21.042.671 3.209 1.449 3.636 4.301 1.757 2.044-1.513 4.072-2.629 6.1-3.745 7.305-4.096 13.863-9.415 17.722-16.826 2.562-4.676 5.871-8.129 10.721-10.331 4.041-1.834 8.098-4.065 13.314-5.457-1.678 2.323-3.31 3.454-5.338 4.57-6.1 3.744-8.678 8.818-8.556 15.984-.061 1.589-.152 3.973 1.8 4.843 1.952.871 3.584-.26 4.819-1.406 4.911-3.79 8.266-8.436 10.874-14.304 1.739-3.912 3.874-7.808 6.405-11.69 3.34-4.248 6.985-6.098 12.124-5.502 1.983.076 2.761.503 1.892 2.459-1.297 2.736-2.196 5.486-3.081 7.839-1.311 3.133-1.815 5.898-.747 9.122 1.052 3.621.9 7.594.366 11.154-1.052 6.724.839 9.183 7.565 9.839l3.568.137c1.998-.321 3.218-1.07 4.072-2.629.87-1.956-.274-3.193-1.418-4.431-2.288-2.474-4.179-4.934-5.262-7.761-2.897-7.272-2.623-14.423-.763-21.513.946-3.943 1.769-4.707 5.689-3.363 5.109 1.39 9.822 2.764 14.915 4.551 1.175.443 2.364.489 2.7 2.093-1.998.321-3.965-.152-5.933-.625-3.935-.947-7.473-1.879-11.469-1.236-1.204.351-2.79.29-3.233 1.467-.457 1.574.687 2.811 1.449 3.636 3.432 3.713 7.733 5.469 12.842 6.859 6.679 1.848 13.832 1.724 20.954 2.395 2.379.092 4.743.58 7.062 2.261 6.573 4.628 13.573 8.478 20.588 11.93.778.427 1.968.473 1.907 2.062-1.602.336-3.188.276-4.789.612-1.601.336-3.218 1.07-3.294 3.056-.076 1.987.656 3.606 2.623 4.08 1.967.473 3.92 1.344 6.314 1.038 6.756-.139 13.1.105 19.918-1.623 6.008-1.361 11.911.059 17.325 3.847-6.451 2.538-12.125 5.503-19.247 4.832-2.76-.504-5.521-1.008-8.266-1.909-4.697-1.771-6.71-1.053-9.242 2.829-.854 1.558-1.647 1.528-3.218 1.07-7.839-2.688-13.482-.518-17.34 6.894-.442 1.176-1.677 2.322-.93 3.545 1.144 1.237 2.364.488 3.569.137 3.614-1.055 6.847-2.523 10.096-4.387 2.028-1.116 4.438-1.819 6.786-.933 8.236 2.703 16.197 2.212 23.929-2.663 2.043-1.513 4.072-2.629 6.1-3.745 7.32-4.493 10.859-3.561 16.151 3.405 1.144 1.238 3.065 2.903 2.211 4.461 2.09-2.704-.259-3.59-1.845-3.651-3.95-.549-6.39.948-8.495 4.05-.854 1.559-.9 2.751.641 4.004 3.843 3.33 8.144 5.086 13.39 2.901 4.042-1.835 4.423-1.422 4.652 2.963l-.046 1.192c.58 5.592.183 5.577-5.323 4.172-13.375-3.298-26.445-4.198-40.048-1.537-2.41.704-6.375.551-9.044-2.336-4.591-4.553-10.859-6.782-16.715-9.394-1.556-.856-3.538-.932-5.125-.993-5.581.582-6.008 1.361-4.62 6.587-.016.397-.031.794.366.81 2.608 4.476 6.756 10.205 12.368 8.829 1.998-.321 3.996-.642 6.345.244-4.042 1.834-8.083 3.668-12.11 5.105-4.026 1.437-7.305 4.096-9.836 7.978-1.266 1.94-2.486 2.689-4.865 2.598-17.859-.288-34.803-3.723-50.313-13.469-.381-.412-.778-.427-1.159-.84-1.952-.87-3.172-.121-4.042 1.834-.869 1.956 1.114 2.032 2.288 2.475 7.458 2.276 14.885 5.346 22.343 7.621 5.49 1.802 11.362 4.017 17.294 4.642 3.95.55 7.931.305 13.101.105-5.384 5.762-10.325 10.346-17.508 11.264-5.994.964-11.941.736-17.859-.287-6.314-1.038-7.564.505-7.793 6.464-.152 3.973 1.388 5.226 5.384 4.583 2.806-.688 5.17-.199 8.342-.077-8.083 3.668-13.527 11.018-20.832 15.115-4.865 2.598-10.035 2.797-15.16 1.805-5.505-1.405-11.026-2.412-16.928-3.832-1.968-.474-3.95-.55-5.963.169-2.029 1.115-2.471 2.292-.961 4.339 2.288 2.475 5.018 3.774 7.763 4.675 1.967.473 4.331.961 6.283 1.832-7.259 2.904-14.153 6.618-22.373 3.518-10.569-3.986-29.068 2.068-35.397 11.771-.015.397-.412.382-.427.78-.854 1.558-1.723 3.514-.595 5.149 1.51 2.047 3.478 2.52 5.857 2.612 5.963-.169 10.05-3.195 14.168-7.016 6.573-5.716 13.131-11.034 22.967-8.667 1.19.045 2.791-.291 2.746.901.335 1.604-1.266 1.94-2.471 2.292-7.29 3.699-13.07 9.445-19.216 14.381-1.235 1.147-2.882 2.675-1.769 4.707 1.114 2.032 3.462 2.918 5.857 2.612 3.599-.658 7.213-1.713 9.714-4.8 4.545-4.6 7.931-10.04 11.316-15.48 2.12-3.499 5.002-6.174 9.044-8.008 5.261-2.583 10.523-5.166 15.769-7.352 3.233-1.467 6.832-2.125 11.652-3.531-2.517 3.484-5.018 6.571-4.743 9.764.168 5.974-2.303 8.267-7.946 10.437-8.876 3.638-17.401 8.483-25.896 12.534-6.466 2.935-12.932 5.869-17.523 11.661-2.089 2.705-2.135 3.897.977 5.608 5.444 2.993 18.224 1.097 22.373-3.518 1.25-1.544 1.281-2.338-.26-3.591-1.937-1.268-3.538-.932-4.789.612-3.4 5.837-9.333 5.212-14.884 4.999-2.776-.107-2.73-1.299-1.464-3.239 2.089-2.705 4.956-4.982 7.793-6.465 7.289-3.699 14.991-7.78 22.677-11.463 7.275-3.302 14.58-7.398 22.953-8.27 3.187-.276 6.039-2.156 8.495-4.051 3.705-3.438 7.396-6.48 10.705-9.933 5.796-6.144 11.591-12.287 13.909-20.951 2.73-9.046 10.446-13.524 17.019-19.24 1.221-.749 2.014-.718 1.953.871l-.092 2.383c-.076 1.987.259 3.591 2.212 4.462 1.952.87 3.614-1.055 4.865-2.599.427-.779.838-1.161.869-1.956 2.257-7.074 6.069-13.294 7.93-20.384.427-.779.854-1.559 1.662-1.925 4.057-2.232 8.114-4.463 12.902-5.075 1.205-.352 2.791-.291 3.523 1.328 1.098 2.43 2.715 1.696 4.347.565 2.059-1.91 4.453-2.216 7.244-2.507 2.394-.306 4.789-.612 6.802-1.33 8.037-2.477 15.479.196 22.952 2.074-6.39.948-12.444 3.501-18.102 6.069-4.042 1.834-8.037 2.476-12.369 1.515-1.571-.459-3.187.275-4.804 1.009-2.821 1.085-2.867 2.277-.976 4.737.763.825 2.334 1.283 1.891 2.459-.442 1.177-2.409.704-3.187.276-1.586-.061-2.76-.504-4.346-.565-3.188.276-6.009 1.361-6.528 4.524-.579 4.752-3.828 6.617-8.22 7.244-3.996.642-8.006 1.682-10.523 5.166-2.486 2.69-5.338 4.57-8.555 5.64-3.63 1.452-6.512 4.126-7.854 8.053-.915 3.148-2.578 5.074-5.018 6.572-4.484 3.01-8.22 7.243-10.797 12.317-.854 1.558-1.708 3.117-.168 4.37 1.525 1.65 3.081 2.505 5.475 2.199.808-.367 2.013-.718 2.822-1.085 3.66-2.247 7.259-2.905 11.605-2.34 3.157.519 5.979-.566 8.449-2.859 1.647-1.528 3.294-3.056 4.957-4.982 5.002-6.173 11.423-7.916 19.338-7.215-.824.764-1.266 1.941-2.09 2.705-.838 1.161-.869 1.956.702 2.414 3.919 1.344 7.839 2.688 11.865 1.251 2.013-.718 4.011-1.04 6.39-.948-4.941 4.584-9.821 7.58-16.181 7.734-1.586-.061-3.187.275-4.804 1.009-4.865 2.598-9.699 4.402-14.549 6.603-5.261 2.583-10.523 5.167-16.486 5.336-9.135.047-17.935 1.699-27.131 3.335-2.395.306-4.393.627-5.902-1.42-1.144-1.238-2.715-1.696-4.713-1.374-2.394.306-4.026 1.437-6.054 2.552-7.702 4.081-13.528 11.019-22.373 13.863-2.013.718-1.663 1.925-.503 2.765 1.159.84 1.128 1.635.289 2.796-4.575 5.395-9.531 10.377-16.013 13.709-10.919 5.151-21.854 10.699-33.506 14.231-4.819 1.406-8.891 4.035-11.834 8.298-2.09 2.705-4.179 5.41-6.634 7.305-1.235 1.146-2.471 2.293-1.754 4.309 1.113 2.032 2.272 2.872 4.667 2.567 2.791-.291 5.597-.979 8.037-2.477 9.715-4.799 17.523-11.661 24.599-20.143 3.325-3.851 8.114-4.463 13.36-6.648-1.723 3.514-3.386 5.44-5.429 6.953-6.116 4.141-13.39 7.443-17.996 13.632-6.695 8.894-12.627 18.613-17.767 28.362-1.266 1.941-1.738 3.912-.244 6.356 1.891 2.46 3.905 1.741 6.314 1.038 10.432-2.782 16.684-10.5 21.397-19.47 3.019-6.249 6.435-12.484 11.011-17.878 2.089-2.705 3.782-5.425 5.093-8.558 2.623-6.265 5.628-12.118 10.584-17.1 4.956-4.982 10.706-9.933 16.044-14.503 2.043-1.513 3.706-3.438 6.923-4.508-.472 1.971-1.692 2.72-2.912 3.469-9.38 6.403-15.297 15.725-21.214 25.047-1.266 1.94-1.327 3.529.183 5.577 1.51 2.047 3.096 2.108 5.109 1.389 5.247-2.186 10.142-5.579 13.863-9.414 5.384-5.762 9.623-12.76 11.895-20.232 1.83-6.296 6.39-11.293 11.667-14.274 5.689-3.362 12.78-1.896 19.536-2.035-.457 1.574-1.235 1.146-2.043 1.513-7.199 1.315-12.506 5.09-17.859 10.057-6.603 6.51-10.111 15.128-15.555 22.479-2.928 3.866-5.49 8.542-8.022 12.424-2.104 3.102-1.738 3.911 1.785 5.24 4.3 1.757 7.884 1.496 11.575-1.545 4.087-3.026 6.619-6.907 9.15-10.789 6.344-10.101 12.673-19.804 20.161-28.668 3.737-4.233 7.839-7.656 13.467-9.43 2.409-.703 4.438-1.819 6.481-3.332 2.059-1.91 4.484-3.01 7.305-4.096 6.467-2.934 13.314-5.457 19.781-8.391 3.629-1.453 7.198-1.316 10.767-1.179-2.852 1.88-5.704 3.76-8.541 5.243-7.29 3.698-14.213 8.207-19.612 14.366-5.399 6.158-9.638 13.157-15.418 18.903-.824.764-1.251 1.544-1.678 2.323-1.738 3.912-.625 5.944 3.325 6.493 4.743.58 8.784-1.254 12.078-4.311 2.883-2.674 5.78-5.746 8.266-8.435 9.913-9.964 19.43-19.943 26.658-32.398.015-.397.427-.779 1.205-.351-2.211 5.883-4.423 11.766-7.412 17.221-3.461 7.427-8.464 13.6-11.925 21.027-.427.779-1.266 1.941-.122 3.178 1.159.84 2.348.886 3.187-.275 3.294-3.057 6.954-5.304 9.471-8.788 3.797-5.822 8.357-10.819 13.664-14.594 2.867-2.277 4.957-4.982 5.887-8.527.961-4.34 2.318-8.664 3.675-12.988.031-.795 1.662-1.926.092-2.384-1.175-.443-1.617.734-2.059 1.91-.442 1.177-.885 2.353-.93 3.545-1.388 5.119-3.95 9.795-8.053 13.219-6.161 5.333-11.178 11.904-15.418 18.903-.854 1.559-2.089 2.705-3.721 3.836-.351-1.207.457-1.574.884-2.353 5.445-7.351 10.111-15.129 14.778-22.907 2.974-5.058 4.377-10.574 6.573-16.06.442-1.177 1.296-2.735-.259-3.591-2.73-1.298-1.495-2.444-.245-3.988 5.033-6.968 12.369-11.859 17.035-19.637 2.12-3.499 5.399-6.158 8.678-8.818 2.882-2.674 5.353-4.966 9.41-7.198-.473 1.971-1.297 2.735-2.135 3.897l-12.582 17.421c-3.37 5.043-5.948 10.116-6.573 16.06-.518 3.163.625 4.4 3.416 4.109 3.584-.26 6.833-2.125 8.937-5.227.824-.764 1.663-1.925.519-3.163-1.144-1.237-2.364-.488-3.6.658-1.662 1.925-3.324 3.851-4.971 5.379-.412.382-1.236 1.146-2.013.719-.778-.428-.351-1.207.076-1.987 1.372-4.721 4.316-8.985 7.244-12.851 5.444-7.35 10.873-14.304 15.159-22.494.442-1.177 1.677-2.323 1.738-3.912 21.582 79.206 74.991 136.16 139.624 138.64 48.773 1.871 93.183-27.458 124.004-75.212.64 4.004.9 7.594 2.334 11.628.701 2.414 2.638 3.682 4.575 4.95 1.555.855 3.157.519 4.01-1.04 1.297-2.735 2.197-5.486 1.51-8.297-.32-2.002-.655-3.606-.96-6.005 8.769 9.487 12.72 20.381 12.658 32.315-.076 1.986-.167 4.37.55 6.386 1.403 4.828 1.22 9.596.244 14.333-.946 3.942.518 7.181 2.79 10.053 1.892 2.46 4.652 2.964 6.727.656 5.413-6.556 9.257-13.57 7.625-22.783-.336-1.604-1.068-3.224-.61-4.798 1.967.474 3.095 2.108 4.24 3.346 2.302 2.077 3.766 5.316 6.893 6.63 3.126 1.314 4.24 3.346 4.91 6.554.275 3.194.946 6.402 3.234 8.877 3.431 3.712 4.835 8.541 5.841 13.354 1.388 5.225 2.791 10.053 4.18 15.278.67 3.209 2.165 5.654 4.453 8.128 1.525 1.65 3.065 2.903 5.078 2.185 2.41-.704 4.453-2.217 4.957-4.982.655-6.739.503-13.11-4.454-18.473-1.144-1.237-3.08-2.505-3.386-4.904 12.232 2.061 11.865 1.251 13.803 12.863-.03.795.335 1.605.29 2.796-.077 1.987.655 3.606 1.8 4.844 3.019 4.094 6.435 8.204 10.675 11.549 1.937 1.268 3.477 2.521 5.917 1.023s2.532-3.881 1.83-6.295c-2.47-8.052-5.75-15.737-13.085-21.191-1.54-1.253-1.526-1.65-.275-3.193 1.662-1.926 2.928-3.867 1.83-6.296-1.434-4.033-4.087-7.318-8.403-8.677-5.887-1.818-11.332-4.812-16.38-7.79-3.111-1.711-6.222-3.422-9.776-3.956-3.553-.534-5.46-2.597-7.336-5.454 1.205-.351 1.983.076 3.173.122 5.917 1.023 11.438 2.03 17.401 1.861 2.79-.291 5.582-.581 8.388-1.269 3.614-1.055 5.307-3.775 3.02-6.25-8.74-10.282-18.317-19.402-33.461-17.994-3.188.275-5.125-.992-5.384-4.583-.473-8.373-6.207-14.163-11.56-19.541-.763-.825-1.907-2.062-3.539-.931-1.632 1.131-.9 2.75.26 3.59 2.638 3.682 5.292 6.967 7.93 10.649 1.892 2.46 2.99 4.889 2.868 8.067-8.602-3.513-17.387-12.603-21.779-22.32-.366-.81-.29-2.796-1.906-2.062-1.602.336-.87 1.956-.915 3.147-.03.795.335 1.605.716 2.017 2.532 6.463 6.696 11.795 12.491 15.996 1.16.84 2.334 1.283 3.066 2.903-4.728-.978-9.868-1.573-12.887-5.667-3.798-4.522-10.02-7.944-9.746-15.095.015-.397-.366-.81-.747-1.222-1.907-2.062-3.798-4.522-5.704-6.585l-1.144-1.237c2.135-3.897 4.285-8.191 6.42-12.087-.015.397.382.412.366.809 1.129 1.635 2.258 3.27 2.974 5.287 2.181 5.256 6.863 7.424 11.103 10.77 1.54 1.253 2.38.091 3.233-1.467-.381-.413-.762-.825-1.128-1.635-1.525-1.65-3.05-3.3-4.59-4.553-3.463-2.918-6.101-6.599-9.151-9.899-.382-.413-1.16-.841-1.556-.856 2.592-5.47 5.185-10.941 7.396-16.824-.122 3.178.976 5.608 3.66 8.098 3.066 2.902 4.515 6.539 4.744 10.924-.092 2.384 1.022 4.416 2.135 6.448 1.86 3.254 4.286 2.153 7.092 1.465 2.41-.703 3.66-2.246 2.973-5.058-2.5-7.257-3.797-14.866-4.682-22.857-.335-1.605-1.128-1.635-1.952-.871-2.501 3.087-2.394.306-3.127-1.313-2.592-4.874-1.174-10.788-3.767-15.662-.366-.809.076-1.986 1.297-2.735 2.257 3.27 4.514 6.539 5.551 10.558.35 1.207-.107 2.78 1.891 2.459 1.586.061 3.203-.673 3.28-2.659.578-4.752 1.158-9.504-2.67-13.232-1.922-1.665-3.828-3.727-5.765-4.995-.396-.015-.381-.413-.778-.428.488-2.368 1.373-4.721 1.86-7.09.367.81 1.145 1.238 1.922 1.665 4.225 3.743 9.303 5.927 14.382 8.111 8.205 3.498 14.9 15.293 13.757 24.4-1.052 6.723-.503 13.11 2.44 19.191 1.114 2.032 1.434 4.033 1.739 6.432.519 7.181 3.05 13.644 9.639 17.876 4.27 2.551 8.296 1.114 10.065-3.593 1.77-4.706 1.952-9.473-.656-13.95-4.834-8.541-9.273-17.066-12.887-26.355-2.913-6.876-7.428-13.415-11.134-20.32-.366-.81-1.143-1.238-.716-2.017.426-.779 1.6-.337 1.997-.321 2.364.488 4.728.977 6.71 1.053 3.57.137 5.491 1.802 6.162 5.011 1.419 4.43 3.249 8.479 7.123 11.015 3.873 2.536 5.734 5.79 5.155 10.542-.519 3.163.945 6.402 1.616 9.611 1.404 4.828 1.998 10.023 1.8 15.187-.137 3.576.519 7.182 1.175 10.788.335 1.604.656 3.606 2.623 4.079 1.57.458 3.218-1.07 4.057-2.232 2.928-3.866 4.681-8.175 4.88-13.34-.168-5.974-1.526-11.994-2.898-17.616-2.029-9.229-6.086-17.342-14.23-22.429-2.318-1.68-4.636-3.36-6.116-6.202-.366-.81-1.143-1.238-.716-2.017.427-.779 1.601-.336 2.394-.306 2.76.504 5.506 1.405 8.236 2.703 8.601 3.513 16.959 13.382 15.297 25.652-1.022 5.929.35 11.552 2.516 17.205.733 1.619 1.083 2.826 1.022 4.415.885 7.991.595 15.54-1.692 23.409-.473 1.971-.55 3.957.991 5.21 1.525 1.65 3.92 1.344 5.536.61 4.438-1.819 5.765-5.348 6.33-9.703.64-6.341.472-12.316-1.282-18.351-.336-1.604-.229-4.385-2.227-4.064-1.601.337-.107 2.781.229 4.385 1.281 8.007.992 15.555-2.852 22.569-.426.779-.457 1.574-1.647 1.528-.793-.03-1.143-1.237-1.113-2.032.091-2.384.183-4.767.67-7.136.718-8.327 1.434-16.655-2.21-25.15-1.831-4.048-2.075-8.036-.321-12.345 1.921 1.665 2.653 3.284 3.767 5.316.366.81.747 1.223 1.952.871.808-.367 1.22-.749.839-1.161-1.861-3.255-.519-7.182-1.175-10.788-.335-1.604-1.815-4.446-.991-5.21 1.25-1.543 3.553.534 5.536.61 4.361.168 7.427 3.07 8.449 7.486.32 2.002.656 3.606 1.373 5.623 4.423 8.922 4.453 18.472 3.294 27.976-1.098 7.915.58 15.937 5.491 22.491 3.005 4.492 8.983 3.925 11.941-.735.87-1.956 1.327-3.53 1.815-5.899.473-12.315-3.874-23.224-8.22-34.133-1.434-4.034-3.676-7.7-4.317-11.704-.335-1.604-1.037-4.018.991-5.134 2.029-1.115 3.127 1.314 4.667 2.567 1.525 1.649 2.639 3.682 4.56 5.347 3.08 2.505 4.972 4.965 5.628 8.571-.03.794-.092 2.383 1.51 2.047 1.205-.352 1.25-1.544 1.296-2.735-.32-2.002-.64-4.004-.153-6.372 6.955 5.041 12.018 17.967 9.761 25.042-1.067-3.224-1.754-6.035-2.836-8.862-.748-1.222-.656-3.606-3.05-3.3-2.395.306-2.486 2.69-2.563 4.676-.183 4.767 1.251 8.801 3.066 13.247 2.15 6.05 3.89 12.483.458 19.115-1.281 2.338-2.456 1.895-3.584.26-1.51-2.047-2.212-4.461-2.517-6.86-.564-5.99-.32-12.346.305-18.29.03-.794.87-1.956-.305-2.399-1.174-.443-1.235 1.147-1.662 1.926-1.007 5.531-1.235 11.49-1.449 17.052-.122 3.178.565 5.99 2.456 8.449 2.257 3.27 5.033 3.376 7.93.305 1.662-1.926 2.15-4.294 3.828-6.617.961 6.005.366 11.154.153 16.716-.092 2.384-.168 4.37 1.342 6.417 3.432 3.713 4.835 8.541 4.652 13.308-.076 1.986-.168 4.37 2.181 5.256 2.348.886 3.98-.245 6.009-1.361 1.631-1.131 2.867-2.277 3.736-4.233 1.723-3.515 1.876-7.487 1.616-11.078-.137-6.769.122-13.523 1.556-19.833 1.952-9.474-.107-17.908-5.781-25.287-2.272-2.872-4.133-6.127-6.39-9.396-.381-.413-1.144-1.238-.321-2.002 1.175.443 1.937 1.268 2.7 2.093 2.593 4.874 6.878 7.028 11.575 8.799 3.127 1.314 5.43 3.391 6.909 6.233 1.846 3.652 2.883 7.67 5.964 10.176 3.065 2.902 3.355 5.698 1.632 9.213-1.327 3.53-2.654 7.059-2.395 10.65.519 7.182-.548 14.302-2.805 21.377-1.373 4.721-1.175 9.901.625 14.745.717 2.016 2.288 2.474 4.286 2.153 3.218-1.07 5.307-3.775 6.603-6.51 3.858-7.411 4.56-15.341 4.072-23.317-.244-3.988-.092-7.961-.336-11.949 2.928 6.478 5.872 12.559 9.227 18.258l-.03.794c-.168 4.37.473 8.373-.885 12.698-1.357 4.324-3.492 8.221-4.849 12.545-2.684 7.854-3.401 16.182-1.723 24.203.656 3.606 2.12 6.845 2.776 10.451.335 1.605-.137 3.576 1.83 4.049 2.364.489 3.614-1.055 5.261-2.583 1.236-1.146 1.693-2.72 2.135-3.897.885-2.353.992-5.134 1.495-7.9 1.967-9.871 1.952-19.818-.428-30.253-1.006-4.813-1.22-9.596-1.418-14.775.396.015.808-.367.808-.367 2.654 3.284 5.307 6.569 7.549 10.236 4.133 6.126 6.68 12.192 4.789 20.077-.93 3.545.123 7.166 1.587 10.405 2.531 6.463 2.699 12.437-2.272 17.816-3.325 3.851-4.301 8.588-2.913 13.813 1.068 3.224 3.401 4.507 6.268 2.23 2.059-1.91 4.118-3.82 4.636-6.983.931-3.545.686-7.533 1.235-11.491 1.465 3.239 1.754 6.035 1.648 8.816-.595 5.15-1.968 9.871-2.547 14.623-.03.795-.458 1.574.32 2.002 1.175.443 1.617-.734 1.647-1.528.946-3.943 1.891-7.885 2.44-11.842 1.48-7.503.961-14.684.854-22.248.046-1.192.122-3.178 1.708-3.117 1.19.046 1.525 1.65 1.876 2.857.335 1.604.671 3.209.214 4.782-.931 3.545-.671 7.136-.824 11.109-1.25 11.888-2.912 24.157-8.097 35.099-.87 1.955-.946 3.942 1.006 4.812 2.334 1.284 4.286 2.154 7.061 2.261 1.983.076 3.584-.261 4.85-2.201 2.547-4.279 3.126-9.031 3.309-13.799-.046-9.152 1.083-17.862 2.623-26.953.046-1.192.473-1.971 1.281-2.338 1.205-.352 1.556.855 1.937 1.268 3.065 2.902 3.325 6.493 2.776 10.451-1.022 5.928-1.251 11.887.107 17.907 1.357 6.02 4.316 11.704 9.318 15.874 1.541 1.253 3.508 1.726 5.536.611 2.014-.719 1.693-2.72 2.151-4.294.061-1.589.122-3.179-.214-4.783-.183-5.577-.366-11.154-.946-16.746 3.828 3.727 7.245 7.837 10.234 12.726 2.242 3.667 5.75 5.393 9.7 5.942 8.311.717 16.242 1.021 24.508 2.93 2.745.901 4.804-1.009 6.481-3.332.778.428.046-1.192-.671-3.209zm-281.154-227.62c7.23-2.11 14.443-3.823 21.977-3.533 3.172.121 6.39-.949 9.608-2.019 5.643-2.171 11.606-2.34 17.142-1.729 3.569.137 5.856 2.612 7.747 5.071 1.129 1.635-.091 2.384-1.296 2.735-2.821 1.086-6.405 1.346-9.212 2.034-9.989 1.606-19.963 2.815-29.952 4.421-8.388 1.269-16.654-.639-25.317-2.563 2.868-2.277 6.085-3.347 9.303-4.417zm96.92-21.346c1.174.442 2.333 1.283 2.287 2.474-.046 1.192-.854 1.559-1.647 1.529-7.992 1.284-15.525.995-23.746-2.105 8.098-4.066 15.663-4.571 23.105-1.898zm-17.036 9.292c.778.428 1.54 1.253 1.098 2.43-.442 1.176-1.616.733-2.806.688-3.965-.153-8.174-4.293-9.181-9.106 4.316 1.36 7.412 3.468 10.89 5.988zM.596 275.731c-5.627 1.773-13.482-.517-16.501-4.612 5.947.228 11.041 2.015 16.501 4.612zm-24.127-12.862c4.453-2.216 8.876-3.638 14-2.645.397.015 1.19.045 1.571.458.381.412-.03.794-.442 1.177-3.233 1.467-5.72 4.157-9.7 4.402l-4.712-1.375c-.397-.015-1.175-.443-1.16-.84-.365-.81.047-1.192.443-1.177zm-.244 6.357c1.19.045 2.364.488 2.303 2.078-.076 1.986 1.022 4.415-1.418 5.913-1.632 1.131-2.776-.107-3.523-1.329-1.907-2.062-3.005-4.492-4.88-7.349 2.76.504 5.139.596 7.518.687zm77.107-63.882c-3.37 5.043-9.836 7.978-16.959 7.307 4.56-4.997 10.57-6.358 16.96-7.307zm-34.848 7.814c2.562-4.676 6.634-7.305 11.5-9.903 1.616-.734 1.982.076 1.92 1.665-.61 5.547-6.374 10.895-12.322 10.667-1.19-.045-1.967-.473-1.098-2.429zm-27.619 16.048c5.521 1.008 10.63 2.397 16.136 3.802 1.174.443 3.157.519 2.7 2.093-.062 1.589-2.06 1.91-3.25 1.865l-1.585-.061c-8.861 3.24-14.596-2.55-21.565-7.193 2.41-.704 5.2-.994 7.564-.506zm1.767-108.149c.854-1.559 2.013-.719 3.203-.673l1.586.061 1.586.06c1.19.046 2.806-.688 3.157.519.336 1.605-1.28 2.338-2.09 2.705-1.22.749-2.82 1.086-4.025 1.437-1.205.352-2.807.688-3.554-.534-.762-.825-.305-2.399.137-3.575zm-35.244 18.142c3.553.534 6.375-.551 8.098-4.065.854-1.559 3.203-.673 3.95.549 1.083 2.827 2.974 5.286 5.277 7.364.778.428.335 1.604.305 2.399-.076 1.986-1.327 3.53-3.355 4.645-1.601.337-2.791.291-3.523-1.328-1.8-4.844-5.292-6.967-10.096-5.958-1.602.337-1.556-.855-1.922-1.665-.732-1.62.076-1.986 1.266-1.941zm-370.519 31.537c3.843 3.33 6.039 8.189 7.046 13.002-3.828-3.728-7.26-7.44-7.046-13.002zm-115.814 68.762c-3.309 3.454-6.985 6.098-11.057 8.726-1.22.749-2.425 1.101-3.584.261-1.159-.841-.305-2.399.138-3.576.442-1.176 1.296-2.735 2.501-3.087 4.453-2.216 9.287-4.02 14.122-5.824-.473 1.972-1.693 2.721-2.12 3.5zm9.211-12.378c-2.836 1.482-4.407 1.024-7.488-1.481 8.434-2.461 15.434-8.956 24.905-7.399-6.024 1.758-11.728 5.517-17.417 8.88zm15.312 14.91c-.808.367-1.25 1.544-2.424 1.101-.778-.428-.733-1.62-.687-2.812.488-2.368 1.754-4.309 3.401-5.837 2.089-2.705 4.926-4.187 7.778-6.067-1.388 5.119-3.569 10.207-8.068 13.615zm3.767-36.06c8.342-.078 16.745-1.745 24.477 3.724-7.228 2.11-19.871.431-24.477-3.724zm32.043 44.596c.716 2.017-.519 3.163-2.868 2.277-2.348-.886-3.462-2.918-3.37-5.302.107-2.781.213-5.561 1.525-8.694 3.02 4.094 3.66 8.098 4.713 11.719zm-5.705-58.306c10.965 4.001 18.591 12.251 27.467 18.957-7.915-.701-26.888-13.365-27.467-18.957zm14.733 30.006c9.501.763 18.56 2.702 27.04 9.393-10.264-1.587-20.223-.776-27.04-9.393zm19.261-15.573c10.112 5.56 13.68 16.042 18.469 25.774-8.876-6.706-11.225-17.936-18.469-25.774zm54.812 10.061c.046-1.192-.702-2.414.518-3.163 1.205-.352 1.556.855 2.334 1.283 5.414 3.788 5.597 9.365 5.384 14.927-3.02-4.094-7.26-7.44-8.236-13.047zm-21.076 21.471c2.745.901 5.49 1.802 8.22 3.1 1.174.443 2.333 1.283 1.891 2.46-.061 1.589-1.647 1.528-3.233 1.467-3.965-.152-6.634-3.039-6.878-7.027zm18.789 17.431c-3.996.642-7.976.887-11.926.338-1.586-.061-3.172-.122-4.697-1.772 5.581-.581 10.782-1.575 16.333-1.362.793.03 1.998-.321 1.952.87.336 1.605-.869 1.956-1.662 1.926zm12.109-5.105c-2.745-.902-5.094-1.787-7.412-3.468-1.159-.84-1.113-2.032-.686-2.811.854-1.559 2.043-1.513 3.233-1.467 3.965.152 7.031 3.054 6.893 6.63-.045 1.192-1.235 1.146-2.028 1.116zm-40.216 23.521c-.793-.03-1.617.734-1.983-.076-.366-.809.458-1.573 1.266-1.94 2.852-1.88 6.039-2.156 9.547-.43-2.836 1.483-5.627 1.774-8.83 2.446zm18.514-6.451c5.933.626 11.027 2.413 16.639 1.037-3.721 3.835-13.238 3.47-16.639-1.037zm-25.026 20.922c-2.394.306-4.667-2.566-4.972-4.965.076-1.986 1.647-1.528 2.837-1.482 2.364.488 5.109 1.389 7.046 2.657 2.333 1.283 4.255 2.948 6.573 4.629-3.965-.152-7.503-1.084-11.484-.839zm-129.219 86.947c-4.072 2.629-8.159 5.655-13.329 5.855-.793-.031-1.601.336-2.364-.489-.366-.81.061-1.589.885-2.353.838-1.162 2.074-2.308 2.897-3.072 6.131-4.539 13.009-7.856 20.619-9.553 2.41-.703 5.186-.597 7.519.686-6.771.536-10.95 5.946-16.227 8.926zm8.495 16.638c-.793-.03-1.601.337-1.982-.076-.366-.809.457-1.574.869-1.956 4.514-3.805 9.425-7.595 14.335-11.385-3.034 6.647-6.023 12.102-13.222 13.417zm22.022-35.758c-.778-.427-1.952-.87-1.907-2.062.046-1.192 1.647-1.528 2.441-1.498 4.377-.23 8.677 1.527 13.009 2.489 1.967.473 3.95.549 6.664 2.245-7.198 1.315-13.954 1.454-20.207-1.174zm46.515-22.086c-1.983-.076-1.526-1.65-1.876-2.857-.336-1.604.915-3.148 2.501-3.087 1.998-.321 3.584-.26 5.551.213 3.95.549 7.9 1.099 11.88.854-5.337 4.569-11.712 5.12-18.056 4.877zm12.933 14.819c-4.621 6.586-10.417 12.73-16.197 18.476-2.47 2.292-5.292 3.377-7.732 4.875-1.616.734-2.394.306-1.921-1.665.945-3.942 1.906-8.282 4.422-11.766 4.606-6.189 9.593-11.966 16.501-16.077 4.057-2.231 8.144-5.257 12.628-8.268-2.196 5.485-4.758 10.161-7.701 14.425zm21.564 7.193c-3.706 3.439-8.174 6.052-12.642 8.666 0 0-.397-.015-.809.367-1.189-.046-.762-.825-.732-1.62 2.562-4.676 6.299-8.909 11.545-11.095.808-.367 2.013-.718 2.76.504.763.825.717 2.017-.122 3.178zm-129.646 87.726c4.698-8.572 13.253-14.212 26.049-16.506-6.634 7.305-18.85 15.191-26.049 16.506zm19.034 21.419c-3.737 4.233-8.586 6.434-13.817 8.223-2.013.719-1.983-.076-1.525-1.65l.015-.397c7.259-13.249 14.122-26.513 27.558-35.148.411-.382.808-.367 2.013-.718-5.551 10.131-6.771 21.224-14.244 29.69zm44.593-44.44c3.934-9.398 11.315-15.48 18.697-21.563-4.316 8.985-9.394 17.146-18.697 21.563zm42.61-23.828c-5.353 4.967-10.721 10.331-14.93 16.535-.839 1.161-1.693 2.72-2.852 1.88-1.159-.84.488-2.369.915-3.148 3.904-8.603 10.523-15.51 18.285-21.18 1.632-1.131 3.279-2.66 6.451-2.538-2.897 3.072-4.987 5.777-7.869 8.451zm56.84-11.744c-6.649 7.702-13.283 15.007-20.695 21.884-2.059 1.91-4.499 3.408-7.305 4.096-2.013.718-2.776-.107-1.907-2.063.427-.779.443-1.176.87-1.956 7.884-8.848 14.259-19.743 24.446-26.514 4.072-2.628 8.159-5.654 12.231-8.283l.763.825c-2.562 4.676-5.094 8.557-8.403 12.011zm410.417 87.76l-.076 1.987c-.046 1.191 1.068 3.223-.534 3.56-1.616.733-2.333-1.283-3.08-2.506-.382-.412-.748-1.222-1.129-1.634-2.12-6.845-3.843-13.675-5.979-20.123.397.016.809-.366.809-.366 4.956 5.362 11.118 10.373 9.99 19.082zm28.154 11.425c-5.841-3.009-12.933-14.819-14.154-24.415 7.016 3.452 15.587 18.104 14.154 24.415zm-44.046-52.616c2.745.901 5.49 1.802 7.809 3.482 4.636 3.361 9.7 5.943 15.586 7.76 3.92 1.344 6.177 4.613 8.83 7.898.382.412.351 1.207.336 1.604-.473 1.971-.945 3.943-3.66 2.247-5.399-4.186-11.713-5.224-17.996-7.056-7.473-1.878-10.417-7.959-12.552-14.407-.717-2.017.458-1.574 1.647-1.528zm-27.07-29.287c6.68 1.848 13.786 2.916 20.924 3.19 7.93.305 14.137 4.123 19.887 9.516 2.303 2.078 4.194 4.538 6.863 7.425-20.741 2.387-35.855-7.344-50.48-19.443 1.25-1.543 2.028-1.115 2.805-.688zm-2.12 13.844c.656 3.606 2.105 7.242 2.364 10.833.564 5.989-2.028 11.46-4.606 16.533-.854 1.559-1.616.734-2.379-.091-1.876-2.857-2.165-5.653-1.266-8.404 1.388-5.119 1.586-10.283.198-15.509-1.022-4.415-.839-9.183-1.434-14.378 3.844 3.331 6.1 6.6 7.123 11.016zm-24.799-26.414c.366.809-.06 1.589-.106 2.78-.03.795-.473 1.972-1.266 1.941-1.19-.046-1.144-1.237-1.51-2.047-.35-1.207-.686-2.811-.625-4.4.122-3.179-.168-5.975-1.236-9.199-.747-1.222-.686-2.811.976-4.736 1.754 6.035 2.76 10.848 3.767 15.661zm33.884-189.672c3.996-.643 7.961-.49 11.88.854 1.953.87 5.918 1.022 5.034 3.376-.473 1.971-4.011 1.039-6.375.551-3.935-.947-7.504-1.084-11.469-1.236l-1.19-.046c.046-1.192-.305-2.399-.259-3.59.778.427 1.586.06 2.38.091zm-318.009 80.896c-2.028 1.116-4.026 1.437-5.216 1.392-2.776-.107-4.728-.977-6.268-2.23-.381-.413-1.556-.856-1.129-1.635.443-1.176 1.236-1.146 2.029-1.116 3.538.932 7.152-.123 10.675 1.206.778.427 1.968.473 1.937 1.268-.03.794-1.22.749-2.028 1.115zm-14.29 20.539c4.011-1.04 7.61-1.698 11.987-1.928-3.645 1.85-7.274 3.302-11.27 3.944-.793-.03-1.998.322-2.349-.885-.366-.81.839-1.162 1.632-1.131zm-33.155 25.782c1.678-2.323 2.578-5.074 5.826-6.938-.93 3.545-2.211 5.883-4.285 8.19-.412.382-.854 1.559-2.013.719-.382-.413.045-1.192.472-1.971zm-6.359.154c.808-.367 1.174.442.762.825-.488 2.368-2.486 2.689-4.499 3.408.016-.398-.366-.81-.366-.81.869-1.956 2.105-3.102 4.103-3.423zm-18.988 8.422c-.793-.031-2.394.306-2.745-.901-.35-1.207.854-1.559 1.281-2.338 2.501-3.087 6.146-4.937 9.746-5.594 1.204-.352 2.394-.306 1.921 1.665-.93 3.545-6.237 7.32-10.203 7.168zm12.72 10.036c-1.22.749-2.806.688-2.73-1.298.137-3.575 4.316-8.985 7.518-9.658 1.602-.336 2.395-.306 2.334 1.283-1.723 3.515-3.462 7.427-7.122 9.673zm11.148 9.579c-.396-.015-1.189-.046-1.601.336-1.189-.045-2.394.306-3.142-.916-.35-1.207.854-1.559 1.678-2.323 9.15-10.789 19.78-18.736 33.414-22.191.793.03 1.205-.352 1.998-.321l.793.03c-7.259 13.249-17.95 22.785-33.14 25.385zm52.722-38.957c-4.835 1.804-8.922 4.83-13.024 8.254-1.632 1.131-3.264 2.262-5.246 2.185-10.356.797-19.628 4.419-27.818 10.869-2.455 1.895-5.322 4.172-8.586 6.434 1.342-3.927 1.845-6.693 4.712-8.97 6.528-4.524 13.452-9.032 19.613-14.366 3.294-3.056 4.987-5.777 3.553-9.81-.351-1.207-.32-2.002 1.281-2.338 3.615-1.055 6.848-2.522 10.432-2.783 5.566-.184 10.035-2.798 14.503-5.411 1.22-.749 1.647-1.528 2.471-2.292.976 5.607 2.349 11.23 3.721 16.852-1.159-.84-3.584.261-5.612 1.376zm146.456 136.515c-84.855-3.256-150.482-104.045-145.848-224.816 4.634-120.771 77.395-216.25 162.647-212.978C-98.356 18.896-32.73 119.686-37.364 240.457c-4.634 120.77-77.791 216.234-162.647 212.978zM-3.826 339.219c2.12 6.845 5.46 12.941 7.992 19.403 1.8 4.844 2.791 10.054 2.593 15.219-.03.794-.076 1.986-.884 2.353-1.22.749-1.968-.474-2.745-.901-4.225-3.743-5.628-8.571-6.223-13.766-.336-1.605.107-2.781-.64-4.003-4.485-7.334-4.973-15.31-4.653-23.653.046-1.191.077-1.986-.244-3.987 1.861 3.254 3.737 6.111 4.804 9.335zm26.827 4.61c2.455 8.449 4.91 16.898 4.18 25.623-.108 2.781-1.389 5.119-3.86 7.411-1.494-12.789-.58-26.281-5.658-38.809 3.126 1.313 4.636 3.361 5.338 5.775zm42.337 14.356c3.294 7.287 7 14.193 8.281 22.2.64 4.003.504 7.578-.838 11.505-.458 1.574-.93 3.545-2.517 3.484-1.586-.06-2.318-1.68-3.05-3.299-2.212-4.462-3.615-9.29-3.813-14.47.244-6.356 1.677-12.667 1.937-19.42zm43.099 25.525c2.547 6.065 3.096 12.452 2.852 18.809-.656 6.738-.503 13.11-1.159 19.848-.106 2.781-.625 5.944-2.699 8.251l.122-3.178c.214-5.562-1.205-9.992-6.665-12.589-2.333-1.283-3.858-2.933-2.959-5.684 1.465-7.105.93-13.889 0-20.688-.915-7.197 1.342-14.272 2.028-21.805 2.562 5.669 5.521 11.352 8.48 17.036zm28.672 49.639c-.533 3.56-1.845 6.692-3.949 9.795-1.251 1.543-2.044 1.513-2.761-.504-1.433-4.034-1.678-8.022-.732-11.964 2.257-7.075 3.736-14.577 5.597-21.668.884-2.353.991-5.134.289-7.548-.335-1.604-.671-3.208.58-4.752 2.211 4.462 2.425 9.244 2.242 14.011.107 7.564-.183 15.112-1.266 22.63zm14.276 52.269c-.412.382-.442 1.177-1.235 1.146-.793-.03-.763-.825-.732-1.619-1.541-11.597-3.463-23.607.563-35.388.443-1.177.473-1.971.915-3.148 1.449 3.636 1.312 7.212 1.556 11.2.504 7.578.626 14.745.733 22.308-.473 1.971-.946 3.942-1.8 5.501zm17.631 16.591c-1.846-3.652-1.648-8.816.838-11.506 1.251-1.543 1.998-.321 2.349.886 1.479 2.842.107 7.563-3.187 10.62zm20.405 16.697c-.488 2.368-.96 4.34-2.989 5.455-2.028 1.116-3.202.673-3.111-1.71l.031-.795c1.037-6.326 3.263-12.606 3.904-18.947.991 5.21 3.172 10.466 2.165 15.997zm6.984-57.819c-9.455-1.954-15.983-7.775-20.833-15.918-2.989-4.889-6.375-9.793-9.364-14.682.015-.398.412-.382.427-.78 2.715 1.696 5.018 3.774 7.732 5.469 4.652 2.964 9.715 5.545 14.382 8.111 5.063 2.582 7.656 7.455 10.264 11.932.366.81.717 2.017.275 3.193.305 2.399-.519 3.163-2.883 2.675zm17.22 68.694c-7.29-6.645-8.877-17.05-6.055-28.48 2.669 2.887 6.726 21.345 6.055 28.48zm-2.502-38.29c5.811 3.804 11.636 7.21 17.051 10.998-.016.398-.412.382-.427.78-8.724-.335-15.694-4.979-16.624-11.778zm51.899 34.218c-8.235-2.703-16.974-2.641-25.667-3.77-1.983-.076-3.538-.932-5.094-1.787-4.621-3.758-8.022-8.265-11.408-13.169 4.331.962 8.678 1.526 12.582 3.268 4.286 2.153 8.602 3.512 12.918 4.872 1.967.473 3.935.946 5.932.625 4.408-1.024 11.728 4.827 11.942 9.609.366.81-.412.382-1.205.352z" fill="#BF9475" fill-opacity=".1"/><path d="M-729.304 914.525c2.106-3.515 4.588-6.566 7.447-9.153 1.232-1.301 2.859-2.587 4.399-1.629 2.704 1.452 5.1.645 7.496-.162 4.006-1.644 7.994-2.839 11.999-4.484 2.003-.822 3.218-1.674 2.911-3.933.069-1.795-.239-4.055 2.14-4.413 5.152-.701 7.292-5.114 8.663-10.005.445-1.331.908-3.112 2.106-3.515 1.592-.388 2.327.988 3.063 2.365 1.095 2.289 1.899 1.871 3.902 1.048 4.005-1.644 8.028-3.737 11.691-6.742 1.626-1.286 2.842-2.139 2.945-4.832-1.968-.075-3.183.777-4.775 1.166-1.609.837-2.756-.106-3.491-1.483-.719-1.825.873-2.214 1.695-3.081 2.431-1.705 5.238-2.945 7.309-5.563 1.25-1.75 2.5-3.499.618-5.819-2.601-4.145-2.497-6.838.037-11.235 4.194-6.581 9.142-12.235 15.578-15.583 2.807-1.241 5.649-3.379 8.08-5.084 6.077-4.262 11.042-10.364 17.101-14.176 6.882-4.68 12.223-10.319 16.469-18.246 3.391-6.163 7.945-11.831 9.795-18.951 1.815-6.223 5.565-11.473 8.544-17.202.857-1.765 2.466-2.602 4.04-2.542 4.689 1.079 7.925-1.044 11.212-4.514 5.769-6.52 12.633-10.751 20.268-14.504 4.022-2.093 8.01-3.288 11.263-5.86 8.148-6.879 17.323-9.673 26.874-12.004 2.002-.822 4.364-.731 6.709-.192 9.378 2.158 17.372-.681 25.11-7.127 1.626-1.286 3.646-2.556 5.272-3.843 8.473-5.068 16.878-8.341 26.325-7.979 5.118.197 10.646-.041 15.798-.742 4.347-.283 8.746-1.912 12.769-4.005-3.92-.6-8.233-1.215-12.221-.019-6.384 2.002-13.059 1.297-19.306-.291-2.738-.555-5.459-1.558-7.804-2.098-5.853-1.573-11.809-.453-17.714-.679-5.511-.212-10.594-1.306-14.752-5.96-2.652-2.799-3.626-8.23-1.966-10.413 2.894-3.485 5.77-6.521 10.511-6.789 6.709-.192 12.973.948 18.757 4.316 3.098 1.467 6.212 2.486 9.362 2.606 14.119 1.891 28.187 5.127 40.867 13.704 1.147.943 2.704 1.452 4.262 1.962.77.479 1.557.509 2.327.988-1.555-10.847-2.305-22.113-2.662-33.363-2.534 4.397-5.445 8.331-8.749 12.249-4.126 4.786-7.223 3.319-8.163-3.01.034-.897-.325-1.81-.667-3.171l-2.465 2.602c-6.163 6.505-8.148 6.879-15.062 2.119-.376-.464-1.146-.943-1.54-.958-1.934-.974-3.457-2.38-3.336-5.522.12-3.142 2.517-3.949 4.502-4.322 3.971-.747 7.942-1.493 11.536-2.704.788.031 1.592-.388 1.627-1.286.017-.448-.753-.927-1.13-1.391-2.686-1.901-4.979-3.787-8.077-5.254-4.261-1.962-8.574-2.577-12.631.414-3.252 2.572-6.453 3.797-10.013 4.11-1.986.374-3.201 1.226-4.468 3.425-2.551 4.846-5.103 9.692-11.008 9.466-1.574-.061-3.594 1.21-4.295-1.064-1.095-2.29-.222-4.503.635-6.268 1.267-2.199 2.893-3.485 4.554-5.669-1.917-1.422-3.868-1.946-5.101-.645-3.663 3.006-8.028 3.737-11.656 5.845-2.003.822-3.253 2.572-3.733 4.801-.497 2.678-1.37 4.892-2.261 7.555-1.301 3.096-3.749 5.249-6.898 5.128-3.543-.135-5.819-2.47-6.451-6.54-.308-2.259-1.506-1.855-3.098-1.467-7.172 1.972-12.444 5.815-15.116 13.803-.89 2.663-2.568 5.295-3.853 7.943-.856 1.765-2.482 3.051-4.433 2.526-1.951-.524-1.865-2.768-1.796-4.563.189-4.937 2.313-8.901 5.582-11.922 4.109-4.337 8.235-9.123 15.013-11.11-2.721-1.003-4.655-1.976-6.606-2.501-1.934-.973-3.08-1.916-2.977-4.609.086-2.244.566-4.472 2.586-5.743.804-.419 2.003-.822 3.201-1.226 6.761-1.538 13.024-.399 19.734-.591 1.574.06 3.525.585 4.655 1.976 2.652 2.799 5.801 2.92 9.019 1.245 3.201-1.225 6.453-3.797 9.209-3.692 8.232 1.215 15.884-2.986 23.808-4.03.787.03 1.592-.389 3.184-.777-5.836-2.022-10.508-3.549-15.677-2.399-.788-.031-1.609.837-1.968-.076-.36-.913-.308-2.259.12-3.142 2.089-3.066 4.879-3.858 7.994-2.839 2.344.539 4.654 1.976 6.965 3.413 5.39 3.354 11.209 5.824 17.524 5.617 5.529-.237 11.091-1.372 16.14.619l1.968.076c3.201-1.226 5.922-.222 8.181 2.561 1.129 1.392 2.669 2.35 4.209 3.308.377.464 1.147.943 1.523 1.407-.118-7.196-.236-14.392.057-22.022-3.664 3.006-7.738 6.445-11.401 9.451-2.842 2.138-4.365.731-4.227-2.859.549-4.024 1.85-7.121 5.068-8.795 2.807-1.241 5.597-2.033 8.387-2.825.788.031 2.003-.822 2.379-.358l.138-3.59c-.787-.03-1.557-.509-2.327-.988-3.833-2.844-8.129-3.908-12.494-3.177-3.971.747-7.617 3.304-10.869 5.876-2.842 2.138-6.008 2.466-9.14 1.896-2.345-.539-4.279-1.512-6.641-1.603-3.149-.121-4.209-3.308-2.908-6.404 1.695-3.081 3.733-4.801 6.916-5.578 2.003-.822 4.382-1.18 6.367-1.553-.735-1.377-1.899-1.871-2.686-1.901-5.819-2.471-12.048-4.508-18.295-6.096-5.083-1.094-9.413-1.26-13.864 1.716-1.609.837-3.201 1.225-4.81 2.062-.804.419-2.379.359-2.037 1.72.342 1.362 1.54.958 2.704 1.452 1.557.51 4.399-1.629 4.296 1.064-.086 2.244-2.825 1.69-4.81 2.063l-.394-.015c-1.985.373-3.919-.6-4.62-2.874-.701-2.275-.222-4.504 1.405-5.79 1.232-1.301 2.448-2.153 4.485-3.873-1.934-.973-3.491-1.482-5.049-1.991-3.114-1.019-5.801-2.92-7.272-5.673-2.943-5.506-4.67-11.865-9.632-16.101-.753-.928-.702-2.274-.256-3.605.821-.868 1.574.06 2.344.539 3.474 1.931 6.537 4.296 10.457 4.896 3.919.6 7.393 2.531 10.404 6.242 1.506 1.856 3.422 3.278 5.698 5.612-.325-1.81-.307-2.259-.29-2.708.017-.448-.342-1.361-.325-1.81-.29-2.708.224-5.834 2.637-7.09 2.02-1.271 4.365-.732 6.282.69 5.356 4.251 8.692 9.773 9.991 17.014.649 3.621 1.779 5.012 5.287 6.046 6.247 1.588 12.87 3.64 19.099 5.677 7.394 2.531 14.376 5.496 20.878 10.689 0 0 .394.016.377.464.738-8.961 1.476-17.922 2.608-26.868l-1.181-.045c-2.756-.106-5.152.701-7.925 1.044-3.953.298-7.976 2.391-11.433.011-2.686-1.901-5.39-3.353-8.488-4.82-2.721-1.004-2.258-2.784-.615-4.519.822-.867 1.626-1.286 2.431-1.704 5.255-3.394 10.835-4.978 17.099-3.839 3.132.57 6.709-.192 9.807 1.275.77.479 1.557.51 1.916 1.422.463-1.78.514-3.126.977-4.906-.394-.015-.376-.464-.77-.479-5.356-4.251-10.301-8.935-13.586-15.804-1.83-3.666-4.465-6.913-7.511-9.727-3.046-2.813-6.161-3.832-10.132-3.085-4.364.731-9.14 1.896-13.795-.08-1.557-.509-2.361-.091-3.594 1.21-2.893 3.485-6.18 6.955-9.484 10.873-4.948 5.654-13.284 7.132-19.461 3.748-3.081-1.916-3.423-3.277-1.71-6.807 2.585-5.744 7.43-8.705 11.898-12.129 2.841-2.138 5.511.211 8.266.317.788.03 2.379-.358 2.31 1.437-.068 1.795-1.643 1.735-2.413 1.256-6.247-1.588-11.126 2.27-15.611 6.143-1.215.852-2.824 1.69-2.499 3.5.324 1.81 2.31 1.437 3.491 1.482 1.181.046 2.362.091 3.132.57 7.873.302 13.487-2.179 17.682-8.76.411-.434.428-.883.462-1.781-.597-4.967.224-5.834 4.52-4.77 6.247 1.588 12.1 3.161 18.484 1.158 3.201-1.225 6.316-.207 8.985 2.143 8.813 6.631 15.161 15.864 22.313 24.678 2.93-14.72 6.219-28.527 10.672-41.841-.376-.463-.735-1.376-1.146-.942-3.167.328-6.623-2.052-9.157 2.345-3.767 5.699-10.304 1.403-11.313-3.131-.684-2.723-.563-5.865.327-8.527.874-2.214.138-3.591-1.796-4.564-3.491-1.482-5.356-4.251-5.971-8.769-.256-3.605-2.566-5.042-5.732-4.714-3.56.312-7.086-.272-10.183-1.74-3.885-1.497-4.569-4.22-2.446-8.184 1.267-2.199 2.893-3.485 4.913-4.756 4.416-2.077 9.089-.55 13.795.08 1.575.061 2.704 1.452 2.224 3.681-.514 3.127.598 4.968 3.336 5.522 1.181.045 2.739.555 3.474 1.931 1.472 2.753 3.816 3.293 5.802 2.92l1.968.075c.787.03 2.327.988 2.79-.792.428-.882-.308-2.259-1.06-3.187-.736-1.376-1.883-2.319-3.012-3.711-.753-.928-.701-2.274-.256-3.606.428-.882 1.25-1.749 2.431-1.704 3.919.6 7.838 1.2 10.473 4.447 2.653 2.799 5.305 5.597 7.546 8.829 1.523 1.407 1.831 3.666 1.368 5.446-.034.898-.445 1.332-.48 2.229 29.713-75.719 82.885-125.817 141.932-123.551 86.602 3.323 152.349 118.662 147.028 257.344-.672 17.503-2.507 34.513-5.113 51.043 2.945-4.831 3.957-10.635 4.985-16.888.566-4.473 1.919-8.916 2.878-13.374.48-2.229 2.09-3.066 4.023-2.093 1.951.524 1.489 2.304 1.026 4.085-.463 1.78-1.302 3.096-2.14 4.412-2.5 3.5-2.655 7.539-2.827 12.027 1.198-.403 1.626-1.286 2.43-1.704 4.075-3.44 5.873-9.214 9.57-13.117 6.147-6.057 8.801-13.596 8.752-22.587l.103-2.693c.414-10.771 6.2-17.741 12.363-24.246 1.644-1.735 3.201-1.226 3.492 1.482.324 1.81.238 4.054 1.35 5.895 1.61-.837 1.66-2.184 2.5-3.5l12.946-29.168c1.747-4.428 4.264-8.377 7.533-11.397 2.448-2.154 6.813-2.885 8.319-1.03 2.258 2.784.974 5.431-.31 8.079-2.158 4.861-5.462 8.78-9.143 12.234-4.485 3.873-7.824 8.689-10.016 14.448-3.048 7.524-6.883 15.018-11.866 21.569-.41.434-1.215.852-.462 1.78 8.763-2.36 17.648-7.863 23.793-13.919 2.465-2.602 4.827-2.512 7.548-1.509.77.48 1.54.959 1.113 1.841-.908 3.111-2.945 4.831-5.718 5.174-.787-.03-1.968-.075-2.79.792-3.732 4.801-8.919 6.4-14.105 7.999-7.189 2.421-13.3 7.58-18.642 13.218-1.643 1.735-2.482 3.051.65 3.621 1.164.494 2.738.554 3.474 1.931 2.96 5.058 5.767 3.817 9.447.362 2.466-2.602 6.796-2.436 9.997-3.661 1.591-.389 2.824-1.69 4.33.166 1.129 1.392 1.06 3.187.597 4.967-.427.883-.873 2.214.29 2.708.77.479 1.593-.388 2.02-1.271 2.483-3.051 4.195-6.581 5.138-10.59 2.26-7.554 6.456-14.135 11.78-19.325 4.485-3.873 7.806-8.24 10.768-13.52 1.267-2.199 2.534-4.397 4.572-6.117 1.626-1.286 3.218-1.675 5.151-.701 1.934.973 1.472 2.753 1.403 4.548-.514 3.127-1.029 6.253-3.1 8.87-.411.434-1.233 1.302-.48 2.229 4.862-3.409 10.1-6.354 14.602-10.676 4.896-4.307 10.459-5.442 16.38-5.664 3.543.136 4.245 2.41 2.926 5.955-1.712 3.53-4.571 6.117-7.772 7.343-7.617 3.304-13.815 10.707-22.15 12.185-.394-.015-.411.433-.822.867 7.976-2.391 15.884-2.986 23.518-6.738 6.025-2.916 12.427-5.367 19.119-5.11 4.33.166 8.677-.116 12.99.499 1.968.075 4.296 1.063 4.586 3.771.308 2.259-2.071 2.618-3.287 3.47-4.057 2.99-9.209 3.692-13.608 5.321 2.328.988 5.014 2.889 7.376 2.98 10.629.407 19.493 5.692 28.323 11.874.77.479 1.934.973 1.865 2.768-.051 1.346-1.267 2.199-2.071 2.617l-6.008 2.467c1.112 1.84 2.67 2.349 4.227 2.859 3.114 1.018 6.212 2.485 9.292 4.401 7.735 3.893 12.028 15.294 9.699 24.644-.926 3.56-1.73 3.979-4.4 1.629-1.899-1.871-3.815-3.293-5.732-4.715-6.896-5.208-12.953-11.733-16.17-20.397-2.154-5.476-5.148-9.636-9.769-12.51-3.85-2.395-7.683-5.239-12.732-7.231 1.471 2.753 2.994 4.16 4.91 5.582 5.733 4.715 7.871 10.64 7.168 18.703-.07 1.796-.173 4.489-2.175 5.311-2.003.822-3.526-.585-4.655-1.977-4.552-4.669-7.494-10.176-9.598-16.998-1.402-4.549-3.198-9.113-5.388-13.691-2.96-5.058-6.416-7.438-11.55-7.186-1.97-.075-2.774.344-2.073 2.618 1.06 3.187 1.728 6.359 2.412 9.082 1.043 3.635 1.316 6.792-.003 10.337-1.336 3.994-1.508 8.482-1.27 12.537.495 7.66-1.576 10.277-8.286 10.469l-3.542-.136c-1.951-.524-3.098-1.467-3.816-3.293-.701-2.274.531-3.575 1.764-4.876 2.465-2.602 4.537-5.22 5.838-8.316 3.46-7.958 3.77-16.036 2.505-24.175-.616-4.518-1.368-5.446-5.357-4.251-5.169 1.15-9.944 2.315-15.13 3.914-1.199.404-2.38.358-2.842 2.139 1.951.524 3.937.151 5.922-.223 3.97-.746 7.548-1.508 11.45-.459 1.164.494 2.739.554 3.08 1.916.325 1.81-.907 3.111-1.73 3.979-3.697 3.903-8.096 5.532-13.265 6.682-6.76 1.539-13.83.818-20.932.995-2.362-.091-4.741.267-7.172 1.972-6.881 4.68-14.122 8.447-21.345 11.766-.805.419-1.986.373-2.055 2.169 1.558.509 3.132.569 4.69 1.078 1.557.51 3.097 1.468 3.011 3.712-.086 2.244-.942 4.009-2.928 4.382-1.985.373-3.988 1.195-6.333.656-6.674-.706-12.973-.947-19.579-3.448-5.835-2.022-11.792-.902-17.458 2.926 6.178 3.383 11.551 7.185 18.654 7.008 2.773-.343 5.546-.686 8.336-1.478 4.792-1.614 6.726-.641 8.916 3.938.718 1.825 1.505 1.856 3.097 1.467 7.977-2.391 13.384.514 16.6 9.177.342 1.362 1.471 2.753.632 4.07-1.233 1.301-2.379.358-3.543-.136-3.49-1.483-6.571-3.399-9.634-5.764-1.917-1.422-4.244-2.41-6.64-1.603-8.37 2.376-16.209 1.176-23.464-4.945-1.9-1.871-3.816-3.293-5.733-4.715-6.879-5.658-10.456-4.896-16.26 2.522-1.233 1.301-3.27 3.021-2.551 4.847-1.848-3.218.548-4.025 2.123-3.964 3.954-.298 6.247 1.588 8.077 5.254.718 1.825.667 3.172-.96 4.458-4.074 3.439-8.473 5.068-13.487 2.179-3.85-2.395-4.261-1.961-4.844 2.96l-.052 1.347c-1.028 6.253-.634 6.268 4.928 5.133 13.505-2.628 26.512-2.578 39.759 1.526 2.327.988 6.264 1.139 9.14-1.897 4.913-4.756 11.297-6.758 17.305-9.224 1.61-.837 3.578-.762 5.152-.701 5.477 1.109 5.836 2.021 4.038 7.795-.018.449-.035.898-.429.883-2.945 4.831-7.516 10.948-12.958 8.942-1.95-.525-3.902-1.049-6.298-.242 3.85 2.395 7.7 4.79 11.568 6.736 3.868 1.947 6.896 5.209 9.086 9.788 1.095 2.289 2.241 3.232 4.603 3.323 17.697 1.128 34.745-1.364 50.886-11.082.411-.434.805-.419 1.216-.853 2.002-.822 3.149.121 3.85 2.395.701 2.275-1.267 2.199-2.465 2.603-7.565 1.957-15.165 4.811-22.73 6.768-5.58 1.584-11.571 3.602-17.493 3.824-3.954.298-7.873-.302-12.973-.947 4.859 6.928 9.376 12.495 16.41 14.113 5.853 1.573 11.757 1.8 17.697 1.129 6.332-.656 7.444 1.184 7.186 7.917-.172 4.488-1.798 5.774-5.7 4.725-2.721-1.003-5.1-.645-8.25-.766 7.701 4.79 12.491 13.514 19.387 18.723 4.604 3.323 9.704 3.968 14.856 3.266 5.562-1.135 11.108-1.821 17.064-2.94 1.986-.374 3.954-.298 5.888.675 1.916 1.422 2.258 2.783.598 4.967-2.466 2.602-5.273 3.843-8.063 4.635-1.985.373-4.364.731-6.367 1.553 6.948 3.863 13.468 8.607 21.855 5.783 10.783-3.631 28.598 4.693 34.072 16.14-.017.449.377.464.36.913.718 1.825 1.419 4.099.169 5.849-1.66 2.184-3.646 2.557-6.008 2.467-5.887-.676-9.686-4.417-13.45-9.057-6.04-6.973-12.097-13.498-22.025-11.632-1.18-.045-2.738-.554-2.79.792-.462 1.78 1.095 2.289 2.259 2.783 6.913 4.76 12.166 11.704 17.847 17.765 1.13 1.392 2.635 3.247 1.368 5.446-1.267 2.199-3.663 3.006-6.008 2.466-3.509-1.033-7-2.515-9.224-6.196-4.123-5.552-7.031-11.956-9.94-18.361-1.813-4.114-4.448-7.362-8.298-9.757-4.997-3.338-9.994-6.676-15.008-9.565-3.08-1.916-6.589-2.95-11.243-4.926 2.207 4.13 4.43 7.811 3.9 11.386-.653 6.717 1.606 9.501 7.014 12.405 8.488 4.82 16.53 10.972 24.608 16.226 6.16 3.832 12.32 7.664 16.392 14.563 1.848 3.217 1.796 4.563-1.422 6.238-5.631 2.93-18.125-.246-21.854-5.783-1.112-1.841-1.078-2.738.548-4.024 2.02-1.271 3.578-.762 4.69 1.079 2.89 6.853 8.812 6.63 14.323 6.842 2.756.105 2.808-1.241 1.713-3.53-1.848-3.218-4.5-6.016-7.187-7.917-6.913-4.76-14.203-9.984-21.51-14.759-6.93-4.311-13.827-9.52-22.042-11.183-3.132-.57-5.801-2.92-8.077-5.255-3.388-4.175-6.793-7.901-9.787-12.061C5.415 784.054.18 776.662-1.41 766.713c-1.966-10.414-9.24-16.086-15.28-23.06-1.146-.943-1.933-.973-2.002.822l-.103 2.693c-.086 2.244-.549 4.024-2.551 4.846-2.003.822-3.492-1.482-4.604-3.323-.359-.912-.735-1.376-.7-2.274-1.66-8.154-4.926-15.471-6.191-23.61-.36-.913-.718-1.825-1.488-2.304-3.834-2.844-7.667-5.688-12.356-6.767-1.164-.494-2.738-.554-3.595 1.211-1.284 2.647-2.824 1.689-4.347.282-1.882-2.319-4.227-2.859-6.965-3.413-2.345-.54-4.69-1.079-6.623-2.052-7.752-3.444-15.335-1.038-22.883.47 6.246 1.588 12.03 4.956 17.421 8.309 3.85 2.396 7.752 3.444 12.117 2.713 1.592-.389 3.132.569 4.672 1.527 2.704 1.453 2.652 2.799.58 5.416-.821.868-2.413 1.256-2.07 2.618.341 1.361 2.327.988 3.131.569 1.575.061 2.773-.343 4.348-.282 3.132.569 5.835 2.021 6.091 5.627.187 5.401 3.25 7.766 7.546 8.829 3.902 1.049 7.787 2.547 9.994 6.676 2.241 3.233 4.91 5.582 8.008 7.05 3.474 1.931 6.109 5.178 7.118 9.712.65 3.62 2.138 5.925 4.43 7.811 4.193 3.756 7.546 8.829 9.684 14.754.719 1.826 1.437 3.651-.19 4.937-1.643 1.735-3.252 2.572-5.596 2.033-.77-.479-1.934-.973-2.704-1.452-3.44-2.829-6.948-3.863-11.295-3.58-3.167.328-5.87-1.124-8.13-3.908-1.505-1.855-3.01-3.711-4.499-6.016-4.448-7.362-10.66-9.847-18.55-9.701.752.928 1.094 2.29 1.847 3.217.736 1.377.701 2.275-.89 2.663-3.989 1.195-7.977 2.391-11.845.445-1.933-.974-3.884-1.498-6.246-1.589 4.517 5.567 9.103 9.339 15.384 10.03 1.575.06 3.132.569 4.672 1.527 4.603 3.323 9.241 5.749 13.861 8.623 4.997 3.338 9.994 6.676 15.882 7.351 9.036.796 17.61 3.373 26.578 5.964 2.345.539 4.296 1.064 5.957-1.12 1.232-1.301 2.824-1.689 4.775-1.165 2.345.539 3.868 1.946 5.784 3.368 7.29 5.224 12.491 13.514 21.014 17.437 1.933.973 1.488 2.304.273 3.157-1.216.852-1.25 1.75-.514 3.126 4.089 6.45 8.589 12.465 14.732 16.746 10.387 6.691 20.757 13.831 32 18.757 4.656 1.977 8.472 5.27 11.038 10.312 1.848 3.217 3.695 6.435 5.971 8.769 1.129 1.392 2.259 2.784 1.385 4.998-1.267 2.198-2.482 3.051-4.827 2.511-2.738-.554-5.459-1.558-7.752-3.444-9.224-6.197-16.393-14.562-22.706-24.693-2.977-4.609-7.667-5.687-12.68-8.577 1.419 4.1 2.907 6.405 4.807 8.275 5.715 5.164 12.645 9.475 16.7 16.822 5.902 10.564 10.983 21.996 15.276 33.397 1.095 2.29 1.403 4.549-.275 7.181-2.072 2.618-4.006 1.644-6.333.656-10.097-3.983-15.657-13.186-19.592-23.674-2.48-7.287-5.353-14.589-9.442-21.038-1.848-3.217-3.302-6.42-4.345-10.055-2.087-7.272-4.584-14.11-9.084-20.125-4.5-6.016-9.787-12.062-14.697-17.644-1.9-1.871-3.388-4.175-6.486-5.643.308 2.259 1.454 3.202 2.6 4.145 8.762 7.977 13.86 18.96 18.957 29.943 1.095 2.289 1.026 4.085-.634 6.268-1.661 2.184-3.236 2.124-5.17 1.15-5.014-2.889-9.582-7.109-12.953-11.733-4.859-6.929-8.485-15.158-10.127-23.761-1.299-7.242-5.405-13.242-10.384-17.029-5.357-4.251-12.494-3.176-19.169-3.882.325 1.81 1.13 1.392 1.9 1.871 7.017 2.067 11.962 6.751 16.855 12.782 6.006 7.872 8.776 17.866 13.566 26.59 2.584 4.594 4.739 10.07 6.929 14.649 1.83 3.666 1.402 4.548-2.192 5.759-4.4 1.629-7.925 1.044-11.33-2.682-3.799-3.742-5.989-8.32-8.178-12.899C6.444 849.716.97 838.269-5.72 827.675c-3.354-5.073-7.136-9.263-12.56-11.719-2.328-.988-4.245-2.41-6.144-4.281-1.882-2.319-4.193-3.756-6.896-5.208-6.16-3.832-12.732-7.231-18.893-11.063-3.474-1.931-7.017-2.067-10.56-2.203 2.67 2.35 5.34 4.699 8.026 6.6 6.913 4.76 13.399 10.403 18.24 17.78 4.843 7.377 8.469 15.607 13.722 22.551.753.927 1.112 1.84 1.471 2.753 1.402 4.548.135 6.747-3.818 7.045-4.741.267-8.592-2.128-11.603-5.839-2.635-3.247-5.253-6.944-7.494-10.176-9-12.031-17.606-24.048-23.747-38.666.017-.449-.36-.913-1.164-.495 1.71 6.808 3.42 13.616 5.934 20.005 2.822 8.648 7.27 16.01 10.093 24.658.359.913 1.095 2.29-.138 3.591-1.215.852-2.396.807-3.132-.57-3.011-3.711-6.45-6.54-8.658-10.67-3.284-6.868-7.39-12.869-12.336-17.553-2.652-2.799-4.5-6.016-5.132-10.085-.598-4.967-1.59-9.95-2.58-14.932.034-.897-1.49-2.304.102-2.693 1.199-.403 1.54.958 1.883 2.32.342 1.362.684 2.723.632 4.069.957 5.88 3.112 11.357 6.894 15.547 5.663 6.51 10.094 14.321 13.72 22.55.72 1.826 1.849 3.218 3.371 4.624.446-1.331-.324-1.81-.684-2.723-4.79-8.723-8.775-17.866-12.761-27.008-2.532-5.94-3.472-12.269-5.199-18.628-.342-1.361-1.06-3.187.549-4.024 2.807-1.241 1.678-2.632.566-4.473-4.414-8.26-11.276-14.366-15.262-23.508-1.813-4.115-4.841-7.378-7.87-10.64-2.635-3.247-4.894-6.031-8.727-8.875.308 2.259 1.061 3.187 1.796 4.564l11.035 20.649c2.925 5.956 5.063 11.881 5.198 18.628.256 3.606-.976 4.907-3.715 4.352-3.525-.585-6.588-2.95-8.419-6.616-.753-.927-1.488-2.304-.256-3.605 1.233-1.301 2.38-.358 3.509 1.033 1.488 2.305 2.977 4.609 4.482 6.465.377.464 1.13 1.392 1.934.973.805-.418.445-1.331.086-2.244-.974-5.431-3.54-10.473-6.123-15.067-4.791-8.724-9.598-16.999-13.173-26.575-.342-1.361-1.471-2.753-1.402-4.548-27.799 87.478-85.286 147.299-149.451 144.837-48.418-1.858-89.982-38.511-116.6-94.817-.96 4.458-1.509 8.482-3.255 12.91-.891 2.662-2.911 3.933-4.931 5.204-1.609.837-3.166.328-3.885-1.497-1.06-3.187-1.727-6.359-.819-9.471.48-2.229.942-4.009 1.439-6.687-9.45 9.976-14.245 21.927-15.155 35.376-.086 2.244-.189 4.937-1.063 7.151-1.781 5.325-1.988 10.711-1.407 16.127.615 4.518-1.097 8.048-3.58 11.099-2.071 2.618-4.844 2.961-6.709.192-4.825-7.826-8.058-16.04-5.693-26.287.462-1.78 1.319-3.545.994-5.356-1.986.374-3.236 2.123-4.468 3.425-2.448 2.153-4.16 5.683-7.361 6.909-3.201 1.225-4.468 3.424-5.393 6.984-.532 3.576-1.457 7.136-3.922 9.738-3.698 3.903-5.479 9.229-6.867 14.569-1.798 5.774-3.579 11.099-5.378 16.873-.925 3.561-2.603 6.193-5.068 8.795-1.643 1.735-3.27 3.021-5.203 2.048-2.328-.988-4.227-2.859-4.5-6.016-.101-7.645.568-14.81 5.909-20.448 1.233-1.302 3.253-2.573 3.75-5.25-12.272 1.327-11.844.444-14.705 13.369-.035.898-.463 1.78-.515 3.127-.086 2.244-.942 4.009-2.174 5.31-3.322 4.367-7.037 8.719-11.505 12.143-2.02 1.271-3.646 2.557-5.939.671-2.293-1.885-2.19-4.578-1.299-7.241 3.1-8.87 6.97-17.262 14.673-22.809 1.626-1.286 1.644-1.735.532-3.576-1.489-2.304-2.584-4.593-1.3-7.241 1.747-4.428 4.641-7.912 9.022-9.093 5.974-1.568 11.606-4.498 16.844-7.444 3.218-1.674 6.436-3.349 9.996-3.661 3.56-.313 5.614-2.482 7.703-5.548-1.164-.494-1.968-.075-3.149-.121-5.939.671-11.485 1.357-17.372.682-2.739-.554-5.477-1.109-8.198-2.112-3.491-1.483-4.945-4.685-2.48-7.287 9.484-10.873 19.704-20.369 34.577-17.551 3.132.57 5.152-.701 5.7-4.725 1.149-9.395 7.295-15.452 13.03-21.075.822-.867 2.054-2.168 3.577-.762 1.523 1.407.667 3.172-.548 4.025-2.911 3.933-5.804 7.418-8.715 11.351-2.071 2.618-3.356 5.265-3.493 8.856 8.798-3.258 18.23-12.785 23.367-23.375.429-.882.515-3.127 2.055-2.168 1.557.509.701 2.274.649 3.62-.034.898-.462 1.78-.873 2.214-3.031 7.075-7.585 12.744-13.662 17.005-1.215.852-2.414 1.256-3.27 3.021 4.758-.716 9.893-.969 13.214-5.336 4.126-4.786 10.563-8.135 10.872-16.213.018-.449.429-.883.839-1.317 2.055-2.168 4.126-4.785 6.181-6.954l1.232-1.301c-1.796-4.564-3.575-9.576-5.371-14.14-.017.449-.41.434-.428.883-1.249 1.75-2.499 3.5-3.373 5.714-2.585 5.743-7.395 7.806-11.863 11.231-1.626 1.286-2.362-.091-3.081-1.917.411-.433.822-.867 1.25-1.749 1.644-1.735 3.287-3.47 4.914-4.756 3.663-3.006 6.573-6.939 9.86-10.409.411-.434 1.216-.852 1.609-.837-2.12-6.374-4.241-12.748-5.951-19.556-.138 3.591-1.422 6.238-4.281 8.825-3.27 3.021-4.999 7-5.582 11.922-.104 2.693-1.371 4.891-2.638 7.09-2.106 3.515-4.416 2.078-7.137 1.075-2.328-.989-3.44-2.829-2.532-5.941 3.066-7.972 4.968-16.439 6.493-25.37.462-1.78 1.25-1.75 2.003-.822 2.224 3.681 2.344.539 3.2-1.226 2.963-5.28 2.04-12.057 5.002-17.337.428-.883.086-2.244-1.06-3.187-2.5 3.5-5 7-6.353 11.442-.445 1.332-.12 3.142-2.071 2.618-1.575-.061-3.115-1.019-3.029-3.263-.187-5.401-.374-10.801 3.718-14.69 2.037-1.719 4.091-3.888 6.111-5.159.394.015.411-.433.804-.418-.29-2.708-.974-5.431-1.264-8.139-.428.882-1.233 1.301-2.037 1.719-4.485 3.874-9.689 5.921-14.892 7.969-8.405 3.273-15.99 16.017-15.599 26.369.495 7.66-.568 14.811-3.975 21.422-1.267 2.199-1.747 4.428-2.244 7.106-1.097 8.048-4.129 15.123-10.993 19.355-4.433 2.526-8.301.58-9.669-4.866-1.368-5.446-1.161-10.832 1.784-15.663 5.479-9.229 10.564-18.472 14.897-28.644 3.442-7.509 8.441-14.508 12.67-21.987.429-.883 1.233-1.301.874-2.214-.359-.913-1.558-.509-1.951-.524-2.379.358-4.758.716-6.727.641-3.542-.136-5.58 1.583-6.505 5.144-1.764 4.876-3.904 9.289-7.944 11.83-4.04 2.542-6.146 6.057-5.959 11.458.256 3.606-1.456 7.136-2.381 10.696-1.781 5.325-2.793 11.129-3.017 16.964-.154 4.039-1.097 8.048-2.039 12.057-.463 1.78-.942 4.009-2.928 4.383-1.592.388-3.097-1.468-3.833-2.844-2.583-4.594-3.968-9.591-3.745-15.426.652-6.717 2.485-13.389 4.301-19.611 2.758-10.232 7.432-19.042 15.906-24.111 2.43-1.705 4.861-3.409 6.556-6.49.429-.883 1.233-1.301.874-2.214-.359-.913-1.558-.509-2.345-.54-2.773.343-5.563 1.135-8.37 2.376-8.798 3.258-17.871 13.697-17.224 27.656.529 6.762-1.287 12.985-3.89 19.177-.856 1.766-1.301 3.097-1.37 4.892-1.526 8.931-1.853 17.458-.229 26.51.308 2.259.221 4.503-1.405 5.789-1.643 1.735-3.988 1.196-5.528.237-4.244-2.41-5.27-6.494-5.474-11.446-.118-7.196.534-13.913 2.76-20.57.463-1.78.583-4.922 2.534-4.397 1.558.509-.12 3.141-.583 4.921-1.919 8.916-2.246 17.444.987 25.658.359.913.325 1.81 1.505 1.856.788.03 1.233-1.301 1.268-2.199.103-2.693.206-5.386-.084-8.094-.032-9.44-.064-18.88 4.234-28.154 2.14-4.412 2.706-8.885 1.321-13.883-2.037 1.72-2.893 3.485-4.16 5.684-.428.882-.839 1.316-2.003.822-.77-.479-1.146-.943-.736-1.377 2.106-3.515 1.098-8.048 2.04-12.057.463-1.78 2.158-4.861 1.405-5.789-1.112-1.841-3.56.313-5.528.237-4.331-.166-7.6 2.855-8.971 7.746-.479 2.229-.942 4.009-1.815 6.223-5.103 9.693-5.91 20.449-5.536 31.251.443 9.006-1.87 17.907-7.263 24.891-3.338 4.816-9.209 3.692-11.757-1.799-.702-2.275-1.026-4.085-1.317-6.793.534-13.913 5.723-25.85 10.912-37.786 1.746-4.428 4.263-8.376 5.223-12.834.462-1.78 1.353-4.443-.564-5.865-1.916-1.422-3.2 1.226-4.827 2.512-1.643 1.734-2.91 3.933-4.947 5.653-3.253 2.572-5.324 5.189-6.267 9.198-.034.898-.103 2.693-1.66 2.184-1.164-.494-1.112-1.841-1.061-3.187.48-2.229.96-4.458.669-7.166-7.292 5.114-13.354 19.264-11.696 27.418 1.319-3.545 2.227-6.656 3.528-9.753.839-1.316.943-4.009 3.287-3.469 2.345.539 2.242 3.232 2.155 5.476-.206 5.386-1.953 9.813-4.111 14.675-2.62 6.641-4.864 13.747-2.007 21.497 1.077 2.738 2.276 2.335 3.525.585 1.661-2.184 2.552-4.846 3.049-7.524 1.045-6.702 1.321-13.883 1.185-20.63.035-.898-.701-2.274.497-2.678 1.199-.403 1.13 1.392 1.489 2.305.546 6.313.288 13.045.047 19.329-.138 3.59-1.046 6.702-3.117 9.319-2.5 3.5-5.256 3.394-7.873-.302-1.489-2.305-1.779-5.013-3.25-7.766-1.44 6.687-1.27 12.537-1.511 18.82-.103 2.693-.189 4.937-1.85 7.12-3.698 3.904-5.479 9.229-5.686 14.615-.086 2.244-.189 4.937-2.586 5.743-2.396.807-3.919-.599-5.836-2.021-1.522-1.407-2.652-2.799-3.353-5.073-1.419-4.1-1.247-8.588-.699-12.612.687-7.615.98-15.244.074-22.471-1.161-10.831 1.562-20.166 7.777-28.018 2.483-3.051 4.588-6.566 7.088-10.066.411-.433 1.233-1.301.48-2.228-1.198.403-2.02 1.27-2.842 2.138-2.962 5.28-7.378 7.358-12.171 8.972-3.201 1.225-5.649 3.379-7.344 6.46-2.123 3.964-3.476 8.406-6.729 10.978-3.269 3.021-3.784 6.148-2.364 10.247 1.026 4.085 2.052 8.17 1.503 12.194-1.097 8.048-.62 16.157 1.039 24.311.974 5.431.356 11.25-1.818 16.561-.874 2.213-2.466 2.602-4.417 2.077-3.097-1.467-4.945-4.684-6.005-7.871-3.216-8.663-3.265-17.655-2.133-26.6.565-4.473.738-8.962 1.304-13.435-3.425 7.061-6.833 13.672-10.617 19.819l-.034.898c-.19 4.937-1.149 9.395-.158 14.377.992 4.982 2.788 9.546 3.78 14.528 2.017 9.067 2.049 18.507-.264 27.407-.942 4.009-2.654 7.539-3.597 11.548-.462 1.781-.155 4.04-2.14 4.413-2.379.358-3.491-1.482-4.997-3.338-1.129-1.392-1.454-3.202-1.796-4.564-.684-2.723-.563-5.864-.836-9.021-1.144-11.281-.32-22.486 2.883-34.049 1.388-5.34 1.988-10.711 2.605-16.53-.393-.016-.77-.479-.77-.479-2.893 3.484-5.786 6.969-8.303 10.918-4.589 6.566-7.602 13.192-6.372 22.229.632 4.069-.704 8.063-2.416 11.593-3.031 7.075-3.683 13.792.799 20.257 2.977 4.609 3.558 10.025 1.76 15.799-1.319 3.545-3.733 4.801-6.385 2.002-1.882-2.319-3.764-4.639-4.02-8.245-.632-4.069-.067-8.542-.288-13.045-1.712 3.53-2.227 6.656-2.347 9.798.17 5.85 1.144 11.281 1.331 16.681-.034.898.325 1.811-.48 2.229-1.198.404-1.54-.958-1.505-1.855-.616-4.519-1.231-9.037-1.452-13.54-.854-8.573.243-16.621.964-25.133.052-1.347.138-3.591-1.437-3.651-1.18-.045-1.643 1.735-2.088 3.066-.463 1.78-.925 3.56-.601 5.371.633 4.069.084 8.093-.088 12.581.271 13.495.918 27.453 5.159 40.201.701 2.274.615 4.518-1.387 5.34-2.414 1.256-4.417 2.078-7.172 1.972-1.968-.075-3.526-.584-4.621-2.874-2.172-5.027-2.359-10.428-2.152-15.814.789-10.307.381-20.211-.404-30.579.052-1.346-.307-2.259-1.078-2.738-1.163-.494-1.609.837-2.019 1.271-3.27 3.021-3.819 7.045-3.597 11.548.529 6.762.27 13.494-1.563 20.166-1.833 6.672-5.223 12.834-10.512 17.126-1.627 1.286-3.612 1.659-5.529.237-1.934-.973-1.454-3.202-1.779-5.012.069-1.795.138-3.591.601-5.371.635-6.268 1.269-12.536 2.298-18.789-4.092 3.888-7.807 8.24-11.163 13.505-2.517 3.949-6.128 5.608-10.082 5.906-8.284.131-16.157-.171-24.492 1.307-2.79.792-4.672-1.527-6.144-4.281-.804.419.052-1.346.926-3.56zm296.747-233.574c-6.982-2.965-13.981-5.481-21.461-5.768-3.149-.12-6.246-1.588-9.344-3.055-5.408-2.904-11.295-3.58-16.824-3.342-3.542-.136-6.008 2.466-8.079 5.083-1.25 1.75-.103 2.693 1.06 3.187 2.704 1.453 6.23 2.037 8.951 3.041 9.755 2.621 19.527 4.794 29.282 7.416 8.198 2.112 16.533.634 25.263-.829-2.653-2.798-5.75-4.266-8.848-5.733zm-94.177-31.93c-1.198.403-2.414 1.256-2.465 2.602-.052 1.347.718 1.826 1.505 1.856 7.804 2.097 15.284 2.384 23.671-.44-7.684-5.239-15.129-6.424-22.711-4.018zm16.102 11.855c-.804.418-1.626 1.286-1.284 2.647.342 1.362 1.54.958 2.721 1.003 3.937.151 8.439-4.17 9.827-9.511-4.382 1.18-7.617 3.304-11.264 5.861zm65.894-1.517c5.425 2.455 13.384.513 16.706-3.854-5.905-.227-11.091 1.372-16.706 3.854zm24.923-12.528c-4.227-2.859-8.488-4.82-13.64-4.119-.393-.015-1.181-.045-1.592.388-.41.434-.034.898.342 1.362 3.081 1.916 5.322 5.148 9.241 5.748l4.776-1.165c.393.015 1.198-.404 1.215-.853.428-.882.052-1.346-.342-1.361zm-.275 7.181c-1.181-.045-2.379.358-2.448 2.153-.086 2.244-1.371 4.892.922 6.778 1.523 1.407 2.756.105 3.595-1.211 2.054-2.168 3.338-4.816 5.427-7.882-2.773.343-5.135.253-7.496.162zm-71.113-78.239c2.925 5.955 9.086 9.787 16.189 9.61-4.106-6.001-9.942-8.022-16.189-9.61zm33.851 11.636c-2.155-5.476-5.971-8.769-10.574-12.092-1.54-.958-1.968-.075-2.037 1.72.152 6.298 5.422 12.793 11.327 13.02 1.181.045 1.986-.374 1.284-2.648zm26.028 20.326c-5.546.686-10.715 1.836-16.277 2.971-1.199.404-3.167.328-2.842 2.139-.069 1.795 1.882 2.319 3.063 2.364l1.575.061c8.505 4.371 14.651-1.685 21.926-6.35-2.328-.989-5.066-1.543-7.445-1.185zm7.046-121.985c-.719-1.825-1.934-.973-3.115-1.018l-1.574-.061-1.575-.06c-1.181-.046-2.721-1.004-3.167.328-.462 1.78 1.078 2.738 1.848 3.217 1.147.943 2.704 1.452 3.868 1.946 1.163.494 2.721 1.003 3.56-.313.822-.867.497-2.678.155-4.039zm33.403 23.306c-3.56.313-6.264-1.14-7.683-5.239-.719-1.826-3.115-1.019-3.954.297-1.301 3.097-3.373 5.714-5.821 7.867-.804.419-.462 1.781-.497 2.678-.086 2.244 1.026 4.085 2.943 5.507 1.557.509 2.738.554 3.594-1.211 2.175-5.31 5.804-7.418 10.476-5.89 1.557.509 1.609-.838 2.037-1.72.856-1.765.086-2.244-1.095-2.289zm364.112 65.66c-4.075 3.439-6.643 8.734-8.03 14.075 4.09-3.889 7.788-7.792 8.03-14.075zm109.02 86.885c2.994 4.16 6.417 7.438 10.233 10.73 1.146.943 2.31 1.438 3.525.585 1.216-.852.497-2.677.155-4.039-.342-1.362-1.06-3.187-2.224-3.681-4.227-2.859-8.864-5.284-13.502-7.71.308 2.259 1.454 3.202 1.813 4.115zm-8.109-14.694c2.687 1.901 4.279 1.513 7.531-1.059-8.146-3.459-14.545-11.346-24.044-10.362 5.818 2.471 11.157 7.17 16.513 11.421zM57.782 662.46c.77.479 1.112 1.84 2.31 1.437.805-.419.857-1.765.908-3.112-.29-2.707-1.385-4.997-2.89-6.852-1.848-3.218-4.535-5.119-7.204-7.468.957 5.879 2.701 11.789 6.876 15.995zm-.794-40.932c-8.25-.766-16.43-3.328-24.527 2.205 6.982 2.965 19.63 2.102 24.527-2.205zM21.65 669.164c-.874 2.214.255 3.605 2.652 2.798 2.396-.807 3.663-3.005 3.766-5.698.12-3.142.242-6.283-.802-9.919-3.321 4.367-4.28 8.825-5.616 12.819zm10.387-65.224c-11.177 3.616-19.395 12.29-28.724 19.124 7.89-.147 27.695-12.871 28.724-19.124zm-17.02 32.608c-9.465.086-18.588 1.534-27.524 8.382 10.287-.953 20.076.771 27.523-8.382zm-17.796-19.111c-10.459 5.441-14.843 16.959-20.373 27.534 9.329-6.833 12.567-19.294 20.373-27.534zm-55.061 6.876c.051-1.346.89-2.662-.256-3.605-1.164-.494-1.61.837-2.414 1.255-5.666 3.828-6.3 10.096-6.541 16.38 3.32-4.367 7.789-7.792 9.21-14.03zm19.111 25.904c-2.79.792-5.58 1.584-8.387 2.824-1.198.404-2.413 1.256-2.071 2.618-.07 1.795 1.505 1.855 3.08 1.916 3.937.151 6.813-2.885 7.378-7.358zm-20.012 18.11c3.902 1.048 7.822 1.648 11.775 1.35 1.575.061 3.15.121 4.793-1.614-5.477-1.109-10.542-2.651-16.053-2.863-.788-.03-1.951-.524-2.003.822-.463 1.78.701 2.274 1.488 2.305zm-11.568-6.737c2.79-.792 5.186-1.599 7.617-3.303 1.216-.853 1.267-2.199.908-3.112-.718-1.825-1.9-1.871-3.08-1.916-3.937-.151-7.207 2.87-7.362 6.909-.051 1.347 1.13 1.392 1.917 1.422zm37.886 29.77c.787.031 1.54.958 1.968.076.428-.883-.324-1.81-1.094-2.289-2.67-2.35-5.802-2.92-9.414-1.261 2.687 1.901 5.426 2.456 8.54 3.474zm-17.798-8.773c-5.922.222-11.108 1.821-16.55-.186 3.37 4.624 12.818 4.987 16.55.186zm23.066 25.606c2.344.539 4.827-2.512 5.324-5.189.086-2.245-1.506-1.856-2.687-1.901-2.379.358-5.169 1.15-7.189 2.421-2.413 1.255-4.45 2.975-6.881 4.68 3.936.151 7.514-.611 11.433-.011zM93.654 816.656c3.816 3.292 7.614 7.034 12.715 7.679.787.03 1.557.509 2.379-.358.428-.883.069-1.795-.684-2.723-.736-1.377-1.865-2.769-2.618-3.696-5.698-5.613-12.235-9.909-19.628-12.44-2.328-.988-5.083-1.094-7.497.162 6.658 1.154 10.353 7.589 15.333 11.376zm-9.76 18.053c.787.031 1.557.51 1.968.076.428-.883-.325-1.811-.701-2.274-4.158-4.655-8.71-9.324-13.261-13.993 2.463 7.735 4.977 14.124 11.994 16.191zm-18.886-42.075c.805-.419 2.003-.823 2.055-2.169.052-1.346-1.506-1.856-2.293-1.886-4.313-.615-8.712 1.014-13.077 1.746-1.985.373-3.953.298-6.778 1.987 7.017 2.067 13.692 2.773 20.093.322zm-44.236-28.666c1.969.076 1.644-1.735 2.09-3.066.462-1.78-.65-3.621-2.225-3.681-1.951-.525-3.526-.585-5.511-.212-3.954.298-7.907.596-11.827-.004 4.911 5.582 11.175 6.721 17.473 6.963zM6.768 779.612c4.038 7.795 9.273 15.188 14.526 22.131 2.259 2.784 4.962 4.236 7.255 6.122 1.54.958 2.345.539 2.038-1.72-.616-4.518-1.213-9.485-3.42-13.615-4.055-7.347-8.52-14.261-15.023-19.454-3.833-2.844-7.632-6.586-11.824-10.342 1.727 6.359 3.882 11.835 6.448 16.878zm-21.926 6.35c3.388 4.175 7.598 7.483 11.807 10.791 0 0 .394.015.77.479 1.181.045.822-.868.857-1.765-2.156-5.477-5.51-10.55-10.523-13.439-.77-.479-1.934-.973-2.773.343-.822.868-.873 2.214-.138 3.591zM106.01 895.337c-3.952-10.04-11.96-17.089-24.436-20.714 5.971 8.769 17.419 18.647 24.436 20.714zM85.432 917.92c3.353 5.073 7.974 7.947 13.005 10.387 1.934.973 1.968.076 1.643-1.734l.018-.449c-6.107-15.517-11.82-31.018-24.414-41.839-.376-.464-.77-.479-1.934-.973 4.67 11.865 4.975 24.462 11.682 34.608zm-40.517-53.693c-3.129-10.907-9.94-18.36-16.75-25.813 3.541 10.474 7.903 20.08 16.75 25.813zm-40.23-30.31c4.893 6.031 9.77 12.511 13.43 19.843.736 1.376 1.455 3.202 2.67 2.35 1.215-.853-.29-2.708-.65-3.621-3.164-10.01-9.152-18.33-16.373-25.349-1.523-1.407-3.029-3.263-6.178-3.383 2.618 3.696 4.466 6.913 7.1 10.16zm-55.296-17.853c5.954 9.218 11.926 17.987 18.701 26.337 1.882 2.32 4.175 4.206 6.896 5.209 1.934.973 2.756.106 2.055-2.168-.36-.913-.342-1.362-.701-2.275-7.084-10.609-12.506-23.402-22.037-31.858-3.816-3.293-7.615-7.035-11.43-10.327-.412.433-.412.433-.822.867 2.155 5.476 4.344 10.055 7.338 14.215zm-413.297 65.496l-.086 2.244c-.051 1.346-1.318 3.545.239 4.054 1.54.958 2.413-1.256 3.252-2.572.411-.434.839-1.316 1.25-1.75 2.655-7.539 4.916-15.093 7.553-22.184-.393-.015-.77-.479-.77-.479-5.341 5.639-11.846 10.783-11.438 20.687zm-28.79 10.581c6.025-2.915 14.004-15.643 15.992-26.354-7.224 3.318-16.897 19.128-15.992 26.354zm47.867-55.695c-2.79.792-5.58 1.584-8.01 3.288-4.862 3.409-10.083 5.906-16.056 7.474-3.988 1.196-6.488 4.696-9.381 8.18-.411.434-.446 1.332-.463 1.781.308 2.259.615 4.518 3.44 2.828 5.683-4.276 12.016-4.932 18.383-6.486 7.548-1.508 10.956-8.119 13.593-15.21.873-2.213-.325-1.81-1.506-1.855zm29.172-30.793c-6.761 1.538-13.881 2.164-20.967 1.892-7.873-.302-14.326 3.496-20.455 9.104-2.448 2.153-4.519 4.77-7.395 7.806 20.332 4.376 36.08-5.357 51.538-17.799-1.112-1.84-1.917-1.422-2.721-1.003zm.972 15.769c-.942 4.009-2.672 7.987-3.221 12.012-1.045 6.702 1.076 13.075 3.213 19.001.719 1.825 1.541.958 2.362.09 2.089-3.066 2.603-6.192 1.937-9.364-.957-5.88-.734-11.715 1.065-17.489 1.37-4.891 1.577-10.277 2.588-16.081-4.074 3.439-6.574 6.939-7.944 11.831zm26.689-27.742c-.428.882-.069 1.795-.121 3.141-.034.898.308 2.259 1.095 2.29 1.181.045 1.233-1.301 1.661-2.184.445-1.331.908-3.111.977-4.907.137-3.59.652-6.717 1.97-10.262.839-1.316.908-3.111-.58-5.416-2.227 6.657-3.614 11.997-5.002 17.338zm-18.108-216.44c-3.902-1.049-7.839-1.2-11.827-.004-2.003.822-5.939.671-5.255 3.394.307 2.259 3.885 1.497 6.264 1.139 3.971-.747 7.514-.611 11.45-.46l1.181.046c.052-1.347.497-2.678.549-4.024-.805.418-1.575-.061-2.362-.091zm308.132 116.999c1.917 1.422 3.868 1.946 5.049 1.991 2.755.106 4.758-.716 6.384-2.002.411-.434 1.61-.837 1.25-1.75-.342-1.361-1.13-1.392-1.917-1.422-3.577.762-7.068-.721-10.663.49-.804.419-1.985.373-2.02 1.271-.034.897 1.147.943 1.917 1.422zm12.471 24.3c-3.884-1.497-7.393-2.531-11.706-3.146 3.457 2.38 6.931 4.311 10.833 5.36.787.03 1.951.524 2.396-.807.428-.883-.735-1.377-1.523-1.407zm30.715 31.742c-1.472-2.753-2.138-5.925-5.201-8.29.632 4.07 1.71 6.808 3.575 9.577.376.463.718 1.825 1.933.973.411-.434.052-1.347-.307-2.26zm6.281.691c-.77-.479-1.198.403-.822.867.29 2.708 2.242 3.233 4.175 4.206.018-.449.428-.883.428-.883-.7-2.274-1.83-3.666-3.781-4.19zm18.105 11.032c.788.031 2.345.54 2.79-.791.445-1.332-.718-1.826-1.077-2.739a16.111 16.111 0 00-9.19-7.094c-1.163-.494-2.344-.54-2.037 1.72.633 4.069 5.578 8.753 9.514 8.904zm-13.403 10.273c1.146.943 2.72 1.004 2.807-1.24.155-4.04-3.54-10.474-6.655-11.492-1.558-.51-2.345-.54-2.414 1.255 1.42 4.1 2.822 8.649 6.262 11.477zm-11.812 9.885c.393.015 1.18.045 1.557.509 1.181.046 2.345.54 3.184-.777.445-1.331-.719-1.825-1.471-2.753-8.179-12.899-18.052-22.716-31.264-27.718-.787-.03-1.163-.494-1.95-.524l-.788-.031c6.107 15.517 15.911 27.13 30.732 31.294zm-49.007-48.176c4.638 2.426 8.436 6.167 12.218 10.357 1.523 1.407 3.046 2.814 5.014 2.89 10.183 1.739 19.065 6.574 26.645 14.506 2.276 2.335 4.928 5.133 7.974 7.947-1.009-4.533-1.282-7.69-3.934-10.489-6.092-5.627-12.577-11.27-18.24-17.779-3.012-3.712-4.466-6.914-2.72-11.341.446-1.332.48-2.229-1.077-2.739-3.491-1.482-6.572-3.398-10.097-3.983-5.494-.66-9.704-3.968-13.913-7.276-1.147-.943-1.506-1.855-2.259-2.783-1.422 6.238-3.237 12.461-5.053 18.684 1.215-.853 3.526.584 5.442 2.006zm-156.039 141.888c84.241 3.233 157.382-104.98 162.618-241.417 5.235-136.438-59.006-249.922-143.64-253.169-84.241-3.232-157.383 104.98-162.618 241.417-5.235 136.438 59.4 249.937 143.64 253.169zm-184.862-144.63c-2.654 7.539-6.456 14.135-9.487 21.21-2.174 5.31-3.579 11.099-3.803 16.934-.035.897-.086 2.244.684 2.723 1.146.943 1.985-.373 2.79-.792 4.485-3.873 6.266-9.198 7.277-15.003.463-1.78.121-3.141.96-4.458 5.034-7.897 6.165-16.843 6.527-26.268.052-1.346.086-2.244.566-4.473-2.106 3.515-4.195 6.581-5.514 10.127zm-26.923 3.012c-3.117 9.319-6.234 18.638-6.219 28.527-.121 3.142.957 5.88 3.215 8.663 2.52-14.286 2.712-29.561 8.756-43.262-3.2 1.225-4.861 3.409-5.752 6.072zm-43.065 12.73c-3.852 7.943-8.082 15.422-10.001 24.337-.959 4.458-1.114 8.497-.105 13.031.324 1.81.632 4.069 2.206 4.13 1.575.06 2.431-1.705 3.287-3.47 2.552-4.846 4.333-10.171 4.95-15.991.276-7.181-.629-14.407-.337-22.037zm-44.728 25.252c-3.014 6.626-4.076 13.777-4.352 20.958.101 7.645-.568 14.811-.467 22.456-.121 3.141.135 6.747 2 9.515l.138-3.59c.241-6.284 2.005-11.16 7.619-13.641 2.414-1.256 4.057-2.991 3.39-6.163-.871-8.124.209-15.723 1.683-23.308 1.491-8.033-.167-16.187-.234-24.729-2.996 6.177-6.386 12.34-9.777 18.502zm-32.412 53.592c.239 4.054 1.282 7.69 3.113 11.356 1.112 1.84 1.899 1.87 2.773-.343 1.746-4.428 2.312-8.901 1.697-13.419-1.658-8.154-2.512-16.727-3.776-24.866-.684-2.723-.564-5.865.327-8.527.462-1.78.925-3.561-.187-5.401-2.552 4.846-3.152 10.217-3.359 15.602-.72 8.513-1.048 17.04-.588 25.598zm-18.378 57.725c.377.464.342 1.362 1.129 1.392.788.03.822-.867.857-1.765 2.467-12.94 5.346-26.313 2.32-39.914-.342-1.361-.308-2.259-.65-3.62-1.729 3.979-1.884 8.018-2.45 12.491-1.115 8.497-1.818 16.56-2.539 25.073.307 2.259.615 4.518 1.333 6.343zm-18.796 17.258c2.123-3.964 2.347-9.798.105-13.031-1.112-1.84-1.951-.524-2.396.807-1.695 3.082-.721 8.513 2.291 12.224zm-21.553 17.152c.291 2.708.598 4.967 2.515 6.389 1.917 1.422 3.115 1.018 3.218-1.675l.034-.897c-.511-7.212-2.204-14.468-2.322-21.664-1.405 5.789-3.991 11.533-3.445 17.847zm-2.209-65.708c9.516-1.432 16.449-7.459 21.911-16.239 3.356-5.265 7.106-10.514 10.461-15.779.018-.449-.376-.464-.359-.913-2.824 1.69-5.272 3.843-8.097 5.533-4.844 2.96-10.065 5.456-14.892 7.968-5.22 2.497-8.183 7.777-11.128 12.608-.428.882-.873 2.214-.531 3.575-.497 2.678.256 3.606 2.635 3.247zm-22.627 75.991c7.755-6.894 10.171-18.487 8.308-31.593-2.876 3.036-8.392 23.5-8.308 31.593zm5.589-42.934c-6.059 3.813-12.102 7.176-17.768 11.004-.017.449.377.464.359.913 8.661.332 15.936-4.333 17.409-11.917zm-54.143 34.329c8.37-2.375 17.013-1.594 25.708-2.16 1.968.076 3.577-.761 5.186-1.598 4.879-3.858 8.611-8.659 12.36-13.909-4.364.731-8.712 1.014-12.717 2.658-4.416 2.078-8.798 3.258-13.18 4.439-1.985.373-3.971.746-5.922.222-4.278-1.513-11.999 4.484-12.599 9.854-.428.883.377.464 1.164.494z" fill="#BF9475" fill-opacity=".1"/></svg>