<svg width="307" height="962" fill="none" xmlns="http://www.w3.org/2000/svg"><path d="M19.886 440.421a36.125 36.125 0 006.818 8.617c1.143 1.237 2.684 2.49 4.3 1.756 2.822-1.085 5.17-.199 7.52.687 3.903 1.741 7.823 3.085 11.727 4.826 1.952.871 3.111 1.711 2.639 3.682-.061 1.589-.534 3.56 1.83 4.049 5.124.992 6.954 5.041 7.976 9.457.35 1.207.686 2.811 1.86 3.254 1.572.458 2.41-.703 3.25-1.865 1.265-1.94 2.043-1.513 3.995-.642 3.904 1.741 7.793 3.88 11.255 6.798 1.54 1.252 2.7 2.092 2.608 4.476-1.982-.076-3.142-.916-4.712-1.374-1.556-.856-2.776-.107-3.615 1.055-.854 1.558.717 2.016 1.48 2.841 2.318 1.681 5.048 2.979 6.939 5.439 1.128 1.634 2.257 3.269.198 5.18-2.913 3.468-3.004 5.852-.777 9.916 3.736 6.111 8.296 11.459 14.519 14.88 2.73 1.298 5.429 3.391 7.747 5.072 5.796 4.201 10.34 9.945 16.151 13.749 6.573 4.628 11.53 9.991 15.221 17.294 2.958 5.683 7.122 11.015 8.464 17.432 1.373 5.623 4.759 10.527 7.336 15.798.732 1.62 2.288 2.475 3.874 2.536 4.789-.612 7.885 1.496 10.935 4.796 5.323 6.172 11.911 10.404 19.308 14.268 3.889 2.139 7.808 3.483 10.889 5.988 7.687 6.661 16.7 9.792 26.125 12.54 1.952.871 4.331.962 6.726.656 9.577-1.224 17.401 1.862 24.706 8.11 1.541 1.252 3.477 2.52 5.018 3.773 8.144 5.087 16.349 8.584 25.865 8.95 5.155.197 10.691.808 15.816 1.8 4.346.565 8.647 2.321 12.536 4.46-3.981.245-8.358.475-12.277-.869-6.268-2.23-13.024-2.091-19.414-1.143-2.791.291-5.598.979-7.992 1.285-5.994.963-11.896-.457-17.843-.685-5.552-.213-10.737.384-15.251 4.189-2.867 2.277-4.24 6.999-2.73 9.046 2.654 3.285 5.323 6.172 10.066 6.752 6.725.656 13.1.105 19.155-2.448 3.218-1.07 6.42-1.743 9.593-1.621 14.32-.644 28.686-2.48 42.046-9.129 1.22-.749 2.821-1.085 4.423-1.422.808-.366 1.601-.336 2.409-.703-2.348 9.459-3.919 19.345-5.093 29.246-2.227-4.064-4.865-7.746-7.9-11.443-3.798-4.522-7.015-3.452-8.419 2.064-.03.795-.457 1.574-.899 2.751l-2.288-2.475c-5.719-6.188-7.687-6.661-14.976-2.962-.412.382-1.22.749-1.617.734-2.013.718-3.645 1.849-3.752 4.63-.106 2.781 2.242 3.667 4.21 4.14 3.935.947 7.869 1.894 11.392 3.222.793.031 1.571.458 1.541 1.253-.016.397-.824.764-1.236 1.146-2.836 1.483-5.276 2.981-8.494 4.051-4.423 1.421-8.8 1.651-12.659-1.282-3.08-2.505-6.207-3.819-9.76-4.353-1.968-.473-3.127-1.313-4.24-3.345-2.211-4.462-4.423-8.923-10.371-9.151-1.586-.061-3.523-1.329-4.392.627-1.266 1.941-.549 3.957.183 5.577 1.113 2.032 2.654 3.285 4.164 5.332-2.029 1.116-4.027 1.437-5.17.199-3.462-2.917-7.794-3.879-11.286-6.003-1.952-.87-3.081-2.505-3.401-4.507-.305-2.398-1.022-4.415-1.724-6.829-1.083-2.827-3.385-4.905-6.558-5.026-3.568-.137-6.024 1.758-6.954 5.303-.473 1.971-1.647 1.528-3.218 1.07-7.061-2.26-12.079-6.033-14.183-13.276-.702-2.414-2.196-4.858-3.295-7.288-.732-1.619-2.272-2.872-4.27-2.551-1.998.322-2.074 2.308-2.135 3.897-.168 4.37 1.678 8.022 4.743 10.924 3.813 4.125 7.611 8.647 14.275 10.892-2.806.688-4.819 1.407-6.817 1.728-2.013.719-3.233 1.467-3.324 3.851-.077 1.986.244 3.988 2.18 5.256.778.428 1.953.871 3.127 1.313 6.68 1.848 13.055 1.297 19.78 1.953 1.586.061 3.584-.26 4.82-1.407 2.867-2.277 6.039-2.155 9.15-.444 3.127 1.313 6.207 3.819 8.983 3.925 8.357-.475 15.739 3.787 23.624 5.283.793.031 1.57.458 3.141.916-6.009 1.361-10.813 2.371-15.922.981-.793-.03-1.555-.855-1.982-.076-.427.779-.473 1.971-.107 2.781 1.876 2.857 4.621 3.758 7.824 3.085 2.394-.306 4.819-1.407 7.244-2.507 5.658-2.568 11.682-4.326 18.011-3.685 5.536.61 11.042 2.015 16.258.623l1.982.076c3.127 1.314 5.933.626 8.403-1.666 1.236-1.147 2.852-1.88 4.469-2.614.412-.382 1.22-.749 1.632-1.131-.641 6.341-1.281 12.682-1.54 19.436-3.462-2.918-7.306-6.248-10.768-9.166-2.699-2.093-4.331-.962-4.453 2.216.259 3.591 1.342 6.418 4.454 8.128 2.73 1.299 5.475 2.2 8.22 3.101.793.03 1.952.87 2.364.488l-.122 3.179c-.793-.031-1.601.336-2.41.703-4.056 2.231-8.449 2.858-12.78 1.897-3.935-.947-7.412-3.468-10.493-5.973-2.699-2.093-5.856-2.612-9.044-2.336-2.394.306-4.407 1.024-6.786.933-3.172-.122-4.469 2.613-3.386 5.44 1.48 2.842 3.401 4.507 6.543 5.423 1.952.871 4.316 1.359 6.283 1.833-.838 1.161-2.043 1.513-2.836 1.482-6.024 1.758-12.43 3.104-18.82 4.052-5.185.597-9.547.43-13.802-2.519-1.555-.855-3.126-1.313-4.682-2.168-.778-.428-2.364-.489-1.922-1.666.443-1.176 1.617-.733 2.822-1.085 1.601-.336 4.301 1.757 4.392-.627.076-1.986-2.715-1.696-4.682-2.169l-.396-.015c-1.968-.474-3.981.245-4.85 2.201-.869 1.956-.549 3.957.991 5.21 1.144 1.237 2.303 2.078 4.225 3.743-2.013.718-3.615 1.055-5.216 1.391-3.203.673-6.039 2.156-7.717 4.478-3.355 4.646-5.551 10.132-10.843 13.509-.823.764-.869 1.956-.518 3.163.762.825 1.586.061 2.394-.306 3.63-1.452 6.878-3.317 10.859-3.562 3.98-.245 7.61-1.697 10.904-4.753 1.647-1.529 3.675-2.644 6.131-4.539-.458 1.573-.473 1.971-.488 2.368-.016.397-.443 1.177-.458 1.574-.488 2.368-.198 5.164 2.135 6.447 1.937 1.268 4.332.962 6.36-.153 5.688-3.363 9.44-7.993 11.27-14.289.915-3.147 2.15-4.294 5.75-4.951 6.39-.949 13.191-2.279 19.597-3.625 7.61-1.697 14.839-3.807 21.747-7.918 0 0 .397.015.412-.382.092 7.961.183 15.921.672 23.897l-1.19-.046c-2.776-.106-5.124-.992-7.885-1.496-3.95-.549-7.839-2.688-11.484-.838-2.836 1.482-5.658 2.568-8.875 3.638-2.807.688-2.471 2.292-.946 3.942.763.825 1.54 1.253 2.318 1.681 5.033 3.375 10.523 5.178 16.898 4.626 3.188-.275 6.726.656 9.944-.414.808-.367 1.601-.336 2.028-1.115.336 1.604.29 2.796.625 4.4-.396-.015-.411.382-.808.367-5.688 3.362-10.996 7.137-14.793 12.959-2.104 3.103-4.987 5.777-8.25 8.039-3.264 2.262-6.467 2.935-10.402 1.988-4.331-.962-9.043-2.336-13.863-.93-1.601.336-2.379-.091-3.523-1.329-2.653-3.284-5.703-6.584-8.739-10.281-4.56-5.348-12.826-7.256-19.277-4.719-3.233 1.468-3.675 2.644-2.211 5.883 2.181 5.256 6.833 8.22 11.072 11.565 2.7 2.093 5.552.213 8.327.32.793.03 2.364.488 2.425-1.101.061-1.589-1.525-1.65-2.333-1.283-6.39.948-11.011-2.81-15.236-6.552-1.159-.841-2.715-1.696-2.257-3.27.457-1.574 2.425-1.1 3.614-1.055 1.19.046 2.38.092 3.188-.275 7.93.304 13.39 2.901 17.127 9.012.381.412.366.81.335 1.604-.96 4.34-.198 5.165 4.194 4.538 6.39-.949 12.384-1.912 18.652.317 3.127 1.314 6.329.641 9.181-1.239 9.334-5.212 16.379-12.898 24.203-20.158 1.876 13.202 4.179 25.624 7.687 37.694-.412.382-.839 1.161-1.22.749-3.157-.519-6.802 1.33-9.029-2.734-3.37-5.301-10.248-1.984-11.59 1.943-.885 2.353-.992 5.134-.29 7.548.717 2.017-.122 3.178-2.135 3.897-3.614 1.054-5.688 3.362-6.634 7.304-.518 3.163-2.943 4.264-6.1 3.745-3.554-.534-7.138-.274-10.356.796-4.011 1.04-4.895 3.393-3.05 7.044 1.114 2.033 2.654 3.285 4.591 4.553 4.286 2.154 9.09 1.145 13.863.93 1.586.061 2.821-1.085 2.501-3.087-.29-2.796.961-4.34 3.752-4.63 1.189.045 2.791-.291 3.629-1.453 1.678-2.322 4.072-2.628 6.04-2.155l1.982.076c.793.031 2.41-.703 2.746.901.366.81-.473 1.971-1.297 2.735-.839 1.162-2.059 1.911-3.294 3.057-.823.764-.869 1.956-.518 3.163.366.81 1.128 1.635 2.318 1.68 3.98-.245 7.961-.49 10.843-3.164 2.867-2.278 5.734-4.555 8.22-7.244 1.632-1.131 2.105-3.102 1.769-4.707.031-.794-.351-1.207-.32-2.001 24.357 68.968 74.136 117.03 133.615 119.312 87.235 3.347 161.642-93.66 166.352-216.418.595-15.493-.015-30.635-1.434-45.41 2.608 4.476 3.203 9.671 3.782 15.263.245 3.988 1.282 8.007 1.922 12.01.321 2.001 1.876 2.857 3.889 2.138 1.998-.321 1.663-1.925 1.327-3.529-.335-1.605-1.083-2.827-1.83-4.049-2.257-3.27-2.12-6.845-1.968-10.818 1.175.443 1.541 1.253 2.318 1.681 3.844 3.33 5.232 8.555 8.663 12.268 5.735 5.79 7.855 12.635 7.153 20.565l-.091 2.383c-.366 9.535 4.941 16.104 10.661 22.292 1.525 1.65 3.126 1.313 3.614-1.055.457-1.574.534-3.56 1.784-5.104 1.556.856 1.51 2.047 2.257 3.27l10.89 26.676c1.434 4.034 3.676 7.7 6.741 10.603 2.303 2.078 6.634 3.04 8.281 1.511 2.471-2.292 1.373-4.721.275-7.151-1.815-4.446-4.85-8.143-8.297-11.458-4.225-3.743-7.229-8.234-9.013-13.475-2.517-6.86-5.827-13.751-10.356-19.892-.381-.413-1.159-.841-.336-1.605 8.632 2.719 17.158 8.218 22.892 14.008 2.288 2.475 4.667 2.566 7.473 1.878.808-.367 1.617-.734 1.251-1.543-.687-2.812-2.608-4.477-5.369-4.981-.793-.03-1.982-.076-2.745-.901-3.401-4.507-8.495-6.294-13.589-8.08-7.046-2.658-12.811-7.653-17.767-13.016-1.525-1.65-2.273-2.872.915-3.148 1.205-.351 2.791-.29 3.63-1.452 3.339-4.248 6.069-2.95 9.516.365 2.288 2.475 6.649 2.643 9.776 3.956 1.571.458 2.715 1.696 4.362.168 1.235-1.146 1.296-2.736.96-4.34-.366-.81-.716-2.017.488-2.368.809-.367 1.571.458 1.937 1.268a21.679 21.679 0 014.393 9.717c1.723 6.829 5.46 12.941 10.432 17.906 4.224 3.743 7.244 7.837 9.837 12.711 1.113 2.032 2.226 4.064 4.148 5.729 1.54 1.253 3.111 1.711 5.124.992 2.013-.718 1.678-2.322 1.739-3.912-.29-2.796-.58-5.592-2.471-8.052-.381-.412-1.144-1.237-.32-2.001 4.636 3.361 9.684 6.339 13.893 10.479 4.606 4.156 10.112 5.561 16.044 6.186 3.569.137 4.438-1.819 3.371-5.043-1.464-3.239-4.149-5.729-7.275-7.042-7.412-3.468-13.101-10.45-21.367-12.358-.396-.015-.381-.413-.762-.825 7.839 2.688 15.739 3.787 23.136 7.651 5.841 3.009 12.094 5.636 18.834 5.895 4.362.167 8.709.732 13.086.502 1.982.076 4.392-.627 4.88-2.995.473-1.972-1.891-2.46-3.05-3.3-3.859-2.933-8.983-3.926-13.284-5.682 2.41-.704 5.246-2.186 7.625-2.095 10.707.411 19.994-3.609 29.312-8.424.809-.367 2.014-.718 2.075-2.307.045-1.192-1.114-2.032-1.892-2.46l-5.856-2.612c1.251-1.543 2.852-1.88 4.453-2.216 3.203-.673 6.421-1.743 9.654-3.21 8.052-2.874 13.192-12.624 11.529-21.042-.671-3.209-1.449-3.637-4.301-1.757-2.043 1.513-4.071 2.629-6.1 3.745-7.305 4.096-13.863 9.414-17.721 16.826-2.562 4.675-5.871 8.129-10.721 10.33-4.042 1.834-8.098 4.066-13.314 5.457 1.677-2.323 3.309-3.453 5.338-4.569 6.1-3.745 8.677-8.818 8.555-15.984.061-1.589.152-3.973-1.8-4.843-1.952-.871-3.584.26-4.819 1.406-4.911 3.79-8.266 8.436-10.873 14.304-1.739 3.911-3.874 7.808-6.406 11.69-3.339 4.248-6.984 6.097-12.124 5.502-1.983-.076-2.76-.504-1.891-2.46 1.296-2.735 2.196-5.485 3.08-7.838 1.312-3.133 1.815-5.899.748-9.123-1.053-3.621-.9-7.593-.367-11.154 1.052-6.723-.839-9.183-7.564-9.838l-3.569-.137c-1.998.321-3.218 1.07-4.072 2.628-.869 1.956.275 3.194 1.418 4.431 2.288 2.475 4.179 4.935 5.262 7.761 2.898 7.273 2.624 14.424.763 21.514-.945 3.942-1.769 4.706-5.688 3.362-5.109-1.389-9.822-2.764-14.916-4.55-1.174-.443-2.364-.489-2.699-2.093 1.998-.321 3.965.152 5.932.625 3.935.947 7.473 1.878 11.469 1.236 1.205-.352 2.791-.291 3.233-1.467.458-1.574-.686-2.812-1.449-3.637-3.431-3.712-7.732-5.469-12.841-6.858-6.68-1.848-13.833-1.725-20.955-2.396-2.379-.091-4.743-.58-7.061-2.26-6.573-4.629-13.573-8.478-20.589-11.93-.778-.428-1.967-.473-1.906-2.062 1.601-.337 3.187-.276 4.788-.612 1.602-.337 3.218-1.07 3.295-3.057.076-1.986-.656-3.606-2.624-4.079-1.967-.473-3.919-1.344-6.313-1.038-6.757.139-13.101-.105-19.918 1.623-6.009 1.361-11.911-.059-17.325-3.848 6.451-2.537 12.124-5.502 19.246-4.831 2.761.504 5.521 1.007 8.266 1.908 4.698 1.772 6.711 1.054 9.242-2.828.854-1.559 1.647-1.528 3.218-1.07 7.839 2.688 13.482.517 17.34-6.894.443-1.177 1.678-2.323.931-3.545-1.144-1.237-2.364-.489-3.569-.137-3.615 1.055-6.848 2.522-10.096 4.387-2.028 1.116-4.438 1.819-6.787.933-8.235-2.703-16.196-2.213-23.928 2.663-2.044 1.513-4.072 2.629-6.101 3.744-7.32 4.494-10.858 3.562-16.15-3.404-1.144-1.238-3.066-2.903-2.212-4.462-2.089 2.705.26 3.591 1.846 3.652 3.95.549 6.39-.949 8.494-4.051.854-1.558.9-2.75-.64-4.003-3.844-3.33-8.144-5.087-13.391-2.901-4.041 1.834-4.422 1.422-4.651-2.963l.046-1.192c-.58-5.592-.184-5.577 5.322-4.172 13.375 3.298 26.445 4.197 40.049 1.536 2.409-.703 6.375-.551 9.044 2.337 4.59 4.552 10.858 6.782 16.715 9.394 1.555.855 3.538.931 5.124.992 5.582-.581 6.009-1.361 4.621-6.586.015-.397.03-.795-.366-.81-2.608-4.476-6.756-10.205-12.369-8.829-1.998.321-3.995.642-6.344-.244 4.041-1.834 8.083-3.668 12.109-5.105 4.026-1.437 7.305-4.096 9.837-7.978 1.265-1.941 2.486-2.689 4.865-2.598 17.858.287 34.802 3.722 50.313 13.468.381.413.777.428 1.159.841 1.952.87 3.172.121 4.041-1.835.869-1.956-1.113-2.032-2.288-2.475-7.457-2.275-14.885-5.345-22.342-7.621-5.491-1.802-11.362-4.016-17.295-4.642-3.95-.549-7.93-.304-13.1-.105 5.383-5.761 10.324-10.346 17.507-11.263 5.994-.964 11.942-.736 17.859.287 6.314 1.038 7.565-.506 7.793-6.465.153-3.972-1.388-5.225-5.383-4.583-2.806.688-5.17.2-8.343.078 8.083-3.668 13.528-11.019 20.833-15.115 4.865-2.598 10.035-2.798 15.159-1.805 5.506 1.405 11.027 2.412 16.929 3.832 1.967.473 3.95.55 5.963-.169 2.028-1.116 2.47-2.292.961-4.34-2.288-2.474-5.018-3.773-7.763-4.674-1.968-.473-4.332-.962-6.284-1.832 7.26-2.905 14.153-6.619 22.373-3.518 10.569 3.986 29.068-2.068 35.397-11.771.016-.398.412-.382.427-.78.854-1.558 1.724-3.514.595-5.149-1.51-2.047-3.477-2.521-5.856-2.612-5.963.169-10.051 3.195-14.168 7.016-6.573 5.715-13.131 11.034-22.968 8.667-1.189-.046-2.791.291-2.745-.901-.336-1.604 1.266-1.941 2.471-2.292 7.289-3.699 13.069-9.445 19.215-14.382 1.236-1.146 2.883-2.674 1.769-4.706-1.113-2.032-3.462-2.918-5.856-2.612-3.599.658-7.214 1.713-9.715 4.799-4.544 4.6-7.93 10.04-11.316 15.481-2.119 3.499-5.002 6.173-9.043 8.008-5.262 2.583-10.523 5.166-15.769 7.352-3.234 1.467-6.833 2.125-11.652 3.531 2.516-3.484 5.017-6.571 4.743-9.764-.168-5.975 2.303-8.267 7.945-10.438 8.876-3.638 17.401-8.483 25.896-12.533 6.466-2.935 12.933-5.87 17.523-11.661 2.089-2.705 2.135-3.897-.976-5.608-5.445-2.994-18.225-1.097-22.373 3.518-1.251 1.544-1.281 2.338.259 3.591 1.937 1.268 3.538.931 4.789-.612 3.401-5.838 9.333-5.212 14.885-4.999 2.775.106 2.73 1.298 1.464 3.239-2.089 2.705-4.957 4.982-7.793 6.465-7.29 3.698-14.992 7.779-22.678 11.463-7.275 3.302-14.58 7.398-22.952 8.27-3.188.276-6.04 2.155-8.495 4.051-3.706 3.438-7.397 6.479-10.706 9.933-5.795 6.143-11.59 12.287-13.908 20.951-2.73 9.046-10.447 13.524-17.02 19.24-1.22.748-2.013.718-1.952-.871l.091-2.384c.077-1.986-.259-3.59-2.211-4.461-1.952-.871-3.615 1.055-4.865 2.598-.427.78-.839 1.162-.869 1.956-2.257 7.075-6.07 13.295-7.93 20.385-.427.779-.854 1.558-1.663 1.925-4.056 2.232-8.113 4.463-12.902 5.075-1.205.352-2.791.291-3.523-1.329-1.098-2.429-2.715-1.695-4.346-.564-2.059 1.91-4.454 2.216-7.244 2.507-2.395.306-4.789.612-6.802 1.33-8.037 2.477-15.48-.196-22.953-2.074 6.39-.949 12.445-3.501 18.103-6.069 4.041-1.834 8.037-2.477 12.368-1.515 1.571.458 3.188-.275 4.804-1.009 2.822-1.085 2.867-2.277.976-4.737-.762-.825-2.333-1.283-1.891-2.46.442-1.176 2.41-.703 3.187-.275 1.587.061 2.761.504 4.347.564 3.187-.275 6.009-1.36 6.527-4.523.58-4.752 3.828-6.617 8.22-7.244 3.996-.643 8.007-1.682 10.523-5.166 2.486-2.69 5.338-4.57 8.556-5.64 3.63-1.452 6.512-4.127 7.854-8.054.915-3.147 2.577-5.073 5.017-6.571 4.484-3.011 8.22-7.244 10.798-12.317.854-1.559 1.708-3.117.167-4.37-1.525-1.65-3.08-2.505-5.475-2.199-.808.367-2.013.718-2.821 1.085-3.66 2.247-7.259 2.904-11.606 2.34-3.157-.519-5.978.566-8.449 2.858-1.647 1.529-3.294 3.057-4.956 4.982-5.002 6.174-11.423 7.917-19.338 7.215.823-.764 1.266-1.94 2.089-2.704.839-1.162.869-1.956-.701-2.414-3.92-1.344-7.839-2.688-11.866-1.251-2.013.718-4.011 1.039-6.39.948 4.941-4.585 9.822-7.58 16.181-7.734 1.586.061 3.188-.276 4.804-1.009 4.865-2.599 9.7-4.403 14.549-6.604 5.262-2.583 10.523-5.166 16.487-5.335 9.135-.047 17.935-1.699 27.131-3.335 2.394-.306 4.392-.627 5.902 1.42 1.144 1.237 2.715 1.695 4.712 1.374 2.395-.306 4.027-1.437 6.055-2.553 7.702-4.08 13.527-11.018 22.373-13.862 2.013-.718 1.662-1.925.503-2.766-1.159-.84-1.129-1.634-.29-2.796 4.575-5.394 9.532-10.376 16.013-13.708 10.92-5.151 21.855-10.699 33.506-14.231 4.819-1.406 8.891-4.035 11.835-8.299 2.089-2.705 4.178-5.409 6.634-7.304 1.235-1.147 2.47-2.293 1.753-4.31-1.113-2.032-2.272-2.872-4.666-2.566-2.791.291-5.597.979-8.037 2.477-9.715 4.799-17.524 11.661-24.6 20.142-3.324 3.851-8.113 4.463-13.359 6.649 1.723-3.514 3.385-5.44 5.429-6.953 6.115-4.142 13.39-7.443 17.996-13.632 6.695-8.894 12.627-18.613 17.766-28.362 1.266-1.941 1.739-3.912.244-6.357-1.891-2.459-3.904-1.741-6.314-1.038-10.431 2.783-16.684 10.5-21.396 19.47-3.02 6.25-6.436 12.485-11.011 17.879-2.089 2.705-3.782 5.425-5.094 8.558-2.623 6.265-5.627 12.117-10.584 17.099-4.956 4.982-10.705 9.934-16.043 14.503-2.044 1.513-3.706 3.439-6.924 4.509.473-1.971 1.693-2.72 2.913-3.469 9.379-6.404 15.296-15.725 21.213-25.047 1.266-1.941 1.327-3.53-.183-5.577s-3.096-2.108-5.109-1.39c-5.246 2.186-10.142 5.579-13.863 9.415-5.383 5.761-9.623 12.76-11.895 20.232-1.83 6.296-6.39 11.293-11.667 14.273-5.688 3.363-12.78 1.897-19.536 2.036.458-1.574 1.235-1.147 2.044-1.513 7.198-1.316 12.505-5.091 17.858-10.057 6.604-6.51 10.111-15.129 15.556-22.479 2.928-3.866 5.49-8.542 8.021-12.424 2.105-3.102 1.739-3.912-1.784-5.24-4.301-1.757-7.885-1.497-11.575 1.545-4.088 3.026-6.619 6.907-9.151 10.789-6.344 10.101-12.673 19.804-20.161 28.668-3.736 4.233-7.839 7.656-13.466 9.429-2.41.703-4.438 1.819-6.482 3.332-2.059 1.911-4.483 3.011-7.305 4.096-6.466 2.935-13.314 5.457-19.78 8.392-3.63 1.452-7.198 1.315-10.767 1.178 2.852-1.879 5.704-3.759 8.54-5.242 7.29-3.699 14.214-8.207 19.613-14.366 5.398-6.158 9.638-13.157 15.418-18.903.823-.764 1.25-1.544 1.677-2.323 1.739-3.912.626-5.944-3.324-6.493-4.743-.58-8.785 1.254-12.079 4.31-2.882 2.675-5.78 5.746-8.266 8.436-9.913 9.964-19.429 19.943-26.658 32.397-.015.398-.427.78-1.205.352 2.212-5.883 4.423-11.766 7.412-17.221 3.462-7.427 8.464-13.601 11.926-21.027.427-.779 1.266-1.941.122-3.178-1.159-.841-2.349-.886-3.188.275-3.294 3.057-6.954 5.303-9.47 8.788-3.798 5.822-8.357 10.819-13.665 14.594-2.867 2.277-4.956 4.982-5.886 8.527-.961 4.339-2.318 8.664-3.676 12.988-.03.795-1.662 1.926-.091 2.384 1.174.443 1.616-.734 2.059-1.911.442-1.176.884-2.353.93-3.545 1.388-5.118 3.95-9.794 8.052-13.218 6.161-5.333 11.179-11.904 15.418-18.903.854-1.559 2.09-2.705 3.722-3.836.35 1.207-.458 1.574-.885 2.353-5.444 7.351-10.111 15.129-14.778 22.907-2.973 5.058-4.376 10.574-6.572 16.06-.443 1.176-1.297 2.735.259 3.59 2.73 1.299 1.495 2.445.244 3.988-5.033 6.969-12.368 11.859-17.035 19.637-2.12 3.5-5.399 6.159-8.677 8.818-2.883 2.675-5.353 4.967-9.41 7.198.473-1.971 1.296-2.735 2.135-3.896l12.582-17.421c3.37-5.043 5.947-10.116 6.572-16.06.519-3.163-.625-4.4-3.416-4.11-3.584.261-6.832 2.125-8.937 5.227-.823.765-1.662 1.926-.518 3.163 1.144 1.238 2.364.489 3.599-.657 1.662-1.926 3.325-3.851 4.972-5.379.411-.382 1.235-1.147 2.013-.719.778.428.351 1.207-.076 1.986-1.373 4.722-4.316 8.986-7.244 12.852-5.445 7.35-10.874 14.303-15.159 22.494-.443 1.177-1.678 2.323-1.739 3.912-21.581-79.206-74.991-136.16-139.624-138.64-48.772-1.872-93.182 27.457-124.003 75.211-.641-4.003-.9-7.594-2.334-11.627-.702-2.414-2.638-3.682-4.575-4.95-1.556-.855-3.157-.519-4.011 1.04-1.297 2.735-2.196 5.485-1.51 8.297.32 2.001.656 3.606.961 6.004-8.769-9.487-12.72-20.38-12.659-32.314.076-1.986.168-4.37-.549-6.387-1.403-4.828-1.22-9.595-.244-14.332.945-3.942-.519-7.181-2.791-10.053-1.892-2.46-4.652-2.964-6.726-.656-5.414 6.555-9.257 13.569-7.625 22.783.336 1.604 1.068 3.224.61 4.797-1.967-.473-3.096-2.108-4.24-3.345-2.303-2.078-3.767-5.317-6.893-6.63-3.127-1.314-4.24-3.346-4.911-6.554-.275-3.194-.946-6.402-3.233-8.877-3.432-3.713-4.835-8.541-5.842-13.354-1.388-5.225-2.791-10.053-4.179-15.279-.671-3.208-2.166-5.653-4.453-8.128-1.525-1.65-3.066-2.902-5.079-2.184-2.409.703-4.453 2.216-4.956 4.982-.656 6.738-.503 13.11 4.453 18.472 1.144 1.238 3.081 2.506 3.386 4.905-12.231-2.061-11.865-1.251-13.802-12.864.03-.794-.336-1.604-.29-2.796.076-1.986-.656-3.606-1.8-4.843-3.019-4.095-6.436-8.204-10.675-11.55-1.937-1.268-3.478-2.52-5.918-1.023-2.44 1.498-2.531 3.882-1.83 6.296 2.471 8.052 5.75 15.737 13.086 21.191 1.54 1.252 1.525 1.65.274 3.193-1.662 1.926-2.928 3.866-1.83 6.296 1.434 4.033 4.088 7.318 8.404 8.677 5.887 1.817 11.331 4.811 16.379 7.79 3.112 1.711 6.223 3.422 9.776 3.956 3.554.534 5.46 2.596 7.336 5.453-1.205.352-1.983-.076-3.172-.121-5.917-1.023-11.438-2.031-17.401-1.862-2.791.291-5.582.582-8.388 1.27-3.615 1.055-5.308 3.775-3.02 6.25 8.739 10.282 18.317 19.402 33.461 17.994 3.187-.276 5.124.992 5.383 4.583.473 8.373 6.208 14.163 11.561 19.541.763.825 1.906 2.062 3.538.931 1.632-1.131.9-2.75-.259-3.591-2.639-3.682-5.292-6.966-7.931-10.648-1.891-2.46-2.989-4.889-2.867-8.067 8.601 3.513 17.386 12.602 21.779 22.32.366.809.289 2.796 1.906 2.062 1.601-.336.869-1.956.915-3.148.03-.794-.336-1.604-.717-2.016-2.532-6.463-6.695-11.795-12.491-15.996-1.159-.84-2.333-1.283-3.065-2.903 4.728.977 9.867 1.572 12.887 5.667 3.798 4.522 10.02 7.944 9.746 15.094-.016.398.366.81.747 1.223 1.906 2.062 3.797 4.522 5.704 6.584l1.144 1.238c-2.135 3.896-4.286 8.19-6.421 12.087.015-.397-.381-.412-.366-.81-1.128-1.634-2.257-3.269-2.974-5.286-2.181-5.256-6.863-7.425-11.103-10.77-1.54-1.253-2.379-.092-3.233 1.467.381.413.763.825 1.129 1.635 1.525 1.65 3.05 3.3 4.59 4.552 3.462 2.918 6.101 6.6 9.151 9.9.381.413 1.159.84 1.556.855-2.593 5.471-5.185 10.942-7.397 16.825.122-3.179-.976-5.608-3.66-8.098-3.066-2.903-4.514-6.539-4.743-10.924.091-2.384-1.022-4.416-2.136-6.448-1.86-3.254-4.285-2.154-7.091-1.466-2.41.704-3.66 2.247-2.974 5.058 2.501 7.258 3.798 14.867 4.682 22.858.336 1.604 1.129 1.635 1.953.871 2.501-3.087 2.394-.306 3.126 1.313 2.593 4.874 1.175 10.787 3.767 15.661.366.81-.076 1.987-1.296 2.735-2.257-3.269-4.514-6.538-5.552-10.557-.35-1.207.107-2.781-1.891-2.46-1.586-.06-3.202.673-3.279 2.66-.579 4.752-1.158 9.504 2.67 13.231 1.921 1.666 3.828 3.728 5.764 4.996.397.015.382.412.778.428-.488 2.368-1.372 4.721-1.86 7.09-.366-.81-1.144-1.238-1.922-1.666-4.224-3.742-9.303-5.927-14.382-8.111-8.205-3.497-14.9-15.292-13.756-24.399 1.052-6.723.503-13.11-2.441-19.191-1.113-2.032-1.433-4.033-1.738-6.432-.519-7.182-3.051-13.644-9.639-17.876-4.271-2.551-8.297-1.114-10.066 3.592-1.769 4.707-1.952 9.474.656 13.951 4.835 8.54 9.273 17.066 12.888 26.355 2.913 6.875 7.427 13.414 11.133 20.32.366.81 1.144 1.237.717 2.017-.427.779-1.601.336-1.998.321-2.364-.489-4.728-.977-6.71-1.053-3.569-.137-5.491-1.802-6.162-5.011-1.418-4.431-3.248-8.48-7.122-11.015-3.874-2.536-5.734-5.79-5.155-10.542.518-3.163-.946-6.402-1.617-9.611-1.403-4.828-1.998-10.023-1.8-15.188.138-3.575-.518-7.181-1.174-10.787-.336-1.604-.656-3.606-2.623-4.079-1.571-.458-3.218 1.07-4.057 2.231-2.928 3.867-4.682 8.176-4.88 13.34.168 5.975 1.525 11.994 2.898 17.617 2.028 9.229 6.085 17.342 14.229 22.428 2.318 1.681 4.637 3.361 6.116 6.203.366.81 1.144 1.237.717 2.017-.427.779-1.601.336-2.395.306-2.76-.504-5.505-1.405-8.235-2.703-8.602-3.513-16.959-13.383-15.297-25.653 1.022-5.928-.351-11.551-2.517-17.204-.732-1.619-1.083-2.827-1.022-4.416-.884-7.991-.595-15.539 1.693-23.408.472-1.971.549-3.958-.992-5.21-1.525-1.65-3.919-1.344-5.536-.611-4.438 1.819-5.765 5.349-6.329 9.704-.64 6.341-.472 12.315 1.282 18.35.335 1.605.229 4.386 2.226 4.064 1.602-.336.107-2.78-.228-4.385-1.282-8.006-.992-15.554 2.851-22.568.427-.78.458-1.574 1.647-1.528.793.03 1.144 1.237 1.113 2.032-.091 2.383-.182 4.767-.67 7.135-.717 8.328-1.434 16.655 2.211 25.15 1.831 4.049 2.075 8.037.321 12.346-1.922-1.665-2.654-3.285-3.767-5.317-.366-.809-.747-1.222-1.952-.87-.809.367-1.22.749-.839 1.161 1.861 3.254.519 7.181 1.174 10.787.336 1.605 1.815 4.446.992 5.211-1.251 1.543-3.554-.535-5.536-.611-4.362-.167-7.427-3.07-8.449-7.485-.321-2.002-.656-3.606-1.373-5.623-4.423-8.923-4.454-18.472-3.295-27.977 1.098-7.915-.58-15.936-5.49-22.49-3.005-4.492-8.983-3.926-11.942.735-.869 1.956-1.327 3.53-1.815 5.898-.472 12.316 3.875 23.225 8.221 34.134 1.434 4.033 3.676 7.7 4.316 11.703.336 1.605 1.038 4.019-.991 5.134-2.028 1.116-3.126-1.313-4.667-2.566-1.525-1.65-2.638-3.682-4.56-5.347-3.08-2.505-4.972-4.965-5.627-8.571.03-.794.091-2.384-1.51-2.047-1.205.351-1.251 1.543-1.297 2.735.321 2.002.641 4.003.153 6.372-6.954-5.041-12.018-17.967-9.761-25.042 1.068 3.224 1.754 6.035 2.837 8.862.747 1.222.656 3.606 3.05 3.3 2.395-.306 2.486-2.69 2.562-4.676.183-4.768-1.251-8.801-3.066-13.247-2.15-6.051-3.889-12.483-.457-19.115 1.281-2.338 2.455-1.895 3.584-.26 1.509 2.047 2.211 4.461 2.516 6.86.564 5.989.321 12.346-.305 18.289-.03.795-.869 1.956.305 2.399 1.175.443 1.236-1.146 1.663-1.925 1.006-5.532 1.235-11.491 1.448-17.052.122-3.179-.564-5.99-2.455-8.45-2.257-3.269-5.033-3.376-7.931-.304-1.662 1.925-2.15 4.294-3.828 6.617-.96-6.005-.366-11.154-.152-16.716.091-2.384.167-4.37-1.343-6.417-3.431-3.713-4.834-8.541-4.651-13.308.076-1.987.167-4.37-2.181-5.256-2.349-.886-3.981.245-6.009 1.361-1.632 1.131-2.867 2.277-3.736 4.233-1.724 3.514-1.876 7.487-1.617 11.078.138 6.769-.122 13.522-1.555 19.833-1.952 9.474.107 17.908 5.78 25.287 2.273 2.872 4.134 6.126 6.391 9.396.381.412 1.144 1.237.32 2.001-1.174-.442-1.937-1.267-2.699-2.092-2.593-4.874-6.879-7.028-11.576-8.8-3.126-1.313-5.429-3.391-6.909-6.233-1.845-3.651-2.882-7.669-5.963-10.175-3.066-2.902-3.355-5.699-1.632-9.213 1.327-3.53 2.653-7.06 2.394-10.65-.518-7.182.549-14.302 2.806-21.377 1.372-4.722 1.174-9.902-.626-14.745-.716-2.017-2.287-2.475-4.285-2.154-3.218 1.07-5.307 3.775-6.604 6.511-3.858 7.411-4.559 15.341-4.071 23.317.244 3.988.091 7.961.336 11.949-2.929-6.479-5.872-12.559-9.228-18.258l.031-.795c.168-4.37-.473-8.373.884-12.697s3.493-8.221 4.85-12.546c2.684-7.854 3.4-16.181 1.723-24.203-.656-3.606-2.12-6.845-2.776-10.451-.336-1.604.137-3.575-1.83-4.048-2.364-.489-3.615 1.055-5.262 2.583-1.235 1.146-1.693 2.72-2.135 3.896-.884 2.354-.991 5.135-1.494 7.9-1.967 9.871-1.952 19.818.427 30.254 1.007 4.813 1.22 9.595 1.419 14.775-.397-.015-.808.367-.808.367-2.654-3.285-5.308-6.569-7.55-10.236-4.133-6.127-6.68-12.192-4.789-20.077.93-3.545-.122-7.166-1.586-10.405-2.532-6.463-2.7-12.437 2.272-17.817 3.324-3.851 4.3-8.587 2.913-13.813-1.068-3.224-3.402-4.507-6.269-2.23-2.058 1.911-4.117 3.821-4.636 6.984-.93 3.545-.686 7.533-1.235 11.49-1.464-3.239-1.754-6.035-1.647-8.816.595-5.149 1.967-9.871 2.546-14.623.031-.794.458-1.574-.32-2.001-1.174-.443-1.616.733-1.647 1.528-.945 3.942-1.891 7.885-2.44 11.842-1.479 7.503-.96 14.684-.853 22.247-.046 1.192-.122 3.179-1.708 3.118-1.19-.046-1.526-1.65-1.876-2.857-.336-1.605-.672-3.209-.214-4.783.93-3.545.671-7.135.823-11.108 1.251-11.888 2.913-24.158 8.098-35.099.869-1.956.945-3.942-1.007-4.813-2.333-1.283-4.285-2.153-7.061-2.26-1.983-.076-3.584.26-4.85 2.201-2.547 4.279-3.126 9.031-3.309 13.798.046 9.153-1.082 17.862-2.622 26.954-.046 1.192-.473 1.971-1.281 2.338-1.205.351-1.556-.856-1.937-1.268-3.066-2.903-3.325-6.493-2.776-10.451 1.022-5.929 1.25-11.888-.107-17.908-1.358-6.02-4.316-11.703-9.319-15.874-1.54-1.252-3.508-1.726-5.536-.61-2.013.719-1.693 2.72-2.15 4.294-.061 1.589-.122 3.178.213 4.783.184 5.577.367 11.154.946 16.746-3.828-3.728-7.244-7.837-10.233-12.726-2.242-3.667-5.75-5.393-9.7-5.943-8.312-.716-16.242-1.021-24.508-2.929-2.745-.901-4.804 1.009-6.482 3.332-.778-.428-.046 1.192.671 3.208zM301.04 668.042c-7.229 2.11-14.442 3.822-21.976 3.533-3.172-.122-6.39.949-9.608 2.019-5.643 2.17-11.606 2.339-17.142 1.729-3.569-.137-5.857-2.612-7.748-5.072-1.128-1.634.092-2.383 1.296-2.735 2.822-1.085 6.406-1.345 9.212-2.034 9.989-1.605 19.963-2.814 29.953-4.42 8.388-1.27 16.654.639 25.316 2.563-2.867 2.277-6.085 3.347-9.303 4.417zm-96.919 21.346c-1.174-.443-2.333-1.283-2.287-2.475.045-1.192.854-1.558 1.647-1.528 7.991-1.285 15.525-.996 23.745 2.105-8.098 4.065-15.662 4.571-23.105 1.898zm17.035-9.293c-.777-.427-1.54-1.252-1.098-2.429.442-1.177 1.617-.734 2.806-.688 3.966.152 8.175 4.292 9.181 9.105-4.315-1.359-7.411-3.467-10.889-5.988zm66.082 6.117c5.628-1.774 13.482.517 16.502 4.611-5.948-.228-11.042-2.015-16.502-4.611zm24.128 12.861c-4.454 2.216-8.876 3.638-14.001 2.646-.396-.015-1.189-.046-1.571-.458-.381-.413.031-.795.443-1.177 3.233-1.467 5.719-4.157 9.699-4.402l4.713 1.374c.396.016 1.174.443 1.159.841.366.809-.046 1.191-.442 1.176zm.243-6.356c-1.189-.046-2.364-.489-2.303-2.078.077-1.986-1.021-4.415 1.419-5.913 1.632-1.131 2.775.106 3.523 1.329 1.906 2.062 3.004 4.491 4.88 7.348-2.76-.504-5.139-.595-7.519-.686zm-77.107 63.881c3.371-5.043 9.837-7.977 16.959-7.306-4.56 4.997-10.569 6.358-16.959 7.306zm34.848-7.813c-2.562 4.676-6.634 7.304-11.499 9.903-1.616.734-1.982-.076-1.921-1.665.61-5.547 6.374-10.896 12.322-10.668 1.19.046 1.968.474 1.098 2.43zm27.619-16.048c-5.521-1.008-10.63-2.398-16.135-3.802-1.174-.443-3.157-.519-2.7-2.093.061-1.589 2.059-1.911 3.249-1.865l1.586.061c8.861-3.241 14.595 2.549 21.565 7.193-2.41.703-5.201.994-7.565.506zm-1.767 108.149c-.854 1.559-2.013.719-3.202.673l-1.587-.061-1.586-.061c-1.189-.045-2.806.688-3.157-.519-.335-1.604 1.281-2.338 2.09-2.705 1.22-.748 2.821-1.085 4.026-1.437 1.205-.351 2.806-.688 3.553.535.763.825.305 2.399-.137 3.575zm35.245-18.143c-3.554-.534-6.375.552-8.099 4.066-.854 1.559-3.202.673-3.95-.549-1.082-2.827-2.974-5.287-5.276-7.364-.778-.428-.336-1.604-.306-2.399.077-1.986 1.327-3.53 3.356-4.646 1.601-.336 2.79-.29 3.523 1.329 1.799 4.844 5.292 6.967 10.096 5.958 1.601-.337 1.555.855 1.921 1.665.732 1.619-.076 1.986-1.265 1.94zm370.519-31.536c-3.844-3.33-6.04-8.189-7.046-13.002 3.828 3.728 7.259 7.44 7.046 13.002zm115.814-68.762c3.309-3.454 6.984-6.098 11.056-8.727 1.22-.748 2.425-1.1 3.584-.26 1.159.84.305 2.399-.137 3.576-.442 1.176-1.296 2.735-2.501 3.086-4.453 2.217-9.288 4.02-14.122 5.824.472-1.971 1.692-2.72 2.12-3.499zm-9.212 12.378c2.837-1.483 4.408-1.025 7.488 1.481-8.433 2.461-15.433 8.956-24.904 7.399 6.024-1.758 11.728-5.518 17.416-8.88zm-15.312-14.911c.808-.366 1.251-1.543 2.425-1.1.778.428.732 1.619.686 2.811-.488 2.369-1.753 4.309-3.401 5.838-2.089 2.705-4.926 4.187-7.777 6.067 1.387-5.119 3.568-10.207 8.067-13.616zm-3.766 36.061c-8.342.078-16.746 1.745-24.478-3.724 7.229-2.11 19.872-.431 24.478 3.724zm-32.043-44.596c-.717-2.017.518-3.163 2.867-2.277 2.349.886 3.462 2.918 3.371 5.301-.107 2.781-.214 5.562-1.525 8.695-3.02-4.095-3.661-8.098-4.713-11.719zm5.705 58.306c-10.966-4.001-18.591-12.251-27.467-18.957 7.915.701 26.887 13.365 27.467 18.957zm-14.733-30.007c-9.501-.762-18.56-2.701-27.04-9.392 10.264 1.587 20.223.776 27.04 9.392zm-19.262 15.573c-10.111-5.56-13.68-16.041-18.469-25.773 8.876 6.706 11.225 17.936 18.469 25.773zm-54.811-10.06c-.046 1.192.701 2.414-.519 3.163-1.205.352-1.556-.855-2.333-1.283-5.414-3.788-5.598-9.366-5.384-14.927 3.02 4.094 7.259 7.44 8.236 13.047zm21.076-21.471c-2.745-.901-5.49-1.802-8.22-3.101-1.175-.443-2.334-1.283-1.892-2.459.061-1.589 1.648-1.529 3.234-1.468 3.965.152 6.634 3.04 6.878 7.028zm-18.79-17.431c3.996-.643 7.977-.888 11.927-.338 1.586.061 3.172.121 4.697 1.771-5.582.582-10.782 1.576-16.334 1.363-.793-.031-1.998.321-1.952-.871-.335-1.604.869-1.956 1.662-1.925zm-12.109 5.105c2.746.901 5.094 1.787 7.412 3.467 1.159.841 1.114 2.032.687 2.812-.854 1.558-2.044 1.513-3.233 1.467-3.966-.152-7.031-3.055-6.894-6.63.046-1.192 1.235-1.146 2.028-1.116zm40.216-23.522c.794.031 1.617-.733 1.983.076.366.81-.457 1.574-1.266 1.941-2.852 1.88-6.039 2.156-9.547.429 2.837-1.482 5.628-1.773 8.83-2.446zm-18.514 6.451c-5.933-.625-11.026-2.412-16.639-1.036 3.721-3.836 13.238-3.471 16.639 1.036zm25.026-20.922c2.395-.306 4.667 2.567 4.972 4.965-.076 1.987-1.647 1.529-2.836 1.483-2.364-.489-5.109-1.39-7.046-2.657-2.334-1.284-4.255-2.949-6.574-4.629 3.966.152 7.504 1.084 11.484.838zm129.219-86.947c4.072-2.628 8.159-5.654 13.329-5.854.794.031 1.602-.336 2.364.489.366.81-.061 1.589-.884 2.353-.839 1.161-2.074 2.307-2.898 3.072-6.131 4.539-13.009 7.855-20.619 9.553-2.409.703-5.185.597-7.518-.687 6.771-.535 10.95-5.945 16.226-8.926zm-8.495-16.638c.793.031 1.602-.336 1.983.076.366.81-.458 1.574-.869 1.956-4.515 3.806-9.425 7.596-14.336 11.386 3.035-6.647 6.024-12.102 13.222-13.418zm-22.021 35.758c.777.428 1.952.871 1.906 2.063-.046 1.192-1.647 1.528-2.44 1.497-4.377.23-8.678-1.526-13.009-2.488-1.967-.473-3.95-.549-6.665-2.245 7.199-1.315 13.955-1.454 20.208 1.173zm-46.515 22.087c1.983.076 1.525 1.65 1.876 2.857.335 1.604-.915 3.148-2.501 3.087-1.998.321-3.584.26-5.552-.213-3.95-.55-7.899-1.099-11.88-.854 5.338-4.569 11.713-5.121 18.057-4.877zm-12.933-14.819c4.621-6.586 10.416-12.73 16.196-18.476 2.471-2.292 5.292-3.378 7.732-4.875 1.617-.734 2.395-.306 1.922 1.665-.946 3.942-1.906 8.282-4.423 11.766-4.605 6.189-9.592 11.965-16.501 16.077-4.057 2.231-8.144 5.257-12.627 8.268 2.196-5.486 4.758-10.162 7.701-14.425zm-21.565-7.193c3.706-3.439 8.174-6.052 12.643-8.666 0 0 .396.015.808-.367 1.19.046.763.825.732 1.62-2.562 4.676-6.298 8.909-11.544 11.095-.809.366-2.014.718-2.761-.504-.762-.825-.717-2.017.122-3.178zm129.646-87.727c-4.697 8.573-13.253 14.213-26.048 16.507 6.634-7.305 18.85-15.191 26.048-16.507zm-19.033-21.419c3.736-4.233 8.586-6.434 13.817-8.222 2.013-.719 1.982.076 1.525 1.65l-.015.397c-7.26 13.249-14.122 26.512-27.558 35.148-.412.382-.808.366-2.013.718 5.551-10.131 6.771-21.224 14.244-29.691zm-44.593 44.441c-3.935 9.397-11.316 15.48-18.697 21.562 4.316-8.985 9.394-17.145 18.697-21.562zM751.35 564.77c5.353-4.967 10.722-10.331 14.931-16.535.839-1.162 1.693-2.72 2.852-1.88 1.159.84-.488 2.368-.915 3.148-3.904 8.603-10.523 15.51-18.286 21.18-1.632 1.131-3.279 2.659-6.451 2.538 2.898-3.072 4.987-5.777 7.869-8.451zm-56.839 11.744c6.649-7.702 13.283-15.007 20.695-21.884 2.059-1.91 4.499-3.408 7.305-4.096 2.013-.719 2.775.106 1.906 2.062-.427.78-.442 1.177-.869 1.956-7.885 8.848-14.259 19.744-24.447 26.514-4.072 2.629-8.159 5.655-12.231 8.284l-.762-.825c2.562-4.676 5.093-8.557 8.403-12.011zm-410.418-87.76l.076-1.987c.046-1.192-1.067-3.224.534-3.56 1.617-.734 2.333 1.283 3.081 2.505.381.413.747 1.223 1.128 1.635 2.12 6.845 3.844 13.675 5.979 20.122-.396-.015-.808.367-.808.367-4.957-5.362-11.118-10.373-9.99-19.082zm-28.153-11.425c5.841 3.009 12.933 14.819 14.153 24.414-7.015-3.452-15.587-18.103-14.153-24.414zm44.045 52.616c-2.745-.901-5.49-1.802-7.808-3.483-4.637-3.36-9.7-5.942-15.587-7.759-3.919-1.344-6.176-4.614-8.83-7.898-.381-.413-.351-1.207-.336-1.605.473-1.971.946-3.942 3.66-2.246 5.399 4.185 11.713 5.223 17.997 7.056 7.473 1.878 10.416 7.959 12.551 14.407.717 2.016-.457 1.573-1.647 1.528zm27.071 29.286c-6.68-1.847-13.787-2.916-20.924-3.19-7.931-.304-14.138-4.123-19.887-9.516-2.303-2.077-4.195-4.537-6.864-7.424 20.742-2.387 35.855 7.343 50.481 19.442-1.25 1.544-2.028 1.116-2.806.688zm2.12-13.843c-.656-3.606-2.105-7.242-2.364-10.833-.565-5.99 2.028-11.46 4.605-16.533.854-1.559 1.617-.734 2.379.091 1.876 2.857 2.166 5.653 1.266 8.403-1.387 5.119-1.586 10.284-.198 15.509 1.022 4.416.839 9.183 1.434 14.378-3.843-3.33-6.1-6.6-7.122-11.015zm24.798 26.414c-.366-.81.061-1.589.107-2.781.03-.794.473-1.971 1.266-1.94 1.189.045 1.143 1.237 1.509 2.047.351 1.207.687 2.811.626 4.4-.122 3.178.168 5.975 1.235 9.198.748 1.223.687 2.812-.976 4.737-1.754-6.035-2.76-10.848-3.767-15.661zM320.09 761.474c-3.996.642-7.961.49-11.88-.854-1.952-.871-5.918-1.023-5.033-3.376.473-1.971 4.011-1.04 6.375-.551 3.934.947 7.503 1.084 11.468 1.236l1.19.045c-.046 1.192.305 2.399.259 3.591-.778-.428-1.586-.061-2.379-.091zm318.01-80.897c2.028-1.115 4.026-1.437 5.215-1.391 2.776.107 4.728.977 6.269 2.23.381.412 1.555.855 1.128 1.635-.442 1.176-1.235 1.146-2.028 1.115-3.538-.931-7.153.124-10.676-1.205-.778-.428-1.967-.473-1.937-1.268.031-.795 1.22-.749 2.029-1.116zm14.289-20.538c-4.011 1.04-7.61 1.697-11.987 1.927 3.645-1.849 7.275-3.301 11.271-3.944.793.031 1.997-.321 2.348.886.366.81-.839 1.162-1.632 1.131zm33.155-25.782c-1.677 2.323-2.577 5.073-5.825 6.938.93-3.545 2.211-5.883 4.285-8.191.412-.382.854-1.558 2.013-.718.381.412-.046 1.192-.473 1.971zm6.36-.154c-.808.367-1.174-.443-.763-.825.488-2.368 2.486-2.689 4.499-3.408-.015.397.366.81.366.81-.869 1.956-2.104 3.102-4.102 3.423zm18.987-8.422c.793.03 2.394-.306 2.745.901s-.854 1.559-1.281 2.338c-2.501 3.087-6.146 4.936-9.745 5.594-1.205.352-2.394.306-1.922-1.665.931-3.545 6.238-7.32 10.203-7.168zm-12.719-10.037c1.22-.749 2.806-.688 2.73 1.299-.138 3.575-4.316 8.985-7.519 9.658-1.601.336-2.394.306-2.333-1.283 1.723-3.515 3.461-7.427 7.122-9.674zm-11.149-9.578c.397.015 1.19.045 1.601-.337 1.19.046 2.395-.306 3.142.917.351 1.207-.854 1.558-1.677 2.322-9.151 10.789-19.78 18.737-33.415 22.192-.793-.03-1.205.352-1.998.321l-.793-.03c7.26-13.249 17.95-22.785 33.14-25.385zm-52.721 38.956c4.834-1.804 8.921-4.83 13.024-8.253 1.631-1.131 3.263-2.262 5.246-2.186 10.355-.796 19.628-4.419 27.817-10.868 2.456-1.895 5.323-4.172 8.586-6.434-1.342 3.927-1.845 6.693-4.712 8.97-6.527 4.524-13.451 9.032-19.612 14.366-3.294 3.056-4.987 5.776-3.554 9.81.351 1.207.321 2.001-1.281 2.338-3.614 1.055-6.847 2.522-10.431 2.782-5.567.185-10.035 2.798-14.504 5.412-1.22.749-1.647 1.528-2.47 2.292-.976-5.607-2.349-11.23-3.722-16.853 1.159.841 3.584-.26 5.613-1.376zM487.845 508.507c84.856 3.256 150.482 104.045 145.848 224.816-4.634 120.771-77.394 216.25-162.646 212.979-84.856-3.256-150.483-104.045-145.849-224.816 4.635-120.771 77.791-216.235 162.647-212.979zM291.66 622.724c-2.12-6.845-5.46-12.941-7.992-19.404-1.799-4.843-2.791-10.053-2.593-15.218.031-.794.076-1.986.885-2.353 1.22-.749 1.967.473 2.745.901 4.224 3.743 5.628 8.571 6.223 13.766.335 1.604-.107 2.781.64 4.003 4.484 7.334 4.972 15.31 4.652 23.652-.046 1.192-.076 1.987.244 3.988-1.86-3.254-3.736-6.111-4.804-9.335zm-26.826-4.61c-2.456-8.449-4.911-16.898-4.18-25.623.107-2.781 1.388-5.119 3.859-7.411 1.495 12.788.58 26.28 5.659 38.809-3.127-1.314-4.637-3.361-5.338-5.775zm-42.337-14.356c-3.294-7.288-7-14.194-8.282-22.2-.64-4.003-.503-7.578.839-11.506.457-1.573.93-3.545 2.516-3.484 1.586.061 2.318 1.681 3.051 3.3 2.211 4.461 3.614 9.29 3.813 14.469-.244 6.357-1.678 12.667-1.937 19.421zm-43.099-25.525c-2.547-6.066-3.097-12.453-2.853-18.809.656-6.738.503-13.11 1.159-19.848.107-2.781.625-5.944 2.699-8.252l-.122 3.178c-.213 5.562 1.205 9.993 6.665 12.59 2.334 1.283 3.859 2.933 2.959 5.683-1.464 7.106-.93 13.89 0 20.689.916 7.196-1.341 14.271-2.028 21.804-2.562-5.668-5.521-11.352-8.479-17.035zm-28.673-49.639c.534-3.56 1.845-6.693 3.95-9.795 1.25-1.543 2.043-1.513 2.76.504 1.434 4.034 1.678 8.021.733 11.964-2.257 7.075-3.737 14.577-5.597 21.667-.885 2.353-.991 5.134-.29 7.548.336 1.605.671 3.209-.579 4.752-2.212-4.461-2.425-9.243-2.242-14.011-.107-7.563.182-15.111 1.265-22.629zm-14.276-52.269c.412-.382.443-1.177 1.236-1.146.793.03.762.825.732 1.619 1.54 11.597 3.462 23.607-.564 35.388-.442 1.176-.473 1.971-.915 3.148-1.449-3.637-1.312-7.212-1.556-11.2-.503-7.579-.625-14.745-.732-22.308.473-1.971.945-3.943 1.799-5.501zm-17.63-16.591c1.845 3.651 1.647 8.816-.839 11.506-1.25 1.543-1.997.321-2.348-.886-1.48-2.842-.107-7.564 3.187-10.62zm-20.406-16.697c.488-2.369.96-4.34 2.989-5.456 2.029-1.115 3.203-.673 3.111 1.711l-.03.795c-1.037 6.326-3.264 12.606-3.904 18.947-.991-5.21-3.172-10.466-2.166-15.997zm-6.984 57.819c9.456 1.954 15.983 7.775 20.833 15.918 2.989 4.889 6.375 9.793 9.365 14.682-.016.397-.412.382-.428.779-2.714-1.695-5.017-3.773-7.732-5.468-4.651-2.964-9.715-5.545-14.382-8.112-5.063-2.581-7.655-7.455-10.263-11.931-.367-.81-.717-2.017-.275-3.194-.305-2.399.518-3.163 2.882-2.674zm-17.22-68.695c7.29 6.646 8.877 17.051 6.056 28.481-2.67-2.888-6.726-21.345-6.055-28.481zm2.503 38.291c-5.811-3.804-11.637-7.21-17.051-10.999.015-.397.412-.382.427-.779 8.723.335 15.693 4.979 16.624 11.778zm-51.9-34.218c8.236 2.703 16.975 2.641 25.668 3.77 1.982.076 3.538.931 5.093 1.787 4.621 3.758 8.023 8.265 11.408 13.169-4.331-.962-8.677-1.527-12.582-3.268-4.285-2.154-8.601-3.513-12.917-4.872-1.968-.473-3.935-.947-5.933-.625-4.407 1.024-11.728-4.827-11.941-9.609-.367-.81.411-.383 1.204-.352z" fill="#BF9475" fill-opacity=".1"/><path d="M1017.14 47.418c-2.11 3.515-4.59 6.566-7.45 9.153-1.23 1.3-2.86 2.587-4.4 1.629-2.7-1.452-5.1-.645-7.494.162-4.005 1.644-7.993 2.84-11.999 4.483-2.002.822-3.218 1.675-2.91 3.934-.069 1.795.238 4.054-2.141 4.413-5.152.7-7.292 5.113-8.662 10.005-.446 1.331-.908 3.111-2.106 3.515-1.592.388-2.328-.988-3.064-2.365-1.094-2.29-1.899-1.87-3.902-1.049-4.005 1.644-8.027 3.737-11.691 6.743-1.626 1.286-2.841 2.139-2.945 4.831 1.968.076 3.184-.776 4.776-1.165 1.609-.837 2.755.106 3.491 1.483.718 1.825-.874 2.213-1.695 3.08-2.431 1.705-5.238 2.946-7.31 5.563-1.25 1.75-2.5 3.5-.617 5.82 2.6 4.145 2.497 6.838-.037 11.235-4.195 6.581-9.143 12.234-15.579 15.583-2.807 1.241-5.649 3.379-8.079 5.084-6.077 4.261-11.042 10.363-17.102 14.176-6.881 4.68-12.223 10.318-16.469 18.246-3.39 6.162-7.944 11.831-9.794 18.951-1.816 6.223-5.566 11.473-8.545 17.202-.856 1.765-2.465 2.602-4.04 2.541-4.689-1.079-7.924 1.045-11.211 4.514-5.77 6.521-12.634 10.752-20.268 14.505-4.023 2.093-8.011 3.288-11.263 5.86-8.149 6.879-17.323 9.673-26.874 12.003-2.003.822-4.365.732-6.709.192-9.379-2.157-17.373.682-25.11 7.127-1.626 1.286-3.646 2.557-5.273 3.843-8.473 5.069-16.877 8.342-26.325 7.98-5.117-.197-10.645.04-15.797.742-4.348.282-8.747 1.911-12.769 4.004 3.919.6 8.232 1.215 12.22.02 6.385-2.002 13.059-1.297 19.306.291 2.738.555 5.459 1.558 7.804 2.098 5.853 1.573 11.81.453 17.714.679 5.511.212 10.594 1.306 14.752 5.96 2.652 2.798 3.627 8.229 1.966 10.413-2.893 3.485-5.769 6.521-10.51 6.788-6.71.192-12.974-.947-18.758-4.315-3.097-1.467-6.212-2.486-9.361-2.607-14.12-1.89-28.188-5.126-40.868-13.703-1.147-.943-2.704-1.453-4.261-1.962-.77-.479-1.558-.509-2.328-.988 1.555 10.847 2.306 22.112 2.662 33.363 2.534-4.398 5.445-8.331 8.749-12.25 4.126-4.786 7.223-3.318 8.163 3.01-.034.898.325 1.811.667 3.172l2.465-2.602c6.163-6.506 8.149-6.879 15.062-2.119.377.464 1.147.943 1.54.958 1.934.973 3.457 2.38 3.337 5.522-.121 3.141-2.517 3.948-4.503 4.322-3.971.746-7.942 1.493-11.536 2.703-.787-.03-1.592.389-1.626 1.286-.018.449.753.928 1.129 1.392 2.687 1.901 4.98 3.787 8.077 5.254 4.261 1.962 8.574 2.576 12.631-.414 3.253-2.572 6.454-3.798 10.014-4.111 1.985-.373 3.2-1.225 4.468-3.424 2.551-4.846 5.102-9.692 11.007-9.466 1.575.061 3.594-1.21 4.296 1.064 1.094 2.289.221 4.503-.635 6.268-1.267 2.199-2.893 3.485-4.554 5.668 1.916 1.422 3.867 1.947 5.1.646 3.663-3.006 8.028-3.738 11.657-5.846 2.003-.822 3.252-2.572 3.732-4.801.497-2.677 1.37-4.891 2.261-7.554 1.302-3.096 3.75-5.25 6.899-5.129 3.543.136 5.818 2.471 6.451 6.54.307 2.26 1.505 1.856 3.097 1.468 7.172-1.973 12.444-5.815 15.116-13.803.891-2.663 2.569-5.295 3.853-7.943.856-1.765 2.482-3.051 4.433-2.527 1.951.525 1.865 2.769 1.796 4.564-.189 4.937-2.312 8.901-5.582 11.921-4.109 4.337-8.234 9.123-15.013 11.111 2.721 1.003 4.655 1.976 6.606 2.5 1.934.974 3.081 1.916 2.977 4.609-.086 2.244-.566 4.473-2.586 5.744-.804.419-2.002.822-3.2 1.226-6.761 1.538-13.025.399-19.734.591-1.575-.06-3.526-.585-4.655-1.977-2.652-2.798-5.802-2.919-9.02-1.245-3.2 1.226-6.453 3.798-9.209 3.692-8.232-1.215-15.883 2.987-23.808 4.031-.787-.03-1.592.388-3.183.777 5.835 2.021 10.508 3.549 15.677 2.399.787.03 1.609-.837 1.968.076.359.912.307 2.259-.121 3.141-2.089 3.066-4.879 3.858-7.993 2.84-2.345-.54-4.655-1.977-6.965-3.414-5.391-3.353-11.209-5.823-17.525-5.616-5.528.237-11.091 1.372-16.139-.62l-1.969-.075c-3.201 1.225-5.922.222-8.18-2.561-1.13-1.392-2.67-2.35-4.21-3.308-.376-.464-1.146-.943-1.523-1.407.118 7.196.236 14.392-.056 22.022 3.663-3.006 7.737-6.445 11.401-9.451 2.841-2.138 4.364-.732 4.227 2.859-.549 4.024-1.851 7.12-5.069 8.795-2.807 1.241-5.597 2.032-8.387 2.824-.787-.03-2.003.822-2.379.359l-.138 3.59c.788.03 1.558.509 2.328.988 3.833 2.844 8.129 3.908 12.493 3.176 3.971-.746 7.617-3.303 10.87-5.875 2.841-2.138 6.008-2.466 9.14-1.897 2.344.54 4.278 1.513 6.64 1.603 3.149.121 4.21 3.308 2.908 6.405-1.695 3.081-3.732 4.801-6.916 5.577-2.002.822-4.382 1.181-6.367 1.554.736 1.377 1.899 1.871 2.687 1.901 5.818 2.47 12.048 4.507 18.294 6.095 5.083 1.094 9.413 1.261 13.864-1.715 1.609-.837 3.201-1.225 4.81-2.063.805-.418 2.379-.358 2.037-1.719-.342-1.362-1.54-.958-2.704-1.453-1.557-.509-4.399 1.63-4.295-1.063.086-2.244 2.824-1.69 4.809-2.063l.394.015c1.986-.373 3.919.6 4.621 2.874.701 2.274.221 4.503-1.405 5.789-1.233 1.301-2.448 2.154-4.485 3.873 1.933.974 3.491 1.483 5.048 1.992 3.115 1.018 5.802 2.919 7.273 5.673 2.942 5.506 4.669 11.865 9.632 16.101.753.927.701 2.274.256 3.605-.822.868-1.575-.06-2.345-.539-3.474-1.931-6.537-4.296-10.456-4.896-3.919-.6-7.393-2.531-10.405-6.242-1.505-1.856-3.422-3.278-5.698-5.613.325 1.811.308 2.259.291 2.708-.018.449.341 1.362.324 1.811.291 2.708-.224 5.834-2.637 7.09-2.02 1.271-4.365.731-6.281-.691-5.356-4.25-8.693-9.772-9.992-17.013-.649-3.621-1.778-5.013-5.287-6.046-6.246-1.588-12.87-3.64-19.099-5.677-7.393-2.531-14.376-5.496-20.878-10.69 0 0-.394-.015-.377-.464-.738 8.961-1.476 17.923-2.607 26.868l1.181.046c2.755.106 5.151-.701 7.924-1.045 3.954-.297 7.976-2.39 11.433-.01 2.687 1.901 5.391 3.353 8.488 4.82 2.721 1.003 2.259 2.784.615 4.518-.822.868-1.626 1.286-2.431 1.705-5.255 3.394-10.835 4.978-17.099 3.839-3.131-.57-6.709.192-9.806-1.276-.77-.479-1.558-.509-1.917-1.422-.462 1.78-.514 3.127-.977 4.907.394.015.377.464.77.479 5.357 4.251 10.302 8.935 13.586 15.803 1.831 3.666 4.466 6.914 7.512 9.727 3.045 2.814 6.16 3.832 10.131 3.086 4.365-.732 9.14-1.897 13.795.08 1.557.509 2.362.09 3.594-1.211 2.894-3.484 6.181-6.954 9.485-10.873 4.947-5.653 13.283-7.131 19.461-3.747 3.08 1.916 3.422 3.277 1.71 6.807-2.586 5.744-7.43 8.704-11.898 12.129-2.842 2.138-5.511-.212-8.267-.317-.787-.031-2.379.358-2.31-1.438.069-1.795 1.643-1.734 2.413-1.255 6.247 1.588 11.126-2.27 15.611-6.143 1.215-.853 2.824-1.69 2.5-3.5-.325-1.811-2.311-1.437-3.492-1.483-1.18-.045-2.361-.09-3.132-.569-7.872-.302-13.487 2.179-17.682 8.76-.41.434-.428.883-.462 1.78.598 4.967-.224 5.835-4.52 4.771-6.246-1.588-12.099-3.161-18.484-1.159-3.201 1.226-6.315.207-8.985-2.142-8.813-6.631-15.16-15.864-22.312-24.678-2.931 14.72-6.22 28.527-10.673 41.84.376.464.736 1.377 1.146.943 3.167-.328 6.624 2.052 9.158-2.345 3.766-5.699 10.303-1.403 11.312 3.131.684 2.723.564 5.864-.327 8.527-.873 2.214-.138 3.59 1.796 4.564 3.491 1.482 5.356 4.25 5.971 8.769.256 3.605 2.566 5.042 5.733 4.714 3.56-.313 7.085.272 10.183 1.739 3.885 1.498 4.569 4.221 2.445 8.185-1.267 2.198-2.893 3.484-4.913 4.755-4.416 2.078-9.088.55-13.795-.08-1.574-.06-2.704-1.452-2.224-3.681.514-3.126-.598-4.967-3.336-5.521-1.181-.046-2.738-.555-3.474-1.932-1.471-2.753-3.816-3.292-5.801-2.919l-1.969-.075c-.787-.031-2.327-.989-2.79.791-.428.883.308 2.26 1.061 3.187.736 1.377 1.882 2.32 3.011 3.712.753.928.701 2.274.256 3.605-.428.883-1.25 1.75-2.431 1.705-3.919-.6-7.838-1.2-10.473-4.447-2.652-2.799-5.304-5.597-7.546-8.83-1.523-1.406-1.83-3.666-1.368-5.446.035-.897.446-1.331.48-2.229-29.713 75.719-82.885 125.817-141.932 123.552-86.602-3.323-152.349-118.663-147.027-257.344.671-17.504 2.507-34.513 5.112-51.043-2.945 4.831-3.956 10.635-4.985 16.888-.565 4.473-1.919 8.916-2.878 13.374-.48 2.229-2.089 3.066-4.023 2.093-1.951-.525-1.488-2.305-1.026-4.085.463-1.78 1.302-3.096 2.141-4.412 2.5-3.5 2.655-7.54 2.827-12.028-1.198.404-1.627 1.286-2.431 1.705-4.074 3.439-5.873 9.214-9.571 13.117-6.145 6.057-8.8 13.596-8.751 22.587l-.103 2.693c-.413 10.771-6.2 17.741-12.363 24.246-1.643 1.735-3.201 1.226-3.491-1.482-.325-1.811-.239-4.055-1.351-5.895-1.609.837-1.661 2.184-2.5 3.5l-12.946 29.168c-1.746 4.428-4.263 8.376-7.533 11.397-2.448 2.153-6.812 2.885-8.318 1.029-2.259-2.783-.974-5.431.31-8.078 2.157-4.862 5.462-8.78 9.142-12.235 4.485-3.873 7.824-8.689 10.016-14.448 3.048-7.524 6.884-15.018 11.866-21.568.411-.434 1.215-.853.463-1.781-8.764 2.361-17.648 7.863-23.794 13.92-2.465 2.602-4.827 2.512-7.548 1.508-.77-.479-1.54-.958-1.112-1.84.908-3.112 2.945-4.831 5.718-5.175.787.031 1.968.076 2.79-.791 3.732-4.801 8.918-6.4 14.104-7.999 7.189-2.421 13.301-7.58 18.642-13.218 1.643-1.735 2.482-3.051-.65-3.621-1.163-.494-2.738-.555-3.473-1.931-2.96-5.058-5.767-3.817-9.448-.363-2.465 2.603-6.795 2.436-9.996 3.662-1.592.388-2.825 1.689-4.33-.166-1.13-1.392-1.061-3.187-.598-4.967.428-.883.873-2.214-.29-2.708-.771-.479-1.592.388-2.02 1.271-2.483 3.051-4.195 6.581-5.137 10.59-2.261 7.554-6.456 14.135-11.78 19.324-4.485 3.873-7.807 8.241-10.769 13.521-1.267 2.198-2.534 4.397-4.571 6.117-1.626 1.286-3.218 1.674-5.152.701-1.934-.973-1.471-2.753-1.402-4.548.514-3.127 1.028-6.253 3.1-8.871.41-.434 1.232-1.301.479-2.229-4.861 3.409-10.099 6.355-14.602 10.677-4.896 4.307-10.458 5.441-16.38 5.664-3.543-.136-4.244-2.41-2.925-5.956 1.712-3.53 4.571-6.117 7.772-7.342 7.617-3.304 13.814-10.707 22.15-12.185.393.015.41-.434.821-.867-7.976 2.39-15.883 2.986-23.518 6.738-6.025 2.915-12.427 5.366-19.119 5.11-4.33-.167-8.677.116-12.99-.499-1.968-.075-4.296-1.064-4.586-3.772-.307-2.259 2.072-2.617 3.287-3.469 4.057-2.991 9.209-3.692 13.608-5.321-2.328-.988-5.014-2.889-7.376-2.98-10.629-.408-19.493-5.692-28.323-11.874-.77-.479-1.934-.973-1.865-2.768.052-1.347 1.267-2.199 2.072-2.618l6.008-2.466c-1.112-1.841-2.67-2.35-4.227-2.859-3.115-1.018-6.212-2.486-9.293-4.402-7.735-3.892-12.028-15.294-9.698-24.643.925-3.56 1.729-3.979 4.399-1.629 1.899 1.87 3.816 3.292 5.732 4.714 6.897 5.209 12.954 11.734 16.169 20.397 2.156 5.477 5.15 9.637 9.77 12.511 3.851 2.395 7.684 5.239 12.732 7.231-1.471-2.754-2.994-4.161-4.91-5.583-5.733-4.714-7.871-10.639-7.167-18.703.069-1.795.172-4.488 2.175-5.31 2.002-.822 3.525.585 4.654 1.977 4.552 4.669 7.495 10.175 9.598 16.998 1.402 4.549 3.199 9.112 5.388 13.691 2.96 5.058 6.417 7.438 11.551 7.185 1.969.076 2.773-.343 2.072-2.617-1.061-3.187-1.727-6.359-2.411-9.082-1.043-3.636-1.317-6.793.002-10.338 1.336-3.994 1.508-8.482 1.27-12.536-.495-7.66 1.577-10.277 8.286-10.469l3.543.136c1.951.524 3.097 1.467 3.816 3.292.701 2.275-.532 3.576-1.764 4.877-2.466 2.602-4.537 5.219-5.839 8.316-3.459 7.957-3.769 16.036-2.504 24.175.615 4.518 1.368 5.446 5.356 4.251 5.169-1.151 9.944-2.316 15.131-3.915 1.198-.403 2.379-.358 2.841-2.138-1.951-.524-3.936-.151-5.922.222-3.971.747-7.548 1.509-11.45.46-1.164-.494-2.738-.555-3.08-1.916-.325-1.81.908-3.112 1.729-3.979 3.698-3.903 8.097-5.532 13.266-6.682 6.761-1.539 13.83-.818 20.933-.995 2.361.091 4.741-.268 7.171-1.972 6.882-4.68 14.122-8.448 21.346-11.766.804-.419 1.985-.374 2.054-2.169-1.557-.509-3.132-.57-4.689-1.079-1.558-.509-3.098-1.467-3.012-3.711.087-2.244.943-4.009 2.928-4.382 1.986-.374 3.988-1.196 6.333-.656 6.675.705 12.973.947 19.579 3.448 5.836 2.022 11.792.902 17.458-2.926-6.178-3.383-11.551-7.185-18.654-7.008-2.772.343-5.545.686-8.335 1.478-4.793 1.614-6.727.64-8.916-3.938-.719-1.826-1.506-1.856-3.098-1.468-7.976 2.391-13.384-.513-16.599-9.176-.342-1.362-1.472-2.754-.633-4.07 1.233-1.301 2.379-.358 3.543.136 3.491 1.482 6.571 3.398 9.635 5.763 1.916 1.422 4.244 2.411 6.64 1.604 8.37-2.376 16.208-1.176 23.464 4.945 1.899 1.871 3.816 3.293 5.732 4.715 6.879 5.657 10.457 4.896 16.26-2.523 1.233-1.301 3.27-3.02 2.552-4.846 1.847 3.217-.549 4.024-2.124 3.964-3.953.298-6.246-1.588-8.077-5.254-.718-1.826-.667-3.172.96-4.458 4.074-3.439 8.473-5.069 13.487-2.179 3.85 2.395 4.261 1.961 4.844-2.961l.052-1.346c1.028-6.253.635-6.268-4.928-5.133-13.504 2.628-26.512 2.578-39.758-1.526-2.328-.988-6.264-1.139-9.14 1.897-4.913 4.755-11.298 6.758-17.306 9.224-1.609.837-3.577.762-5.152.701-5.476-1.109-5.836-2.022-4.037-7.796.017-.448.034-.897.428-.882 2.945-4.831 7.516-10.948 12.958-8.942 1.951.525 3.902 1.049 6.299.242-3.851-2.395-7.701-4.79-11.569-6.737-3.867-1.946-6.896-5.208-9.086-9.787-1.094-2.289-2.241-3.232-4.603-3.323-17.697-1.128-34.744 1.364-50.886 11.082-.411.434-.805.419-1.215.852-2.003.822-3.15-.12-3.851-2.395-.701-2.274 1.267-2.198 2.465-2.602 7.566-1.957 15.166-4.812 22.731-6.769 5.58-1.583 11.571-3.601 17.493-3.823 3.953-.298 7.873.302 12.973.947-4.859-6.928-9.376-12.495-16.41-14.114-5.853-1.573-11.758-1.799-17.697-1.128-6.333.656-7.445-1.185-7.187-7.917.172-4.488 1.799-5.774 5.701-4.725 2.721 1.003 5.1.645 8.249.766-7.701-4.79-12.491-13.514-19.387-18.723-4.603-3.323-9.703-3.968-14.855-3.267-5.563 1.135-11.109 1.821-17.065 2.941-1.985.373-3.954.298-5.887-.675-1.917-1.422-2.259-2.784-.598-4.967 2.465-2.602 5.272-3.843 8.062-4.635 1.986-.373 4.365-.732 6.367-1.554-6.948-3.862-13.467-8.607-21.854-5.782-10.784 3.631-28.599-4.693-34.073-16.14.017-.449-.377-.464-.359-.913-.719-1.825-1.42-4.1-.17-5.85 1.661-2.183 3.646-2.556 6.008-2.466 5.887.676 9.686 4.417 13.45 9.056 6.04 6.974 12.098 13.499 22.025 11.633 1.181.045 2.738.554 2.79-.792.462-1.78-1.095-2.29-2.259-2.784-6.913-4.76-12.166-11.703-17.847-17.764-1.129-1.392-2.635-3.248-1.368-5.447 1.268-2.198 3.664-3.005 6.008-2.466 3.509 1.034 7 2.516 9.224 6.197 4.124 5.552 7.032 11.956 9.94 18.36 1.813 4.115 4.448 7.363 8.298 9.758 4.997 3.338 9.994 6.676 15.008 9.565 3.08 1.916 6.589 2.949 11.244 4.926-2.207-4.13-4.431-7.811-3.9-11.386.652-6.717-1.606-9.501-7.014-12.405-8.488-4.821-16.531-10.972-24.608-16.226-6.161-3.833-12.321-7.665-16.393-14.563-1.848-3.217-1.796-4.564 1.422-6.238 5.632-2.93 18.125.246 21.855 5.783 1.112 1.84 1.077 2.738-.549 4.024-2.02 1.271-3.577.762-4.689-1.079-2.891-6.853-8.813-6.631-14.324-6.842-2.756-.106-2.807 1.241-1.712 3.53 1.847 3.217 4.5 6.016 7.186 7.917 6.914 4.76 14.203 9.984 21.511 14.759 6.93 4.311 13.826 9.52 22.041 11.183 3.132.57 5.802 2.92 8.078 5.254 3.387 4.175 6.792 7.902 9.787 12.062 5.235 7.392 10.471 14.785 12.06 24.734 1.966 10.413 9.238 16.086 15.278 23.06 1.147.943 1.934.973 2.003-.822l.103-2.693c.087-2.244.549-4.024 2.552-4.846 2.002-.823 3.491 1.482 4.603 3.322.359.913.736 1.377.701 2.275 1.658 8.154 4.926 15.471 6.19 23.61.36.912.719 1.825 1.489 2.304 3.833 2.844 7.666 5.688 12.355 6.767 1.164.494 2.739.554 3.595-1.211 1.284-2.647 2.824-1.689 4.347-.282 1.882 2.319 4.227 2.859 6.965 3.413 2.345.539 4.69 1.079 6.623 2.052 7.753 3.444 15.335 1.038 22.884-.47-6.247-1.588-12.031-4.957-17.422-8.31-3.85-2.395-7.752-3.443-12.117-2.712-1.591.388-3.132-.57-4.672-1.528-2.704-1.452-2.652-2.798-.58-5.416.821-.867 2.413-1.255 2.071-2.617-.342-1.361-2.327-.988-3.132-.57-1.574-.06-2.773.343-4.347.283-3.132-.57-5.836-2.022-6.092-5.627-.187-5.401-3.25-7.766-7.546-8.83-3.902-1.048-7.786-2.546-9.993-6.676-2.242-3.232-4.911-5.582-8.009-7.049-3.473-1.931-6.108-5.179-7.117-9.712-.65-3.621-2.138-5.925-4.431-7.811-4.193-3.757-7.546-8.829-9.684-14.755-.718-1.825-1.437-3.65.189-4.936 1.644-1.735 3.253-2.572 5.598-2.033.77.479 1.933.973 2.704 1.452 3.439 2.829 6.947 3.862 11.295 3.58 3.166-.328 5.87 1.124 8.129 3.908 1.505 1.855 3.011 3.711 4.499 6.015 4.449 7.362 10.661 9.848 18.551 9.701-.753-.927-1.095-2.289-1.848-3.217-.735-1.376-.701-2.274.891-2.662 3.988-1.196 7.976-2.391 11.844-.445 1.934.973 3.885 1.498 6.247 1.588-4.518-5.567-9.104-9.338-15.385-10.029-1.574-.06-3.132-.57-4.672-1.528-4.603-3.323-9.241-5.748-13.861-8.622-4.997-3.338-9.994-6.676-15.881-7.351-9.037-.797-17.611-3.373-26.579-5.964-2.345-.54-4.296-1.064-5.956 1.12-1.233 1.301-2.825 1.689-4.776 1.165-2.344-.54-3.867-1.947-5.784-3.369-7.29-5.223-12.491-13.513-21.013-17.436-1.934-.973-1.489-2.305-.273-3.157 1.215-.852 1.249-1.75.514-3.126-4.089-6.45-8.589-12.466-14.732-16.747-10.388-6.691-20.758-13.83-32.002-18.757-4.654-1.976-8.47-5.269-11.036-10.312-1.848-3.217-3.696-6.434-5.972-8.769-1.129-1.391-2.258-2.783-1.385-4.997 1.267-2.199 2.483-3.05 4.827-2.511 2.739.554 5.46 1.557 7.753 3.443 9.223 6.197 16.393 14.563 22.706 24.693 2.977 4.61 7.666 5.688 12.68 8.577-1.419-4.1-2.908-6.404-4.807-8.275-5.715-5.163-12.646-9.474-16.701-16.821-5.902-10.565-10.983-21.996-15.276-33.398-1.095-2.289-1.402-4.548.276-7.18 2.071-2.618 4.005-1.645 6.333-.657 10.097 3.984 15.657 13.186 19.591 23.675 2.48 7.287 5.354 14.589 9.443 21.038 1.847 3.217 3.301 6.42 4.345 10.055 2.086 7.272 4.583 14.109 9.083 20.125s9.787 12.062 14.698 17.644c1.899 1.871 3.388 4.175 6.485 5.642-.307-2.259-1.454-3.202-2.6-4.145-8.762-7.977-13.859-18.96-18.957-29.942-1.095-2.29-1.026-4.085.635-6.269 1.66-2.183 3.235-2.123 5.169-1.15 5.014 2.89 9.583 7.11 12.953 11.734 4.859 6.929 8.486 15.158 10.127 23.761 1.299 7.241 5.405 13.242 10.385 17.029 5.356 4.251 12.493 3.176 19.168 3.882-.325-1.811-1.129-1.392-1.899-1.871-7.017-2.067-11.962-6.752-16.856-12.783-6.005-7.871-8.776-17.866-13.566-26.589-2.583-4.594-4.739-10.07-6.928-14.65-1.831-3.665-1.403-4.548 2.192-5.758 4.399-1.63 7.925-1.044 11.33 2.682 3.798 3.742 5.988 8.32 8.178 12.899 5.457 11.895 10.931 23.342 17.62 33.937 3.354 5.073 7.135 9.263 12.56 11.718 2.328.989 4.244 2.411 6.143 4.281 1.883 2.32 4.193 3.757 6.897 5.209 6.16 3.832 12.732 7.231 18.892 11.063 3.474 1.931 7.017 2.067 10.56 2.203-2.67-2.35-5.339-4.7-8.026-6.601-6.913-4.76-13.398-10.402-18.24-17.779-4.842-7.378-8.469-15.607-13.721-22.551-.753-.928-1.112-1.84-1.472-2.753-1.402-4.549-.135-6.747 3.819-7.045 4.741-.268 8.591 2.127 11.603 5.839 2.635 3.247 5.252 6.943 7.494 10.176 8.999 12.031 17.605 24.047 23.746 38.666-.017.449.36.913 1.164.494-1.71-6.807-3.42-13.615-5.934-20.004-2.822-8.648-7.27-16.01-10.092-24.659-.36-.912-1.095-2.289.137-3.59 1.216-.852 2.397-.807 3.132.57 3.012 3.711 6.451 6.54 8.658 10.67 3.285 6.868 7.391 12.868 12.336 17.553 2.652 2.798 4.5 6.015 5.132 10.085.598 4.967 1.59 9.949 2.581 14.931-.034.898 1.489 2.305-.103 2.693-1.198.404-1.54-.958-1.882-2.319-.342-1.362-.684-2.723-.633-4.07-.957-5.88-3.112-11.356-6.893-15.546-5.664-6.51-10.095-14.321-13.721-22.551-.719-1.825-1.848-3.217-3.371-4.624-.445 1.332.325 1.811.684 2.723 4.79 8.724 8.776 17.866 12.762 27.009 2.531 5.94 3.471 12.269 5.198 18.627.342 1.362 1.061 3.187-.548 4.025-2.808 1.24-1.678 2.632-.566 4.473 4.413 8.259 11.275 14.366 15.261 23.508 1.813 4.115 4.842 7.377 7.87 10.64 2.635 3.247 4.894 6.031 8.727 8.874-.307-2.259-1.06-3.186-1.796-4.563l-11.034-20.65c-2.926-5.955-5.064-11.88-5.199-18.627-.256-3.606.977-4.907 3.715-4.352 3.526.584 6.589 2.949 8.419 6.615.753.928 1.489 2.305.256 3.606-1.233 1.301-2.379.358-3.508-1.034-1.489-2.304-2.977-4.609-4.483-6.464-.376-.464-1.129-1.392-1.934-.973-.804.418-.445 1.331-.086 2.244.974 5.431 3.541 10.473 6.124 15.067 4.79 8.724 9.597 16.999 13.172 26.575.342 1.361 1.472 2.753 1.403 4.548 27.798-87.479 85.285-147.3 149.45-144.837 48.418 1.858 89.983 38.511 116.601 94.817.959-4.458 1.508-8.482 3.255-12.91.89-2.662 2.91-3.933 4.93-5.204 1.609-.837 3.167-.328 3.885 1.497 1.06 3.187 1.727 6.359.819 9.47-.479 2.229-.942 4.01-1.439 6.687 9.45-9.975 14.245-21.927 15.155-35.376.086-2.244.19-4.937 1.063-7.15 1.781-5.326 1.988-10.711 1.407-16.127-.615-4.519 1.098-8.049 3.58-11.1 2.072-2.617 4.844-2.96 6.709-.192 4.825 7.826 8.058 16.041 5.694 26.288-.463 1.78-1.319 3.545-.994 5.355 1.985-.373 3.235-2.123 4.467-3.424 2.448-2.153 4.161-5.683 7.362-6.909 3.2-1.225 4.468-3.424 5.393-6.984.531-3.576 1.456-7.136 3.921-9.738 3.698-3.904 5.479-9.229 6.867-14.57 1.798-5.773 3.58-11.099 5.378-16.873.925-3.56 2.603-6.192 5.068-8.795 1.644-1.734 3.27-3.02 5.204-2.047 2.327.988 4.227 2.859 4.5 6.016.101 7.644-.569 14.81-5.91 20.448-1.233 1.301-3.252 2.572-3.749 5.25 12.272-1.327 11.844-.444 14.705-13.37.034-.897.462-1.78.514-3.126.086-2.244.942-4.009 2.175-5.31 3.321-4.367 7.036-8.72 11.504-12.144 2.02-1.27 3.646-2.557 5.939-.67 2.293 1.885 2.19 4.578 1.299 7.24-3.1 8.871-6.97 17.262-14.673 22.81-1.626 1.286-1.643 1.735-.531 3.575 1.488 2.305 2.583 4.594 1.299 7.242-1.747 4.427-4.64 7.912-9.022 9.092-5.974 1.569-11.605 4.499-16.843 7.444-3.218 1.675-6.436 3.349-9.996 3.662-3.56.313-5.615 2.482-7.704 5.548 1.164.494 1.969.075 3.15.12 5.939-.671 11.484-1.357 17.372-.681 2.738.554 5.476 1.109 8.198 2.112 3.491 1.482 4.945 4.685 2.479 7.287-9.484 10.873-19.704 20.369-34.576 17.551-3.132-.57-5.152.701-5.701 4.725-1.149 9.395-7.295 15.452-13.03 21.075-.821.867-2.054 2.168-3.577.761-1.523-1.407-.667-3.172.549-4.024 2.91-3.933 5.804-7.418 8.714-11.352 2.072-2.617 3.356-5.265 3.494-8.855-8.798 3.258-18.231 12.785-23.368 23.375-.428.882-.514 3.126-2.054 2.168-1.558-.509-.702-2.274-.65-3.62.034-.898.463-1.781.873-2.214 3.032-7.075 7.586-12.744 13.662-17.005 1.216-.853 2.414-1.256 3.27-3.021-4.758.716-9.893.969-13.214 5.336-4.126 4.786-10.562 8.134-10.872 16.213-.017.449-.428.883-.839 1.316-2.054 2.169-4.126 4.786-6.18 6.955l-1.233 1.301c1.796 4.563 3.575 9.576 5.371 14.139.017-.448.411-.433.428-.882 1.25-1.75 2.5-3.5 3.373-5.714 2.586-5.744 7.396-7.806 11.864-11.231 1.626-1.286 2.361.091 3.08 1.916-.411.434-.822.868-1.25 1.75-1.643 1.735-3.287 3.47-4.913 4.756-3.663 3.006-6.574 6.939-9.861 10.409-.411.433-1.215.852-1.609.837 2.121 6.374 4.242 12.748 5.952 19.555.137-3.59 1.422-6.238 4.28-8.825 3.27-3.021 5-6.999 5.583-11.921.103-2.693 1.37-4.892 2.637-7.09 2.106-3.515 4.416-2.078 7.138-1.075 2.327.988 3.439 2.829 2.531 5.94-3.065 7.973-4.967 16.44-6.493 25.371-.462 1.78-1.249 1.75-2.002.822-2.224-3.681-2.345-.54-3.201 1.225-2.962 5.28-2.04 12.058-5.002 17.338-.428.882-.086 2.244 1.061 3.187 2.499-3.5 4.999-7 6.352-11.443.445-1.331.121-3.141 2.072-2.617 1.574.06 3.114 1.018 3.028 3.263.187 5.4.374 10.801-3.717 14.689-2.037 1.72-4.092 3.889-6.112 5.159-.393-.015-.41.434-.804.419.29 2.708.974 5.431 1.265 8.139.428-.882 1.232-1.301 2.037-1.72 4.485-3.873 9.688-5.92 14.892-7.968 8.404-3.273 15.989-16.017 15.598-26.37-.495-7.66.568-14.81 3.976-21.422 1.267-2.198 1.747-4.427 2.244-7.105 1.097-8.048 4.128-15.124 10.992-19.355 4.434-2.527 8.301-.58 9.669 4.866 1.368 5.446 1.161 10.832-1.784 15.663-5.479 9.228-10.564 18.472-14.897 28.644-3.442 7.508-8.441 14.508-12.67 21.987-.428.882-1.233 1.301-.873 2.214.359.912 1.557.509 1.951.524 2.379-.358 4.758-.716 6.726-.641 3.543.136 5.58-1.584 6.505-5.144 1.764-4.876 3.904-9.289 7.944-11.831 4.04-2.541 6.146-6.056 5.959-11.457-.256-3.606 1.457-7.136 2.382-10.696 1.781-5.325 2.792-11.13 3.016-16.964.155-4.039 1.097-8.048 2.039-12.058.463-1.78.943-4.009 2.928-4.382 1.592-.388 3.098 1.467 3.833 2.844 2.584 4.594 3.969 9.591 3.745 15.426-.652 6.717-2.485 13.388-4.301 19.611-2.758 10.232-7.432 19.042-15.905 24.111-2.431 1.704-4.862 3.409-6.557 6.49-.428.883-1.233 1.301-.873 2.214.359.913 1.557.509 2.344.539 2.773-.343 5.563-1.135 8.37-2.375 8.798-3.258 17.872-13.698 17.225-27.656-.529-6.762 1.286-12.985 3.889-19.178.856-1.765 1.302-3.096 1.371-4.891 1.525-8.931 1.852-17.459.228-26.51-.307-2.259-.221-4.503 1.405-5.789 1.644-1.735 3.988-1.196 5.529-.238 4.244 2.41 5.269 6.495 5.474 11.447.118 7.196-.534 13.913-2.761 20.57-.462 1.78-.583 4.921-2.534 4.397-1.557-.509.121-3.142.583-4.922 1.919-8.915 2.247-17.443-.986-25.657-.36-.913-.325-1.811-1.506-1.856-.787-.03-1.233 1.301-1.267 2.199-.103 2.693-.207 5.386.084 8.093.032 9.441.064 18.881-4.235 28.155-2.14 4.412-2.706 8.885-1.321 13.882 2.037-1.719 2.894-3.484 4.161-5.683.428-.883.839-1.316 2.002-.822.77.479 1.147.943.736 1.376-2.106 3.515-1.097 8.049-2.04 12.058-.462 1.78-2.157 4.861-1.404 5.789 1.112 1.841 3.56-.313 5.528-.237 4.33.166 7.6-2.855 8.97-7.747.48-2.228.942-4.009 1.816-6.222 5.102-9.693 5.909-20.449 5.535-31.251-.442-9.006 1.87-17.907 7.263-24.891 3.339-4.816 9.209-3.692 11.758 1.799.701 2.274 1.026 4.085 1.316 6.793-.534 13.913-5.723 25.849-10.911 37.786-1.747 4.427-4.264 8.376-5.223 12.834-.463 1.78-1.354 4.443.563 5.865 1.917 1.422 3.201-1.226 4.827-2.512 1.644-1.735 2.911-3.933 4.948-5.653 3.252-2.572 5.324-5.189 6.266-9.199.035-.897.103-2.692 1.661-2.183 1.164.494 1.112 1.84 1.06 3.187-.48 2.229-.959 4.458-.669 7.166 7.292-5.114 13.354-19.265 11.696-27.419-1.319 3.546-2.226 6.657-3.528 9.753-.839 1.317-.942 4.009-3.287 3.47-2.344-.539-2.241-3.232-2.155-5.476.207-5.386 1.953-9.814 4.111-14.675 2.62-6.642 4.864-13.747 2.008-21.498-1.078-2.738-2.276-2.334-3.526-.584-1.661 2.183-2.551 4.846-3.048 7.524-1.046 6.702-1.321 13.883-1.186 20.63-.035.897.701 2.274-.497 2.678-1.198.403-1.129-1.392-1.489-2.305-.546-6.313-.287-13.046-.046-19.329.137-3.59 1.045-6.702 3.117-9.319 2.5-3.5 5.255-3.394 7.873.302 1.488 2.304 1.779 5.012 3.25 7.766 1.439-6.687 1.269-12.537 1.51-18.82.104-2.693.19-4.937 1.851-7.121 3.697-3.903 5.479-9.228 5.685-14.614.086-2.244.19-4.937 2.586-5.744 2.396-.807 3.919.6 5.836 2.022 1.523 1.407 2.652 2.799 3.353 5.073 1.42 4.1 1.248 8.588.699 12.612-.686 7.614-.979 15.244-.074 22.47 1.162 10.832-1.562 20.167-7.777 28.019-2.482 3.051-4.588 6.565-7.088 10.065-.411.434-1.232 1.301-.48 2.229 1.199-.403 2.02-1.271 2.842-2.138 2.962-5.28 7.378-7.358 12.171-8.972 3.201-1.226 5.649-3.379 7.344-6.46 2.123-3.964 3.477-8.407 6.729-10.979 3.27-3.02 3.784-6.147 2.364-10.247-1.026-4.084-2.052-8.169-1.503-12.193 1.097-8.048.62-16.157-1.038-24.311-.974-5.431-.357-11.251 1.818-16.561.873-2.214 2.465-2.602 4.416-2.078 3.098 1.468 4.945 4.685 6.006 7.872 3.215 8.663 3.265 17.654 2.133 26.6-.566 4.473-.738 8.961-1.304 13.434 3.425-7.06 6.832-13.671 10.616-19.818l.034-.898c.19-4.937 1.149-9.395.158-14.377-.992-4.982-2.788-9.546-3.779-14.528-2.018-9.067-2.05-18.507.263-27.408.942-4.009 2.655-7.539 3.597-11.548.463-1.78.155-4.039 2.14-4.412 2.38-.358 3.492 1.482 4.997 3.338 1.13 1.391 1.454 3.202 1.796 4.563.684 2.723.564 5.865.837 9.022 1.144 11.28.32 22.486-2.884 34.049-1.387 5.34-1.987 10.711-2.605 16.53.394.015.77.479.77.479 2.893-3.485 5.787-6.969 8.304-10.918 4.588-6.566 7.602-13.192 6.372-22.229-.633-4.069.703-8.063 2.416-11.593 3.031-7.075 3.683-13.793-.8-20.257-2.977-4.609-3.558-10.025-1.759-15.799 1.319-3.545 3.732-4.8 6.384-2.002 1.882 2.32 3.765 4.639 4.02 8.244.633 4.07.067 8.543.288 13.046 1.713-3.53 2.227-6.657 2.347-9.798-.169-5.85-1.144-11.28-1.331-16.682.035-.897-.324-1.81.48-2.229 1.198-.403 1.54.958 1.506 1.856.615 4.518 1.23 9.037 1.451 13.54.854 8.572-.243 16.62-.964 25.133-.052 1.346-.138 3.59 1.437 3.65 1.181.046 1.643-1.734 2.089-3.065.462-1.78.925-3.56.6-5.37-.632-4.07-.084-8.094.089-12.583-.271-13.494-.918-27.452-5.16-40.2-.701-2.274-.615-4.518 1.388-5.34 2.413-1.256 4.416-2.078 7.172-1.973 1.968.076 3.525.585 4.62 2.874 2.172 5.028 2.359 10.429 2.153 15.814-.79 10.308-.382 20.212.403 30.58-.051 1.346.308 2.259 1.078 2.738 1.164.494 1.609-.837 2.02-1.271 3.27-3.02 3.818-7.045 3.597-11.548-.529-6.763-.271-13.495 1.562-20.166 1.833-6.672 5.223-12.834 10.513-17.126 1.626-1.286 3.612-1.66 5.528-.238 1.934.974 1.454 3.203 1.779 5.013-.069 1.795-.138 3.59-.6 5.37-.635 6.269-1.27 12.537-2.298 18.79 4.091-3.888 7.806-8.24 11.162-13.505 2.517-3.949 6.129-5.608 10.082-5.906 8.284-.132 16.162.17 24.492-1.307 2.79-.792 4.67 1.527 6.14 4.28.81-.418-.05 1.347-.92 3.56zM720.391 280.992c6.982 2.964 13.982 5.48 21.461 5.767 3.149.121 6.247 1.588 9.344 3.056 5.408 2.904 11.296 3.579 16.824 3.342 3.543.136 6.008-2.466 8.079-5.084 1.25-1.75.104-2.693-1.06-3.187-2.704-1.452-6.229-2.037-8.95-3.04-9.756-2.622-19.528-4.794-29.283-7.416-8.198-2.112-16.533-.634-25.262.829 2.652 2.798 5.749 4.265 8.847 5.733zm94.178 31.93c1.198-.404 2.413-1.256 2.465-2.602.052-1.347-.719-1.826-1.506-1.856-7.804-2.097-15.283-2.384-23.67.44 7.683 5.239 15.128 6.424 22.711 4.018zm-16.103-11.855c.805-.418 1.626-1.286 1.284-2.647-.342-1.362-1.54-.958-2.721-1.004-3.936-.151-8.439 4.171-9.826 9.512 4.382-1.181 7.617-3.304 11.263-5.861zm-65.894 1.517c-5.425-2.456-13.384-.514-16.705 3.854 5.904.226 11.091-1.373 16.705-3.854zm-24.923 12.528c4.227 2.859 8.488 4.82 13.64 4.119.394.015 1.181.045 1.592-.388.411-.434.034-.898-.342-1.362-3.08-1.916-5.322-5.148-9.241-5.748l-4.775 1.165c-.394-.015-1.199.403-1.216.852-.428.883-.051 1.347.342 1.362zm.276-7.181c1.181.045 2.379-.358 2.448-2.154.086-2.244 1.37-4.891-.923-6.777-1.523-1.407-2.755-.106-3.594 1.211-2.055 2.168-3.339 4.816-5.428 7.882 2.773-.343 5.135-.253 7.497-.162zm71.112 78.239c-2.925-5.955-9.086-9.787-16.188-9.61 4.106 6 9.942 8.022 16.188 9.61zm-33.851-11.636c2.155 5.476 5.971 8.769 10.574 12.091 1.541.959 1.969.076 2.038-1.719-.153-6.299-5.423-12.793-11.328-13.02-1.181-.045-1.985.373-1.284 2.648zm-26.027-20.326c5.545-.686 10.714-1.837 16.277-2.971 1.198-.404 3.166-.328 2.842-2.139.068-1.795-1.883-2.319-3.064-2.365l-1.574-.06c-8.505-4.372-14.651 1.685-21.926 6.35 2.327.988 5.065 1.543 7.445 1.185zm-7.046 121.985c.718 1.825 1.933.973 3.114 1.018l1.575.061 1.574.06c1.181.045 2.722 1.003 3.167-.328.462-1.78-1.078-2.738-1.848-3.217-1.146-.943-2.704-1.452-3.867-1.946-1.164-.494-2.722-1.004-3.56.313-.822.867-.497 2.677-.155 4.039zm-33.404-23.306c3.56-.313 6.264 1.139 7.684 5.239.718 1.826 3.114 1.019 3.953-.298 1.302-3.096 3.373-5.713 5.821-7.867.805-.418.463-1.78.497-2.678.086-2.244-1.026-4.084-2.942-5.506-1.558-.509-2.739-.555-3.595 1.21-2.175 5.311-5.804 7.419-10.476 5.891-1.557-.509-1.609.837-2.037 1.72-.856 1.765-.086 2.244 1.095 2.289zm-364.111-65.66c4.074-3.439 6.643-8.734 8.03-14.075-4.091 3.888-7.789 7.792-8.03 14.075zm-109.021-86.885c-2.994-4.161-6.416-7.438-10.232-10.731-1.147-.943-2.311-1.437-3.526-.585-1.215.853-.497 2.678-.155 4.04.342 1.361 1.06 3.187 2.224 3.681 4.227 2.859 8.865 5.284 13.502 7.709-.307-2.259-1.454-3.202-1.813-4.114zm8.109 14.694c-2.686-1.901-4.278-1.513-7.531 1.059 8.146 3.459 14.546 11.346 24.045 10.362-5.819-2.471-11.158-7.171-16.514-11.421zm16.366-15.553c-.77-.479-1.112-1.841-2.31-1.437-.805.418-.856 1.765-.908 3.111.29 2.708 1.385 4.998 2.891 6.853 1.848 3.217 4.534 5.118 7.204 7.468-.957-5.88-2.702-11.79-6.877-15.995zm.795 40.932c8.249.766 16.43 3.327 24.526-2.205-6.982-2.965-19.63-2.102-24.526 2.205zm35.337-47.636c.873-2.214-.256-3.606-2.652-2.799-2.397.807-3.664 3.006-3.767 5.699-.121 3.141-.241 6.283.802 9.919 3.321-4.367 4.281-8.825 5.617-12.819zm-10.387 65.224c11.177-3.617 19.394-12.291 28.724-19.124-7.891.146-27.696 12.871-28.724 19.124zm17.02-32.608c9.465-.086 18.587-1.534 27.523-8.383-10.286.954-20.076-.77-27.523 8.383zm17.795 19.111c10.459-5.442 14.843-16.96 20.374-27.535-9.33 6.834-12.567 19.295-20.374 27.535zm55.062-6.877c-.052 1.347-.891 2.663.255 3.606 1.164.494 1.61-.837 2.414-1.256 5.666-3.828 6.301-10.096 6.542-16.379-3.321 4.367-7.789 7.791-9.211 14.029zm-19.112-25.903c2.79-.792 5.58-1.584 8.387-2.825 1.198-.403 2.414-1.255 2.072-2.617.069-1.795-1.506-1.856-3.081-1.916-3.936-.151-6.812 2.885-7.378 7.358zm20.012-18.11c-3.902-1.049-7.821-1.648-11.775-1.351-1.575-.06-3.149-.121-4.793 1.614 5.477 1.109 10.543 2.652 16.054 2.864.787.03 1.951.524 2.002-.822.463-1.781-.701-2.275-1.488-2.305zm11.568 6.737c-2.79.791-5.186 1.598-7.617 3.303-1.215.852-1.267 2.199-.908 3.111.719 1.826 1.9 1.871 3.081 1.917 3.936.151 7.206-2.87 7.361-6.91.052-1.346-1.129-1.391-1.917-1.421zm-37.886-29.771c-.787-.03-1.54-.958-1.968-.075-.428.882.325 1.81 1.095 2.289 2.669 2.35 5.801 2.92 9.413 1.26-2.687-1.901-5.425-2.455-8.54-3.474zm17.798 8.774c5.922-.223 11.108-1.821 16.55.185-3.37-4.624-12.818-4.986-16.55-.185zm-23.065-25.606c-2.345-.54-4.827 2.511-5.324 5.189-.087 2.244 1.505 1.856 2.686 1.901 2.379-.358 5.169-1.15 7.189-2.421 2.414-1.256 4.451-2.975 6.882-4.68-3.937-.151-7.514.611-11.433.011zM194.181 145.287c-3.816-3.293-7.615-7.034-12.715-7.679-.788-.03-1.558-.509-2.379.358-.428.882-.069 1.795.684 2.723.735 1.377 1.865 2.768 2.617 3.696 5.698 5.612 12.235 9.908 19.629 12.44 2.327.988 5.083 1.093 7.496-.162-6.657-1.155-10.353-7.589-15.332-11.376zm9.76-18.054c-.788-.03-1.558-.509-1.969-.075-.428.882.325 1.81.701 2.274 4.158 4.654 8.71 9.324 13.262 13.993-2.463-7.735-4.978-14.124-11.994-16.192zm18.885 42.076c-.805.419-2.003.822-2.054 2.169-.052 1.346 1.505 1.855 2.293 1.886 4.312.614 8.711-1.015 13.076-1.746 1.985-.373 3.954-.298 6.778-1.987-7.017-2.067-13.691-2.773-20.093-.322zm44.236 28.666c-1.968-.076-1.643 1.734-2.089 3.066-.462 1.78.65 3.62 2.224 3.681 1.951.524 3.526.585 5.511.211 3.954-.297 7.908-.595 11.827.005-4.911-5.582-11.175-6.722-17.473-6.963zm14.004-15.644c-4.037-7.796-9.273-15.188-14.526-22.132-2.258-2.783-4.962-4.235-7.255-6.121-1.54-.958-2.345-.54-2.037 1.719.615 4.519 1.213 9.486 3.42 13.616 4.054 7.347 8.52 14.26 15.022 19.454 3.833 2.844 7.632 6.585 11.824 10.342-1.727-6.359-3.882-11.835-6.448-16.878zm21.926-6.35c-3.388-4.175-7.597-7.483-11.807-10.791 0 0-.394-.015-.77-.479-1.181-.045-.822.867-.856 1.765 2.155 5.476 5.508 10.549 10.523 13.438.77.479 1.933.974 2.772-.343.822-.867.874-2.213.138-3.59zM181.825 66.606c3.951 10.04 11.959 17.089 24.436 20.714-5.972-8.77-17.419-18.647-24.436-20.714zm20.578-22.583c-3.354-5.073-7.974-7.947-13.005-10.388-1.934-.973-1.969-.075-1.644 1.735l-.017.449c6.106 15.516 11.819 31.017 24.413 41.838.377.464.771.48 1.934.974-4.669-11.866-4.975-24.463-11.681-34.608zm40.516 53.693c3.129 10.907 9.94 18.36 16.75 25.813-3.541-10.474-7.903-20.08-16.75-25.813zm40.231 30.309c-4.894-6.031-9.77-12.51-13.431-19.842-.736-1.377-1.454-3.202-2.67-2.35-1.215.852.291 2.708.65 3.621 3.164 10.009 9.152 18.33 16.373 25.349 1.523 1.407 3.029 3.262 6.178 3.383-2.618-3.696-4.465-6.913-7.1-10.161zm55.295 17.853c-5.954-9.217-11.925-17.986-18.701-26.337-1.882-2.319-4.175-4.205-6.896-5.209-1.934-.973-2.756-.105-2.054 2.169.359.913.342 1.361.701 2.274 7.083 10.61 12.505 23.403 22.037 31.859 3.816 3.293 7.614 7.034 11.43 10.327l.822-.867c-2.155-5.477-4.345-10.055-7.339-14.216zm413.297-65.495l.086-2.244c.052-1.346 1.319-3.545-.238-4.054-1.541-.958-2.414 1.256-3.253 2.572-.411.434-.839 1.316-1.25 1.75-2.654 7.539-4.915 15.093-7.553 22.183.394.015.77.479.77.479 5.342-5.638 11.847-10.782 11.438-20.686zm28.79-10.581c-6.025 2.915-14.004 15.643-15.991 26.354 7.223-3.318 16.897-19.128 15.991-26.354zm-47.867 55.695c2.79-.792 5.58-1.584 8.011-3.288 4.861-3.41 10.082-5.906 16.056-7.475 3.988-1.195 6.487-4.695 9.381-8.18.411-.433.445-1.331.462-1.78-.307-2.259-.615-4.518-3.439-2.829-5.684 4.277-12.016 4.933-18.384 6.487-7.548 1.508-10.955 8.119-13.593 15.209-.873 2.214.325 1.811 1.506 1.856zm-29.172 30.793c6.761-1.539 13.881-2.164 20.967-1.892 7.873.302 14.326-3.496 20.455-9.104 2.448-2.153 4.52-4.771 7.396-7.806-20.332-4.376-36.081 5.357-51.539 17.799 1.112 1.84 1.917 1.422 2.721 1.003zm-.971-15.769c.942-4.009 2.671-7.988 3.22-12.012 1.046-6.702-1.075-13.076-3.213-19.001-.719-1.825-1.54-.958-2.362-.09-2.089 3.066-2.603 6.192-1.936 9.364.957 5.88.733 11.714-1.065 17.488-1.371 4.892-1.577 10.278-2.589 16.082 4.075-3.439 6.574-6.939 7.945-11.831zm-26.69 27.742c.428-.882.069-1.795.121-3.142.034-.897-.308-2.259-1.095-2.289-1.181-.045-1.232 1.301-1.661 2.184-.445 1.331-.907 3.111-.976 4.906-.138 3.591-.652 6.717-1.971 10.263-.839 1.316-.908 3.111.581 5.415 2.226-6.656 3.614-11.996 5.001-17.337zm18.109 216.44c3.902 1.049 7.838 1.2 11.826.004 2.003-.822 5.939-.671 5.255-3.394-.307-2.259-3.884-1.497-6.263-1.139-3.971.746-7.514.61-11.451.459l-1.181-.045c-.051 1.347-.497 2.678-.548 4.024.804-.418 1.574.061 2.362.091zM385.808 267.704c-1.916-1.422-3.867-1.946-5.048-1.992-2.756-.105-4.758.717-6.385 2.003-.411.433-1.609.837-1.25 1.75.342 1.361 1.13 1.391 1.917 1.422 3.577-.762 7.068.72 10.663-.49.804-.419 1.985-.373 2.02-1.271.034-.898-1.147-.943-1.917-1.422zm-12.471-24.3c3.885 1.497 7.393 2.531 11.706 3.146-3.457-2.38-6.931-4.312-10.833-5.36-.787-.03-1.951-.525-2.396.807-.428.882.736 1.376 1.523 1.407zm-30.714-31.743c1.471 2.753 2.138 5.925 5.201 8.29-.633-4.069-1.71-6.807-3.575-9.576-.377-.464-.719-1.825-1.934-.973-.411.434-.052 1.346.308 2.259zm-6.282-.69c.771.479 1.199-.404.822-.868-.29-2.708-2.241-3.232-4.175-4.205-.017.449-.428.882-.428.882.701 2.275 1.83 3.666 3.781 4.191zm-18.105-11.033c-.787-.03-2.345-.539-2.79.792-.445 1.331.719 1.826 1.078 2.738a16.118 16.118 0 009.189 7.095c1.164.494 2.345.539 2.037-1.72-.632-4.069-5.577-8.754-9.514-8.905zm13.404-10.273c-1.147-.943-2.721-1.003-2.807 1.241-.155 4.039 3.54 10.474 6.655 11.492 1.557.509 2.344.54 2.413-1.256-1.419-4.099-2.822-8.648-6.261-11.477zm11.812-9.884c-.394-.015-1.181-.046-1.558-.51-1.181-.045-2.344-.539-3.183.777-.446 1.332.718 1.826 1.471 2.754 8.178 12.898 18.051 22.716 31.263 27.718.787.03 1.164.494 1.951.524l.787.03c-6.106-15.516-15.911-27.129-30.731-31.293zm49.006 48.175c-4.637-2.425-8.436-6.166-12.218-10.357-1.522-1.407-3.045-2.813-5.014-2.889-10.183-1.739-19.064-6.575-26.645-14.506-2.275-2.335-4.928-5.134-7.973-7.947 1.008 4.533 1.281 7.69 3.934 10.488 6.091 5.628 12.577 11.27 18.24 17.78 3.012 3.711 4.466 6.914 2.719 11.341-.445 1.332-.48 2.229 1.078 2.738 3.491 1.483 6.571 3.399 10.097 3.984 5.493.66 9.703 3.968 13.913 7.275 1.146.943 1.505 1.856 2.258 2.784 1.422-6.238 3.238-12.461 5.053-18.684-1.215.852-3.525-.585-5.442-2.007zM548.497 86.069c-84.24-3.233-157.382 104.979-162.617 241.417-5.235 136.438 59.005 249.921 143.64 253.169 84.24 3.232 157.382-104.98 162.617-241.418 5.235-136.437-59.399-249.936-143.64-253.168zm184.862 144.63c2.655-7.539 6.456-14.135 9.487-21.21 2.175-5.31 3.58-11.1 3.804-16.934.034-.898.086-2.244-.684-2.723-1.147-.943-1.986.373-2.79.792-4.486 3.873-6.267 9.198-7.278 15.002-.462 1.781-.12 3.142-.959 4.458-5.034 7.898-6.166 16.844-6.528 26.268-.051 1.347-.086 2.245-.565 4.473 2.106-3.514 4.194-6.581 5.513-10.126zm26.923-3.012c3.117-9.319 6.234-18.638 6.22-28.527.12-3.142-.957-5.88-3.216-8.664-2.519 14.287-2.711 29.561-8.756 43.263 3.201-1.226 4.861-3.409 5.752-6.072zm43.065-12.73c3.853-7.943 8.082-15.422 10.001-24.338.96-4.457 1.115-8.497.106-13.03-.325-1.81-.632-4.07-2.207-4.13-1.575-.06-2.431 1.705-3.287 3.47-2.551 4.846-4.333 10.171-4.95 15.991-.276 7.181.63 14.407.337 22.037zm44.728-25.252c3.014-6.627 4.077-13.777 4.352-20.958-.101-7.645.569-14.811.468-22.456.12-3.142-.136-6.747-2-9.515l-.138 3.59c-.241 6.283-2.005 11.16-7.62 13.641-2.413 1.256-4.057 2.991-3.39 6.163.871 8.124-.209 15.723-1.683 23.307-1.491 8.034.168 16.188.234 24.73 2.997-6.177 6.387-12.34 9.777-18.502zm32.412-53.592c-.239-4.054-1.282-7.69-3.112-11.356-1.112-1.841-1.9-1.871-2.773.343-1.747 4.428-2.313 8.901-1.698 13.419 1.659 8.154 2.512 16.727 3.777 24.866.684 2.723.563 5.864-.327 8.527-.463 1.78-.925 3.56.187 5.401 2.551-4.846 3.151-10.217 3.358-15.603.721-8.512 1.048-17.039.588-25.597zm18.378-57.726c-.376-.463-.342-1.361-1.129-1.391-.787-.03-.822.867-.856 1.765-2.468 12.94-5.346 26.313-2.32 39.913.342 1.362.307 2.26.649 3.621 1.73-3.979 1.885-8.018 2.451-12.491 1.114-8.497 1.818-16.56 2.539-25.073-.308-2.259-.615-4.518-1.334-6.344zm18.797-17.257c-2.123 3.964-2.347 9.798-.106 13.03 1.112 1.841 1.951.525 2.396-.806 1.696-3.082.721-8.513-2.29-12.224zm21.552-17.152c-.29-2.708-.598-4.967-2.514-6.389-1.917-1.422-3.115-1.018-3.219 1.675l-.034.897c.512 7.211 2.204 14.468 2.323 21.664 1.404-5.79 3.99-11.533 3.444-17.847zm2.209 65.707c-9.516 1.433-16.449 7.46-21.911 16.239-3.356 5.265-7.105 10.515-10.461 15.78-.017.449.376.464.359.913 2.825-1.69 5.273-3.843 8.097-5.533 4.844-2.96 10.065-5.457 14.892-7.968 5.221-2.497 8.183-7.777 11.128-12.608.428-.882.873-2.214.531-3.575.497-2.678-.255-3.606-2.635-3.248zm22.628-75.99c-7.755 6.893-10.171 18.487-8.309 31.593 2.876-3.036 8.392-23.5 8.309-31.594zm-5.59 42.934c6.06-3.813 12.102-7.177 17.768-11.005.017-.448-.376-.463-.359-.912-8.66-.333-15.935 4.332-17.409 11.917zm54.139-34.33c-8.37 2.376-17.008 1.595-25.703 2.16-1.968-.075-3.577.762-5.186 1.6-4.879 3.857-8.611 8.658-12.361 13.908 4.365-.731 8.712-1.014 12.717-2.658 4.417-2.078 8.798-3.258 13.18-4.439 1.986-.373 3.971-.746 5.923-.222 4.28 1.512 12-4.484 12.6-9.854.43-.883-.38-.464-1.17-.494z" fill="#BF9475" fill-opacity=".1"/></svg>