<svg width="244" height="145" fill="none" xmlns="http://www.w3.org/2000/svg"><g clip-path="url(#clip0)" fill="#BF9475"><path d="M243.671 140.713a9.987 9.987 0 00-1.977-2.309c-.329-.33-.769-.659-1.208-.44-.769.33-1.427.11-2.086-.11-1.098-.439-2.197-.769-3.295-1.209-.549-.22-.878-.44-.768-.989 0-.44.109-.99-.549-1.1-1.428-.219-1.977-1.319-2.306-2.528-.11-.33-.22-.769-.549-.879-.44-.11-.659.219-.879.549-.329.55-.549.44-1.098.22-1.098-.44-2.196-.989-3.185-1.759-.439-.33-.768-.549-.768-1.209.549 0 .878.22 1.317.33.44.22.769 0 .989-.33.219-.44-.22-.55-.439-.77-.659-.439-1.428-.769-1.977-1.429-.33-.439-.659-.879-.11-1.429.769-.989.769-1.649.11-2.748-1.098-1.649-2.416-3.078-4.173-3.958-.769-.329-1.537-.879-2.196-1.319-1.647-1.099-2.965-2.638-4.612-3.628-1.867-1.209-3.295-2.638-4.393-4.617-.878-1.539-2.086-2.968-2.525-4.727-.44-1.539-1.428-2.858-2.196-4.287-.22-.44-.659-.66-1.099-.66-1.317.22-2.196-.33-3.074-1.209-1.538-1.649-3.404-2.748-5.491-3.738-1.098-.55-2.196-.88-3.075-1.539-2.196-1.759-4.721-2.528-7.357-3.188-.549-.22-1.208-.22-1.867-.11-2.635.44-4.831-.33-6.918-1.978-.439-.33-.988-.66-1.427-.99-2.306-1.319-4.612-2.198-7.248-2.198-1.427 0-2.965-.11-4.392-.33-1.208-.11-2.416-.55-3.514-1.1 1.098-.11 2.306-.22 3.404.11 1.757.55 3.624.44 5.381.11.768-.11 1.537-.33 2.196-.44 1.647-.33 3.294 0 4.941 0 1.538 0 2.965-.22 4.173-1.319.769-.66 1.098-1.978.659-2.528-.769-.88-1.537-1.649-2.855-1.759-1.867-.11-3.624.11-5.271.88-.878.33-1.757.55-2.635.55-3.954.329-7.907.989-11.531 2.967-.329.22-.768.33-1.208.44-.219.11-.439.11-.658.22.549-2.638.878-5.387 1.098-8.135.659 1.1 1.427 2.089 2.306 3.078 1.098 1.21 1.976.88 2.306-.66 0-.22.11-.44.219-.769l.659.66c1.647 1.649 2.196 1.758 4.173.66.11-.11.33-.22.439-.22.549-.22.989-.55.989-1.32s-.659-.99-1.208-1.1c-1.098-.22-2.197-.439-3.185-.769-.219 0-.439-.11-.439-.33 0-.11.22-.22.329-.33.769-.439 1.428-.879 2.306-1.209 1.208-.44 2.416-.55 3.514.22.879.66 1.757.99 2.746 1.1.549.11.878.33 1.208.88.658 1.208 1.317 2.418 2.964 2.418.44 0 .989.33 1.208-.22.33-.55.11-1.1-.109-1.54-.33-.549-.769-.879-1.208-1.428.549-.33 1.098-.44 1.427-.11.988.77 2.196.989 3.185 1.539.549.22.878.66.988 1.209.11.66.329 1.21.549 1.869.329.77.988 1.319 1.867 1.319.988 0 1.647-.55 1.867-1.54.109-.549.439-.439.878-.329 1.977.55 3.404 1.54 4.063 3.518.22.66.659 1.32.988 1.979.22.44.659.77 1.208.66.549-.11.549-.66.549-1.1 0-1.21-.549-2.199-1.427-2.968-1.098-1.1-2.196-2.309-4.063-2.858.769-.22 1.318-.44 1.867-.55.549-.22.878-.44.878-1.1 0-.55-.11-1.099-.659-1.428-.219-.11-.549-.22-.878-.33-1.867-.44-3.624-.22-5.491-.33-.439 0-.988.11-1.318.44-.768.66-1.647.66-2.525.22-.879-.33-1.757-.99-2.526-.99-2.306.22-4.392-.88-6.588-1.21-.22 0-.44-.11-.879-.219 1.647-.44 2.965-.77 4.392-.44.22 0 .44.22.55 0a.947.947 0 000-.77c-.55-.769-1.318-.989-2.197-.769-.659.11-1.317.44-1.976.77-1.538.77-3.185 1.319-4.942 1.209-1.537-.11-3.074-.44-4.502 0h-.549c-.879-.33-1.647-.11-2.306.55-.33.33-.769.55-1.208.77-.11.11-.329.219-.439.329.11-1.759.219-3.518.219-5.387.989.77 2.087 1.65 3.075 2.419.769.55 1.208.22 1.208-.66-.11-.99-.439-1.759-1.318-2.198-.768-.33-1.537-.55-2.306-.77-.219 0-.549-.22-.659-.11v-.88c.22 0 .44-.11.659-.22 1.098-.659 2.306-.879 3.514-.659 1.098.22 2.087.88 2.965 1.54.769.549 1.647.659 2.526.549.659-.11 1.208-.33 1.866-.33.879 0 1.208-.77.879-1.539-.439-.77-.988-1.21-1.867-1.429-.549-.22-1.208-.33-1.757-.44.22-.33.549-.44.769-.44a39.39 39.39 0 015.161-1.319c1.428-.22 2.635-.22 3.843.55.44.22.879.33 1.318.55.22.11.659.11.549.44-.11.33-.439.22-.768.33-.44.11-1.208-.44-1.208.219 0 .55.768.44 1.317.55h.11c.549.11 1.098-.11 1.318-.66.219-.55.11-1.1-.33-1.429-.329-.33-.658-.55-1.207-.99.549-.22.988-.33 1.427-.44.879-.219 1.647-.659 2.086-1.318.879-1.32 1.428-2.858 2.856-3.848.219-.22.219-.55.109-.88-.219-.22-.439 0-.659.11-.988.44-1.866.99-2.964 1.1-1.099.11-2.087.55-2.965 1.429-.44.44-.989.77-1.647 1.32.109-.44.109-.55.109-.66 0-.11.11-.33.11-.44.11-.66 0-1.43-.659-1.759-.549-.33-1.208-.22-1.757.11-1.537.99-2.525 2.309-2.965 4.067-.219.88-.549 1.21-1.537 1.43-1.757.33-3.624.769-5.381 1.209-2.086.55-4.063 1.209-5.929 2.418 0 0-.11 0-.11.11-.11-2.199-.22-4.397-.44-6.596h.33c.769 0 1.427.22 2.196.33 1.098.11 2.196.66 3.185.11.768-.44 1.537-.77 2.415-1.1.769-.22.659-.659.22-1.099-.22-.22-.439-.33-.659-.44-1.427-.879-2.965-1.319-4.722-1.099-.878.11-1.866-.11-2.745.22-.22.11-.439.11-.549.33-.11-.44-.11-.77-.22-1.21.11 0 .11-.11.22-.11 1.537-.989 2.965-2.088 3.953-3.737.549-.88 1.318-1.649 2.196-2.309.879-.66 1.757-.879 2.856-.66 1.207.22 2.525.55 3.843.11.439-.11.659 0 .988.33.769.88 1.647 1.76 2.526 2.749 1.318 1.43 3.624 1.869 5.381 1.1.878-.44.988-.77.549-1.65-.659-1.429-1.977-2.198-3.185-3.078-.769-.55-1.537 0-2.306 0-.219 0-.659-.11-.659.33s.44.44.659.33c1.757-.33 3.075.66 4.283 1.649.329.22.768.44.659.88-.11.439-.659.329-.989.329-.329 0-.659 0-.878.11-2.196 0-3.734-.66-4.832-2.309-.11-.11-.11-.22-.11-.44.22-1.209 0-1.428-1.208-1.209-1.757.33-3.404.66-5.161.11-.878-.33-1.757-.11-2.525.44-2.526 1.54-4.393 3.738-6.479 5.827-.659-3.628-1.428-7.036-2.526-10.334.11-.11.22-.33.33-.22.878.11 1.866-.44 2.525.66.989 1.429 2.855.44 3.185-.66.219-.66.219-1.43 0-2.089-.22-.55 0-.88.549-1.099.988-.33 1.537-.99 1.757-2.089.11-.88.768-1.209 1.647-1.099.988.11 1.977 0 2.855-.33 1.098-.33 1.318-.99.769-1.979-.33-.55-.769-.88-1.318-1.209-1.208-.55-2.526-.22-3.843-.11-.44 0-.769.33-.659.88.11.77-.22 1.209-.989 1.319-.329 0-.768.11-.988.44-.439.66-1.098.77-1.647.66h-.549c-.22 0-.659.219-.769-.22-.11-.22.11-.55.33-.77.219-.33.549-.55.878-.88.22-.22.22-.55.11-.88-.11-.219-.329-.439-.659-.439-1.098.11-2.196.22-2.965.99-.768.66-1.537 1.319-2.196 2.088-.439.33-.549.88-.439 1.32 0 .22.11.33.11.55-7.468-18.8-21.743-31.551-38.215-31.551C88.947 5.387 69.4 32.98 69.4 66.948c0 4.288.33 8.465.879 12.533-.769-1.21-.988-2.639-1.208-4.178-.11-1.1-.44-2.198-.659-3.298-.11-.55-.549-.77-1.098-.55-.549.11-.44.55-.33.99.11.44.33.77.55 1.1.659.879.659 1.868.659 2.968-.33-.11-.44-.33-.66-.44-1.097-.88-1.537-2.309-2.525-3.298-1.647-1.54-2.306-3.408-2.196-5.607v-.66c0-2.638-1.537-4.397-3.185-6.045-.439-.44-.878-.33-.988.33-.11.439-.11.989-.44 1.428-.438-.22-.438-.55-.658-.88l-3.294-7.255c-.44-1.099-1.099-2.088-1.977-2.858-.659-.55-1.867-.77-2.306-.33-.659.66-.33 1.32 0 1.98.55 1.208 1.428 2.198 2.416 3.077a8.616 8.616 0 012.635 3.628c.769 1.869 1.757 3.738 3.075 5.387.11.11.33.22.11.44-2.416-.66-4.832-2.09-6.479-3.628-.659-.66-1.318-.66-2.086-.44-.22.11-.44.22-.33.44.22.77.769 1.209 1.538 1.319.22 0 .548 0 .768.22.989 1.209 2.416 1.649 3.844 2.088 1.976.66 3.623 1.98 5.05 3.408.44.44.66.77-.219.88-.33.11-.768.11-.988.44-.879 1.209-1.647.879-2.636 0-.658-.66-1.866-.66-2.745-.99-.44-.11-.769-.44-1.208 0-.33.33-.33.77-.22 1.21.11.22.22.549-.11.659-.219.11-.438-.11-.548-.33a5.993 5.993 0 01-1.318-2.638c-.549-1.87-1.647-3.518-3.075-4.837-1.208-.99-2.086-2.089-2.855-3.408-.33-.55-.659-1.1-1.208-1.54-.439-.329-.878-.439-1.427-.219-.55.22-.44.66-.44 1.1.11.769.22 1.538.77 2.198.109.11.329.33.109.55-1.318-.88-2.745-1.65-3.953-2.749-1.318-1.099-2.855-1.429-4.502-1.539-.989 0-1.208.55-.879 1.43a3.854 3.854 0 002.087 1.868c2.086.88 3.733 2.748 6.04 3.188.109 0 .109.11.219.22-2.197-.66-4.393-.88-6.48-1.869-1.646-.77-3.403-1.429-5.27-1.429-1.208 0-2.416-.11-3.624 0-.549 0-1.208.22-1.317.88-.11.55.549.66.878.879 1.098.77 2.526.99 3.734 1.43-.66.219-1.428.659-2.087.659-2.965 0-5.49 1.209-8.016 2.638-.22.11-.55.22-.55.66 0 .33.33.55.55.66l1.647.659c-.33.44-.769.55-1.208.66-.878.22-1.757.55-2.635.989-2.197.88-3.514 3.628-2.965 5.936.22.88.439.99 1.208.44.549-.44 1.098-.77 1.647-1.1 1.976-1.209 3.733-2.748 4.722-4.836.659-1.32 1.537-2.309 2.855-2.969 1.098-.55 2.196-1.209 3.624-1.649-.44.66-.879.99-1.428 1.32-1.647 1.099-2.306 2.528-2.196 4.507 0 .44 0 1.1.549 1.319.549.22.988-.11 1.318-.44 1.317-1.099 2.196-2.418 2.855-4.067a22.99 22.99 0 011.647-3.298c.878-1.21 1.867-1.76 3.294-1.65.55 0 .769.11.55.66-.33.77-.55 1.54-.77 2.2-.329.879-.439 1.648-.11 2.528.33.989.33 2.088.22 3.078-.22 1.868.33 2.528 2.197 2.638h.988c.549-.11.878-.33 1.098-.77.22-.55-.11-.879-.44-1.209-.658-.66-1.207-1.319-1.537-2.088-.878-1.98-.878-3.958-.439-5.937.22-1.1.44-1.319 1.538-.99 1.427.33 2.745.66 4.172 1.1.33.11.66.11.769.55-.549.11-1.098 0-1.647-.11-1.098-.22-2.087-.44-3.185-.22-.33.11-.768.11-.878.44-.11.44.22.77.44.99.987.989 2.195 1.428 3.623 1.758 1.867.44 3.843.33 5.82.44.659 0 1.318.11 1.976.55 1.867 1.209 3.844 2.198 5.82 3.078.22.11.55.11.55.55-.44.11-.879.11-1.318.219-.44.11-.879.33-.879.88s.22.989.769 1.099c.549.11 1.098.33 1.757.22 1.867-.11 3.624-.11 5.49-.66 1.648-.44 3.295-.11 4.832.88-1.757.769-3.294 1.648-5.27 1.539-.77-.11-1.538-.22-2.307-.44-1.317-.44-1.867-.22-2.525.88-.22.439-.44.439-.879.33-2.196-.66-3.733 0-4.722 2.088-.11.33-.44.66-.22.99.33.329.66.11.989 0a12.62 12.62 0 002.745-1.32c.55-.33 1.208-.55 1.867-.33 2.306.66 4.502.44 6.589-.99.549-.439 1.098-.769 1.647-1.099 1.976-1.319 2.965-1.099 4.502.77.33.33.879.77.659 1.21.549-.77-.11-.99-.55-.99-1.097-.11-1.756.33-2.305 1.21-.22.439-.22.769.22 1.098 1.097.88 2.305 1.32 3.733.66 1.098-.55 1.208-.44 1.318.77v.33c.22 1.538.11 1.538-1.428 1.209-3.733-.77-7.357-.88-11.09 0-.66.22-1.758.22-2.526-.55-1.318-1.21-3.075-1.759-4.722-2.419-.44-.22-.989-.22-1.428-.22-1.537.22-1.647.44-1.208 1.87 0 .11 0 .22.11.22.769 1.209 1.977 2.748 3.514 2.308.55-.11 1.098-.22 1.757 0-1.098.55-2.196 1.1-3.294 1.539-1.098.44-1.977 1.21-2.636 2.308-.33.55-.659.77-1.318.77-4.941.11-9.663-.66-14.055-3.188-.11-.11-.22-.11-.33-.22-.549-.22-.878 0-1.098.55-.22.55.33.55.659.66 2.086.549 4.173 1.319 6.26 1.868 1.537.44 3.184.99 4.83 1.1 1.099.11 2.197 0 3.625-.11-1.428 1.648-2.746 2.968-4.722 3.297-1.647.33-3.294.33-4.942.11-1.757-.22-2.086.22-2.086 1.87 0 1.099.44 1.428 1.537 1.209.769-.22 1.428-.11 2.306-.11-2.196 1.099-3.623 3.188-5.6 4.397-1.318.769-2.745.879-4.173.659-1.537-.329-3.075-.549-4.722-.879-.549-.11-1.098-.11-1.647.11-.549.33-.659.66-.22 1.209.66.66 1.428.99 2.197 1.209.549.11 1.208.22 1.757.44-1.977.88-3.844 1.979-6.15 1.209-2.965-.989-8.016.88-9.663 3.628 0 .11-.11.11-.11.22-.22.44-.44.989-.11 1.429.44.55.989.66 1.647.66 1.648-.11 2.746-.99 3.844-2.089 1.757-1.649 3.514-3.188 6.259-2.638.33 0 .769-.11.769.22.11.439-.33.549-.66.659-1.976 1.099-3.513 2.748-5.16 4.178-.33.329-.769.769-.44 1.319.33.549.989.769 1.648.659.988-.22 1.976-.549 2.635-1.429 1.208-1.319 2.087-2.858 2.965-4.397a5.471 5.471 0 012.416-2.309c1.427-.769 2.855-1.539 4.282-2.198.879-.44 1.867-.66 3.185-1.1-.659.99-1.318 1.869-1.208 2.749.11 1.649-.549 2.308-2.086 2.968-2.416 1.099-4.722 2.528-7.028 3.738-1.757.879-3.514 1.758-4.722 3.407-.55.77-.55 1.1.33 1.539 1.537.77 5.05.11 6.149-1.209.33-.44.33-.659-.11-.989-.55-.33-.988-.22-1.318.22-.878 1.649-2.526 1.539-4.063 1.539-.768 0-.768-.33-.44-.88a6.751 6.751 0 012.087-1.869c1.977-1.099 4.063-2.308 6.15-3.407 1.976-.99 3.953-2.199 6.259-2.529.878-.11 1.647-.659 2.306-1.209.988-.989 1.977-1.869 2.855-2.858 1.537-1.759 3.075-3.518 3.624-5.937.659-2.528 2.745-3.847 4.502-5.496.33-.22.55-.22.55.22v.66c0 .549.109.989.658 1.209.55.22.988-.33 1.318-.77.11-.22.22-.33.22-.55.548-1.978 1.537-3.737 1.976-5.716.11-.22.22-.44.44-.55 1.097-.66 2.195-1.319 3.513-1.539.33-.11.769-.11.989.33.329.66.768.44 1.207.11.55-.55 1.208-.66 1.977-.77.659-.11 1.318-.22 1.867-.44 2.196-.769 4.282-.11 6.369.33-1.757.33-3.404 1.1-4.942 1.87-1.098.549-2.196.769-3.404.549-.44-.11-.878.11-1.318.33-.768.33-.768.66-.22 1.319.22.22.66.33.55.66-.11.33-.659.22-.879.11-.439 0-.768-.11-1.207-.11-.879.11-1.648.44-1.757 1.319-.11 1.319-.989 1.868-2.197 2.088-1.098.22-2.196.55-2.855 1.54-.659.769-1.427 1.319-2.306 1.648-.988.44-1.757 1.21-2.086 2.309-.22.88-.66 1.429-1.318 1.869a8.99 8.99 0 00-2.855 3.518c-.22.439-.44.879 0 1.209.44.44.878.659 1.537.549.22-.109.55-.219.769-.329.988-.66 1.977-.88 3.184-.77.879.11 1.648-.22 2.306-.879.44-.44.879-.88 1.318-1.429 1.318-1.759 3.075-2.309 5.271-2.199-.22.22-.33.55-.549.769-.22.33-.22.55.22.66 1.098.33 2.196.66 3.294.22a4.545 4.545 0 011.757-.33c-1.318 1.319-2.635 2.199-4.392 2.309-.44 0-.879.11-1.318.33-1.318.769-2.636 1.319-3.953 1.978-1.428.77-2.855 1.539-4.503 1.649-2.525.11-4.941.66-7.467 1.21-.659.109-1.208.219-1.647-.33-.33-.33-.769-.44-1.318-.33-.659.11-1.098.44-1.647.769-2.086 1.21-3.624 3.188-6.04 4.068-.548.22-.439.55-.11.769.33.22.33.44.11.77-1.207 1.539-2.525 2.968-4.282 3.958-2.965 1.539-5.93 3.188-9.114 4.287-1.318.44-2.416 1.209-3.185 2.418-.549.77-1.098 1.539-1.757 2.089-.33.33-.659.66-.44 1.209.33.55.66.77 1.319.66.768-.11 1.537-.33 2.196-.77 2.635-1.429 4.722-3.408 6.588-5.826.879-1.099 2.197-1.319 3.624-1.979-.439.99-.878 1.539-1.427 1.979-1.647 1.209-3.624 2.199-4.832 3.958-1.757 2.528-3.294 5.276-4.612 8.025-.33.549-.44 1.099 0 1.758.55.66 1.098.44 1.757.22 2.855-.879 4.502-3.078 5.71-5.606.769-1.759 1.647-3.518 2.855-5.057.55-.77.989-1.539 1.318-2.419.659-1.758 1.427-3.407 2.745-4.837 1.318-1.429 2.855-2.858 4.283-4.177.549-.44.988-.989 1.867-1.319-.11.55-.44.769-.769.989-2.526 1.869-4.063 4.507-5.6 7.146-.33.549-.33.989.11 1.539.439.55.878.55 1.427.33a11.77 11.77 0 003.734-2.749c1.427-1.649 2.525-3.627 3.074-5.716.44-1.759 1.647-3.188 3.075-4.068 1.537-.989 3.514-.659 5.38-.769-.11.44-.329.33-.548.44-1.977.439-3.404 1.539-4.832 2.968-1.757 1.869-2.636 4.287-4.063 6.376-.769 1.099-1.428 2.418-2.086 3.518-.55.879-.44 1.099.549 1.429 1.208.439 2.196.33 3.184-.55 1.098-.879 1.757-1.979 2.416-3.078 1.647-2.858 3.294-5.607 5.27-8.135.99-1.209 2.087-2.199 3.625-2.748.658-.22 1.208-.55 1.757-.99.549-.549 1.208-.879 1.976-1.209 1.757-.879 3.624-1.649 5.381-2.528.988-.44 1.977-.44 2.965-.44-.769.55-1.538 1.099-2.306 1.539-1.977 1.099-3.843 2.419-5.271 4.177-1.428 1.759-2.526 3.738-4.063 5.387-.22.22-.33.44-.44.66-.439 1.099-.11 1.649.989 1.759 1.318.11 2.416-.44 3.294-1.32.769-.769 1.538-1.649 2.197-2.418 2.635-2.858 5.16-5.717 7.027-9.234 0-.11.11-.22.33-.11-.55 1.649-1.098 3.298-1.867 4.837-.878 2.088-2.196 3.847-3.075 5.936-.11.22-.33.55 0 .879.33.22.66.22.879-.109.878-.88 1.867-1.54 2.526-2.529.988-1.649 2.196-3.078 3.623-4.177.769-.66 1.318-1.429 1.538-2.419.22-1.209.549-2.418.878-3.628 0-.219.44-.549 0-.659-.33-.11-.44.22-.549.55-.11.329-.22.659-.22.989-.329 1.429-.988 2.748-2.086 3.738-1.647 1.539-2.965 3.407-4.063 5.386-.22.44-.549.77-.988 1.1-.11-.33.11-.44.22-.66 1.427-2.089 2.635-4.287 3.843-6.486.768-1.429 1.098-2.968 1.647-4.507.11-.33.33-.77-.11-.99-.769-.329-.44-.659-.11-1.099 1.318-1.979 3.295-3.408 4.502-5.606.55-.99 1.428-1.76 2.306-2.529.77-.77 1.428-1.429 2.526-2.089-.11.55-.33.77-.549 1.1l-3.294 4.947c-.879 1.429-1.537 2.858-1.647 4.507-.11.879.22 1.209.988 1.099a3.255 3.255 0 002.416-1.539c.22-.22.439-.549.11-.879-.33-.33-.66-.11-.989.22-.439.549-.878 1.099-1.317 1.539-.11.11-.33.329-.55.219-.22-.109-.11-.329 0-.549.33-1.319 1.099-2.529 1.867-3.628 1.428-2.089 2.855-4.067 3.954-6.376.11-.33.439-.66.439-1.1 6.808 21.657 22.182 36.828 40.081 36.828 13.507 0 25.476-8.575 33.492-22.096.22 1.099.33 2.088.769 3.188.219.659.768.989 1.318 1.319.439.22.878.11 1.098-.33.329-.77.549-1.539.329-2.309-.11-.549-.22-.989-.329-1.649 2.525 2.529 3.733 5.497 3.843 8.795 0 .55 0 1.209.22 1.759.439 1.319.439 2.638.219 3.957-.219 1.1.22 1.979.879 2.749.549.659 1.317.769 1.867.11 1.427-1.869 2.415-3.848 1.866-6.376-.109-.44-.329-.88-.219-1.32.549.11.878.55 1.208.88.658.55 1.098 1.429 1.976 1.759.879.33 1.208.879 1.428 1.759.11.879.329 1.759.988 2.418.988.99 1.428 2.309 1.757 3.628.439 1.429.879 2.748 1.318 4.177.219.88.659 1.539 1.317 2.199.44.44.879.77 1.428.55.659-.22 1.208-.66 1.318-1.429.11-1.869 0-3.628-1.428-5.057-.329-.33-.878-.66-.988-1.32 3.404.44 3.294.22 3.953 3.408 0 .22.11.44.11.77 0 .55.22.989.549 1.319.878 1.099 1.867 2.199 3.075 3.078.549.33.988.66 1.647.22.659-.44.659-1.099.439-1.759-.769-2.199-1.757-4.287-3.843-5.716-.44-.33-.44-.44-.11-.88.439-.549.769-1.099.439-1.759-.439-1.099-1.208-1.978-2.416-2.308-1.647-.44-3.184-1.21-4.612-1.979-.878-.44-1.757-.879-2.745-.989-.988-.11-1.537-.66-2.086-1.43.329-.109.549 0 .878 0 1.647.22 3.185.44 4.832.33.768-.11 1.537-.22 2.306-.439.988-.33 1.427-1.1.768-1.759-2.525-2.749-5.27-5.167-9.443-4.618-.879.11-1.428-.219-1.538-1.209-.219-2.308-1.866-3.847-3.404-5.276-.219-.22-.549-.55-.988-.22-.439.329-.22.769.11.989.768.989 1.537 1.869 2.306 2.858.549.66.878 1.319.878 2.199-2.416-.88-4.941-3.298-6.259-5.936-.11-.22-.11-.77-.549-.55-.439.11-.22.55-.22.879 0 .22.11.44.22.55.769 1.759 1.977 3.188 3.624 4.287.329.22.659.33.878.77-1.318-.22-2.745-.33-3.624-1.429-1.098-1.209-2.855-2.089-2.855-4.068 0-.11-.109-.22-.219-.329-.549-.55-1.098-1.21-1.647-1.759l-.33-.33c.549-1.1 1.098-2.309 1.647-3.408 0 .11.11.11.11.22.33.44.659.88.879 1.429.658 1.429 1.976 1.979 3.184 2.858.439.33.659 0 .879-.44-.11-.11-.22-.219-.33-.439-.439-.44-.878-.88-1.318-1.21-.988-.769-1.757-1.758-2.635-2.638-.11-.11-.329-.22-.439-.22.659-1.539 1.317-3.078 1.867-4.727 0 .88.329 1.54 1.098 2.199.878.77 1.317 1.759 1.427 2.968 0 .66.33 1.21.659 1.759.549.879 1.208.55 1.977.33.659-.22.988-.66.768-1.43-.768-1.978-1.208-4.067-1.537-6.266-.11-.44-.329-.44-.549-.22-.659.88-.659.11-.879-.33-.768-1.318-.439-2.967-1.208-4.287-.109-.22 0-.55.33-.77.659.88 1.318 1.76 1.647 2.86.11.329 0 .769.549.659.439 0 .879-.22.879-.77.109-1.319.219-2.638-.879-3.628-.549-.44-1.098-.989-1.647-1.319-.11 0-.11-.11-.22-.11.11-.66.33-1.319.44-1.979.109.22.329.33.549.44 1.208.99 2.635 1.54 4.063 2.089 2.306.88 4.282 4.067 4.063 6.596-.22 1.869 0 3.628.878 5.277.33.55.439 1.099.549 1.758.22 1.979.989 3.738 2.855 4.838 1.208.659 2.306.219 2.746-1.1.439-1.319.439-2.638-.33-3.847-1.427-2.309-2.745-4.617-3.843-7.146-.879-1.869-2.196-3.628-3.295-5.497-.109-.22-.329-.33-.219-.55.11-.22.439-.11.549-.11.659.11 1.318.22 1.867.22.988 0 1.537.44 1.757 1.32.439 1.21.988 2.308 2.086 2.968 1.098.66 1.647 1.54 1.537 2.858-.109.88.33 1.76.549 2.639.44 1.319.659 2.748.659 4.177 0 .989.22 1.979.44 2.968.109.44.219.99.768 1.1.439.109.879-.33 1.098-.66.769-1.099 1.208-2.309 1.208-3.738-.11-1.649-.549-3.298-.988-4.837-.659-2.528-1.867-4.727-4.173-6.046-.659-.44-1.318-.88-1.757-1.649-.11-.22-.329-.33-.219-.55.109-.22.439-.11.658-.11.769.11 1.538.33 2.306.66 2.416.88 4.832 3.518 4.503 6.926-.22 1.649.219 3.188.878 4.727.22.44.33.77.33 1.209.329 2.199.329 4.287-.22 6.486-.11.55-.11 1.099.329 1.429.44.44 1.099.33 1.538.11 1.208-.55 1.537-1.539 1.647-2.748.11-1.759 0-3.408-.549-5.057-.11-.44-.11-1.21-.659-1.1-.439.11 0 .77.11 1.21.439 2.198.439 4.287-.549 6.266-.11.22-.11.44-.439.44-.22 0-.33-.33-.33-.55 0-.66 0-1.319.11-1.979.11-2.308.22-4.617-.879-6.925-.549-1.1-.658-2.2-.219-3.408.549.44.768.88 1.098 1.429.11.22.22.33.549.22.22-.11.329-.22.22-.33-.549-.88-.22-1.979-.44-2.968-.109-.44-.549-1.21-.329-1.43.329-.44.988.11 1.537.11 1.208 0 2.087.77 2.416 1.98.11.549.22.989.439 1.538 1.318 2.419 1.428 5.057 1.208 7.696-.219 2.198.33 4.397 1.757 6.156.879 1.209 2.526.989 3.295-.33.219-.55.329-.989.439-1.649 0-3.408-1.318-6.376-2.636-9.344-.439-1.1-1.098-2.089-1.317-3.188-.11-.44-.33-1.1.219-1.43.549-.33.879.33 1.318.66.439.44.769.99 1.318 1.43.878.659 1.427 1.319 1.647 2.308 0 .22 0 .66.439.55.33-.11.33-.44.33-.77-.11-.55-.22-1.1-.11-1.759 1.976 1.32 3.514 4.837 2.965 6.816-.33-.88-.549-1.649-.879-2.419-.219-.33-.219-.989-.878-.88-.659.11-.659.77-.659 1.32 0 1.319.439 2.419.988 3.628.659 1.649 1.208 3.408.33 5.277-.33.659-.659.549-.989.11-.439-.55-.659-1.21-.768-1.869-.22-1.649-.22-3.408-.11-5.057 0-.22.219-.55-.11-.66-.329-.11-.329.33-.439.55-.22 1.539-.22 3.188-.22 4.727 0 .879.22 1.649.769 2.309.659.879 1.427.879 2.196 0 .439-.55.549-1.21.988-1.869.33 1.649.22 3.078.22 4.617 0 .659 0 1.209.439 1.759.988.989 1.428 2.308 1.428 3.627 0 .55 0 1.21.659 1.43.658.219 1.098-.11 1.647-.44.439-.33.768-.66.988-1.209.439-.99.439-2.089.329-3.078-.109-1.869-.109-3.738.22-5.497.439-2.638-.22-4.947-1.867-6.926-.659-.769-1.208-1.649-1.867-2.528-.109-.11-.329-.33-.109-.55.329.11.549.33.768.55.769 1.319 1.977 1.869 3.295 2.308.878.33 1.537.88 1.976 1.649.549.99.879 2.089 1.757 2.749.879.769.989 1.539.549 2.528-.329.989-.659 1.979-.549 2.968.22 1.979 0 3.958-.549 5.937a6.505 6.505 0 00.33 4.067c.219.55.659.66 1.208.55.878-.33 1.427-1.1 1.757-1.869.988-2.089 1.098-4.288.878-6.486-.11-1.099-.11-2.199-.22-3.298.879 1.759 1.757 3.408 2.746 4.947v.22c0 1.209.219 2.308-.11 3.518-.33 1.209-.879 2.308-1.208 3.517-.659 2.199-.769 4.508-.22 6.706.22.99.659 1.869.879 2.858.11.44 0 .99.549 1.1.659.11.988-.33 1.427-.77.33-.33.44-.769.549-1.099.22-.66.22-1.429.33-2.199a19.672 19.672 0 00-.439-8.355c-.33-1.319-.44-2.638-.549-4.067.109 0 .219-.11.219-.11.769.879 1.538 1.759 2.196 2.748 1.208 1.649 1.977 3.298 1.538 5.497-.22.989.11 1.979.549 2.858.769 1.759.878 3.408-.439 4.947-.879 1.099-1.099 2.419-.659 3.848.329.879.988 1.209 1.757.549.549-.549 1.098-1.099 1.208-1.978.219-.99.109-2.089.219-3.188.439.879.549 1.649.549 2.418-.11 1.429-.439 2.748-.549 4.068 0 .219-.11.439.11.549.329.11.439-.22.439-.44.22-1.099.44-2.198.549-3.298.33-2.088.11-4.067 0-6.156 0-.329 0-.879.44-.879.329 0 .439.44.549.769.109.44.219.88.109 1.32-.219.989-.109 1.978-.109 3.078-.22 3.298-.549 6.705-1.867 9.784-.22.549-.22 1.099.329 1.319.659.33 1.208.549 1.977.549.549 0 .988-.11 1.318-.659.659-1.209.768-2.529.768-3.848-.109-2.528.11-4.947.44-7.475 0-.33.109-.55.329-.66.329-.11.439.22.549.33.879.77.988 1.759.879 2.858-.22 1.649-.22 3.298.219 4.947s1.318 3.188 2.745 4.288c.44.329.989.439 1.538.109.549-.219.439-.769.549-1.209 0-.439 0-.879-.11-1.319-.11-1.539-.22-3.078-.439-4.617a17.88 17.88 0 012.965 3.408c.659.989 1.647 1.429 2.745 1.539 2.306.11 4.502.11 6.808.549.769.22 1.318-.329 1.757-.989.22.11 0-.33-.219-.879zM163.509 80.8c1.976-.66 3.953-1.21 6.039-1.21.879 0 1.757-.33 2.636-.659 1.537-.66 3.184-.77 4.722-.66.988 0 1.647.66 2.196 1.32.329.44 0 .66-.33.77-.768.329-1.757.439-2.525.659-2.746.55-5.491.99-8.236 1.539-2.306.44-4.612 0-7.028-.44.769-.66 1.647-.99 2.526-1.32zm26.574-6.926c.329.11.659.33.659.66s-.22.44-.44.44c-2.196.44-4.282.44-6.588-.33 2.196-1.21 4.282-1.43 6.369-.77zm-4.612 2.748c.219.11.439.33.329.66-.11.33-.439.22-.768.22-1.099 0-2.307-1.1-2.636-2.419 1.208.33 2.086.88 3.075 1.54zm-18.339-.989c-1.537.55-3.733 0-4.612-1.1 1.647 0 3.075.44 4.612 1.1zm-6.808-3.298c1.208-.66 2.416-1.1 3.843-.88.11 0 .33 0 .44.11.109.11 0 .22-.11.33-.879.44-1.537 1.21-2.636 1.32l-1.317-.33c-.11 0-.33-.11-.33-.22-.11-.22 0-.33.11-.33zm0 1.759c.329 0 .659.11.659.55 0 .55.329 1.209-.33 1.649-.439.33-.768 0-.988-.33-.549-.55-.878-1.21-1.427-1.979.768.11 1.427.11 2.086.11zm20.645-18.468c-.879 1.429-2.636 2.308-4.613 2.198 1.208-1.429 2.856-1.869 4.613-2.198zm-9.554 2.528c.659-1.32 1.757-2.089 3.075-2.858.439-.22.549 0 .549.44-.11 1.539-1.647 3.078-3.295 3.078-.329 0-.549-.11-.329-.66zm-7.467 4.727c1.537.22 2.965.55 4.502.88.329.11.879.11.769.55 0 .439-.549.549-.879.549h-.439c-2.416.99-4.063-.55-6.04-1.76.659-.219 1.428-.329 2.087-.219zm-.659-29.901c.22-.44.549-.22.878-.22h.879c.329 0 .769-.22.878.11.11.44-.329.66-.549.77-.329.219-.768.329-1.098.439-.329.11-.768.22-.988-.11-.22-.22-.11-.66 0-.99zm-9.554 5.386c.989.11 1.757-.22 2.197-1.21.219-.439.878-.219 1.098.11.329.77.878 1.43 1.537 1.98.22.11.11.44.11.66 0 .549-.33.989-.879 1.318-.439.11-.768.11-.988-.33-.549-1.319-1.537-1.868-2.855-1.538-.439.11-.439-.22-.549-.44-.22-.44 0-.55.329-.55zM51.611 51.008c1.098.88 1.757 2.199 2.087 3.518-1.099-.99-2.087-1.979-2.087-3.518zM20.315 71.236c-.879.99-1.867 1.759-2.965 2.528-.33.22-.659.33-.988.11-.33-.22-.11-.66 0-.99.11-.329.33-.769.659-.879 1.208-.66 2.525-1.209 3.843-1.759-.11.55-.44.77-.549.99zm2.416-3.518c-.769.44-1.208.33-2.087-.33 2.307-.77 4.173-2.638 6.809-2.308-1.647.55-3.185 1.649-4.722 2.638zm4.392 3.957c-.22.11-.33.44-.659.33-.22-.11-.22-.44-.22-.77.11-.659.44-1.209.88-1.648.548-.77 1.317-1.21 2.086-1.76-.33 1.43-.879 2.86-2.087 3.849zm.66-10.003c2.305-.11 4.611-.66 6.807.77-1.976.659-5.49.329-6.808-.77zm9.333 11.982c.22.55-.11.88-.769.66-.658-.22-.988-.77-.988-1.43 0-.769 0-1.538.33-2.418.878 1.1 1.098 2.199 1.427 3.188zm-2.196-16.05c3.075.99 5.27 3.188 7.797 4.947-2.197-.11-7.578-3.408-7.797-4.947zm4.392 8.135c2.636.11 5.161.55 7.577 2.309-2.855-.33-5.6 0-7.577-2.309zm5.161-4.507c2.855 1.43 3.954 4.287 5.381 6.926-2.526-1.76-3.294-4.837-5.38-6.926zm15.264 2.199c0-.33-.22-.66.11-.88.33-.11.44.22.659.33 1.537.99 1.647 2.528 1.647 4.067-.878-1.099-2.086-1.978-2.416-3.517zm-5.6 6.156c.769.22 1.537.44 2.306.77.33.11.659.33.549.659 0 .44-.44.44-.879.44-1.098 0-1.866-.77-1.976-1.87zm5.38 4.617c-1.098.22-2.196.33-3.294.22-.439 0-.878 0-1.317-.44 1.537-.22 2.964-.55 4.502-.55.22 0 .549-.11.549.22.11.44-.22.55-.44.55zm3.295-1.54c-.769-.219-1.428-.439-2.087-.879a.58.58 0 01-.22-.77c.22-.439.55-.439.88-.439 1.098 0 1.976.77 1.976 1.76 0 .329-.33.329-.55.329zM51.94 79.592c-.22 0-.44.22-.55 0-.11-.22.11-.44.33-.55.769-.55 1.647-.66 2.635-.22-.768.44-1.537.55-2.415.77zm5.05-1.98c1.648.11 3.076.55 4.613.11-.988 1.1-3.624 1.1-4.612-.11zm-6.698 6.047c-.658.11-1.317-.66-1.427-1.32 0-.549.44-.439.769-.439.658.11 1.427.33 1.976.66.659.33 1.208.77 1.867 1.209-1.098 0-2.087-.22-3.185-.11zm-34.81 25.394c-1.098.77-2.196 1.649-3.623 1.759-.22 0-.44.11-.66-.11-.11-.22 0-.439.22-.659.22-.33.55-.66.769-.88 1.647-1.319 3.514-2.308 5.6-2.858.66-.22 1.428-.22 2.087.11-1.867.22-2.965 1.759-4.393 2.638zm2.526 4.508c-.22 0-.44.109-.55 0-.109-.22.11-.44.22-.55 1.209-1.099 2.526-2.199 3.844-3.298-.769 1.869-1.537 3.408-3.514 3.848zm5.71-10.114c-.22-.11-.549-.22-.549-.55 0-.33.44-.44.659-.44 1.208-.11 2.416.33 3.624.55.549.11 1.098.11 1.867.55-1.977.439-3.844.549-5.6-.11zm12.628-6.596c-.549 0-.439-.44-.549-.77-.11-.44.22-.88.66-.88a3.653 3.653 0 011.537 0c1.098.11 2.196.22 3.294.11-1.428 1.32-3.185 1.54-4.942 1.54zm3.734 3.957c-1.208 1.869-2.745 3.628-4.283 5.277-.659.66-1.427.99-2.086 1.429-.44.22-.659.11-.55-.439.22-1.1.44-2.309 1.099-3.298 1.208-1.759 2.526-3.408 4.392-4.618 1.099-.66 2.197-1.539 3.405-2.418a19.98 19.98 0 01-1.977 4.067zm6.04 1.759c-.989.99-2.197 1.759-3.404 2.529 0 0-.11 0-.22.11-.33 0-.22-.22-.22-.44.66-1.319 1.647-2.528 3.075-3.188.22-.11.549-.22.769.11.22.22.22.55 0 .879zM11.2 128.18c1.208-2.418 3.514-4.067 7.028-4.837-1.757 2.089-5.052 4.398-7.028 4.837zm5.49 5.717c-.988 1.209-2.306 1.869-3.733 2.418-.55.22-.55 0-.44-.439v-.11c1.867-3.738 3.624-7.476 7.248-10.004.11-.11.22-.11.549-.22-1.428 2.858-1.647 5.936-3.624 8.355zm11.86-12.752c.988-2.639 2.965-4.397 4.941-6.156-1.098 2.528-2.415 4.837-4.941 6.156zm11.53-7.036c-1.428 1.429-2.855 2.968-3.953 4.727-.22.33-.44.77-.769.55-.33-.22.11-.66.22-.88.988-2.418 2.745-4.397 4.831-6.046.44-.33.879-.769 1.757-.769-.768.879-1.317 1.649-2.086 2.418zm15.593-3.847c-1.757 2.198-3.514 4.287-5.49 6.266-.55.549-1.208.989-1.977 1.209-.549.22-.769 0-.549-.55.11-.22.11-.33.22-.549 2.086-2.529 3.733-5.607 6.478-7.586 1.099-.769 2.197-1.649 3.295-2.418l.22.22c-.66 1.319-1.318 2.418-2.197 3.408zm114.423 19.897v.55c0 .33.33.879-.11.989-.439.22-.658-.33-.878-.659-.11-.11-.22-.33-.33-.44-.658-1.869-1.207-3.738-1.866-5.497.11 0 .219-.11.219-.11 1.428 1.43 3.185 2.749 2.965 5.167zm7.907 2.858c-1.648-.769-3.734-3.957-4.173-6.595 1.976.879 4.502 4.837 4.173 6.595zm-12.738-14.071c.768.22 1.537.44 2.196.88a14.506 14.506 0 004.392 1.978c1.098.33 1.757 1.21 2.526 2.089.11.11.11.33.11.44-.11.549-.22 1.099-.989.659-1.537-1.099-3.294-1.319-5.051-1.758-2.086-.44-2.965-2.089-3.624-3.848-.219-.55.11-.44.44-.44zm-7.797-7.805c1.867.44 3.843.66 5.82.66 2.196 0 3.953.989 5.6 2.418.659.55 1.208 1.209 1.977 1.979-5.71.879-9.993-1.649-14.166-4.837.33-.44.549-.33.769-.22zm-.439 3.848c.219.989.659 1.978.768 2.968.22 1.649-.439 3.188-1.098 4.617-.219.44-.439.22-.659 0-.549-.77-.658-1.539-.439-2.309.33-1.429.33-2.858-.11-4.287-.329-1.209-.329-2.528-.549-3.958 1.098.88 1.757 1.759 2.087 2.969zm-7.138-7.036c.11.22 0 .44 0 .77 0 .219-.11.549-.329.549-.33 0-.33-.33-.44-.549-.109-.33-.219-.77-.219-1.21 0-.879-.11-1.649-.44-2.528-.219-.33-.219-.77.22-1.319.549 1.649.879 2.968 1.208 4.287zm7.357-52.767c1.098-.22 2.197-.22 3.295.11.549.22 1.647.22 1.427.88-.11.549-1.098.329-1.757.219-1.098-.22-2.086-.22-3.184-.22h-.33c0-.33-.11-.66-.11-.99.22.11.44 0 .659 0zM70.169 80.91c-.549.33-1.098.44-1.427.44-.769 0-1.318-.22-1.757-.55-.11-.11-.44-.22-.33-.44.11-.33.33-.33.55-.33.988.22 1.976-.11 2.964.22.22.11.55.11.55.33 0 .22-.33.22-.55.33zm-3.733 5.826c1.098-.33 2.086-.55 3.294-.66-.988.55-1.977.99-3.075 1.21-.22 0-.549.11-.659-.22-.11-.22.22-.33.44-.33zm-8.895 7.475c.44-.66.659-1.429 1.537-1.978-.22.99-.549 1.649-1.098 2.308-.11.11-.22.44-.549.22-.11-.11 0-.33.11-.55zm-1.757.11c.22-.11.33.11.22.22-.11.66-.66.77-1.208.99 0-.11-.11-.22-.11-.22.22-.55.549-.88 1.098-.99zm-5.161 2.529c-.22 0-.659.11-.769-.22-.11-.33.22-.44.33-.66.659-.879 1.647-1.429 2.635-1.648.33-.11.659-.11.55.44-.22.989-1.648 2.088-2.746 2.088zm3.624 2.638c-.33.22-.769.22-.769-.33 0-.989 1.098-2.528 1.977-2.748.439-.11.658-.11.658.33-.439.99-.878 2.089-1.866 2.748zm3.184 2.529c-.11 0-.33 0-.44.11-.328 0-.658.11-.878-.22-.11-.33.22-.44.44-.66 2.416-3.078 5.27-5.386 9.004-6.486.22 0 .33-.11.55-.11h.219c-1.867 3.738-4.722 6.486-8.895 7.366zm14.166-11.323c-1.318.55-2.416 1.429-3.514 2.418-.44.33-.879.66-1.428.66-2.855.33-5.38 1.429-7.577 3.298-.659.55-1.427 1.209-2.306 1.869.33-1.1.44-1.87 1.208-2.529 1.757-1.319 3.624-2.638 5.271-4.177.879-.88 1.318-1.65.879-2.749-.11-.33-.11-.55.329-.66.988-.329 1.867-.769 2.855-.879 1.538-.11 2.745-.879 3.953-1.649.33-.22.44-.44.66-.66.329 1.54.768 3.079 1.207 4.618-.33-.22-.988.11-1.537.44zm41.948 36.167c-23.5 0-42.717-27.153-42.717-60.572 0-33.42 19.107-60.573 42.717-60.573 23.499 0 42.716 27.154 42.716 60.573 0 33.42-19.217 60.572-42.716 60.572zm53.038-33.639c.659 1.869 1.647 3.518 2.416 5.277.549 1.319.879 2.748.879 4.177 0 .22 0 .55-.22.66-.329.22-.549-.11-.769-.22-1.208-.989-1.647-2.309-1.866-3.738-.11-.44 0-.77-.22-1.099-1.318-1.979-1.537-4.177-1.537-6.486 0-.33 0-.55-.11-1.1.549.88 1.098 1.65 1.427 2.53zm7.467.99c.769 2.308 1.538 4.617 1.428 7.035 0 .77-.329 1.429-.988 2.089-.549-3.518-.44-7.256-1.977-10.663.879.33 1.318.879 1.537 1.538zm11.86 3.517c.988 1.98 2.086 3.848 2.526 6.047.219 1.099.219 2.088-.11 3.188-.11.439-.22.989-.659.989-.439 0-.659-.44-.879-.879-.658-1.21-1.098-2.529-1.207-3.958 0-1.759.329-3.518.329-5.387zm12.189 6.596c.769 1.649.988 3.408.988 5.167-.109 1.869 0 3.628-.109 5.497 0 .769-.11 1.649-.659 2.308v-.879c0-1.539-.44-2.749-1.977-3.408-.659-.33-1.098-.77-.878-1.539.329-1.979.109-3.848-.22-5.717-.329-1.978.22-3.957.329-6.046.769 1.539 1.648 3.078 2.526 4.617zm8.455 13.412c-.109.989-.439 1.869-.988 2.748-.329.44-.549.44-.768-.11-.44-1.099-.55-2.198-.33-3.298.549-1.978.879-4.067 1.318-6.046a3.403 3.403 0 000-2.089c-.11-.439-.22-.879.11-1.319.658 1.209.768 2.529.768 3.848.11 2.089.11 4.177-.11 6.266zm4.503 14.291c-.11.11-.11.33-.33.33-.219 0-.219-.22-.219-.44-.549-3.188-1.208-6.486-.22-9.784.11-.33.11-.549.22-.879.439.989.439 1.979.549 3.078.219 2.089.329 4.067.439 6.156-.11.55-.22 1.099-.439 1.539zm5.051 4.397c-.549-.989-.549-2.418.11-3.188.329-.439.549-.11.659.22.439.77.11 2.089-.769 2.968zm5.82 4.398c-.11.659-.22 1.209-.769 1.539-.549.329-.878.22-.878-.44v-.22c.219-1.759.769-3.518.878-5.277.33 1.429.989 2.859.769 4.398zm1.318-16.05c-2.636-.44-4.503-1.979-5.93-4.178-.879-1.319-1.867-2.638-2.745-3.957 0-.11.109-.11.109-.22.769.439 1.428.989 2.197 1.429 1.317.769 2.745 1.429 4.063 2.089 1.427.659 2.196 1.978 2.965 3.188.109.219.219.549.109.879.11.66-.109.879-.768.77zm5.49 18.798c-2.086-1.759-2.635-4.617-1.976-7.805.768.769 2.086 5.826 1.976 7.805zm-1.098-10.554c1.647.99 3.295 1.869 4.832 2.859 0 .11-.11.11-.11.22-2.416 0-4.392-1.21-4.722-3.079zm14.715 8.905c-2.306-.66-4.722-.55-7.138-.77-.549 0-.988-.219-1.427-.439-1.318-.99-2.306-2.199-3.295-3.518 1.208.22 2.416.33 3.514.769 1.208.55 2.416.88 3.624 1.21.549.11 1.098.219 1.647.11 1.208-.33 3.294 1.209 3.404 2.528.11.22-.11.11-.329.11zm-55.235-85.637c.769 0 1.537-.33 2.196-.44 1.318-.33 2.526-.77 3.844-.44 1.098.22 1.976-.11 2.964-.769.659-.55 1.318-1.1 1.867-1.759.659-.77 1.428-1.21 2.416-1.429.769-.11 1.647-.22 2.526-.11 2.196.11 4.392-.11 6.588.11.44 0 .879 0 .989-.44.11-.55-.33-.77-.659-.88-1.208-.659-2.526-.879-3.734-.549-.549 0-.988 0-1.317-.11-.44 0-.879-.11-1.318-.22-.33-.11-.988.11-.879-.55.11-.439.659-.769 1.208-.769.11 0 .22.11.22.11.549.22.769-.11.549-.55-.22-.55-.659-1.099-1.428-1.099-1.098.11-2.086 1.1-2.196 2.199 0 .33.22.99-.549.99-.659 0-1.318.22-1.647-.66-.549-1.32-1.757-1.54-2.745-.55-.549.44-.879.99-1.098 1.649-.22.66-.659 1.1-1.318 1.539-.549.33-1.098.55-.988-.55 0-.55-.22-1.099-.879-1.209-.659-.11-.878.44-1.098.77-.329.66-.659 1.209-.769 1.978-.11.66-.549 1.21-1.208 1.43-.659.22-1.317.66-1.976.989-.33.22-.549.44-.439.88.219.549.549.439.878.439z"/><path d="M20.315 91.023c.33-.22.55-.44.769-.769.439-.44.22-.88-.33-.99-.33-.11-.768-.11-1.208-.11-1.976.11-3.843-.22-5.82-.33-2.745-.109-5.49-.109-8.016 1.32-1.427.88-2.855 1.759-4.282 2.748-.44.33-.879.66-1.208 1.1-.44.77-.22 1.319.549 1.649.549.22 1.098.11 1.647 0 2.306-.55 4.063-1.76 5.71-3.408.549-.55 1.098-.66 1.867-.44-.33.44-.66.33-.989.55-.878.44-1.537 1.099-1.647 2.088-.11 1.1.22 1.32 1.318 1.21 2.086-.22 4.063-.88 6.15-1.54 1.866-.659 3.623-2.088 5.49-3.078zm-18.009 3.3c-.33.11-.988.44-1.098 0-.22-.33.33-.66.659-.88 1.647-.88 3.294-1.869 4.831-3.078.11-.11.33-.33.66-.11-1.538 1.649-3.075 3.188-5.052 4.067zm5.93-4.068c1.757-.77 3.404-.77 5.16-.44-1.097 1.21-2.964 1.43-5.16.44zm8.016.44c-2.196 2.198-4.173 3.078-6.698 3.408.329-1.43 4.612-3.628 6.698-3.408zm2.306-6.927c-1.098.33-1.977 1.1-2.636 2.089-.329.55-.329.99.44.99 2.196.219 4.282.439 6.479.439 2.525 0 4.941-.66 7.357-.88 1.647-.22 3.294-.66 4.832.44.329.22.658 0 .988-.22.22-.22.549-.55.44-.88-.11-.439-.55-.329-.88-.329-.329-.11-.548-.11-.878-.11-1.976-.22-3.184-1.32-3.733-3.188-.44-1.43-1.208-2.528-2.855-2.858-.55-.11-1.099-.22-1.538.33-.44.55-.659 1.209-.33 1.869.33.879.88 1.539 1.648 2.088.44.33.769.77.878 1.32-.768 0-1.427-.22-2.086-.55-2.636-1.21-5.38-1.21-8.126-.55zm9.993-.77c-.33-.33-.66-.55-.879-.989-.33-.55-.878-1.1-.22-1.649.77-.66.989.33 1.318.66.989.88 1.648 1.869 1.977 3.188-.55-.66-1.537-.66-2.196-1.21zm-2.087 3.188c-2.196.22-4.282.22-6.479 0-.22 0-.658 0-.768-.33-.11-.439.22-.549.549-.659 1.867-1.21 3.843-1.21 5.93-.55.878.33 1.757.66 2.855.88-.879.55-1.538.66-2.087.66zm134.848 12.203c-.219 0-.329-.22-.439-.33-.22-.44-.33-.99-.33-1.539-.109-1.21-.439-2.308-1.098-3.298-.329-.44-.549-.77-1.098-.44s-.329.66-.219 1.1c.658 1.429 1.317 2.858 1.866 4.287.11.33.44.66.659.99.549.659 1.208.55 1.538-.33.219-.55.329-1.1.329-1.76-.439-2.418-1.098-4.836-2.635-6.925-.22-.33-.33-.88-.879-.55-.549.33-.11.66 0 .99.879 1.649 1.537 3.408 2.087 5.166.219.66.329 1.32.219 1.98.22.33.22.549 0 .659zm28.551-9.234c-.988-.22-1.976-.44-2.855-.99-1.976-1.099-4.063-1.539-6.149-1.649-.439 0-.659 0-.879-.11-.329 0-.659.11-.659.44s.33.33.549.44c.33.11.769.22 1.099.22 3.733.66 7.247 1.539 10.761 2.968.22.11.329.11.439 0 .11-.22 0-.44-.219-.55-.659-.22-1.318-.66-2.087-.77zm-7.138-31.551c-.109.44.22.66.659.77.769.22 1.538.55 2.306.77.769.22 1.538.44 2.306.44.549 0 1.098-.11 1.208-.77.11-.55-.11-.99-.768-1.21-.44-.11-.769-.33-1.208-.44-.22-.11-.44-.22-.549.11-.11.22.109.33.329.44.549.22 1.098.33 1.428.77a6.536 6.536 0 01-3.295-.55c-.549-.22-.988-.55-1.647-.66-.22 0-.659-.22-.769.33zM75.99 101.797c.329-.77.658-1.429.658-2.309 0-.44-.22-.55-.659-.55-.988 0-1.976 1.65-1.537 2.529.22.33.44.44.878.44.22.11.55.11.66-.11zm120.242-9.894c-.439-.44-.988-.55-1.537-.77-.22 0-.33.22-.439.33-.11.44.219.66.549.88.988.55 1.976.99 2.855 1.539.219.11.439.22.549 0 .219-.22-.11-.44-.22-.44-.659-.44-1.208-.99-1.757-1.54zm-82.687 39.575c-14.935 0-28.222-9.784-36.897-24.954-.22.22-.549.44-.879.659 8.785 15.391 22.402 25.285 37.666 25.285 12.628 0 24.158-6.816 32.723-17.809-.219-.22-.439-.55-.658-.88-8.346 10.884-19.547 17.699-31.955 17.699zM113.544.99c15.374 0 28.991 10.223 37.556 26.163.219-.33.439-.66.769-.88C142.974 10.334 129.138 0 113.544 0 89.386 0 69.4 24.625 65.996 56.505c.33 0 .769 0 1.098.11C70.39 25.175 89.935.989 113.544.989z"/><path d="M90.374 70.906c-.988-.88-1.537-2.089-1.427-3.628 0-.77.11-1.539.44-2.528.878-3.078 2.635-6.046 5.27-9.124 2.636-3.079 5.6-5.277 9.005-6.926 2.306-1.1 4.502-1.65 6.369-1.65.768 0 1.537.11 2.086.33.769.22 1.428.55 1.977.99.658.44 1.098.99 1.427 1.43l.22.329.329-.55c.549-.88 1.318-1.759 2.196-2.638.879-.88 1.867-1.65 2.855-2.309.44-.33.989-.55 1.538-.88.549-.219.988-.439 1.318-.549.439-.11.658-.11.768-.11.439 0 .769.11.989.33.219.22.329.55.329.88 0 .769-.439 1.539-1.318 2.418a10.165 10.165 0 01-3.294 2.199c-1.098.55-2.087.77-2.855.77-.659 0-1.098-.22-1.318-.55l-.22-.22-.329.55c-.549.879-.769 1.428-.878 1.648-.11.22-.11.33-.22.33s-.22 0-.33-.11c-.109-.11-.219-.22-.219-.44.11-.33-.11-.77-.549-1.429-.439-.66-.988-1.099-1.538-1.319-.768-.44-1.757-.66-2.964-.66-1.099 0-2.197.11-3.295.44-2.086.66-4.173 1.76-6.369 3.298-2.196 1.54-4.173 3.408-5.93 5.497-1.757 2.088-3.074 4.177-3.953 6.376-.659 1.539-.988 2.968-.988 4.287 0 1.21.22 2.199.769 2.968.439-2.528 2.965-6.046 7.576-10.553 1.867-1.869 4.064-3.298 6.479-4.507 2.416-1.21 4.612-1.76 6.699-1.76 1.318 0 2.416.33 3.404.99 1.098.77 1.647 1.869 1.647 3.188 0 .99-.329 1.979-.988 3.078-.659 1.21-1.757 2.529-3.185 3.958-1.427 1.429-2.965 2.528-4.722 3.518-.439.33-1.207.66-2.196 1.209-.988.44-1.867.88-2.635 1.1-1.538.549-2.965.989-4.173 1.209-1.208.22-2.416.33-3.624.33-1.647.11-3.184-.33-4.173-1.21zm8.126.44c1.648-.44 3.405-.99 5.162-1.76 1.756-.769 3.404-1.648 4.721-2.528 1.318-.989 2.636-1.978 3.734-3.188 1.098-1.209 1.977-2.308 2.635-3.298.549-.989.769-1.978.879-2.968 0-.77-.22-1.539-.549-2.088-.439-.55-.988-.99-1.867-1.1-.769-.22-1.427-.22-1.867-.22-2.196 0-4.612.66-7.247 2.09-2.636 1.428-5.052 3.187-7.138 5.386-1.647 1.649-3.075 3.298-4.173 4.947-1.098 1.649-1.757 2.858-1.867 3.627v.33l.55-.11c.11 0 .22-.11.329-.11.11 0 .22 0 .33.11.11 0 .11.11.219.22 0 .11-.11.11-.44.22-.329.11-.548.11-.658.11h-.33l.55.22c.768.33 1.866.55 3.074.55 1.098 0 2.416-.11 3.953-.44zm22.182-22.426c.879-.33 1.757-.77 2.636-1.43.659-.44 1.208-1.099 1.647-1.648.439-.66.659-1.1.659-1.54 0-.33-.22-.55-.549-.55-.659 0-1.867.44-3.404 1.43-.769.44-1.538 1.1-2.416 1.869-.879.77-1.318 1.21-1.208 1.319 0 0 0 .22-.11.44l-.22.44c0 .11 0 .11.11.11h.439c.769.11 1.538-.11 2.416-.44z" stroke="#C9A88B" stroke-width=".25" stroke-miterlimit="10"/><path d="M92.022 86.736c-.44-.99-.77-2.199-.66-3.518 0-1.429.33-2.968.989-4.507.659-1.539 1.537-3.078 2.745-4.397 2.197-2.638 4.942-4.727 8.126-6.376 3.185-1.65 6.479-2.639 9.883-2.858 1.208 0 2.087-.11 2.746-.11 2.196 0 4.063.44 5.49 1.099 1.537.66 2.416 1.759 2.745 3.188.11 0 .22-.22.44-.44.219-.22.549-.55.878-.77 1.977-1.868 3.844-3.407 5.71-4.616 1.098-.77 1.977-1.21 2.636-1.43.549-.22 1.208-.33 1.976-.33.659 0 1.428.22 2.087.77l.329.22.879-.77 1.208-.989a.836.836 0 01.549-.22c.109 0 .219 0 .329.11.11.11.22.11.22.11 0 .11-.11.22-.33.55-.219.33-.329.44-.439.44-.22.11-.549.33-1.098.88-.549.439-.769.769-.769.879-.11.11-.219.22-.329.22-.988.879-1.977 1.758-3.075 2.858-3.624 3.407-7.028 6.925-10.322 10.443l-1.208 1.43c-1.208 1.209-1.757 1.868-1.647 1.868 3.624-2.968 6.369-5.167 8.345-6.706 1.977-1.539 3.844-2.748 5.601-3.847.768-.44 1.208-.66 1.427-.66.22 0 .33.11.33.22s-.11.33-.439.66c-1.757 1.978-3.295 3.737-4.283 5.276-3.075 4.398-4.612 7.915-4.612 10.664 0 1.209.329 2.088 1.098 2.528l.988.33c.33.11.549.11.659.22.11.11.22.11.11.22s-.329.11-.879 0c-.549-.11-.878-.22-1.317-.44-1.098-.55-1.647-1.54-1.538-2.968 0-.77.22-1.76.549-2.859 1.208-3.737 3.624-7.695 7.248-12.092-1.537.99-3.185 2.199-4.942 3.518-2.306 1.649-5.27 4.177-8.894 7.475-.33.22-.549.44-.879.77-.329.22-.439.44-.549.44-.11 0-.219 0-.329-.11-.11 0-.11-.11-.11-.22s.22-.44.659-.99c1.427-1.869 3.514-4.287 6.039-7.145 2.636-2.859 5.491-5.717 8.566-8.685l.988-.99.988-.989.769-.77c.11-.11 0-.11 0-.22-.329-.439-.879-.549-1.428-.659-1.098 0-2.415.55-4.063 1.54-.878.659-1.757 1.209-2.635 1.978-.879.66-1.977 1.65-3.404 3.078l-1.647 1.54c0 2.528-1.428 5.276-4.063 8.244-2.636 2.968-5.82 5.497-9.554 7.585-3.733 2.09-7.028 3.078-9.883 3.078h-1.208c-.988.33-1.976.44-2.965.44-.988 0-1.757-.22-2.416-.55-1.098-.879-1.866-1.648-2.415-2.638zm4.392 2.529c.659 0 1.428-.11 2.196-.33-1.098-.22-1.867-.55-2.416-1.1-.549-.55-.768-1.319-.768-2.198 0-.44.11-.77.22-1.32.439-1.318 1.317-2.638 2.635-4.067.988-1.1 2.416-2.308 4.392-3.627a42.697 42.697 0 015.491-3.299c1.757-.879 2.965-1.209 3.624-1.099.109 0 .329.11.439.22.11.11.219.22.219.33 0 0-.109.11-.219 0-.11 0-.22 0-.33-.11-.109-.11-.219-.11-.329-.11-.329 0-1.098.22-2.086.55-.989.44-2.087.88-3.185 1.539-5.271 2.968-8.455 5.936-9.883 8.794-.44.88-.659 1.54-.659 2.199 0 .66.11 1.21.55 1.649.329.44.878.77 1.646.99.66.22 1.099.22 1.208.22.11 0 .44-.11.879-.22 2.525-.99 5.271-2.75 8.455-5.168 3.185-2.418 7.248-6.046 12.299-10.883l2.636-2.528c-.22-1.43-.989-2.529-2.306-3.188-1.318-.66-2.965-.99-5.052-1.1-2.525 0-5.381.33-8.565 1.21-3.075.88-5.82 2.418-8.456 4.397a20.818 20.818 0 00-6.04 7.145c-.878 1.65-1.317 3.408-1.427 5.167 0 1.43.22 2.639.879 3.738.659 1.1 1.537 1.759 2.855 1.979.44.11.659.22 1.098.22zm4.942-.55c.658 0 1.427-.11 2.306-.33 2.745-.66 5.71-2.089 8.894-4.067 3.185-2.089 5.82-4.288 7.907-6.816 2.086-2.528 3.184-4.837 3.294-6.816l-.659.66c-.769.77-1.867 1.759-3.404 3.188a506.42 506.42 0 01-4.063 3.737c-5.491 4.837-9.993 8.135-13.617 9.894l-1.098.55h.44z" stroke="#BF9475" stroke-width=".25" stroke-miterlimit="10"/></g><defs><clipPath id="clip0"><path fill="#fff" d="M0 0h244v145H0z"/></clipPath></defs></svg>