<svg width="580" height="124" fill="none" xmlns="http://www.w3.org/2000/svg"><g clip-path="url(#clip0)" fill="#BF9475"><path d="M238.302 67.707c-.26.26-.781.519-1.302.778-.521.519-.781.778-1.042.778-1.302 1.038-2.344 1.816-3.385 2.595-9.116 6.744-16.148 10.376-21.096 10.895-1.302 0-2.084 0-2.604-.519-.521-.519-.521-1.556.26-3.113 1.042-2.334 3.386-4.929 7.292-7.782 7.293-4.93 9.897-8.56 8.074-11.414-.26-.52-.781-.779-1.302-.779-2.344-.519-7.292 1.557-15.106 6.486l-1.562 1.037c.781-.778 1.562-1.816 2.604-2.853 1.042-1.038 2.084-1.816 2.604-2.335 3.386-2.854 7.553-4.67 11.981-5.707.26 0 .521 0 .781-.26.521 0 1.823-.259 1.823-.259v-.519h-1.302c-1.302 0-2.604 0-4.167.26-3.646.26-8.334 2.853-14.064 7.263-2.344 2.076-4.948 4.67-7.292 7.523-.261 0-.261 0-.521.26-1.823.519-3.907.26-5.73-.52 1.042-3.372 1.042-5.706-.521-6.485-.781-.518-2.083-.778-3.125 1.038-.521.778-1.042 1.557-1.042 2.594v.26c-.26 0-.521-.26-.521-.26-1.562 0-3.646 1.557-6.511 4.67-2.083 1.556-4.427 3.372-7.292 5.448-7.553 5.447-10.678 6.225-11.98 5.707-.521-.26-1.042-.779-1.042-1.557-.26-1.556 1.042-3.372 3.646-5.707 2.605-2.854 6.511-5.967 11.46-9.339 3.125-2.335 4.427-4.67 3.385-6.745-1.041-2.075-3.125-2.334-6.511-1.037-3.125 1.037-7.032 3.372-11.199 7.263-1.302 1.297-2.344 2.076-2.864 2.854-17.71 14.786-33.597 24.385-47.921 28.017-5.99 1.556-11.199 1.815-15.106.778-7.032-1.557-10.938-6.226-12.24-14.009-1.303-7.782.52-15.564 5.469-22.828 4.167-6.745 9.896-12.452 17.189-16.603 7.292-4.41 15.366-7.004 23.96-8.041 3.907-.26 6.772.259 7.813 1.297 1.303 1.297 2.344 1.556 3.126 1.297.781 0 1.302-.26 1.562-.779.261-.259.521-.778 0-1.556-.26-.519-.781-1.038-1.562-1.297-1.303-.778-2.084-1.816-2.084-2.854-.26-2.334.781-5.447 3.386-8.56.521-.779 1.563-1.816 2.344-2.594l13.803-.779c7.032-1.037 13.283-2.853 17.971-5.188 4.948-2.594 7.552-5.188 7.552-8.301-.521-2.854-3.125-4.15-7.552-4.15-4.428 0-9.637 1.296-15.627 3.112-5.99 2.075-10.678 4.15-13.803 6.486-2.605 1.815-5.209 4.15-7.813 7.004h-3.126c-4.167.26-12.501-1.038-24.741-3.373-9.376-1.556-18.231-2.334-26.826-2.334-19.012 0-35.42 3.372-48.963 10.376-14.324 7.004-25.002 17.38-32.034 30.87-1.823 3.373-2.865 6.486-3.646 9.34-.26.778-.26 1.556.26 1.815h.261c.26 0 .52 0 1.563-3.372 3.125-7.783 7.032-14.787 11.98-20.234 4.948-5.708 10.417-10.377 15.887-14.009 13.022-8.042 29.17-12.452 47.66-13.49 7.293-.259 16.148.26 26.565 1.557 2.344.26 5.99.778 10.678 1.816a96.731 96.731 0 0011.199 1.816c4.167.519 8.334.778 11.72.519l-.781 1.556c-1.563 3.632-1.823 7.264-1.303 11.155l-5.208-.26c-4.167 0-7.814.26-10.678 1.038-6.772 1.297-13.022 3.892-19.013 7.783-5.99 3.89-10.678 8.82-14.324 14.267-5.469 8.561-7.552 17.381-6.51 25.942.78 6.745 4.166 11.674 9.375 14.787 3.386 2.075 7.292 3.113 11.72 3.113 3.125 0 6.511-.52 10.418-1.557 13.022-3.372 28.908-12.711 47.4-27.498.26 0 .52-.26 1.041-.778 3.647-3.373 7.553-6.485 11.46-9.08 1.562-1.037 3.125-1.556 4.688-1.556.781 0 1.302 0 1.302.26 0 .259.26.518-.781 1.815-1.042 1.297-3.647 3.373-7.814 6.226-4.427 2.854-7.292 5.448-8.594 7.783-.521 1.037-.782 2.075-1.042 3.372-.26 1.297.26 2.594.781 3.891.782 1.038 1.823 1.816 3.126 1.816 3.125 0 8.073-2.594 14.845-7.523-1.042 1.816-1.563 3.113-1.302 4.15.26 1.557 1.302 2.335 2.864 2.335h.782c1.041 0 2.865-.778 5.729-2.853 2.344-2.076 3.907-3.891 5.209-5.448.781-1.037 1.563-2.075 2.084-3.372 1.823.519 3.385.778 5.208.778-.52.778-1.302 1.816-1.823 2.594-11.459 16.084-19.533 26.72-23.96 31.389-9.376 10.117-19.012 15.565-28.388 16.343-1.302 0-2.084-.259-2.604-.518l-.521-.519-.521.519v.259c0 .778.521 1.556 2.344 1.556 3.385 0 7.032-.778 10.938-2.075 5.469-1.816 9.897-4.15 13.543-7.004 3.646-2.854 7.813-7.004 12.501-12.193 1.042-1.297 3.646-4.669 7.293-9.598 3.646-4.929 7.292-9.598 10.417-13.749 3.386-4.15 5.469-6.745 6.251-7.523 2.344-2.335 4.427-4.15 6.25-5.448 8.595-5.447 11.46-6.226 12.762-5.966.26 0 .26.26.521.26.26.259.26 1.037-1.823 3.112a23.664 23.664 0 01-5.47 4.67c-5.469 3.632-8.594 7.263-9.375 10.895-.521 2.594 0 4.41 2.083 4.93 1.823.518 4.428.518 7.292-.78 7.814-3.112 15.366-7.522 22.398-13.748 1.042-1.038 1.042-1.297 1.042-1.557 0-.259 0-.778-.26-.778-.782.26-1.042.26-1.303.519zm-47.139 3.113c-2.084 3.632-4.428 6.745-7.032 8.82-1.563 1.297-2.865 1.816-3.646 2.075-.261 0-.521 0-.782.26-.26 0-.521-.26-.521-.26-.26-.26 0-1.816 4.168-7.004 1.562-1.556 2.864-3.113 4.427-3.891l1.563-1.038c.26.52.781.779 1.041 1.038h.782zm1.041-4.929v2.075c0 .26 0 .52-.26.779 0 .259 0 .518-.26.778v.26c-.261 0-.521-.26-.782-.779-.521-.519-.521-1.556-.26-2.594 0-.519.26-.778.521-1.038l.521-.519s.26.26.26.52c.26 0 .26.259.26.518zm-46.358-46.695l.261-.518c.26-.52 1.302-1.297 4.167-3.113 2.344-1.557 5.729-3.373 10.157-5.448 7.292-3.372 13.282-5.188 17.71-5.188 1.302 0 2.604.26 3.906.519.521.518 1.042 1.037.261 2.334-.782 1.297-1.302 2.076-2.084 2.594-1.823 1.557-3.906 2.854-5.99 3.892-6.25 2.594-12.761 4.15-19.533 4.41l-8.855.518zm154.441 49.289s0-.26-.521-.519c-.261 0-1.042 0-4.428 3.113-12.761 11.155-20.835 16.862-23.7 16.862-.521 0-1.041-.26-1.302-.519-.26-.259-.26-.778 0-1.556.781-2.853 3.386-6.226 7.553-9.858l4.167-4.15c.521-.52 1.823-1.816.781-2.595-1.042-.778-2.604-.259-4.948 1.816-3.125 2.595-5.73 4.67-8.074 5.708-5.469 2.853-6.511 2.334-6.511 2.075 0 0-.26-.26 1.302-2.075 1.042-1.297 2.344-2.595 4.167-4.151a55.52 55.52 0 003.386-3.113c.782-1.038 1.302-2.075 1.042-2.854 0-.518-.521-.778-1.042-1.037-.26-.26-.781-.26-1.302 0s-.781.519-1.042.778c-.26.26-.521.519-.781 1.038l-.781.778c-3.907 3.891-5.991 6.226-6.511 7.264-1.042 2.075-1.303 3.631-.261 4.41 1.302 1.297 4.688.518 9.897-2.076l-.521.519c-3.386 4.67-4.427 8.042-2.604 10.117.52.778 1.562 1.297 2.604 1.297.521 0 1.302 0 2.084-.26 3.646-1.037 10.157-5.447 19.272-13.23 4.167-3.631 6.511-5.706 7.292-6.225.782-.779.782-1.297.782-1.557zm177.881 28.276c-.261 0-.782 0-1.823.779-5.47 3.372-9.897 5.447-13.283 6.226-5.99 1.297-10.938 0-14.324-3.373-3.386-3.372-4.688-7.782-3.906-12.97.26-1.298.52-2.595 1.041-4.151.521-1.557.782-2.854 1.302-3.891.521-1.038 1.042-2.335 1.824-3.892.781-1.556 1.562-2.853 2.083-3.631.521-.779 1.302-2.076 2.344-3.892 1.042-1.816 1.823-2.853 2.344-3.372.521-.519 1.302-1.816 2.604-3.632 1.303-1.816 2.084-3.113 2.344-3.372 4.688-6.486 7.293-9.858 7.814-10.636 1.041-1.038 2.083-2.594 3.906-4.41 1.563-2.075 3.125-3.632 4.688-5.448 1.563-1.556 2.604-3.113 3.646-4.67 5.209-6.485 4.949-6.744 4.688-7.004 0 0-.26-.259-.521-.259-.521 0-1.823.26-6.771 3.632-.261.26-3.386 2.594-9.116 7.264-19.272 15.305-33.596 26.72-42.972 33.464-1.563 1.297-3.646 3.113-6.511 5.448-2.865 2.334-4.688 3.89-5.99 4.928-1.823 1.557-4.167 3.114-6.511 4.67-4.949 2.594-6.511 3.113-7.032 3.113-.521 0-.782-.26-1.042-.778-.521-1.297.261-4.151 2.344-8.561 1.302-2.594 2.865-4.67 4.167-6.745 5.209-7.004 12.241-15.565 21.096-26.2 10.157-12.453 17.71-22.31 22.398-28.796l-.521-.518-3.907 4.15c-16.929 17.64-29.951 31.908-38.805 42.544-5.47 6.745-9.116 12.452-10.679 16.862-1.041 3.891-.781 6.485.782 8.301 2.083 2.335 4.948 2.335 8.334.26.26 0 .781-.26 12.501-9.34 1.563-1.296 7.813-6.225 18.491-14.526 10.678-8.302 19.012-14.787 24.742-19.197l2.084-1.556c4.687-3.632 7.813-6.226 9.896-7.783l-11.459 13.749c-7.553 9.08-13.283 18.159-16.929 26.98-3.646 8.82-3.646 16.083.261 21.79 2.604 3.632 5.99 5.966 10.157 7.004 1.563.259 3.125.519 4.688.519 2.604 0 5.209-.519 7.813-1.557 2.604-.778 6.511-2.853 11.459-5.966l.261-.26c.521-1.037.26-1.297 0-1.297z"/><path d="M420.09 41.506c4.687-4.929 7.813-8.301 9.375-9.858 4.167-4.928 7.814-8.3 10.158-10.636 2.344-2.334 4.167-3.89 5.469-4.928l5.73-3.892 10.157-2.853c3.385-1.816 5.208-2.594 5.469-2.854 2.604-1.556 3.907-3.113 3.907-4.67 0-.259 0-.518-.261-.777 0-.26-.26-.52-.781-.779-1.823-.778-7.553 2.076-16.929 8.042-3.906 2.594-10.938 4.15-21.095 4.93-8.335.518-17.45.258-26.826-.78-9.376-1.037-19.793-2.334-31.253-4.15-11.199-1.816-20.314-3.113-26.564-3.632-15.627-1.556-29.43-1.556-41.15-.518-19.012 1.556-35.68 6.744-49.484 15.305-7.292 3.891-13.803 9.858-19.533 16.862-5.729 7.004-8.855 14.268-8.855 21.272 0 1.816.261 3.113.782 4.41.521 1.297 1.041 2.075 1.562 2.335.521.519 1.042.519 1.303.519h.781c.521-.26.521-.52.521-.779 0-.519-.261-1.037-1.302-1.816-2.084-2.075-1.824-6.485.52-13.49 1.824-5.188 5.209-10.376 9.637-15.045 11.199-11.674 25.783-19.975 43.493-24.645 16.668-4.41 37.243-5.188 61.464-2.594 4.428.52 13.543 1.816 27.086 3.891 13.543 2.076 25.002 3.373 34.117 4.151 9.376.778 18.492.778 27.347 0 3.125-.26 6.771-.778 10.417-1.816l-3.125 2.335c-3.646 2.594-9.636 8.56-18.231 17.38-13.803 14.528-23.7 24.645-29.43 29.833-14.584 12.193-27.346 21.272-38.024 26.98-10.678 5.966-22.919 10.376-36.201 13.489-2.604.519-5.469 1.038-8.334 1.038-4.167.518-7.553.259-10.157-.519-2.084-.778-3.386-1.816-3.907-3.373 0 0-.26-.259-.26-1.037 0-.779-.261-1.297-.521-1.816-.261-.778-.781-1.038-1.302-1.038-.782 0-1.303.26-1.303 1.038 0 .519 0 1.037.261 1.816l.781 1.556c.261.519.521.778.521 1.038 2.084 3.113 6.251 4.669 11.98 4.669 17.189-.259 35.941-5.966 55.995-17.121 13.803-7.782 28.909-19.975 45.056-36.318 2.605-2.335 5.99-6.226 10.939-11.155zm33.596-31.908l10.418-5.966c3.125-1.557 3.907-1.557 4.427-1.557 0 .26-.26.778-2.083 2.335-1.563 1.297-3.646 2.335-5.73 3.113-2.344.778-4.688 1.556-7.032 2.075zm125.793 58.109c-.26-.26-.781 0-1.562.519l-2.344 2.594c-4.688 4.67-8.855 8.301-12.502 11.155-6.771 4.929-9.375 5.966-10.678 5.707-.52 0-.781-.26-1.041-.519-.261-.778-.261-2.335 1.823-6.745.26-.519.781-1.297 1.302-1.816.521-.778 1.042-1.297 1.823-2.075.521-.778 1.042-1.297 1.563-1.816 1.041-1.297 1.562-2.335 1.302-2.853 0-.26 0-.779.521-1.557 1.302-1.556 1.562-2.853 1.042-4.41-.261-.778-.782-1.297-1.303-1.816-1.302-.519-3.385-.26-6.25 1.038-1.823.778-3.646 1.816-4.949 2.853-.26 0-.26.26-.52.26-1.303 1.037-2.605 2.075-3.647 3.372-13.022 11.933-21.095 17.9-24.221 17.9h-.26c0-.26-.26-1.038 1.302-3.632.782-1.038 2.865-4.15 6.511-9.08 0 0 1.042-1.037 8.334-9.338.261-.52.521-.52.521-.779 0-.26-.26-.519-.781-.778-.521-.519-.781-.519-.781-.519-.782-.26-1.303-.26-2.084 0-.781.26-1.563 1.038-2.344 1.816-.781.778-1.302 1.297-1.302 1.557-3.125 2.594-4.949 4.15-5.469 4.67-8.334 6.484-9.897 6.484-10.158 6.484 0 0 0-.518.521-1.037.521-1.038.782-1.297 1.042-1.557.781-1.297 1.563-2.594 2.604-3.632.261 0 .782-.518 1.563-1.556.781-.778 1.302-1.297 1.563-1.816.521-.519.781-.778.781-1.297 0-.519 0-.778-.26-1.297-.261-.519-.782-.519-1.303-.519-.52 0-1.562.519-5.208 4.93-.782 1.037-1.563 1.815-2.605 2.334l-2.604 1.816c-2.084 1.556-3.646 2.594-4.688 3.113-2.865 1.297-3.386 1.037-3.646.778 0-.519.521-1.816 3.385-5.448.261-.26 1.303-1.297 6.251-6.745.781-1.037 1.823-2.075 2.604-3.112l.782-2.595c0-.26-.521-.778-1.302-.778-.521 0-1.042 0-1.563.519l-5.209 5.707c-2.083 2.335-3.906 4.41-5.209 6.485-3.646 3.373-6.771 6.226-9.636 8.302-6.771 4.928-9.376 5.966-10.678 5.707-.521 0-.781-.26-1.042-.52-.26-.777-.26-2.334 1.823-6.744.261-.519.782-1.297 1.302-1.816.521-.778 1.042-1.297 1.824-2.075.52-.778 1.041-1.297 1.562-1.816 1.042-1.297 1.563-2.335 1.302-2.854 0-.259 0-.778.521-1.556 1.302-1.556 1.563-2.854 1.042-4.41-.26-.778-.781-1.297-1.302-1.816-1.302-.519-3.386-.26-6.251 1.038-4.688 2.075-8.334 4.67-10.678 8.301-.781 1.556-1.302 3.113-1.562 4.67 0 1.556.52 2.594 1.562 3.112 1.042.52 2.605.26 4.428-.518.781-.26 1.823-.779 3.385-1.816-.52.778-.781 1.816-1.041 3.113a10.615 10.615 0 000 5.707c.521 1.297 1.562 2.075 3.125 2.075.781 0 1.563-.26 2.604-.519 2.084-.519 4.949-2.335 8.595-5.448 2.083-1.556 4.427-3.631 6.771-5.707-.26.779-.26 1.297-.26 1.557 0 .778.521 1.556 1.302 2.335 1.042.518 2.604 0 4.948-1.297 1.303-.52 3.647-2.335 7.032-4.67l-.26.778c-1.042 1.816-1.042 3.373 0 4.67.521.519 2.083.26 4.688-.778.26-.26.781-.52 2.344-1.557 1.302-.778 2.344-1.556 3.125-1.816l3.386-2.594-2.084 2.854c-2.083 3.113-3.646 5.707-4.427 7.782-1.042 2.854-1.042 4.929.26 5.966.261.26.782.52 1.563.52 2.604 0 8.074-2.854 21.616-15.047-.26.52-.26 1.297-.26 1.816 0 1.557.521 2.594 1.563 3.113 1.041.519 2.604.26 4.427-.519.781-.259 1.823-.778 3.386-1.816-.521.779-.781 1.816-1.042 3.114a10.615 10.615 0 000 5.707c.521 1.297 1.563 2.075 3.125 2.075.782 0 1.563-.26 2.605-.519 2.083-.519 4.948-2.335 8.594-5.448 2.344-1.816 4.949-3.89 7.553-6.485l7.292-7.004c1.303-1.038 1.303-1.297 1.303-1.557-.261-1.816-.521-1.816-.782-2.075zm-23.7 4.15c-1.042.779-1.823 1.298-2.083 1.557-3.386 2.854-3.907 3.113-3.907 3.373l-3.125 2.075c-2.344.778-2.605.519-2.865.519-.261-.779 0-2.335 3.125-5.707 2.605-2.854 5.209-5.189 7.813-6.486 3.126-1.816 3.647-1.556 3.907-1.297l.781.778c.261.779-.26 1.816-1.302 3.113-.521.52-1.302 1.297-2.344 2.076zm-72.402 0c-1.042.779-1.823 1.298-2.084 1.557-3.385 2.854-3.906 3.113-3.906 3.373l-3.126 2.075c-2.344.778-2.604.519-2.864.519-.261-.779 0-2.335 3.125-5.707 2.604-2.854 5.209-5.189 7.813-6.486 3.125-1.816 3.646-1.556 3.907-1.297l.781.778c.26.779-.26 1.816-1.302 3.113-.521.52-1.302 1.297-2.344 2.076z"/></g><defs><clipPath id="clip0"><path fill="#fff" d="M0 0h580v124H0z"/></clipPath></defs></svg>