<?xml version="1.0" encoding="utf-8"?><svg xmlns="http://www.w3.org/2000/svg" xmlns:xlink="http://www.w3.org/1999/xlink"><symbol viewBox="0 0 17 20" id="arr-up" xmlns="http://www.w3.org/2000/svg"><path d="M9.167 19.167V2.542l6.063 6.366a.833.833 0 101.207-1.15L9.512.488a1.667 1.667 0 00-2.371.015L.23 7.759a.83.83 0 00.029 1.178.833.833 0 001.178-.029L7.5 2.516v16.65a.834.834 0 001.667 0z"/></symbol><symbol viewBox="0 0 18.7 35.4" id="arrow" xmlns="http://www.w3.org/2000/svg"><path d="M18.7 17L1.5 0 .1 1.4l16.2 16.3L0 34l1.6 1.4 17.1-17z"/></symbol><symbol viewBox="0 0 16 16" id="camera" xmlns="http://www.w3.org/2000/svg"><path d="M14.076 3.666h-2.313V3.43a1.924 1.924 0 00-1.924-1.924H6.16A1.924 1.924 0 004.237 3.43v.237H1.923A1.924 1.924 0 000 5.59v6.981c0 1.062.861 1.924 1.923 1.924h12.154A1.924 1.924 0 0016 12.57V5.59a1.925 1.925 0 00-1.924-1.924zM7.999 12.5a3.637 3.637 0 01-3.633-3.633A3.637 3.637 0 018 5.233a3.637 3.637 0 013.633 3.633A3.637 3.637 0 018 12.5zm1.924-3.633c0 1.06-.864 1.924-1.924 1.924a1.927 1.927 0 01-1.923-1.924c0-1.06.863-1.923 1.923-1.923s1.924.863 1.924 1.923z"/></symbol><symbol viewBox="0 0 15.642 15.642" id="close" xmlns="http://www.w3.org/2000/svg"><path fill-rule="evenodd" d="M8.882 7.821l6.541-6.541A.75.75 0 1014.362.219L7.821 6.76 1.28.22A.75.75 0 10.219 1.281L6.76 7.822l-6.54 6.54a.75.75 0 001.06 1.061l6.541-6.541 6.541 6.541a.75.75 0 101.06-1.061l-6.54-6.541z"/></symbol><symbol viewBox="0 0 16 16" id="download" xmlns="http://www.w3.org/2000/svg"><g clip-path="url(#eclip0)"><path d="M8 10.667a.5.5 0 01-.361-.155l-3.5-3.667A.5.5 0 014.5 6h1.833V2.167c0-.46.374-.833.834-.833h1.666c.46 0 .834.373.834.833V6H11.5a.5.5 0 01.361.846l-3.5 3.666a.5.5 0 01-.361.155zm6.833 4H1.167A1.168 1.168 0 010 13.5v-.333C0 12.523.523 12 1.167 12h13.666c.644 0 1.167.523 1.167 1.167v.333c0 .643-.523 1.167-1.167 1.167z"/></g><defs><clipPath id="eclip0"><path d="M0 0h16v16H0z"/></clipPath></defs></symbol><symbol viewBox="0 0 18 22" id="play" xmlns="http://www.w3.org/2000/svg"><path d="M18 11L0 21.392V.608L18 11z"/></symbol><symbol viewBox="0 0 24 24" id="zoom" xmlns="http://www.w3.org/2000/svg"><g clip-path="url(#gclip0)"><path d="M23.34 20.16l-5.25-5.25a.593.593 0 00-.044-.043A9.691 9.691 0 0019.5 9.75C19.5 4.374 15.126 0 9.75 0S0 4.374 0 9.75s4.374 9.75 9.75 9.75a9.69 9.69 0 005.117-1.454l.042.045 5.25 5.25c.44.44 1.015.659 1.591.659a2.25 2.25 0 001.59-3.84zM3 9.75A6.758 6.758 0 019.75 3a6.758 6.758 0 016.75 6.75 6.758 6.758 0 01-6.75 6.75A6.758 6.758 0 013 9.75z"/><path d="M12.75 8.25h-1.5v-1.5a1.5 1.5 0 00-3 0v1.5h-1.5a1.5 1.5 0 000 3h1.5v1.5a1.5 1.5 0 003 0v-1.5h1.5a1.5 1.5 0 000-3z"/></g><defs><clipPath id="gclip0"><path d="M0 0h24v24H0z"/></clipPath></defs></symbol></svg>