<svg width="421" height="138" fill="none" xmlns="http://www.w3.org/2000/svg"><path d="M6.16 129.426c1.611.322 4.082.322 7.305 0 15.79-1.504 32.334-9.883 49.521-25.137a83.456 83.456 0 007.735-7.412 127.746 127.746 0 007.412-8.809c2.47-3.222 4.619-6.015 6.23-8.271 1.612-2.256 3.76-5.479 6.66-9.453 2.9-3.975 4.942-6.875 6.23-8.701 6.446-8.916 12.569-16.758 18.477-23.526 3.223-3.974 6.124-7.09 8.594-9.453 2.471-2.363 6.446-5.693 11.709-9.883.108-.107 1.934-.644 5.371-1.504 3.438-.752 6.446-1.718 9.131-2.685 6.768-2.686 11.172-5.049 13.213-7.305.752-.752 1.289-1.611 1.826-2.685.537-.967.537-1.934.215-2.793-.322-.86-1.182-1.29-2.471-1.29-.859 0-2.47.323-4.834.86-3.115.967-6.123 2.363-9.238 4.19-5.693 3.33-9.99 6.122-12.783 8.378-1.826 1.397-3.008 2.256-3.76 2.578-.752.323-2.363.538-4.834.86-3.115.43-7.197.967-12.461 1.718a997.98 997.98 0 01-11.709 1.612c-13.642 1.719-28.467 5.049-44.258 9.883-7.734 2.685-14.072 5.156-18.906 7.627-4.834 2.47-9.453 5.8-13.857 10.205a58.417 58.417 0 00-5.909 6.875c-2.47 3.652-3.437 6.552-2.9 8.808 0 .537.215.86.645.86.322 0 .537-.215.644-.645 0-.107 0-.43-.107-.752-.108-.322-.108-.537-.108-.86l.43-1.718c.752-1.933 1.29-3.115 1.611-3.545.967-2.04 2.471-3.975 4.405-5.908 8.056-8.701 21.27-15.684 39.746-20.947 5.908-1.612 10.527-2.9 13.857-3.76 7.52-1.826 23.096-4.404 46.729-7.627l4.834-.645c-.537.108-1.182.538-2.041 1.29l-1.075 1.074c-1.396.86-2.685 1.826-3.867 3.008a77.45 77.45 0 01-3.33 3.115c-1.074.966-2.256 2.148-3.652 3.545a124.432 124.432 0 01-3.33 3.437c-.752.752-1.934 2.041-3.33 3.76-1.504 1.826-2.578 3.008-3.116 3.652-.644.752-1.718 2.041-3.33 3.975-1.611 2.04-2.685 3.223-3.007 3.652-.323.43-1.397 1.719-3.008 3.975-1.719 2.256-2.686 3.437-3.008 3.76a575.015 575.015 0 00-17.832 24.6 157.276 157.276 0 01-15.899 20.087c-7.304 8.057-15.468 14.395-24.6 19.229-9.13 4.834-17.187 7.412-24.17 7.841-2.04.323-3.759.323-5.048.215-1.933-.322-3.545-1.074-4.834-2.041-.322-.322-.644-.644-.967-1.074l-.215-.215c-.322 0-.43.108-.43.43-.107.107 0 .43.43.859 1.397 1.504 3.223 2.364 5.264 2.686zm132.451-112.9l6.446-5.05c6.982-4.726 12.246-7.626 15.576-8.593 2.363-.43 3.652-.43 3.76 0 .429 1.611-1.397 3.545-5.479 5.908-5.908 3.545-12.676 6.123-20.303 7.734zm-40.175 82.5c.859.43 1.396 0 1.611-1.29.107-1.181 1.933-3.115 5.371-5.586 3.437-2.47 6.875-4.511 10.205-6.123.859-.43 1.611-.537 2.148-.43 1.075.323.752 1.29-1.074 2.686-2.578 2.256-5.049 4.942-7.412 8.164-5.156 7.198-5.801 11.172-2.041 12.032.967.322 2.471 0 4.512-.967 2.041-.967 4.297-2.364 6.875-4.297 2.471-1.934 4.726-3.653 6.66-5.264 1.934-1.504 4.082-3.222 6.338-5.263 2.256-1.934 3.437-2.9 3.545-2.9l5.478-4.62.537-.43c.108-.107.215-.322.215-.43a.23.23 0 00-.215-.214l-.322-.215c-.429 0-.752.107-1.074.43a100.89 100.89 0 01-5.479 4.511c-1.826 1.504-3.222 2.686-4.189 3.545-1.074.967-2.148 1.934-3.33 2.9-10.527 8.702-16.865 12.784-19.121 12.354-.967-.752-1.074-1.933-.215-3.76.859-1.718 2.471-3.974 4.834-6.767a63.838 63.838 0 002.471-3.115c.859-.967 1.504-1.72 1.933-2.149 3.76-4.619 4.512-7.197 2.471-7.734-1.504-.43-4.941.967-10.42 4.19-.537.322-1.182.644-1.826 1.073-.645.43-1.074.752-1.397.86l-.429.215c.322-.538 1.826-2.579 4.619-5.909 3.974-4.726 5.693-7.412 5.264-7.949-.752-.967-2.149-.43-4.19 1.612-2.363 1.826-4.941 4.619-7.734 8.378-2.793 3.76-4.512 6.446-5.05 8.057-.751 2.686-.536 4.082.43 4.404zm105.918-67.354c-.538-2.256-3.116-1.934-7.735.752-4.082 2.47-7.519 4.941-10.312 7.412-10.313 8.916-16.866 14.717-19.659 17.402-4.619 4.405-11.601 11.172-20.839 20.41-4.512 4.62-7.842 8.165-9.883 10.85l-11.065 14.072c-5.049 1.826-9.99 3.653-14.716 5.264-2.364.967-3.545 1.611-3.545 1.719 0 .107 0 .215.107.322.107.107.215.215.43.215h.537c.215 0 .537-.108 1.074-.322.537-.108 1.074-.323 1.826-.43.645-.108 1.397-.322 2.256-.645 2.149-.537 4.512-.537 6.982 0l-5.263 7.09c-2.686 3.33-5.801 8.701-9.453 16.006-.43.967-.645 1.934-.645 3.115-.107 1.934.752 2.901 2.363 2.901 3.545-.215 8.487-3.867 14.825-10.85 5.586-6.016 6.875-10.957 3.974-14.932-.537-.537-1.074-1.181-1.611-1.718l1.611-2.256 1.719-2.363c.859-1.075 2.148-1.934 3.76-2.686a626.454 626.454 0 0012.461-5.156c5.049-2.041 9.238-3.975 12.783-5.586 5.156-2.364 8.809-4.62 10.85-6.66.537-.537.859-.967.859-1.29-.107-.859-.537-.859-1.397 0-1.718 1.72-4.404 3.545-8.056 5.48-.322.106-9.561 4.189-27.93 12.138l2.793-3.545a799.285 799.285 0 015.801-7.412c2.041-2.578 3.33-3.975 3.867-4.297 10.42-6.23 19.229-12.139 26.211-17.725 8.271-6.445 16.328-13.75 24.17-22.021 2.256-2.256 4.619-4.942 7.09-8.164 2.793-3.545 4.082-5.909 3.76-7.09zm-11.28 14.18c-10.097 11.279-23.847 22.773-41.142 34.267a52.254 52.254 0 01-6.983 4.19l3.223-3.76c1.826-1.719 5.478-5.479 11.064-11.28 5.586-5.8 9.991-10.205 13.213-13.32.967-1.074 2.471-2.578 4.405-4.404 1.826-1.826 3.544-3.438 5.156-5.049 1.611-1.504 3.115-2.793 4.511-3.974.86-.752 2.149-1.827 3.868-3.33 1.611-1.505 2.9-2.579 3.759-3.33 4.297-3.546 7.198-4.942 8.594-4.19.108.537.215.86.322 1.074.108.215-.107.752-.644 1.611-.537.86-.967 1.612-1.397 2.256-.429.752-1.074 1.612-1.933 2.578-.967.967-1.719 1.827-2.256 2.364-.537.644-1.289 1.396-2.041 2.363-.859.967-1.397 1.611-1.719 1.934zm-74.336 61.552c-1.181-.322-2.363-.322-3.545-.215l4.619-1.503c1.504-.538 2.793-.967 3.76-1.397l-2.9 3.76-1.934-.645zm-10.312 1.075l1.719-.645c-.323 0-.538.107-.86.215-.322.107-.537.322-.859.43zm16.006 3.974c1.396 2.363 1.396 5.264-.215 8.809-.752 1.396-1.934 3.222-3.76 5.263-4.834 5.586-8.809 8.809-12.031 9.668-1.826.645-2.364-.214-1.612-2.578.323-.752 2.256-3.867 5.801-9.453 1.719-2.793 3.867-5.693 6.553-8.808 1.504-1.827 2.793-3.223 3.975-4.19.107-.107.537.322 1.289 1.289zm63.593-29.219c-2.47 2.256-4.619 3.438-6.337 3.653-2.364.537-4.727.322-7.09-.645 1.289-3.974 1.181-6.445-.215-7.412-1.182-.752-2.256-.322-3.223 1.074-.644.752-.967 1.719-.967 2.686 0 .752.108 1.181.215 1.504-.322-.752-.752-1.075-1.289-1.075-1.719 0-4.404 2.041-7.949 6.231-3.652 4.19-5.371 7.305-5.049 9.346.43 1.826 1.611 2.578 3.545 2.256 1.182 0 3.223-1.075 6.338-3.116 2.578-2.255 4.512-4.297 5.801-6.123.859-1.181 1.718-2.578 2.578-4.19 3.76 1.397 7.197 1.29 10.42-.536.752-.43 2.041-1.29 3.652-2.578.322-.323.43-.645.43-1.075 0-.43-.323-.43-.86 0zm-14.502 2.579l-.429-.215c-.323-.108-.645-.43-1.074-.86-.538-.752-.752-1.933-.43-3.33.107-.537.43-.967.859-1.289.86-.967 1.397-.967 1.719.215.107.322.215.644.215.967v1.074c0 .43 0 .86-.108 1.182-.107.322-.107.644-.214.859-.108.215-.108.43-.215.752-.108.322-.215.537-.323.644zm-8.808 11.494c-1.826 1.396-3.223 2.255-4.404 2.363-.323 0-.538.107-.645.215-2.256 0-.967-2.9 3.76-8.809a32.307 32.307 0 015.049-4.619l2.148-1.504c.322.537.859.967 1.397 1.29l1.074.644c-2.364 4.404-5.156 7.949-8.379 10.42zm19.121 12.031c-3.652 1.826-5.479 1.611-5.479-.645-.107-3.33 2.901-8.379 9.239-15.146 1.826-1.934 3.008-3.223 3.437-3.867.322-.645.43-1.504.108-2.471-.537-1.826-.86-3.115-.967-3.975-.108-1.074-.322-1.826-.645-2.255-.322-.43-.752-.538-1.504-.215-.537 0-.752.43-.429 1.289 0 .752-.323 1.504-.967 2.148-.752.645-1.074 1.074-1.074 1.182l.752.644c.107-.107.322-.322.537-.43.215-.107.429-.322.537-.429.322 0 .644.322 1.074 1.074.107.537.215 1.074.215 1.611-.108.43-1.719 2.149-4.619 5.05-6.553 6.874-9.346 12.245-8.164 16.005 1.181 3.545 4.619 3.76 10.205.86 4.619-2.471 11.709-7.735 21.269-16.006.86-.752 1.827-1.504 2.793-2.471a72.613 72.613 0 003.223-3.008c1.182-1.074 2.041-1.933 2.578-2.47.859-.86 1.289-1.397 1.289-1.504 0-.752-.537-.752-1.504 0l-2.9 2.9c-8.272 7.412-14.18 12.46-17.51 15.039-3.437 2.686-7.305 5.049-11.494 7.09zm44.365 2.256c1.397 2.47 6.016.967 13.643-4.619 3.76-2.901 8.164-6.768 13.213-11.494 1.504-1.29 3.652-3.223 6.338-5.694a286.647 286.647 0 015.371-4.834c.322-.322.322-.537.214-.644 0-.323-.214-.43-.644-.43-.107 0-.322.107-.645.43l-5.586 5.048c-5.263 5.157-9.345 9.024-12.46 11.495-9.991 8.164-15.791 11.709-17.618 10.742-.322-.752-.322-1.504-.215-2.256.108-.752.86-1.934 2.042-3.545 1.181-1.611 2.148-2.9 3.007-3.975a73.95 73.95 0 013.008-3.222l1.611-1.934 5.909-6.445c2.9-2.9 4.189-5.049 3.759-6.338a.967.967 0 00-.644-.645c-1.289-1.074-6.123.967-14.502 6.123l3.008-3.76c3.437-4.081 5.371-6.66 5.801-7.626.322-.537.429-1.075.537-1.719.107-.645 0-1.182-.215-1.719-.322-.537-.752-.644-1.504-.537-2.793.322-5.908 1.719-9.453 4.19-5.049 3.33-10.742 8.056-16.865 14.072-1.397 1.289-2.471 2.47-3.331 3.437l2.579-5.263c1.503-2.256 4.404-5.479 8.808-9.883 3.008-2.9 5.049-4.62 6.016-5.049.752-.322 1.074-.752 1.181-1.504.108-.644-.214-1.074-.966-1.181-.645.107-1.397.214-2.256.537-1.612.751-4.19 2.792-7.735 6.337-7.197 7.198-10.527 12.784-10.097 16.758.107 1.182.429 1.934.859 2.256.322.322.86.322 1.397-.107.537-.323.859-.537.859-.86-.107-.322.107-.752.859-1.504 2.471-3.544 6.875-7.841 13.213-12.89 6.338-4.942 10.957-7.735 13.858-8.272.537-.107.859 0 .859.323 0 .322-.107.859-.43 1.396-.107.322-1.074 1.29-2.685 3.115-1.719 1.827-3.545 3.76-5.586 5.909-2.041 2.255-3.33 3.652-3.76 4.189-2.041 2.041-3.223 4.19-3.33 6.23-.107 1.29.43 1.29 1.719 0a36.176 36.176 0 018.164-6.66c2.363-1.611 4.941-3.115 7.627-4.511 2.685-1.397 4.189-1.72 4.512-1.182.107.43-1.075 1.933-3.545 4.404-7.627 7.627-12.569 13.643-14.932 18.047-1.182 2.363-1.504 4.082-.967 5.264zm45.654-4.405c2.364-.751 5.586-2.793 9.776-6.123 2.685-2.04 5.586-4.511 8.486-7.304l8.379-7.95c.967-.859 1.397-1.396 1.397-1.503-.108-.752-.645-.752-1.612 0l-2.793 2.9c-5.478 5.371-10.205 9.56-14.287 12.676-6.338 4.726-10.42 6.982-12.353 6.66-2.364-.107-2.149-3.115.644-8.809.43-.752.967-1.504 1.504-2.255.537-.752 1.289-1.504 2.041-2.471.752-.86 1.289-1.504 1.719-1.934 1.182-1.396 1.611-2.47 1.504-3.008-.108-.537.107-1.181.537-2.04 1.289-1.612 1.611-3.223 1.074-4.835-.752-2.47-3.437-2.685-8.164-.644-5.264 2.256-9.238 5.37-11.924 9.453-.967 1.826-1.504 3.438-1.611 5.049-.108 1.611.43 2.685 1.611 3.115 1.182.43 2.793.215 4.834-.644.967-.323 2.686-1.29 5.156-3.116-.966 1.182-1.611 2.9-2.148 4.942-.537 2.148-.43 4.297.107 6.338.86 2.041 2.901 2.47 6.123 1.503zM260.75 96.877c-.537-1.29.645-3.652 3.652-7.09 2.901-3.33 5.909-5.908 8.809-7.52 2.685-1.61 4.297-2.04 4.834-1.503 1.504.859 1.289 2.578-.645 5.049-.429.751-1.289 1.503-2.47 2.47-1.289.967-2.041 1.611-2.364 1.934-2.793 2.363-4.296 3.652-4.404 3.76-2.256 1.504-3.437 2.363-3.76 2.47-2.256.752-3.545.86-3.652.43zm22.236 34.482c1.612-.322 4.082-1.504 7.198-3.759 5.908-4.19 17.509-14.073 35.019-29.434 1.611-1.504 3.975-3.652 7.09-6.445 3.115-2.793 5.371-4.942 6.768-6.338.537-.537.751-.967.644-1.29-.107-.536-.43-.644-.859-.214l-6.123 5.693c-14.395 13.428-26.104 23.633-35.02 30.83-9.99 7.842-15.791 11.065-17.187 9.668-2.041-2.041-.43-8.271 4.834-18.476 2.9-5.264 6.875-11.387 11.709-18.262.752-1.182 4.189-5.586 10.312-13.213 5.693-6.553 10.313-11.172 13.643-13.857l9.023-6.553a901.641 901.641 0 0012.783-10.635l4.619-3.974 3.116.43c3.33.322 6.982.214 10.742-.215a50.449 50.449 0 008.594-1.934c3.545-1.182 5.908-2.686 7.197-4.62.107-.107.215-.322.215-.429-.108-.107-.323-.215-.645-.215-.322.108-.644.43-1.074.86-1.719 1.504-3.867 2.685-6.553 3.545-2.685.966-5.156 1.61-7.519 1.718-4.619.537-9.024.537-13.213-.215l7.519-7.412c1.934-2.04 3.223-3.76 3.975-5.156.537-1.719 0-2.578-1.397-2.578-1.181 0-3.974 1.719-8.378 5.049l-8.702 7.734-2.255-.752c-14.288-4.834-25.889-7.09-34.805-6.982-6.66.322-12.676.967-18.154 2.148-2.041.537-3.76 1.074-5.157 1.611-6.875 2.256-12.461 5.479-16.865 9.669-1.611 1.61-2.793 3.222-3.545 4.834a2.94 2.94 0 00-.43 1.503c.108.323.43.538.752.645.323.107.645.107.752-.215l.215-.43v-.215c.215-1.181 1.074-2.578 2.471-4.404 3.33-3.652 7.627-6.552 12.783-8.593 13.428-5.694 27.5-6.983 42.217-3.868l4.404 1.075c6.446 1.826 11.172 3.222 14.287 4.404l2.149.86-4.19 3.33-6.338 5.908c-13.964 12.998-24.277 23.74-31.045 32.119-4.511 5.478-8.593 11.064-12.246 16.972-4.726 7.627-7.734 13.858-9.023 18.907-.537 1.826-.645 3.652-.537 5.263.644 4.512 2.685 6.445 6.23 5.908zm64.024-87.763l-2.901-.86a12.043 12.043 0 012.041-2.04c.86-.753 1.934-1.612 3.116-2.686a33.522 33.522 0 002.578-2.363l3.33-2.794c2.471-2.04 3.652-2.685 3.652-1.826.108.43-.752 1.72-2.578 3.76l-4.834 4.834c-2.363 2.256-3.867 3.545-4.404 3.975zm-23.311 18.906l11.387-11.387 4.189-3.76 3.76-3.33 2.901.86-3.116 2.685-7.304 5.908c-5.049 4.405-9.024 7.413-11.817 9.024zm26.963 12.354c.967-.43 1.182-1.29.645-2.471-.323-.752-.752-.86-1.504-.537-.752.43-1.289 1.181-1.719 2.148-.107.43-.215.752-.215 1.074-.107.86.86.752 2.793-.214zm-20.84 30.83c3.223.859 10.742-2.579 22.451-10.42 3.545-2.471 7.842-5.801 12.891-9.883.645-.43.967-.86.967-1.29-.108-.859-.645-.751-1.611.216-5.157 4.619-12.676 9.882-22.452 15.791-5.263 3.222-9.238 4.726-12.031 4.404-2.9-.43-1.826-3.76 3.33-9.883.537-.752 1.612-1.933 3.223-3.545 3.76-3.545 6.338-6.338 7.734-8.271.322-.323.43-.645.43-.752 0-.537-.322-.86-.859-.86-.967-.107-1.934 0-2.901.43-1.182.967-1.933 1.611-2.363 2.041l-4.404 4.404c-.752.752-2.149 2.364-4.19 5.05-2.041 2.792-3.223 5.37-3.33 7.841-.107 2.471.859 3.975 3.115 4.727zm56.074-22.452c-2.47 2.256-4.619 3.438-6.337 3.653-2.364.537-4.727.322-7.09-.645 1.289-3.974 1.181-6.445-.215-7.412-1.182-.752-2.256-.322-3.223 1.074-.644.752-.967 1.719-.967 2.686 0 .752.108 1.181.215 1.504-.322-.752-.752-1.075-1.289-1.075-1.719 0-4.404 2.041-7.949 6.231-3.652 4.19-5.371 7.305-5.049 9.346.43 1.826 1.612 2.578 3.545 2.256 1.182 0 3.223-1.075 6.338-3.116 2.578-2.255 4.512-4.297 5.801-6.123.859-1.181 1.719-2.578 2.578-4.19 3.76 1.397 7.197 1.29 10.42-.536.752-.43 2.041-1.29 3.652-2.578.322-.323.43-.645.43-1.075 0-.43-.322-.43-.86 0zm-14.501 2.579l-.43-.215c-.322-.108-.645-.43-1.074-.86-.537-.752-.752-1.933-.43-3.33.107-.537.43-.967.859-1.289.86-.967 1.397-.967 1.719.215.107.322.215.644.215.967v1.074c0 .43 0 .86-.108 1.182-.107.322-.107.644-.214.859-.108.215-.108.43-.215.752-.108.322-.215.537-.322.644zm-8.809 11.494c-1.826 1.396-3.223 2.255-4.404 2.363-.323 0-.537.107-.645.215-2.256 0-.967-2.9 3.76-8.809a32.307 32.307 0 015.049-4.619l2.148-1.504c.322.537.86.967 1.397 1.29l1.074.644c-2.363 4.404-5.156 7.949-8.379 10.42zm15.361 1.718c.86.43 1.397 0 1.612-1.289.107-1.181 1.933-3.115 5.371-5.586 3.437-2.47 6.875-4.511 10.205-6.123.859-.43 1.611-.537 2.148-.43 1.074.323.752 1.29-1.074 2.686-2.578 2.256-5.049 4.942-7.412 8.164-5.156 7.198-5.801 11.172-2.041 12.032.967.322 2.471 0 4.512-.967 2.041-.967 4.296-2.364 6.875-4.297 2.47-1.934 4.726-3.653 6.66-5.264 1.933-1.504 4.082-3.222 6.338-5.263 2.255-1.934 3.437-2.9 3.545-2.9l5.478-4.62.537-.43c.108-.107.215-.322.215-.43a.23.23 0 00-.215-.214l-.322-.215c-.43 0-.752.107-1.074.43a101.276 101.276 0 01-5.479 4.511c-1.826 1.504-3.222 2.686-4.189 3.545-1.075.967-2.149 1.934-3.33 2.9-10.528 8.702-16.866 12.784-19.121 12.354-.967-.752-1.075-1.933-.215-3.76.859-1.718 2.47-3.974 4.834-6.767a63.914 63.914 0 002.47-3.115c.86-.967 1.504-1.72 1.934-2.149 3.76-4.619 4.512-7.197 2.471-7.734-1.504-.43-4.942.967-10.42 4.19-.537.322-1.182.644-1.826 1.073-.645.43-1.075.752-1.397.86l-.43.215c.323-.538 1.827-2.579 4.62-5.909 3.974-4.726 5.693-7.412 5.263-7.949-.752-.967-2.148-.43-4.189 1.612-2.363 1.826-4.942 4.619-7.735 8.378-2.793 3.76-4.511 6.446-5.048 8.057-.752 2.686-.538 4.082.429 4.404z" fill="#BF9475"/></svg>