<svg width="398" height="122" fill="none" xmlns="http://www.w3.org/2000/svg"><path d="M101.492 106.643c6.553-1.934 15.039-6.016 25.459-12.14 10.313-6.122 19.766-12.782 28.467-19.98.537-.43.752-.966.644-1.504 0-.43-.107-.537-.429-.43-.967.538-1.934 1.397-3.115 2.364-11.065 8.701-23.096 16.543-36.094 23.74-6.123 3.545-12.246 5.801-18.155 6.983-6.015 1.181-11.494.429-16.328-2.364-2.47-2.255-3.867-5.585-4.189-10.097-.215-7.197 2.148-14.824 6.982-23.096 9.346-15.254 20.733-28.36 34.161-39.424l1.074-.86c8.701 2.901 15.683 4.835 20.947 5.694 5.908.752 11.709.537 17.402-.644 12.139-2.686 21.7-8.701 28.575-18.047 2.578-3.76 3.115-7.52 1.718-11.172-2.9-6.338-13.427-6.553-31.474-.645-4.834 1.612-10.742 3.975-17.725 7.305-7.09 3.33-12.461 6.23-16.113 8.701-1.504 1.075-2.901 2.041-4.19 3.008-1.289.967-2.148 1.504-2.47 1.826-.43.323-.752.43-.86.43-9.668-4.404-17.08-7.412-22.236-9.023-17.08-5.694-35.127-5.05-54.033 1.826-8.81 3.008-16.543 6.982-23.31 11.816-3.33 2.256-5.802 3.975-7.413 5.264-1.719 1.396-3.545 3.437-5.478 6.338-2.041 2.9-2.9 5.586-2.579 8.271l.215 1.719c.86 2.47 2.149 3.867 3.975 3.975h.43c.322-.323.322-.537 0-.86-.108-.107-.323-.322-.645-.43l-.215-.214c-1.826-1.182-2.578-2.9-2.47-5.05.107-2.04.751-4.081 1.933-6.122 1.182-2.041 2.256-3.545 3.438-4.512C13.943 33.273 22 28.01 31.56 23.498a85.866 85.866 0 0111.171-4.19c18.155-6.123 35.772-6.123 52.852.215 4.404 1.504 7.627 2.793 9.668 3.76l6.123 2.578 2.9 1.397c0 .107-.322.537-.859 1.074-.537.537-1.504 1.396-2.9 2.47-1.397 1.182-2.364 2.042-3.116 2.794-9.345 8.916-16.435 17.08-21.484 24.385-4.297 6.445-7.412 12.675-9.453 18.69-2.041 6.016-2.686 11.602-1.934 16.866.752 5.264 3.115 9.131 7.198 11.817 4.834 3.115 11.386 3.544 19.765 1.289zM138.66 33.81c-4.404-.537-9.238-1.933-14.717-3.974l-2.363-.86 2.363-1.933c8.809-7.412 21.162-13.965 37.168-19.658 10.528-3.867 18.262-5.05 23.096-3.653 2.256.86 3.438 2.041 3.76 3.438.537 2.256-.215 5.049-2.149 8.594-3.974 6.338-10.742 11.386-20.302 15.146-8.702 3.76-17.618 4.727-26.856 2.9zm34.053 39.424c-2.471 2.256-4.619 3.438-6.338 3.653-2.363.537-4.727.322-7.09-.645 1.289-3.974 1.182-6.445-.215-7.412-1.181-.752-2.256-.322-3.222 1.074-.645.752-.967 1.719-.967 2.686 0 .752.107 1.181.215 1.504-.323-.752-.752-1.075-1.289-1.075-1.719 0-4.405 2.041-7.95 6.231-3.652 4.19-5.371 7.305-5.048 9.346.429 1.826 1.611 2.578 3.545 2.256 1.181 0 3.222-1.075 6.337-3.116 2.579-2.255 4.512-4.297 5.801-6.123.86-1.181 1.719-2.578 2.578-4.19 3.76 1.397 7.198 1.29 10.42-.536.752-.43 2.041-1.29 3.653-2.578.322-.323.429-.645.429-1.075 0-.43-.322-.43-.859 0zm-14.502 2.579l-.43-.215c-.322-.108-.644-.43-1.074-.86-.537-.752-.752-1.933-.43-3.33.108-.537.43-.967.86-1.289.859-.967 1.396-.967 1.718.215.108.322.215.644.215.967v1.074c0 .43 0 .86-.107 1.182-.108.322-.108.644-.215.859-.107.215-.107.43-.215.752-.107.322-.215.537-.322.644zm-8.809 11.494c-1.826 1.396-3.222 2.255-4.404 2.363-.322 0-.537.107-.644.215-2.256 0-.967-2.9 3.759-8.809a32.352 32.352 0 015.049-4.619l2.149-1.504c.322.537.859.967 1.396 1.29l1.074.644c-2.363 4.404-5.156 7.949-8.379 10.42zm140.83-59.19c-.322 0-.859.322-1.396.86-2.9 2.9-7.52 4.726-13.857 5.263-6.446.43-10.85.322-13.213-.215l7.519-7.412c1.934-2.04 3.223-3.76 3.975-5.156.859-1.719.429-2.578-1.289-2.578-1.826 0-4.619 1.719-8.379 5.049l-8.809 7.734-2.256-.752c-16.006-4.619-27.5-6.982-34.697-6.982-6.445 0-12.568.752-18.262 2.148-1.933.537-3.652 1.074-5.048 1.611-7.52 2.686-13.213 5.909-16.973 9.668-1.611 1.612-2.793 3.223-3.545 4.835a2.94 2.94 0 00-.43 1.503c0 .323.215.538.645.645.429.107.752.107.859-.215.215-.107.322-.322.322-.645-.107-.966.752-2.47 2.364-4.404 2.793-3.33 7.09-6.23 12.783-8.593 14.717-6.124 28.789-7.413 42.217-3.868l4.404 1.075c1.934.537 4.619 1.396 8.057 2.363 3.437 1.074 5.478 1.719 6.23 2.04l2.256.645-4.189 3.545-6.446 5.909c-6.338 5.8-13.213 12.675-20.84 20.625L193.123 85.48c-10.957 8.486-17.295 12.568-19.121 12.138-.967-.752-1.074-1.933-.215-3.76.859-1.718 2.471-3.974 4.834-6.767a63.838 63.838 0 002.471-3.115c.859-.967 1.504-1.72 1.933-2.149 3.76-4.619 4.512-7.197 2.471-7.734-1.504-.43-4.941.967-10.42 4.19-.537.322-1.181.644-1.826 1.073-.645.43-1.074.752-1.396.86l-.43.215c.322-.538 1.826-2.579 4.619-5.909 3.975-4.726 5.693-7.412 5.264-7.949-.752-.967-2.149-.43-4.19 1.612-2.363 1.826-4.941 4.619-7.734 8.378-2.793 3.76-4.512 6.446-5.049 8.057-.752 2.686-.537 4.082.43 4.404.966.43 1.504 0 1.611-1.289.107-1.181 1.934-3.115 5.371-5.586 3.438-2.47 6.875-4.511 10.205-6.123.86-.43 1.611-.537 2.149-.43 1.074.323.752 1.29-1.075 2.686-2.578 2.256-5.048 4.942-7.412 8.164-5.156 7.197-5.801 11.172-2.041 12.031.967.323 2.471 0 4.512-.966 2.041-.967 4.189-2.256 6.66-4.082 2.363-1.72 4.619-3.33 6.66-4.942 2.041-1.504 4.19-3.115 6.446-4.941 2.148-1.826 3.33-2.793 3.652-3.115 1.611-1.182 4.297-3.116 7.842-5.801 3.545-2.686 6.015-4.62 7.412-5.8-.967 1.288-2.578 3.114-4.619 5.478-4.619 5.478-8.701 11.064-12.354 16.972-4.726 7.627-7.734 13.858-9.023 18.907a18.027 18.027 0 00-.43 5.263c.537 4.512 2.578 6.445 6.123 5.908 1.611-.322 4.082-1.504 7.305-3.759 3.76-2.579 7.627-5.479 11.387-8.809 3.759-3.223 8.056-6.982 12.783-11.172 4.619-4.19 8.271-7.412 10.742-9.453 5.478-4.727 10.098-9.023 13.857-12.783.645-.537.86-.967.752-1.29-.215-.536-.537-.644-.967-.214l-6.123 5.693c-14.394 13.428-26.103 23.633-35.019 30.83-9.99 7.842-15.684 11.065-17.08 9.668-2.041-2.041-.43-8.271 4.834-18.476 2.148-4.19 6.015-10.313 11.601-18.262 1.182-1.826 4.62-6.23 10.313-13.213 5.049-6.338 9.56-10.957 13.642-13.857l9.024-6.553c1.182-.967 5.478-4.512 12.783-10.635l4.619-3.974 3.115.43c3.331.322 6.983.214 10.743-.215a50.415 50.415 0 008.593-1.934c2.686-.86 5.049-2.363 7.305-4.62.108-.107.215-.322.215-.429-.107-.107-.322-.215-.645-.215zm-29.755 5.479l-2.901-.86c.537-.537 1.182-1.289 2.041-2.04.86-.753 1.934-1.612 3.115-2.686 1.182-.967 2.041-1.826 2.579-2.364l3.33-2.793c2.47-2.04 3.759-2.685 3.759-1.826 0 .752-.859 1.934-2.685 3.76l-4.834 4.834c-2.363 2.363-3.867 3.652-4.404 3.975zm-4.19 3.974l-7.197 5.908c-5.264 4.19-9.238 7.198-11.924 9.024l11.494-11.387 4.082-3.76 3.76-3.33 2.9.86-3.115 2.685zm4.19 59.62c2.363-.752 5.585-2.793 9.775-6.124 2.686-2.04 5.586-4.511 8.486-7.304l8.379-7.95c.967-.859 1.397-1.396 1.397-1.503-.108-.752-.645-.752-1.612 0l-2.793 2.9c-5.478 5.371-10.205 9.56-14.287 12.676-6.338 4.726-10.42 6.982-12.353 6.66-2.364-.108-2.149-3.115.644-8.809.43-.752.967-1.504 1.504-2.255.537-.752 1.289-1.504 2.041-2.471.752-.86 1.289-1.504 1.719-1.934 1.182-1.396 1.611-2.47 1.504-3.008-.108-.537.107-1.181.537-2.04 1.289-1.612 1.611-3.223 1.074-4.835-.752-2.47-3.437-2.685-8.164-.644-5.264 2.256-9.238 5.37-11.924 9.453-.966 1.826-1.504 3.438-1.611 5.049-.107 1.611.43 2.685 1.611 3.115 1.182.43 2.793.215 4.834-.644.967-.323 2.686-1.29 5.157-3.116-.967 1.182-1.612 2.9-2.149 4.942-.537 2.148-.43 4.296.108 6.338.859 2.04 2.9 2.47 6.123 1.503zm-13.106-10.313c-.537-1.29.645-3.652 3.652-7.09 2.901-3.33 5.909-5.908 8.809-7.52 2.686-1.61 4.297-2.04 4.834-1.503 1.504.859 1.289 2.578-.645 5.049-.429.751-1.289 1.503-2.47 2.47-1.289.967-2.041 1.611-2.363 1.934-2.793 2.363-4.297 3.652-4.405 3.76-2.256 1.504-3.437 2.363-3.76 2.47-2.255.752-3.544.86-3.652.43zm55.645 34.482c1.611-.322 4.082-1.504 7.304-3.759 3.76-2.579 7.627-5.479 11.387-8.809 3.76-3.223 8.057-6.982 12.783-11.172 4.619-4.19 8.272-7.412 10.742-9.453 5.479-4.727 10.098-9.023 13.858-12.783.644-.537.859-.967.752-1.29-.215-.536-.537-.644-.967-.214l-6.123 5.693c-4.619 4.405-16.221 14.717-35.02 30.83-9.56 8.272-15.253 11.494-17.08 9.668-2.256-2.256-.644-8.379 4.834-18.476 2.901-5.264 6.768-11.387 11.602-18.262 1.182-1.826 4.619-6.23 10.312-13.213 5.049-6.338 9.561-10.957 13.643-13.857l9.023-6.553c1.182-.967 5.479-4.512 12.784-10.635l4.619-3.974 3.115.43c3.33.322 6.982.214 10.742-.215a50.449 50.449 0 008.594-1.934c2.685-.86 5.049-2.363 7.305-4.62.107-.107.214-.322.214-.429-.107-.107-.322-.215-.644-.215-.215 0-.645.322-1.182.86-1.181 1.181-3.33 2.363-6.552 3.545-2.686.966-5.157 1.61-7.52 1.718-5.908.43-10.312.322-13.213-.215l7.52-7.412c1.933-2.04 3.222-3.76 3.974-5.156.86-1.719.43-2.578-1.289-2.578-1.826 0-4.619 1.719-8.379 5.049l-8.808 7.734-2.256-.752c-16.006-4.619-27.5-6.982-34.697-6.982-6.446 0-12.569.752-18.262 2.148-1.934.537-3.652 1.074-5.049 1.611-7.52 2.686-13.213 5.909-16.973 9.668-1.611 1.612-2.793 3.223-3.545 4.835a2.939 2.939 0 00-.429 1.503c0 .323.215.538.644.645.43.107.752.107.86-.215.215-.107.322-.322.322-.645-.107-.966.752-2.47 2.363-4.404 2.793-3.33 7.09-6.23 12.783-8.593 14.717-6.124 28.789-7.413 42.217-3.868l4.405 1.075c6.445 1.826 11.171 3.222 14.287 4.404l2.255.86-4.189 3.33-6.445 5.908c-8.164 7.626-14.932 14.287-20.41 20.195-1.827 1.396-3.76 2.9-6.016 4.512-2.256 1.718-4.727 3.437-7.197 5.156-2.471 1.826-4.297 3.008-5.264 3.76-.322.322-2.256 1.718-5.908 4.404-3.76 2.685-6.875 4.726-9.561 6.338-2.685 1.611-5.263 2.9-7.627 3.76-3.115 1.288-4.941 1.181-5.478-.215-.967-2.041.107-5.264 3.222-9.668 2.471-3.223 4.62-5.479 6.231-6.768 5.156-4.62 8.271-5.693 9.238-3.33.322.537-.215 1.719-1.504 3.545-1.396 1.826-3.115 3.33-5.156 4.619.107.108.43.215.752.322.322.108 1.074-.322 2.041-1.181.967-.752 2.041-1.934 3.223-3.33 1.396-1.827 1.933-3.223 1.611-4.405-.322-1.181-1.611-1.718-3.652-1.718-1.934-.108-4.405.751-7.305 2.363-2.9 1.933-5.479 4.511-7.842 7.734-1.611 2.149-2.685 4.19-3.115 6.123-.322 2.256-.215 3.867.215 5.05 1.289 3.007 4.297 3.544 9.023 1.61 3.975-1.61 11.172-6.23 21.592-13.642 5.049-3.438 9.561-6.66 13.643-9.776l-5.694 6.66c-4.619 5.48-8.701 11.065-12.353 16.973-4.727 7.627-7.735 13.858-9.024 18.907a18.025 18.025 0 00-.429 5.263c.537 4.512 2.578 6.445 6.123 5.908zm64.023-87.763l-2.9-.86c.537-.537 1.181-1.289 2.041-2.04.859-.753 1.933-1.612 3.115-2.686a33.166 33.166 0 002.578-2.364l3.33-2.793c2.471-2.04 3.76-2.685 3.76-1.826 0 .752-.859 1.934-2.686 3.76l-4.834 4.834c-2.363 2.363-3.867 3.652-4.404 3.975zm-23.31 18.906l11.494-11.387 4.082-3.76 3.759-3.33 2.901.86-3.115 2.685-7.198 5.908c-5.263 4.19-9.238 7.198-11.923 9.024z" fill="#BF9475"/></svg>