<svg width="540" height="121" fill="none" xmlns="http://www.w3.org/2000/svg"><path d="M106.609 113.188c11.065 1.611 23.311 0 36.846-5.049 13.535-5.049 26.641-11.924 39.209-20.733 18.262-12.138 29.648-25.781 34.16-40.713 3.115-10.42 3.223-18.906.43-25.673-4.404-10.205-13.213-16.436-26.211-18.692A73.892 73.892 0 00175.037.932c-10.205.107-21.807 2.578-35.019 7.304-8.702 3.33-15.684 6.553-21.163 9.453-1.933.967-5.048 1.397-9.453 1.29h-21.27c-24.491-.323-43.613 2.685-57.47 8.808-3.76 1.611-6.982 3.223-9.668 5.049-9.668 6.338-16.006 13.32-19.12 20.732-1.612 3.76-2.042 7.09-1.29 9.883.322 1.182.752 1.611 1.504 1.504.107 0 .107-.107 0-.43-.322-.752-.537-1.396-.645-1.933-.107-.537 0-1.934.323-3.975.322-2.04 1.074-4.404 2.04-7.09 1.397-3.33 4.62-7.197 9.669-11.601 8.916-7.95 21.162-13.643 36.738-16.973 11.924-2.363 26.426-3.33 43.613-2.9 3.223.107 9.346.215 18.262.215l2.148-.215-5.478 3.76c-3.33 2.363-9.131 7.09-17.402 14.072-5.801 5.156-11.71 11.172-17.725 18.047C61.062 71.293 54.94 83.324 55.369 91.81c.322 2.04.752 3.652 1.29 4.619 1.825 3.222 5.585 4.726 11.171 4.404 11.494-.537 22.344-4.727 32.764-12.461 10.42-7.734 20.947-18.37 31.689-32.012 2.363-2.9 4.942-6.445 7.735-10.527 2.793-4.082 5.478-7.842 8.056-11.172 2.578-3.33 5.801-6.767 9.776-10.42 4.726-4.19 10.527-7.627 17.402-10.312 2.041-.86 3.652-1.504 4.619-1.934 2.686-1.396 3.652-2.363 2.793-3.115-.859-.537-3.76.322-8.594 2.685-3.545 1.397-7.304 2.471-11.386 3.008l-7.09 1.074c-16.221 1.827-28.145 3.008-35.987 3.545l8.487-4.404c9.56-4.512 18.476-7.734 26.855-9.668 10.42-2.256 20.088-3.115 28.897-2.578 8.916.967 16.006 3.008 21.484 6.123 5.586 3.33 9.131 8.809 10.635 16.22 1.396 7.52.752 14.073-2.041 19.659-5.479 13.213-15.469 25.352-29.863 36.523-18.047 14.073-34.913 23.311-50.596 27.5-7.412 2.041-14.717 3.116-22.022 3.223-5.478-.215-9.453-1.182-12.138-2.793-3.223-2.041-4.62-4.619-4.19-7.519 0-.323-.107-.538-.215-.645h-.43c-.536.322-.859.537-.859.859-.107.537-.215 1.075-.215 1.827l.645 1.503c.107.752.752 1.827 1.719 3.116 2.04 2.363 5.693 4.082 10.849 5.049zM72.234 99.33c-6.123.752-10.42.108-12.783-1.826-2.578-1.934-3.437-5.049-2.578-9.453.752-4.082 2.041-8.057 3.975-12.032 3.33-6.337 8.808-13.75 16.65-22.45 5.908-6.553 12.676-13.106 20.518-19.659 2.363-2.04 5.693-4.512 9.882-7.627 5.264-3.437 8.487-5.478 9.668-6.015l8.594-.645c5.156-.322 9.024-.537 11.709-.86l26.319-2.578-1.075.43c-6.338 4.62-10.527 8.057-12.568 10.313-1.397 1.396-3.438 3.652-5.908 6.552-2.471 3.008-4.082 4.942-4.834 5.801-7.627 9.56-13.535 16.866-17.617 21.7-5.049 5.908-9.239 10.634-12.676 14.394-3.438 3.76-7.949 7.842-13.428 12.139-5.586 4.297-11.064 7.52-16.543 9.56-1.182.537-3.652 1.29-7.305 2.256zm138.467 3.008c-3.652 1.826-5.478 1.611-5.478-.645-.108-3.33 2.9-8.379 9.238-15.146 1.826-1.934 3.008-3.223 3.437-3.867.323-.645.43-1.504.108-2.471-.537-1.826-.86-3.115-.967-3.975-.107-1.074-.322-1.826-.644-2.255-.323-.43-.752-.538-1.504-.215-.537 0-.752.43-.43 1.289 0 .752-.322 1.504-.967 2.148-.752.645-1.074 1.074-1.074 1.182l.752.644c.107-.107.322-.322.537-.43.215-.107.43-.322.537-.429.322 0 .645.322 1.074 1.074.108.537.215 1.074.215 1.611-.107.43-1.719 2.149-4.619 5.05-6.553 6.874-9.346 12.245-8.164 16.005 1.182 3.545 4.619 3.76 10.205.86 4.619-2.471 11.709-7.735 21.27-16.006.859-.752 1.826-1.504 2.793-2.471a72.637 72.637 0 003.222-3.008c1.182-1.074 2.041-1.933 2.578-2.47.86-.86 1.289-1.397 1.289-1.504 0-.752-.537-.752-1.504 0l-2.9 2.9c-8.271 7.412-14.18 12.46-17.51 15.039-3.437 2.686-7.304 5.049-11.494 7.09zm80.889-25.03c-.86.86-2.041 1.612-3.438 2.364-2.148 1.074-3.867 1.826-5.156 2.256-2.256 1.181-5.156 2.363-8.701 3.545l1.504-7.95.644-1.933c.108-.322.86-1.182 2.149-2.47 6.338-5.264 10.205-9.24 11.494-11.925.537-1.611.322-2.578-.645-3.008-1.074-.43-2.148-.322-3.33.215-3.33 1.72-5.908 3.545-7.734 5.479-1.826 1.933-3.223 4.619-4.404 8.164-.323 1.182-.752 2.148-1.289 3.008-.323.644-.752 1.074-1.504 1.396-5.479 3.76-8.487 5.908-9.024 6.338-.859.537-1.826 1.182-2.793 1.826-1.074.752-2.256 1.504-3.437 2.256-1.289.752-2.256 1.397-3.008 1.826-3.223 1.934-5.908 3.438-8.164 4.62-3.76 1.933-6.66 2.47-8.594 1.61-1.289-.751-1.181-2.47.215-5.263.537-.967 1.719-2.47 3.33-4.404l4.19-1.397c5.048-1.718 8.916-4.082 11.386-6.982.752-.752 1.289-1.504 1.397-2.041.322-.752.322-1.397 0-2.148-.752-.967-2.041-1.397-3.975-1.075-5.693.86-11.064 4.404-16.113 10.528-2.793 3.652-4.082 6.875-3.975 9.668.108 1.503.537 2.685 1.397 3.544 1.181 1.182 2.685 1.612 4.619 1.29 3.115-.43 6.123-1.612 9.023-3.545 4.834-2.686 11.28-6.768 19.336-12.246l5.694-3.76a20.594 20.594 0 01-.645 3.545c-.322 1.289-.537 2.47-.752 3.652-.215 1.182-.43 2.041-.537 2.47-11.064 4.19-18.584 8.057-22.666 11.387-4.404 3.868-6.553 7.735-6.445 11.709.107 1.612.644 3.008 1.611 3.975 1.826 1.289 4.404 1.504 7.734.537s6.231-2.471 8.702-4.512c7.412-5.156 12.031-12.246 13.642-21.162l.43-1.933c11.064-4.62 17.187-7.412 18.476-8.38.645-.322.967-.644.967-1.073-.107-.752-.644-.752-1.611 0zm-13.213-8.378c1.826-3.33 3.867-6.016 6.23-7.95 1.827-1.289 3.008-1.826 3.76-1.503 1.289.537.43 2.363-2.471 5.263l-3.759 3.545-5.264 4.834 1.504-4.19zm-35.986 12.353c2.9-2.9 5.371-5.049 7.412-6.445 2.685-1.397 4.404-2.041 5.263-1.719 1.182.322.967 1.29-.429 2.9-1.289 1.612-3.438 3.116-6.446 4.727-3.007 1.611-5.586 2.578-7.627 2.9l1.827-2.363zm19.98 22.881c-4.082 3.652-6.553 5.801-7.519 6.338-3.331 2.256-6.553 3.223-9.668 3.115-1.397-.107-2.256-1.289-2.579-3.437-.322-2.149 0-3.76.86-4.942 2.471-4.619 7.519-8.808 15.361-12.568.215-.108 4.082-1.719 11.709-4.834-1.504 6.767-4.189 12.246-8.164 16.328zm7.09 3.545c.752.752 2.256.43 4.619-.752 5.264-2.148 9.668-6.123 12.998-12.031l2.686-3.76 14.502-6.553c7.519-3.76 11.601-6.123 12.138-7.304-.107-.86-.644-.967-1.611-.215-1.611 1.289-5.049 3.33-10.313 6.123-5.263 2.9-9.99 5.049-14.072 6.445l4.834-9.453c.43-.645 1.504-1.611 3.115-2.9.323-.108.752-.43 1.397-.967.644-.537 1.396-1.074 2.256-1.826.752-.645 1.611-1.29 2.47-2.041 2.041-1.612 3.116-3.008 3.116-4.19-.323-1.289-1.397-1.719-3.33-1.289-1.827.752-3.116 1.397-3.975 2.148a26.957 26.957 0 00-5.156 5.372 65.987 65.987 0 00-4.619 7.841c-1.719 3.223-2.901 5.371-3.438 6.553-.107.322-.322.645-.43.967-.644.967-1.611 1.826-2.9 2.578-4.941 2.686-8.916 5.479-12.031 8.594-3.115 3.115-3.867 5.371-2.256 6.66zm27.285-30.4l5.801-7.52c.322-.322.537-.537.859-.645 2.041-1.181 3.008-1.288 3.008-.43-.107.323-.859 1.29-2.148 2.686l-2.901 2.364-4.619 3.545zm-25.674 29.648c-1.396.107-1.718-.645-.967-2.363 1.827-3.33 6.875-7.197 15.254-11.71l-2.9 4.405c-2.041 3.223-4.297 5.693-6.982 7.52-.967.859-2.471 1.611-4.405 2.148zm103.985 2.686c6.552-1.934 15.039-6.016 25.459-12.14 10.312-6.122 19.765-12.782 28.466-19.98.538-.43.752-.966.645-1.504 0-.43-.107-.537-.43-.43-.967.538-1.933 1.397-3.115 2.364-11.064 8.701-23.096 16.543-36.094 23.74-6.123 3.545-12.246 5.801-18.154 6.983-6.016 1.181-11.494.429-16.328-2.364-2.471-2.255-3.867-5.585-4.19-10.097-.214-7.197 2.149-14.824 6.983-23.096 9.346-15.254 20.732-28.36 34.16-39.424l1.074-.86c8.701 2.901 15.684 4.835 20.947 5.694 5.909.752 11.709.537 17.403-.644 12.138-2.686 21.699-8.701 28.574-18.047 2.578-3.76 3.115-7.52 1.719-11.172-2.901-6.338-13.428-6.553-31.475-.645-4.834 1.612-10.742 3.975-17.724 7.305-7.09 3.33-12.461 6.23-16.114 8.701-1.504 1.075-2.9 2.041-4.189 3.008-1.289.967-2.149 1.504-2.471 1.826-.43.323-.752.43-.859.43-9.668-4.404-17.08-7.412-22.237-9.023-17.08-5.694-35.127-5.05-54.033 1.826-8.808 3.008-16.543 6.982-23.31 11.816-3.33 2.256-5.801 3.975-7.412 5.264-1.719 1.396-3.545 3.437-5.479 6.338-2.041 2.9-2.9 5.586-2.578 8.271l.215 1.719c.859 2.47 2.148 3.867 3.974 3.975h.43c.322-.323.322-.537 0-.86-.107-.107-.322-.322-.644-.43l-.215-.214c-1.826-1.182-2.578-2.9-2.471-5.05.107-2.04.752-4.081 1.934-6.122 1.181-2.041 2.255-3.545 3.437-4.512 6.553-6.016 14.609-11.28 24.17-15.791a85.846 85.846 0 0111.172-4.19c18.154-6.122 35.771-6.122 52.851.215 4.405 1.504 7.627 2.793 9.668 3.76l6.123 2.578 2.901 1.397c0 .107-.322.537-.86 1.074-.537.537-1.503 1.396-2.9 2.47-1.396 1.182-2.363 2.042-3.115 2.794-9.346 8.916-16.436 17.08-21.485 24.385-4.296 6.445-7.412 12.675-9.453 18.69-2.041 6.016-2.685 11.602-1.933 16.866.752 5.264 3.115 9.131 7.197 11.817 4.834 3.115 11.387 3.544 19.766 1.289zm37.168-72.833c-4.405-.537-9.239-1.933-14.717-3.974l-2.363-.86 2.363-1.933c8.808-7.412 21.162-13.965 37.168-19.658 10.527-3.867 18.262-5.05 23.095-3.653 2.256.86 3.438 2.041 3.76 3.438.537 2.256-.215 5.049-2.148 8.594-3.975 6.338-10.742 11.386-20.303 15.146-8.701 3.76-17.617 4.727-26.855 2.9zm34.052 39.424c-2.47 2.256-4.619 3.438-6.338 3.653-2.363.537-4.726.322-7.089-.645 1.289-3.974 1.181-6.445-.215-7.412-1.182-.752-2.256-.322-3.223 1.074-.644.752-.967 1.719-.967 2.686 0 .752.108 1.181.215 1.504-.322-.752-.752-1.075-1.289-1.075-1.719 0-4.404 2.041-7.949 6.231-3.652 4.19-5.371 7.305-5.049 9.346.43 1.826 1.611 2.578 3.545 2.256 1.182 0 3.223-1.075 6.338-3.116 2.578-2.255 4.512-4.297 5.801-6.123.859-1.181 1.718-2.578 2.578-4.19 3.76 1.397 7.197 1.29 10.42-.536.752-.43 2.041-1.29 3.652-2.578.322-.323.43-.645.43-1.075 0-.43-.323-.43-.86 0zm-14.502 2.579l-.429-.215c-.323-.108-.645-.43-1.075-.86-.537-.752-.751-1.933-.429-3.33.107-.537.429-.967.859-1.289.86-.967 1.397-.967 1.719.215.107.322.215.644.215.967v1.074c0 .43 0 .86-.108 1.182-.107.322-.107.644-.215.859-.107.215-.107.43-.214.752-.108.322-.215.537-.323.644zm-8.808 11.494c-1.826 1.396-3.223 2.255-4.405 2.363-.322 0-.537.107-.644.215-2.256 0-.967-2.9 3.76-8.809a32.263 32.263 0 015.049-4.619l2.148-1.504c.322.537.859.967 1.396 1.29l1.075.644c-2.364 4.404-5.157 7.949-8.379 10.42zm21.377 29.004c1.933 1.826 4.511 1.718 7.842-.215 1.826-.967 3.544-2.149 5.263-3.545 1.612-1.289 3.653-2.901 5.908-4.942 2.256-2.041 3.76-3.33 4.512-3.867 8.379-6.875 14.287-11.924 17.832-15.146l6.553-6.338 7.09-6.445c0-.108.107-.323.322-.43.215-.108.43-.322.537-.537.108-.215.215-.43.215-.537-.107-.86-.645-.752-1.611.214l-8.057 7.52c-5.908 5.586-11.279 10.42-16.113 14.502-4.19 3.76-8.701 7.627-13.428 11.387-2.041 1.933-4.082 3.652-6.338 5.048-2.685 1.827-4.834 2.793-6.23 3.116-1.289.322-2.256-.108-3.008-1.075-1.934-2.47-1.612-7.304 1.074-14.287 1.611-4.082 4.189-8.593 7.52-13.642.322-.43.859-1.397 1.611-2.793.752-1.397 1.396-2.47 1.933-3.223.43-.752 1.075-1.611 1.934-2.685.859-.967 1.719-1.72 2.578-2.149l4.405-2.363c5.478-2.686 13.105-7.305 23.095-14.072 18.477-12.676 33.086-25.352 43.828-38.135 3.545-4.082 5.479-7.412 5.909-9.883.322-1.826-.323-3.223-1.827-4.19-1.504-.859-3.33-.751-5.371.216-4.834 2.363-11.816 6.874-20.947 13.642-6.553 4.834-13.965 11.065-22.021 18.691-4.405 3.975-11.924 11.817-22.452 23.418l-4.834 5.479c0-.645-.107-1.074-.429-1.397-.86-1.181-2.364-1.61-4.405-1.289-3.33.43-6.982 2.471-10.849 6.016-3.975 3.652-6.66 6.982-8.057 10.098-1.504 3.974-1.396 6.445.43 7.412 1.933.967 4.297.43 7.09-1.504.429-.322.966-.752 1.611-1.29.645-.536 1.289-1.073 1.826-1.61.537-.43.86-.752.967-.86l3.008-2.793-3.867 6.123-3.331 5.908c-1.933 4.082-3.222 8.487-3.974 13.213-.537 4.082.215 7.198 2.256 9.239zm17.939-41.573l4.405-5.908c1.826-2.04 4.511-5.156 8.164-9.238 4.082-4.404 7.197-7.627 9.238-9.668 3.115-3.115 7.842-7.52 14.287-13.428 4.619-4.297 11.816-10.205 21.807-17.832.107-.107.966-.86 2.47-2.041 1.397-1.182 2.901-2.256 4.297-3.223 1.397-.966 3.008-1.933 4.834-2.9 1.826-.967 3.223-1.504 4.19-1.504.966 0 1.718.43 2.255 1.29.538 1.825-.644 4.51-3.759 8.163-2.364 3.223-5.264 6.553-8.594 9.883C512.234 45.19 496.658 57.65 479.041 68.5c-3.545 2.148-7.412 4.297-11.602 6.553l-5.156 2.685zm-19.551 14.287c-.859.43-1.503.537-1.826.43-.322-.107-.537-.537-.537-1.074s.108-1.182.215-1.719c.107-.537.322-.967.43-1.396 1.396-2.686 2.578-4.512 3.545-5.694 2.148-2.685 4.189-4.941 6.123-6.553 3.33-3.115 6.015-4.726 7.949-4.834.967-.107 1.611.215 1.933 1.075.108.537 0 1.289-.429 2.148-2.256 3.975-5.049 7.52-8.594 10.635-4.189 3.76-7.197 6.123-8.809 6.982zm58.116 2.471c1.181-.43 3.437-1.719 6.767-3.76 3.33-2.04 5.586-3.652 6.875-4.619 2.364-1.826 4.082-3.115 5.049-3.974l4.19-3.33c.859-.86 1.289-1.397 1.289-1.504 0-.752-.538-.752-1.504 0-2.149 2.255-5.801 5.156-10.957 8.808-8.057 5.694-13.75 8.486-16.973 8.164-1.611-.107-2.256-1.611-1.826-4.404.107-.967.644-2.148 1.611-3.545.86-1.396 1.397-2.041 1.719-2.041 3.974.107 8.057-1.504 12.139-5.049 1.718-1.611 2.793-3.33 3.33-5.264.537-1.933 0-3.222-1.397-3.76-1.933-.429-5.049 1.075-9.238 4.405-1.719 1.29-3.545 3.008-5.479 5.264l-1.718 2.04c-2.256 2.686-3.438 4.942-3.76 6.553-.322 2.041.107 3.653 1.074 4.834 1.504 2.471 4.404 2.793 8.809 1.182zm-3.116-11.064l3.116-3.76c1.181-1.397 2.9-3.008 5.156-4.62 2.256-1.61 3.975-2.47 4.941-2.792.752 0 .967.322.86 1.074-.323 2.793-3.116 5.693-8.272 8.809-1.933.966-3.867 1.396-5.801 1.289z" fill="#BF9475"/></svg>