<svg width="602" height="169" fill="none" xmlns="http://www.w3.org/2000/svg"><path d="M127.641 117.592c11.601-.86 23.525-6.338 35.879-16.328a201.871 201.871 0 0027.929-27.93c11.709-14.61 19.551-27.607 23.526-39.102 1.396-3.867 2.148-7.304 2.255-10.42 0-.322 0-.752.108-1.396.107-.645.107-1.074.107-1.396l2.578-2.041c2.471-2.041 4.19-4.405 4.942-7.305.752-2.9 0-5.371-2.256-7.412-2.793-2.364-7.197-3.116-13.213-2.256-6.016.967-12.139 2.578-18.476 5.049-6.338 2.47-12.139 5.37-17.403 8.593-7.305 4.727-13.428 9.131-18.262 13.213-1.718 1.612-3.759 2.364-6.123 2.256-4.834-.752-10.634-1.933-17.187-3.545-3.33-.86-8.164-2.363-14.395-4.404-6.23-2.041-10.205-3.33-11.816-3.76-10.527-3.115-18.047-5.049-22.666-5.8-4.62-.753-10.635-1.075-18.262-.967-21.162 0-38.779 4.726-52.744 14.072C1.312 34.34-2.018 41 2.064 46.908c.323.43.645.752.967.86.323.107.645.107.752-.215.108-.43.108-.752 0-.86-.86-3.222-1.181-5.37-1.074-6.337.537-1.827 1.504-3.868 2.9-5.909 5.05-5.586 11.71-9.883 19.98-12.998 18.585-6.66 37.706-8.701 57.15-6.015 7.09 1.074 15.898 3.33 26.425 6.875 10.527 3.33 16.865 5.37 18.906 5.908 3.975 1.181 9.668 2.578 16.973 3.974l5.264.645-5.909 5.264c-7.304 6.337-13.857 13.212-19.55 20.517-13.536 16.973-18.584 32.334-15.039 46.192 2.255 9.238 8.164 13.535 17.832 12.783zm30.83-84.97c-.323 0 .644-.968 2.685-2.794s5.264-4.297 9.776-7.52a153.52 153.52 0 0114.179-9.238c4.942-2.9 10.957-5.37 18.047-7.197 6.983-1.826 12.354-2.148 16.006-1.182 2.793.967 4.19 2.793 4.19 5.479 0 2.04-1.075 4.404-3.331 6.875-.537.537-1.503 1.289-2.793 2.148-.537-1.289-1.289-2.793-2.255-4.404-1.182-1.182-1.934-1.396-2.364-.86-.322.538-.215 1.397.215 2.686 0 .752.215 1.182.645 1.29.107.107.322.214.644.214h.645c.322.322.429.645.429 1.074l.215 1.075c-3.759 2.47-6.23 4.082-7.412 4.619-6.23 3.33-12.676 5.908-19.443 7.52-8.487 1.933-18.477 2.04-30.078.214zm-26.211 82.714c-8.487 1.826-14.287.859-17.188-2.793-1.396-2.256-2.256-4.727-2.578-7.52-.967-10.205 1.611-20.087 7.735-29.755 4.619-7.627 12.031-16.866 22.128-27.93 3.008-3.008 7.95-7.305 14.825-12.89l5.263.644c3.33.43 7.842.537 13.535.322 5.694-.107 10.743-.752 15.254-1.934 8.809-1.826 16.328-5.263 22.452-10.097l1.933-1.29-.215 2.794-.215 2.47-1.074 4.405a43.193 43.193 0 01-3.974 9.883l-2.149 3.974c-6.123 11.602-13.75 22.559-22.773 32.871-9.131 10.42-18.799 19.121-29.219 26.32-8.057 5.693-15.898 9.238-23.74 10.527zm77.773-14.502c4.082-1.182 11.387-6.23 22.022-15.361.537-.43 2.363-2.041 5.478-4.834 2.471-2.041 3.545-3.223 3.115-3.545-.322-.108-.752.107-1.503.86-1.182.966-2.364 1.825-3.331 2.685-14.824 12.998-23.955 19.55-27.285 19.55-1.718 0-2.363-.859-1.933-2.685.966-3.33 3.867-7.197 8.593-11.387l4.62-4.619c1.181-1.182 1.503-2.041 1.074-2.47-.967-.753-2.686 0-5.049 2.04-3.545 3.116-6.553 5.264-9.238 6.553-4.727 2.47-7.412 3.223-7.95 2.256-.322-.43.215-1.396 1.504-2.793 1.182-1.397 2.793-3.008 4.834-4.834a174.198 174.198 0 003.76-3.652c1.289-1.612 1.397-2.793.215-3.33-.752-.323-1.934.43-3.76 2.255-4.404 4.405-6.875 7.198-7.412 8.165-1.182 2.255-1.289 3.76-.43 4.619 1.504 1.611 5.801.322 12.998-3.76L208.1 88.91c-3.868 5.156-4.834 8.809-2.901 11.065.967 1.289 2.578 1.611 4.834.859zm26.963 1.504c-3.652 1.826-5.478 1.611-5.478-.645-.108-3.33 2.9-8.379 9.238-15.146 1.826-1.934 3.008-3.223 3.437-3.867.323-.645.43-1.504.108-2.471-.537-1.826-.86-3.115-.967-3.975-.107-1.074-.322-1.826-.645-2.255-.322-.43-.751-.538-1.503-.215-.538 0-.752.43-.43 1.289 0 .752-.322 1.504-.967 2.148-.752.645-1.074 1.074-1.074 1.182l.752.644c.107-.107.322-.322.537-.43.215-.107.43-.322.537-.429.322 0 .645.322 1.074 1.074.108.537.215 1.074.215 1.611-.107.43-1.719 2.149-4.619 5.05-6.553 6.874-9.346 12.245-8.164 16.005 1.182 3.545 4.619 3.76 10.205.86 4.619-2.471 11.709-7.735 21.269-16.006.86-.752 1.827-1.504 2.793-2.471a72.613 72.613 0 003.223-3.008c1.182-1.074 2.041-1.933 2.578-2.47.86-.86 1.289-1.397 1.289-1.504 0-.752-.537-.752-1.504 0l-2.9 2.9c-8.271 7.412-14.18 12.46-17.51 15.039-3.437 2.686-7.304 5.049-11.494 7.09zm217.1 22.021c5.586-.859 19.658-11.816 42.324-32.978 6.445-5.908 11.064-10.205 13.857-12.998.537-.537.752-.967.645-1.29-.108-.536-.43-.644-.86-.214l-6.23 5.693c-7.412 7.197-19.121 17.51-34.912 30.83-6.553 5.479-11.494 8.702-15.039 9.883-.967.322-1.719.215-2.149-.215-1.611-1.611-1.503-4.511.43-8.593l1.934-4.512c.966-2.256 1.718-4.082 2.47-5.371 2.901-5.264 6.768-11.387 11.602-18.262 1.182-1.826 4.727-6.23 10.42-13.213 5.049-6.338 9.56-10.957 13.642-13.857l9.024-6.553c1.182-.967 5.371-4.512 12.676-10.635l4.619-3.974 3.115.43c3.33.322 6.982.214 10.742-.215A50.449 50.449 0 00541 36.38c2.686-.86 5.049-2.363 7.305-4.62.107-.107.215-.322.215-.429-.108-.107-.323-.215-.645-.215-.107 0-.537.322-1.074.86-1.182 1.181-3.438 2.363-6.66 3.545-2.686.966-5.157 1.61-7.52 1.718-5.801.43-10.205.322-13.105-.215l7.412-7.412c1.933-2.04 3.222-3.76 3.974-5.156.86-1.719.43-2.578-1.289-2.578-1.826 0-4.619 1.719-8.379 5.049l-8.808 7.734-2.149-.752c-16.006-4.619-27.607-6.982-34.804-6.982-6.446 0-12.569.752-18.262 2.148-1.934.537-3.652 1.074-5.049 1.611-7.519 2.686-13.213 5.909-16.973 9.668-1.611 1.612-2.793 3.223-3.544 4.835a2.93 2.93 0 00-.43 1.503c0 .323.215.538.644.645.323.107.645.107.967-.215.108-.107.215-.322.215-.645-.107-.966.752-2.47 2.363-4.404 2.793-3.33 7.09-6.23 12.784-8.593 14.716-6.124 28.789-7.413 42.216-3.868l4.405 1.075c6.445 1.826 11.171 3.222 14.287 4.404l2.256.86-4.19 3.33-6.338 5.908c-7.627 7.412-13.32 12.998-16.972 16.757-15.362 9.776-29.219 15.254-41.358 16.436-11.064 1.074-21.162.322-30.4-2.149-5.264-1.503-8.594-2.47-9.883-2.9l7.305-12.354c4.082-7.841 9.023-15.468 14.931-23.095l3.76-4.19 12.676-2.578c12.138-3.652 20.088-6.445 24.062-8.379 5.479-2.685 10.313-5.37 14.502-8.164 3.975-2.9 6.66-6.123 7.949-9.453.86-3.115-1.074-4.512-5.8-4.19-8.164 0-17.188 2.579-27.178 7.842-9.99 5.264-19.336 11.924-28.037 19.873a52.67 52.67 0 01-3.76 3.116l-14.287 1.289c-12.891-.323-24.6-1.719-35.127-4.405-2.363-.537-6.445-1.718-12.139-3.33a324.63 324.63 0 00-12.675-3.33 890.687 890.687 0 01-11.602-2.9c-5.049-1.182-9.346-2.148-12.783-2.686-3.438-.537-7.412-.966-11.817-1.503-4.511-.538-8.808-.752-12.998-.645-4.189.107-8.486.322-12.675.752-15.899 1.826-28.682 5.478-38.35 11.064-15.254 8.916-23.203 19.659-23.955 32.12 0 .537 0 1.289.107 2.148.108.967.215 2.041.323 3.33.107 1.29.537 2.256 1.074 2.793.537.644 1.074.752 1.611.322 0-.322-.107-.86-.43-1.611-.322-.752-.429-1.29-.429-1.719 0-.322 0-.86-.108-1.611-.107-.752-.107-1.182-.107-1.504 0-2.256.215-4.404.644-6.338.86-4.726 2.686-8.808 5.479-12.139 8.379-10.85 19.873-18.047 34.375-21.806 14.502-3.76 29.648-4.834 45.654-3.438 12.461 1.182 24.385 3.33 35.879 6.553 13.535 3.975 24.815 6.875 33.838 8.701 9.023 1.826 18.584 2.793 28.682 2.793 3.759-.107 7.197-.322 10.097-.752-4.189 4.834-9.775 12.783-16.757 23.633-.86 1.289-2.149 3.438-3.868 6.338-1.826 2.9-3.222 5.371-4.404 7.305l-3.76-1.182a569.485 569.485 0 00-7.842-2.256c-4.189-1.182-6.875-1.934-8.164-2.256-1.396-.322-3.974-.967-7.734-1.933-3.867-.967-6.66-1.612-8.379-1.934a566.699 566.699 0 00-7.734-1.29c-3.33-.536-6.123-.966-8.379-1.073-2.256-.108-4.942-.215-7.842-.215-2.9 0-5.801.107-8.594.43-15.146 1.396-27.07 5.37-35.879 12.138-5.693 4.512-9.023 10.528-9.99 17.94-.967 7.52.86 13.965 5.371 19.228 7.305 8.379 17.94 12.676 31.905 12.998 15.683.108 30.937-4.082 45.654-12.568 14.717-8.486 26.748-19.658 35.986-33.623.108-.108.752-.108 1.719.215 4.297 1.181 9.775 2.363 16.328 3.652 19.766 3.867 39.961-.322 60.479-12.676l-9.239 10.528c-4.619 5.478-8.701 11.064-12.353 16.972-4.727 7.627-7.735 13.858-9.024 18.907a18.025 18.025 0 00-.429 5.263c.537 4.512 2.578 6.445 6.123 5.908zm-24.6-92.812l5.479-4.62c9.99-8.486 19.765-14.93 29.111-19.335 3.223-1.504 7.305-2.793 12.353-3.76 4.942-.967 7.95-.967 8.916 0 .538.967-.107 2.47-1.933 4.512-1.934 2.04-4.297 3.974-7.09 5.8-6.123 3.975-11.494 6.768-15.898 8.594-4.405 1.826-10.85 4.082-19.229 6.553-2.041.645-6.016 1.396-11.709 2.256zm88.623 5.049l-2.793-.86a15.837 15.837 0 011.934-2.04c.859-.753 1.933-1.612 3.115-2.686a33.166 33.166 0 002.578-2.364l3.33-2.793c2.471-2.04 3.76-2.685 3.76-1.826 0 .752-.859 1.934-2.686 3.76l-4.834 4.834c-2.363 2.363-3.867 3.652-4.404 3.975zm-23.31 18.906l11.494-11.387 4.189-3.76 3.653-3.33 2.9.86-3.115 2.685-7.198 5.908c-5.263 4.19-9.238 7.198-11.923 9.024zm-162.53 62.949a115.414 115.414 0 01-19.336.967c-6.66-.215-12.89-2.256-18.691-6.016-5.801-3.759-9.453-8.808-10.85-15.254-1.289-5.478-.752-10.742 1.612-15.576 2.256-4.834 5.908-8.808 10.957-11.924 14.072-8.808 31.259-11.923 51.67-9.453 10.634 1.29 23.847 4.405 39.638 9.453l4.619 1.397 2.793.86c-5.478 8.27-10.527 14.823-14.931 19.657-4.512 4.942-9.668 9.239-15.576 12.891-9.668 6.123-20.303 10.527-31.905 12.998zm198.516-42.217c-2.471 2.256-4.619 3.438-6.338 3.653-2.363.537-4.727.322-7.09-.645 1.289-3.974 1.182-6.445-.215-7.412-1.181-.752-2.256-.322-3.222 1.074-.645.752-.967 1.719-.967 2.686 0 .752.107 1.181.215 1.504-.323-.752-.752-1.075-1.289-1.075-1.719 0-4.405 2.041-7.95 6.231-3.652 4.19-5.371 7.305-5.048 9.346.429 1.826 1.611 2.578 3.545 2.256 1.181 0 3.222-1.075 6.337-3.116 2.579-2.255 4.512-4.297 5.801-6.123.86-1.181 1.719-2.578 2.578-4.19 3.76 1.397 7.198 1.29 10.42-.536.752-.43 2.041-1.29 3.653-2.578.322-.323.429-.645.429-1.075 0-.43-.322-.43-.859 0zm-14.502 2.579l-.43-.215c-.322-.108-.644-.43-1.074-.86-.537-.752-.752-1.933-.43-3.33.108-.537.43-.967.86-1.289.859-.967 1.396-.967 1.719.215.107.322.214.644.214.967v1.074c0 .43 0 .86-.107 1.182-.107.322-.107.644-.215.859-.107.215-.107.43-.215.752-.107.322-.215.537-.322.644zm-8.809 11.494c-1.826 1.396-3.222 2.255-4.404 2.363-.322 0-.537.107-.644.215-2.256 0-.967-2.9 3.759-8.809a32.352 32.352 0 015.049-4.619l2.149-1.504c.322.537.859.967 1.396 1.29l1.074.644c-2.363 4.404-5.156 7.949-8.379 10.42zm19.121 12.031c-3.652 1.826-5.478 1.611-5.478-.645-.107-3.33 2.9-8.379 9.238-15.146 1.826-1.934 3.008-3.223 3.438-3.867.322-.645.429-1.504.107-2.471-.537-1.826-.859-3.115-.967-3.975-.107-1.074-.322-1.826-.644-2.255-.322-.43-.752-.538-1.504-.215-.537 0-.752.43-.43 1.289 0 .752-.322 1.504-.967 2.148-.752.645-1.074 1.074-1.074 1.182l.752.644c.108-.107.322-.322.537-.43.215-.107.43-.322.537-.429.323 0 .645.322 1.075 1.074.107.537.214 1.074.214 1.611-.107.43-1.718 2.149-4.619 5.05-6.552 6.874-9.345 12.245-8.164 16.005 1.182 3.545 4.619 3.76 10.205.86 4.619-2.471 11.709-7.735 21.27-16.006.859-.752 1.826-1.504 2.793-2.471a72.084 72.084 0 003.222-3.008 70.62 70.62 0 002.579-2.47c.859-.86 1.289-1.397 1.289-1.504 0-.752-.537-.752-1.504 0l-2.901 2.9c-8.271 7.412-14.179 12.46-17.509 15.039-3.438 2.686-7.305 5.049-11.495 7.09zm74.551-25.46c-.107-.106-.429 0-.859.43-.537.43-1.397 1.29-2.578 2.579-1.182 1.396-2.793 2.9-4.619 4.619-1.934 1.826-4.297 3.867-7.09 6.23-3.545 2.793-11.28 7.52-23.311 14.073l-5.586 2.9c.108-.215.537-.752 1.182-1.719.537-.967 1.396-2.256 2.471-3.974 1.074-1.612 2.47-3.653 4.082-6.016 7.841-11.172 13.857-18.691 18.047-22.451 1.396-1.397 2.041-2.364 1.933-2.9-.43-1.182-2.256-.538-5.478 1.826-2.041 1.718-4.405 3.974-7.198 6.767-3.007 3.008-5.263 4.942-6.66 5.801l-6.123 3.652c-4.297 2.364-6.66 3.008-7.09 2.041-.107-.322-.107-.644 0-1.074.108-1.181 2.901-4.619 8.164-10.205.323-.43.967-1.074 2.041-1.934.967-.859 1.827-1.61 2.471-2.363.645-.644.967-1.181.967-1.611.107-1.182-.86-1.612-2.793-1.29-.752.108-2.471 1.612-5.049 4.513a93.5 93.5 0 00-6.66 8.056c-.537.86-1.074 1.826-1.397 3.008-.322 1.182-.322 2.256.108 3.223.43.966 1.289 1.396 2.578 1.396 1.934.108 6.66-2.256 14.072-6.982-.429.537-2.9 4.404-7.519 11.601-4.619 7.197-7.09 10.957-7.198 11.065l-1.933 2.793c-14.824 8.379-23.418 13.105-25.781 14.287-10.42 5.693-18.477 11.386-24.17 16.972-8.379 8.272-12.676 15.147-12.998 20.733-.323 3.222.859 5.049 3.545 5.478 1.718.323 5.263-.752 10.527-3.115 11.279-5.264 23.525-16.113 36.523-32.549 8.702-10.957 13.75-17.402 15.147-19.336.644-.752 1.289-1.504 2.041-2.47.752-.86 1.181-1.397 1.289-1.504l19.121-10.098c7.412-4.297 13.965-9.346 19.658-15.039l5.264-5.264c.967-.966 1.289-1.718.859-2.148zm-58.76 45.118c-11.171 15.147-20.732 26.211-28.789 33.193-8.378 7.198-15.468 11.172-21.377 11.924-.859.108-1.611 0-2.148-.322-2.686-1.182-2.256-5.049 1.074-11.602.967-2.255 3.223-5.156 6.553-8.808 4.619-4.834 10.42-9.561 17.402-14.287 3.008-2.041 14.395-8.379 34.16-19.121-1.396 2.256-3.652 5.263-6.875 9.023z" fill="#BF9475"/></svg>