<svg width="479" height="117" fill="none" xmlns="http://www.w3.org/2000/svg"><path d="M127.408 116.592c11.602-.86 23.526-6.338 35.879-16.328a201.878 201.878 0 0027.93-27.93c11.709-14.61 19.551-27.607 23.525-39.102 1.397-3.867 2.149-7.304 2.256-10.42 0-.322 0-.752.107-1.396.108-.645.108-1.074.108-1.396l2.578-2.041c2.471-2.041 4.189-4.405 4.941-7.305.752-2.9 0-5.371-2.255-7.412-2.793-2.364-7.198-3.116-13.213-2.256-6.016.967-12.139 2.578-18.477 5.049-6.338 2.47-12.139 5.37-17.402 8.593-7.305 4.727-13.428 9.131-18.262 13.213-1.719 1.612-3.76 2.364-6.123 2.256-4.834-.752-10.635-1.933-17.188-3.545-3.33-.86-8.164-2.363-14.394-4.404s-10.205-3.33-11.816-3.76c-10.528-3.115-18.047-5.049-22.666-5.8-4.62-.753-10.635-1.075-18.262-.967-21.162 0-38.78 4.726-52.744 14.072C1.08 33.34-2.25 40 1.832 45.908c.322.43.645.752.967.86.322.107.644.107.752-.215.107-.43.107-.752 0-.86-.86-3.222-1.182-5.37-1.074-6.337.537-1.827 1.503-3.868 2.9-5.909 5.049-5.586 11.709-9.883 19.98-12.998 18.584-6.66 37.706-8.701 57.149-6.015 7.09 1.074 15.898 3.33 26.426 6.875 10.527 3.33 16.865 5.37 18.906 5.908 3.974 1.181 9.668 2.578 16.973 3.974l5.263.645-5.908 5.264c-7.305 6.337-13.857 13.212-19.551 20.517-13.535 16.973-18.584 32.334-15.039 46.192 2.256 9.238 8.164 13.535 17.832 12.783zm30.83-84.97c-.322 0 .645-.968 2.686-2.794s5.264-4.297 9.775-7.52a153.672 153.672 0 0114.18-9.238c4.941-2.9 10.957-5.37 18.047-7.197 6.982-1.826 12.353-2.148 16.006-1.182 2.793.967 4.189 2.793 4.189 5.479 0 2.04-1.074 4.404-3.33 6.875-.537.537-1.504 1.289-2.793 2.148-.537-1.289-1.289-2.793-2.256-4.404-1.181-1.182-1.933-1.396-2.363-.86-.322.538-.215 1.397.215 2.686 0 .752.215 1.182.644 1.29.108.107.323.214.645.214h.644c.323.322.43.645.43 1.074l.215 1.075c-3.76 2.47-6.231 4.082-7.412 4.619-6.231 3.33-12.676 5.908-19.444 7.52-8.486 1.933-18.476 2.04-30.078.214zm-26.211 82.714c-8.486 1.826-14.287.859-17.187-2.793-1.397-2.256-2.256-4.727-2.578-7.52-.967-10.205 1.611-20.087 7.734-29.755 4.619-7.627 12.031-16.866 22.129-27.93 3.008-3.008 7.949-7.305 14.824-12.89l5.264.644c3.33.43 7.842.537 13.535.322 5.693-.107 10.742-.752 15.254-1.934 8.809-1.826 16.328-5.263 22.451-10.097l1.934-1.29-.215 2.794-.215 2.47-1.074 4.405a43.15 43.15 0 01-3.975 9.883l-2.148 3.974c-6.123 11.602-13.75 22.559-22.774 32.871-9.131 10.42-18.798 19.121-29.218 26.319-8.057 5.693-15.899 9.238-23.741 10.527zm77.774-14.502c4.082-1.182 11.387-6.23 22.021-15.361.537-.43 2.364-2.041 5.479-4.834 2.47-2.041 3.545-3.223 3.115-3.545-.322-.108-.752.107-1.504.86-1.182.966-2.363 1.825-3.33 2.685-14.824 12.998-23.955 19.55-27.285 19.55-1.719 0-2.363-.859-1.934-2.685.967-3.33 3.867-7.197 8.594-11.387l4.619-4.619c1.182-1.182 1.504-2.041 1.074-2.47-.966-.753-2.685 0-5.048 2.04-3.545 3.116-6.553 5.264-9.239 6.553-4.726 2.47-7.412 3.223-7.949 2.256-.322-.43.215-1.396 1.504-2.793 1.182-1.397 2.793-3.008 4.834-4.834a174.198 174.198 0 003.76-3.652c1.289-1.612 1.396-2.793.215-3.33-.752-.323-1.934.43-3.76 2.255-4.405 4.405-6.875 7.198-7.412 8.165-1.182 2.255-1.289 3.76-.43 4.619 1.504 1.611 5.801.322 12.998-3.76l-2.256 2.363c-3.867 5.156-4.834 8.809-2.9 11.065.967 1.289 2.578 1.611 4.834.859zm26.963 1.504c-3.653 1.826-5.479 1.611-5.479-.645-.107-3.33 2.901-8.379 9.238-15.146 1.827-1.934 3.008-3.223 3.438-3.867.322-.645.43-1.504.107-2.471-.537-1.826-.859-3.115-.966-3.975-.108-1.074-.323-1.826-.645-2.255-.322-.43-.752-.538-1.504-.215-.537 0-.752.43-.43 1.289 0 .752-.322 1.504-.966 2.148-.752.645-1.075 1.074-1.075 1.182l.752.644c.108-.107.323-.322.537-.43.215-.107.43-.322.538-.429.322 0 .644.322 1.074 1.074.107.537.215 1.074.215 1.611-.108.43-1.719 2.149-4.619 5.05-6.553 6.874-9.346 12.245-8.165 16.005 1.182 3.545 4.62 3.76 10.206.86 4.619-2.471 11.709-7.735 21.269-16.006.859-.752 1.826-1.504 2.793-2.471a72.613 72.613 0 003.223-3.008 71.24 71.24 0 002.578-2.47c.859-.86 1.289-1.397 1.289-1.504 0-.752-.537-.752-1.504 0l-2.9 2.9c-8.272 7.412-14.18 12.46-17.51 15.039-3.438 2.686-7.305 5.049-11.494 7.09zm195.4-94.746c-.537-1.29-2.471-1.934-5.801-2.041-2.47 0-4.834.215-7.304.537-2.471.43-4.405.86-5.909 1.182-1.611.322-3.545.966-6.015 1.933-2.471.967-4.082 1.611-5.049 2.041-.967.537-2.793 1.397-5.479 2.686-2.685 1.396-4.511 2.255-5.371 2.685-3.222 1.397-7.304 3.867-12.138 7.412-2.901 2.041-6.875 3.223-11.709 3.545-6.768.645-17.94 0-33.623-1.933-3.545-.537-8.916-1.29-16.221-2.256-7.412-.967-12.891-1.719-16.543-2.149-15.576-1.718-27.178-1.933-34.59-.644-19.443 3.33-33.301 11.064-41.357 23.095-3.76 5.909-4.619 11.387-2.364 16.436.108.107.323.107.538-.215.214-.322.322-.537.322-.86 0-.321-.108-.751-.322-1.288-.215-.537-.323-.86-.323-.967-.859-2.578 0-6.23 2.686-10.957 1.289-2.47 4.082-5.693 8.271-9.668 8.379-7.305 18.907-12.139 31.69-14.502 8.486-1.611 21.269-1.289 38.135 1.074 27.285 3.653 44.042 5.586 50.166 5.694 5.048.322 9.667.43 13.857.43l5.908-.645-.43.43c-.322.322-.751.644-1.289 1.181-.644.537-1.074.967-1.396 1.29-.322.429-.967 1.18-2.041 2.255-1.182 1.182-1.826 1.934-2.149 2.363l-20.625 24.385-2.685-.43c-2.041-.322-6.338.108-12.783 1.075-3.33.966-5.694 2.04-6.983 3.33-.107.107-.215.43-.215.86 0 .536.215.858.645.858.322 0 .537-.214.644-.644.108-.43.538-.86 1.075-1.29.644-.321 1.396-.536 2.256-.858 3.545-1.182 5.693-1.827 6.552-1.827l5.049-.215a48.408 48.408 0 015.586 0c-.322.108-1.074.645-2.256 1.827-.537.537-3.76 4.404-9.453 11.494-5.693 7.197-11.172 13.105-16.221 17.724-5.156 4.727-11.601 8.594-19.228 11.602-7.734 3.115-14.287 3.975-19.766 2.685-.537-.107-1.181-.322-1.718-.537-.645-.214-1.182-.429-1.504-.537a4.996 4.996 0 01-1.075-.537c-.322-.215-.644-.43-.859-.537-.215-.107-.43-.322-.537-.43-.537-.322-.859-.322-.859 0-.215.323 0 .645.751 1.075.645.429 1.182.752 1.612.859 7.627 1.719 13.213 2.256 16.543 1.719 18.584-4.082 37.92-18.477 58.222-43.077l2.686-3.115 9.238-.86c-1.933 2.042-3.222 4.405-3.974 7.09-.967 3.975-.323 5.909 2.041 5.909.322 0 .322-.107 0-.43-1.182-1.181-.967-3.115.644-5.908 1.612-2.793 3.545-5.156 5.908-7.09 1.289-.966 2.579-1.933 3.975-2.685 1.289-.752 2.148-1.182 2.471-1.397.322-.215.429-.43.322-.752-.859-.86-2.256-.86-4.297 0s-4.082 2.149-6.016 3.76c-.751.537-3.974 1.074-9.882 1.504 2.793-3.223 5.586-6.66 8.486-10.205 2.9-3.545 5.371-6.66 7.627-9.346 2.148-2.685 4.834-5.693 8.057-9.023 2.255-2.471 5.156-3.975 8.808-4.405 15.362-2.363 29.434-7.304 42.002-14.716.108-.108.537-.323 1.289-.645a10.614 10.614 0 001.612-.967c.429-.322.966-.644 1.503-.966a2.78 2.78 0 001.075-1.182c.214-.43.214-.86.107-1.29zm-1.396 1.289c0 .752-.43 1.396-1.289 2.04-.86.753-2.256 1.397-4.19 2.042-1.934.644-3.008 1.074-3.33 1.182-15.361 6.015-25.459 9.345-30.293 10.097-1.074.108-2.363.43-3.975.752-1.611.43-3.007.752-4.189 1.074l-1.719.215 5.049-3.76c3.76-2.9 7.197-5.156 10.313-6.552 13.535-6.338 23.525-9.668 29.97-9.776 2.256.108 3.545.645 3.867 1.612l-.214 1.074zm-50.811 58.975c.967-.43 1.182-1.29.645-2.471-.323-.752-.752-.86-1.504-.537-.752.43-1.289 1.181-1.719 2.148-.108.43-.215.752-.215 1.074-.107.86.859.752 2.793-.214zm-20.84 30.83c3.223.859 10.742-2.579 22.451-10.42 3.545-2.471 7.842-5.801 12.891-9.883.645-.43.967-.86.967-1.29-.108-.859-.645-.751-1.612.216-5.156 4.619-12.675 9.882-22.451 15.79-5.263 3.223-9.238 4.727-12.031 4.405-2.9-.43-1.826-3.76 3.33-9.883.537-.752 1.611-1.933 3.223-3.545 3.76-3.545 6.338-6.338 7.734-8.271.322-.323.43-.645.43-.752 0-.537-.322-.86-.86-.86-.966-.107-1.933 0-2.9.43-1.182.967-1.934 1.611-2.363 2.041l-4.405 4.404c-.751.752-2.148 2.364-4.189 5.05-2.041 2.792-3.223 5.37-3.33 7.841-.107 2.47.859 3.975 3.115 4.727zm25.137 11.816c.752.107 1.826.107 3.223-.215 1.396-.43 2.685-1.074 3.867-1.826a65.23 65.23 0 004.619-3.223c1.826-1.396 3.008-2.148 3.437-2.47 5.264-4.082 9.131-7.198 11.602-9.454l4.834-4.082c1.182-1.181 3.115-3.007 5.586-5.37 2.471-2.364 4.404-4.083 5.693-5.05.86-.859 1.289-1.396 1.289-1.503-.107-.537-.644-.537-1.504 0l-2.9 2.9c-5.801 5.586-11.172 10.313-16.006 14.287-4.404 3.76-7.842 6.445-10.205 8.057-5.049 3.867-8.701 6.123-10.957 6.66-2.471.752-3.975-.215-4.404-2.686-.537-3.759 1.074-8.916 4.834-15.361 2.685-4.404 5.156-7.95 7.519-10.742 3.975-5.049 6.66-8.057 7.949-9.239 2.149-2.255 5.586-4.94 10.313-8.163 8.486-5.587 15.898-11.172 22.021-16.758 5.586-4.727 11.924-10.85 19.122-18.262 2.363-2.256 3.974-4.297 4.834-5.908.322-.43.537-.967.751-1.719.215-.645.43-1.29.538-2.041.107-.752.107-1.29-.215-1.719-.323-.43-.86-.537-1.719-.43-.645 0-1.504.323-2.686.86-1.181.537-2.041 1.074-2.578 1.504-13.105 9.13-27.607 22.129-43.398 38.994-3.545 3.76-8.594 9.56-15.361 17.51a253.562 253.562 0 00-6.875 8.916c-1.612 2.148-3.223 5.156-4.942 9.13-1.826 3.975-2.578 7.735-2.471 11.065 0 3.76 1.397 5.908 4.19 6.338zm25.674-47.266l2.256-2.685 8.056-8.594c4.297-4.834 9.239-9.775 14.824-14.932.86-.859 2.579-2.47 5.049-4.834 2.471-2.363 4.405-4.189 5.694-5.478 1.289-1.182 3.007-2.686 5.156-4.512 2.041-1.719 4.082-3.115 6.016-4.297 1.181-.752 1.826-.644 1.826.215.537 1.934-1.182 4.727-5.264 8.379-6.553 6.768-12.461 12.461-17.617 17.187-.752.538-4.942 3.975-12.354 10.098-1.933 1.611-4.834 3.652-8.593 6.123l-5.049 3.33zm29.541 41.358c1.396 2.47 6.015.967 13.642-4.62 3.76-2.9 8.164-6.767 13.213-11.493 1.504-1.29 3.653-3.223 6.338-5.694a293.56 293.56 0 015.371-4.834c.322-.322.322-.537.215-.644 0-.323-.215-.43-.644-.43-.108 0-.323.107-.645.43l-5.586 5.048c-5.264 5.157-9.346 9.024-12.461 11.495-9.99 8.164-15.791 11.709-17.617 10.742-.322-.752-.322-1.504-.215-2.256.108-.752.859-1.934 2.041-3.545s2.149-2.9 3.008-3.975a72.05 72.05 0 013.008-3.222l1.611-1.934 5.908-6.445c2.901-2.9 4.19-5.049 3.76-6.338a.967.967 0 00-.645-.645c-1.289-1.074-6.123.967-14.501 6.123l3.007-3.76c3.438-4.081 5.371-6.66 5.801-7.626.322-.537.43-1.075.537-1.719.108-.645 0-1.182-.215-1.719-.322-.537-.752-.644-1.504-.537-2.792.322-5.908 1.719-9.453 4.19-5.048 3.33-10.742 8.056-16.865 14.072-1.396 1.289-2.471 2.47-3.33 3.437l2.578-5.263c1.504-2.256 4.404-5.479 8.809-9.883 3.008-2.9 5.049-4.62 6.015-5.049.752-.322 1.075-.752 1.182-1.504.107-.644-.215-1.074-.967-1.181-.644.107-1.396.214-2.256.537-1.611.751-4.189 2.792-7.734 6.337-7.197 7.198-10.527 12.784-10.098 16.758.108 1.182.43 1.934.86 2.256.322.322.859.322 1.396-.107.537-.323.86-.537.86-.86-.108-.322.107-.752.859-1.504 2.471-3.544 6.875-7.841 13.213-12.89 6.338-4.942 10.957-7.735 13.857-8.272.537-.107.86 0 .86.323 0 .322-.108.859-.43 1.396-.107.322-1.074 1.29-2.686 3.115a1647.88 1647.88 0 01-5.586 5.909c-2.041 2.255-3.33 3.652-3.759 4.189-2.041 2.041-3.223 4.19-3.33 6.23-.108 1.29.429 1.29 1.718 0a36.199 36.199 0 018.164-6.66c2.364-1.611 4.942-3.115 7.627-4.511 2.686-1.397 4.19-1.72 4.512-1.182.108.43-1.074 1.933-3.545 4.404-7.627 7.627-12.568 13.643-14.931 18.047-1.182 2.363-1.504 4.082-.967 5.264z" fill="#BF9475"/></svg>