<svg width="426" height="130" fill="none" xmlns="http://www.w3.org/2000/svg"><path d="M39.174 128.219c-6.123-.967-11.065-3.223-14.717-6.768-1.182-1.181-1.934-1.396-2.041-.859-.107.107.215.537.967 1.289 6.875 7.734 18.476 9.453 34.697 5.049 12.783-3.33 24.063-9.561 33.838-18.477 7.95-6.982 16.328-17.51 25.137-31.475 1.826-2.792 4.404-7.09 7.949-12.89 3.545-5.8 6.338-10.42 8.594-13.965 2.148-3.545 5.156-7.52 8.916-11.924 3.759-4.404 7.519-8.056 11.494-10.957 6.445-4.619 13.535-7.09 21.377-7.197h3.545c1.826 0 3.222-.108 4.082-.215.752-.107 1.933-.322 3.33-.537 1.396-.215 2.578-.645 3.545-1.182.967-.537 1.933-1.074 2.793-1.826-12.461 3.223-27.071 2.9-43.721-.86-4.834-1.073-12.031-2.9-21.484-5.585-9.561-2.686-16.758-4.512-21.592-5.479C88.051.387 69.574-.58 50.346 1.354l-5.05.644C32.3 3.609 22.202 6.832 15.005 11.666c-4.727 3.115-8.486 6.982-11.28 11.816C.933 28.316-.25 33.365.18 38.522c0 2.47.86 4.189 2.47 5.048-1.289-4.19-1.396-8.486-.214-12.89 1.181-4.297 3.222-8.164 6.337-11.494C15.111 12.74 22.31 8.336 30.365 5.973 51.527.172 74.408-.365 99.223 4.36c5.156 1.075 15.361 3.653 30.615 7.735 15.146 4.19 26.855 6.66 35.127 7.52a57.372 57.372 0 00-14.18 6.767c-4.404 2.9-8.594 6.66-12.568 11.28-3.975 4.618-7.305 8.7-9.776 12.138-2.578 3.437-5.908 8.164-9.882 14.287-4.082 6.123-6.983 10.42-8.809 12.89-6.768 9.346-12.246 16.65-16.436 21.807-8.486 11.172-17.08 18.799-25.78 22.881-11.28 5.371-20.733 7.52-28.36 6.553zm109.355-57.363c.967-.43 1.182-1.29.645-2.471-.322-.752-.752-.86-1.504-.537-.752.43-1.289 1.181-1.719 2.148-.107.43-.215.752-.215 1.074-.107.86.86.752 2.793-.214zm-20.84 30.83c3.223.859 10.743-2.579 22.452-10.42 3.545-2.471 7.841-5.801 12.89-9.883.645-.43.967-.86.967-1.29-.107-.859-.644-.751-1.611.216-5.157 4.619-12.676 9.882-22.451 15.79-5.264 3.223-9.239 4.727-12.032 4.405-2.9-.43-1.826-3.76 3.33-9.883.537-.752 1.612-1.933 3.223-3.545 3.76-3.545 6.338-6.338 7.734-8.271.323-.323.43-.645.43-.752 0-.537-.322-.86-.859-.86-.967-.107-1.934 0-2.901.43-1.181.967-1.933 1.611-2.363 2.041l-4.404 4.404c-.752.752-2.149 2.364-4.19 5.05-2.041 2.792-3.222 5.37-3.33 7.841-.107 2.47.86 3.975 3.115 4.727zm47.266 5.908c1.397 2.47 6.016.967 13.643-4.619 3.759-2.901 8.164-6.768 13.213-11.494 1.503-1.29 3.652-3.223 6.337-5.694a288.927 288.927 0 015.372-4.834c.322-.322.322-.537.214-.644 0-.323-.214-.43-.644-.43-.108 0-.322.107-.645.43l-5.586 5.048c-5.263 5.157-9.345 9.024-12.461 11.495-9.99 8.164-15.791 11.709-17.617 10.742-.322-.752-.322-1.504-.215-2.256.108-.752.86-1.934 2.041-3.545 1.182-1.611 2.149-2.9 3.008-3.975a72.644 72.644 0 013.008-3.222l1.611-1.934 5.909-6.445c2.9-2.9 4.189-5.049 3.759-6.338a.967.967 0 00-.644-.645c-1.289-1.074-6.123.967-14.502 6.123l3.008-3.76c3.437-4.081 5.371-6.66 5.8-7.626.323-.537.43-1.075.538-1.719.107-.645 0-1.182-.215-1.719-.323-.537-.752-.644-1.504-.537-2.793.322-5.908 1.719-9.453 4.19-5.049 3.33-10.742 8.056-16.866 14.072-1.396 1.289-2.47 2.47-3.33 3.437l2.578-5.263c1.504-2.256 4.405-5.479 8.809-9.883 3.008-2.9 5.049-4.62 6.016-5.049.752-.322 1.074-.752 1.181-1.504.108-.644-.214-1.074-.966-1.181-.645.107-1.397.214-2.256.537-1.612.751-4.19 2.792-7.735 6.337-7.197 7.198-10.527 12.784-10.097 16.758.107 1.182.429 1.934.859 2.256.322.322.859.322 1.397-.107.537-.323.859-.537.859-.86-.108-.322.107-.752.859-1.504 2.471-3.544 6.875-7.841 13.213-12.89 6.338-4.942 10.957-7.735 13.858-8.272.537-.107.859 0 .859.323 0 .322-.107.859-.43 1.396-.107.322-1.074 1.29-2.685 3.115-1.719 1.827-3.545 3.76-5.586 5.909-2.041 2.255-3.33 3.652-3.76 4.189-2.041 2.041-3.223 4.19-3.33 6.23-.107 1.29.43 1.29 1.719 0a36.176 36.176 0 018.164-6.66c2.363-1.611 4.941-3.115 7.627-4.511 2.685-1.397 4.189-1.72 4.511-1.182.108.43-1.074 1.933-3.544 4.404-7.627 7.627-12.569 13.643-14.932 18.047-1.182 2.363-1.504 4.082-.967 5.264zm149.102-73.477c-.108 0-.537.323-1.075.86-1.181 1.181-3.437 2.363-6.66 3.545-2.578.966-5.049 1.61-7.412 1.718-5.908.43-10.312.322-13.213-.215l7.412-7.412c1.934-2.04 3.223-3.76 3.975-5.156.967-1.719.537-2.578-1.289-2.578s-4.619 1.719-8.379 5.049l-8.809 7.734-2.148-.752c-16.006-4.619-27.607-6.982-34.805-6.982-6.445 0-12.568.752-18.261 2.148-1.934.537-3.653 1.074-5.049 1.611-7.52 2.686-13.213 5.909-16.973 9.669-1.611 1.61-2.685 3.222-3.437 4.834a2.93 2.93 0 00-.43 1.503c0 .323.215.538.644.645.43.107.752.107.86-.215.107-.107.215-.322.215-.645 0-.966.859-2.47 2.47-4.404 2.686-3.33 6.983-6.23 12.676-8.593 14.717-6.124 28.897-7.413 42.324-3.868l4.297 1.075c6.553 1.826 11.28 3.222 14.395 4.404l2.148.86-4.189 3.33-6.338 5.908c-6.231 5.693-12.998 12.353-20.303 19.98-1.289 1.074-3.115 2.47-5.586 4.19-2.471 1.826-3.76 2.792-3.867 2.9-6.338 4.619-13.643 9.453-22.021 14.394-8.487 4.942-13.965 7.412-16.651 7.412-1.611 0-2.256-1.396-1.826-4.189.215-.967.752-2.148 1.611-3.545.86-1.396 1.397-2.041 1.719-2.041 3.975.107 8.057-1.504 12.139-5.049 1.718-1.611 2.793-3.33 3.33-5.264.537-1.933 0-3.222-1.397-3.76-1.933-.429-5.049 1.075-9.238 4.405-2.041 1.611-4.297 3.975-6.875 7.09-2.578 3.115-3.975 5.371-4.082 6.768-.43 3.115.107 5.156 1.504 6.123 1.396 1.074 3.867 1.074 7.519-.108 5.049-2.04 12.998-6.553 23.741-13.428 6.015-3.76 10.849-6.982 14.502-9.668l-5.264 5.909c-4.619 5.478-8.701 11.064-12.354 16.972-4.726 7.627-7.734 13.858-9.023 18.907a18.027 18.027 0 00-.43 5.263c.645 4.512 2.686 6.445 6.231 5.908 1.611-.322 3.974-1.504 7.197-3.759 3.76-2.579 7.627-5.479 11.494-8.809 3.76-3.223 8.057-6.982 12.783-11.172 4.62-4.19 8.272-7.412 10.743-9.453 5.478-4.727 10.097-9.023 13.857-12.783.537-.537.752-.967.645-1.29-.108-.536-.43-.644-.86-.214l-6.23 5.693c-4.082 3.975-15.684 14.287-34.912 30.83-5.694 5.157-10.743 8.487-14.932 9.883-1.074.322-1.826.215-2.256-.215-1.611-1.611-1.504-4.511.43-8.593l1.933-4.512c.967-2.256 1.719-4.082 2.471-5.371 2.9-5.264 6.875-11.387 11.709-18.262 1.182-1.826 4.619-6.23 10.313-13.213 5.048-6.338 9.56-10.957 13.642-13.857l9.024-6.553c1.181-.967 5.478-4.512 12.783-10.635l4.619-3.974 3.008.43c3.437.322 7.09.214 10.849-.215a50.406 50.406 0 008.594-1.934c2.578-.86 4.941-2.363 7.197-4.62.108-.107.215-.322.215-.429-.107-.107-.322-.215-.644-.215zm-29.649 5.479l-2.9-.86a12.005 12.005 0 012.041-2.04c.859-.753 1.933-1.612 3.115-2.686 1.182-.967 2.041-1.826 2.578-2.363l3.223-2.793c2.471-2.041 3.76-2.686 3.76-1.827.107.752-.752 1.934-2.579 3.76l-4.834 4.834c-2.363 2.363-3.867 3.652-4.404 3.975zm-4.189 3.974l-7.305 5.908c-5.264 4.19-9.238 7.198-11.924 9.024l11.494-11.387 4.19-3.76 3.76-3.33 2.793.86-3.008 2.685zm-76.377 39.102c1.181-1.397 2.9-3.008 5.156-4.62 2.256-1.61 3.975-2.47 4.941-2.792.752 0 .967.322.86 1.074-.322 2.793-3.115 5.693-8.272 8.809-1.933.966-3.867 1.396-5.8 1.289l3.115-3.76zm80.459 20.517c2.363-.751 5.586-2.793 9.775-6.123 2.686-2.04 5.586-4.511 8.486-7.304l8.379-7.95c.967-.859 1.397-1.396 1.397-1.503-.108-.752-.645-.752-1.611 0l-2.793 2.9c-5.479 5.371-10.205 9.56-14.288 12.676-6.337 4.726-10.419 6.982-12.353 6.66-2.363-.107-2.148-3.115.645-8.809.429-.752.966-1.504 1.503-2.255.538-.752 1.289-1.504 2.041-2.471.752-.86 1.289-1.504 1.719-1.934 1.182-1.396 1.611-2.47 1.504-3.008-.107-.537.107-1.181.537-2.04 1.289-1.612 1.612-3.223 1.074-4.835-.752-2.47-3.437-2.685-8.164-.644-5.263 2.256-9.238 5.37-11.923 9.453-.967 1.826-1.504 3.438-1.612 5.049-.107 1.611.43 2.685 1.612 3.115 1.181.43 2.792.215 4.833-.644.967-.323 2.686-1.29 5.157-3.116-.967 1.182-1.612 2.9-2.149 4.942-.537 2.148-.429 4.296.108 6.338.859 2.041 2.9 2.47 6.123 1.503zm-13.106-10.312c-.537-1.29.645-3.652 3.653-7.09 2.9-3.33 5.908-5.908 8.808-7.52 2.686-1.61 4.297-2.04 4.834-1.503 1.504.859 1.289 2.578-.644 5.049-.43.751-1.289 1.503-2.471 2.47-1.289.967-2.041 1.611-2.363 1.934-2.793 2.363-4.297 3.652-4.405 3.76-2.255 1.504-3.437 2.363-3.759 2.47-2.256.752-3.545.86-3.653.43zm18.262 19.336c2.686 2.9 8.164 2.363 16.436-1.826 8.271-4.082 15.468-10.205 21.591-18.477 5.264-1.289 9.454-2.578 12.569-3.974 3.115-1.29 6.338-3.438 9.883-6.338.859-.86 1.181-1.397 1.074-1.504 0-.86-.43-.86-1.289 0-2.041 1.719-3.223 2.685-3.545 2.793-4.727 3.222-10.742 5.8-18.047 7.734l1.182-2.148 1.074-2.471c1.826-3.652 2.685-6.553 2.363-8.809 0-.966-.322-1.826-1.074-2.578-1.289-.967-3.76-.322-7.412 1.826-3.76 2.256-7.735 5.694-12.139 10.42-.537.752-1.289 1.72-2.148 2.793-.967 1.182-1.612 2.041-2.041 2.793l-.86.86c2.041-5.157 6.66-11.817 13.858-20.088 12.031-13.213 19.336-20.303 21.806-21.27 11.494-4.619 22.989-11.172 34.268-19.873 12.568-10.205 19.336-17.51 20.517-21.699.86-3.76.215-5.586-1.826-5.586-1.289.107-3.115.86-5.478 2.256l-3.115 2.148c-16.651 12.784-31.153 24.6-43.506 35.664-13.106 12.032-25.782 25.782-38.135 41.358-1.826 2.685-3.33 5.478-4.297 8.594a30.91 30.91 0 00-8.057 4.833c-2.47 2.149-3.974 4.083-4.511 5.909-1.075 2.256-.752 4.404.859 6.66zm53.496-61.875c19.014-17.51 32.549-29.326 40.391-35.557 5.263-4.19 8.486-6.552 9.775-7.304 2.471-1.504 3.545-1.182 3.223 1.074-.215 4.297-5.801 10.957-16.865 19.873-9.131 7.842-21.27 15.146-36.524 21.914zm-34.375 43.184c2.363-3.653 5.371-7.198 9.024-10.743 3.652-3.437 7.089-5.693 10.312-6.875 1.074-.322 1.719-.322 2.041-.107.322.215.322.644.215 1.396 0 .752-1.182 3.33-3.545 7.735-1.611 2.685-3.115 4.941-4.404 6.553l-7.198 1.181-6.445.86zm-15.576 19.121c-3.115-.323-4.297-1.934-3.76-5.049.108-4.19 4.082-8.057 11.924-11.71v5.05c.322 1.181.645 2.041.967 2.578.322.537.752.644 1.074.429.322-.214.645-.859.967-1.826 1.396-3.867 2.578-6.338 3.545-7.304l1.933-.43c1.397-.322 5.371-.86 11.924-1.719l-.644 1.074c-.43.752-1.397 1.826-2.901 3.438a135.993 135.993 0 01-5.478 5.156c-8.487 7.197-15.039 10.635-19.551 10.313zm46.836.859c.752.107 1.826.107 3.223-.215 1.396-.43 2.685-1.074 3.867-1.826a65.23 65.23 0 004.619-3.223c1.826-1.396 3.008-2.148 3.437-2.47 5.264-4.082 9.131-7.198 11.602-9.454l4.834-4.082c1.182-1.181 3.115-3.007 5.586-5.37 2.471-2.364 4.404-4.083 5.693-5.05.86-.859 1.289-1.396 1.289-1.503-.107-.537-.644-.537-1.504 0l-2.9 2.9c-5.801 5.586-11.172 10.313-16.006 14.287-4.404 3.76-7.842 6.445-10.205 8.057-5.049 3.867-8.701 6.123-10.957 6.66-2.471.752-3.975-.215-4.404-2.686-.537-3.759 1.074-8.916 4.834-15.361 2.685-4.404 5.156-7.95 7.519-10.742 3.975-5.049 6.66-8.057 7.949-9.239 2.149-2.255 5.586-4.94 10.313-8.163 8.486-5.587 15.898-11.172 22.021-16.758 5.586-4.727 11.924-10.85 19.122-18.262 2.363-2.256 3.974-4.297 4.834-5.908.322-.43.537-.967.751-1.719.215-.645.43-1.29.538-2.041.107-.752.107-1.29-.215-1.719-.323-.43-.86-.537-1.719-.43-.645 0-1.504.323-2.686.86-1.181.537-2.041 1.074-2.578 1.504-13.105 9.13-27.607 22.129-43.398 38.994-3.545 3.76-8.594 9.56-15.361 17.51a253.562 253.562 0 00-6.875 8.916c-1.612 2.148-3.223 5.156-4.942 9.13-1.826 3.975-2.578 7.735-2.471 11.065 0 3.76 1.397 5.908 4.19 6.338zm25.674-47.266l2.256-2.685 8.056-8.594c4.297-4.834 9.238-9.775 14.824-14.932.86-.859 2.579-2.47 5.049-4.834 2.471-2.363 4.405-4.189 5.694-5.478 1.289-1.182 3.007-2.686 5.156-4.512 2.041-1.719 4.082-3.115 6.015-4.297 1.182-.752 1.827-.644 1.827.215.537 1.934-1.182 4.727-5.264 8.379-6.553 6.768-12.461 12.461-17.617 17.187-.752.538-4.942 3.975-12.354 10.098-1.933 1.611-4.834 3.652-8.593 6.123l-5.049 3.33zm18.584 31.26c1.181-.43 3.437-1.719 6.767-3.76 3.33-2.04 5.586-3.652 6.875-4.619 2.364-1.826 4.082-3.115 5.049-3.974l4.19-3.33c.859-.86 1.289-1.397 1.289-1.504 0-.752-.537-.752-1.504 0-2.149 2.255-5.801 5.156-10.957 8.808-8.057 5.694-13.75 8.486-16.973 8.164-1.611-.107-2.256-1.611-1.826-4.404.107-.967.644-2.148 1.611-3.545.86-1.396 1.397-2.041 1.719-2.041 3.975.107 8.057-1.504 12.139-5.049 1.718-1.611 2.793-3.33 3.33-5.264.537-1.933 0-3.222-1.397-3.76-1.933-.429-5.049 1.075-9.238 4.405-1.719 1.29-3.545 3.008-5.479 5.264l-1.718 2.04c-2.256 2.686-3.438 4.942-3.76 6.553-.322 2.041.107 3.653 1.074 4.834 1.504 2.471 4.404 2.793 8.809 1.182zm-3.116-11.064l3.116-3.76c1.181-1.397 2.9-3.008 5.156-4.62 2.256-1.61 3.975-2.47 4.941-2.792.752 0 .967.322.86 1.074-.323 2.793-3.115 5.693-8.272 8.809-1.933.966-3.867 1.396-5.801 1.289z" fill="#BF9475"/></svg>