<svg width="261" height="46" fill="none" xmlns="http://www.w3.org/2000/svg"><mask id="a" fill="#fff"><path fill-rule="evenodd" clip-rule="evenodd" d="M242 0a8 8 0 018 8v21.66c2.109 4.206 8.234 5.429 10.294 5.84 2.191 1.313-6.354 4.029-10.537 4.464A8.003 8.003 0 01242 46H8a8 8 0 01-8-8V8a8 8 0 018-8h234z"/></mask><path d="M250 29.66l-1.788.897a2.008 2.008 0 01-.212-.897h2zm10.294 5.84l.391-1.961c.225.045.44.128.637.245l-1.028 1.716zm-10.537 4.464l-1.939-.49a2 2 0 011.732-1.5l.207 1.99zM248 8a6 6 0 00-6-6v-4c5.523 0 10 4.477 10 10h-4zm0 21.66V8h4v21.66h-4zm3.788-.896c.745 1.485 2.291 2.595 4.168 3.402 1.841.792 3.704 1.168 4.729 1.373l-.783 3.922c-1.034-.206-3.263-.647-5.527-1.62-2.228-.96-4.798-2.564-6.163-5.284l3.576-1.793zm9.534 5.02c.627.376 1.51 1.238 1.295 2.583-.158.985-.861 1.608-1.209 1.886-.822.656-2.072 1.222-3.288 1.68-2.515.946-5.865 1.782-8.156 2.02l-.414-3.978c1.892-.197 4.906-.937 7.161-1.786 1.17-.44 1.906-.826 2.201-1.062.211-.168-.152.024-.245.608a1.489 1.489 0 00.599 1.48l2.056-3.43zM242 44a6.003 6.003 0 005.818-4.526l3.878.98C250.602 44.788 246.679 48 242 48v-4zM8 44h234v4H8v-4zm-6-6a6 6 0 006 6v4C2.477 48-2 43.523-2 38h4zM2 8v30h-4V8h4zm6-6a6 6 0 00-6 6h-4C-2 2.477 2.477-2 8-2v4zm234 0H8v-4h234v4z" fill="#BF9475" fill-opacity=".5" mask="url(#a)"/></svg>