<svg width="151" height="50" fill="none" xmlns="http://www.w3.org/2000/svg"><g opacity=".8"><mask id="a" fill="#fff"><path fill-rule="evenodd" clip-rule="evenodd" d="M18.353 0a8 8 0 00-8 8v26.161c-2.322 3.803-8.028 4.945-10 5.339-2.139 1.283 5.968 3.908 10.235 4.431A8.003 8.003 0 0018.353 50h124a8 8 0 008-8V8a8 8 0 00-8-8h-124z"/></mask><path d="M10.353 34.161l1.707 1.042a2 2 0 00.293-1.042h-2zm-10 5.339l-.392-1.961c-.225.045-.44.128-.637.246L.353 39.5zm10.235 4.431l1.94-.48a2 2 0 00-1.697-1.505l-.243 1.985zM12.353 8a6 6 0 016-6v-4c-5.523 0-10 4.477-10 10h4zm0 26.161V8h-4v26.161h4zM8.646 33.12c-.838 1.373-2.387 2.398-4.187 3.141-1.767.73-3.518 1.083-4.498 1.279l.784 3.922c.992-.198 3.08-.612 5.24-1.503 2.126-.878 4.592-2.325 6.075-4.755L8.646 33.12zm-9.322 4.666c-.608.365-1.474 1.194-1.304 2.51.129.992.816 1.626 1.156 1.907.794.657 2.006 1.216 3.174 1.665 2.43.935 5.683 1.766 7.994 2.05l.487-3.97c-1.955-.24-4.889-.984-7.045-1.813-1.124-.432-1.805-.803-2.062-1.015-.186-.154.185.06.263.662.12.924-.532 1.39-.605 1.434l-2.058-3.43zM18.353 48a6.003 6.003 0 01-5.824-4.55l-3.883.963C9.726 48.769 13.66 52 18.353 52v-4zm124 0h-124v4h124v-4zm6-6a6 6 0 01-6 6v4c5.523 0 10-4.477 10-10h-4zm0-34v34h4V8h-4zm-6-6a6 6 0 016 6h4c0-5.523-4.477-10-10-10v4zm-124 0h124v-4h-124v4z" fill="#BF9475" fill-opacity=".5" mask="url(#a)"/></g></svg>