<svg width="220" height="46" fill="none" xmlns="http://www.w3.org/2000/svg"><g opacity=".8"><mask id="a" fill="#fff"><path fill-rule="evenodd" clip-rule="evenodd" d="M18 0a8 8 0 00-8 8v22.685C7.498 34.071 2.231 35.125.353 35.5c-2.08 1.248 5.525 3.763 9.87 4.383A8.003 8.003 0 0018 46h194a8 8 0 008-8V8a8 8 0 00-8-8H18z"/></mask><path d="M10 30.685l1.608 1.19a2 2 0 00.392-1.19h-2zM.353 35.5l-.392-1.961c-.225.045-.44.128-.637.246L.353 35.5zm9.87 4.383l1.944-.47a2 2 0 00-1.662-1.51l-.282 1.98zM12 8a6 6 0 016-6v-4C12.477-2 8 2.477 8 8h4zm0 22.685V8H8v22.685h4zm-3.608-1.188c-.929 1.256-2.469 2.19-4.182 2.863-1.684.663-3.316.992-4.25 1.179l.785 3.922c.946-.189 2.886-.574 4.93-1.378 2.015-.793 4.36-2.08 5.933-4.209l-3.216-2.377zm-9.068 4.288c-.584.35-1.431 1.14-1.314 2.42.092 1 .76 1.648 1.091 1.934.763.658 1.93 1.209 3.043 1.648 2.33.92 5.468 1.744 7.796 2.076l.565-3.96c-2.016-.288-4.852-1.031-6.892-1.836-1.071-.423-1.687-.774-1.9-.958-.157-.135.223.106.28.729.083.9-.547 1.338-.611 1.377l-2.058-3.43zM18 44a6.003 6.003 0 01-5.833-4.586l-3.888.938C9.337 44.739 13.285 48 18 48v-4zm194 0H18v4h194v-4zm6-6a6 6 0 01-6 6v4c5.523 0 10-4.477 10-10h-4zm0-30v30h4V8h-4zm-6-6a6 6 0 016 6h4c0-5.523-4.477-10-10-10v4zM18 2h194v-4H18v4z" fill="#BF9475" fill-opacity=".5" mask="url(#a)"/></g></svg>