<svg width="36" height="36" fill="none" xmlns="http://www.w3.org/2000/svg"><path d="M18 36c9.941 0 18-8.059 18-18S27.941 0 18 0 0 8.059 0 18s8.059 18 18 18z" fill="#6F3FAA"/><path d="M27.522 12.65l-.006-.023c-.48-1.944-2.649-4.03-4.64-4.465l-.023-.004a25.788 25.788 0 00-9.706 0l-.023.004c-1.99.434-4.16 2.52-4.64 4.465l-.006.024a18.999 18.999 0 000 8.184l.005.024c.461 1.861 2.468 3.851 4.385 4.399v2.17c0 .786.957 1.172 1.502.605l2.199-2.286a25.61 25.61 0 006.284-.419l.023-.005c1.991-.434 4.16-2.52 4.64-4.464l.006-.024a19.001 19.001 0 000-8.184zm-1.74 7.791c-.321 1.269-1.968 2.846-3.276 3.137a24.036 24.036 0 01-5.163.417.122.122 0 00-.09.037l-1.606 1.648-1.708 1.753a.2.2 0 01-.344-.138V23.7c0-.06-.043-.11-.101-.122-1.309-.291-2.955-1.868-3.276-3.137a17.24 17.24 0 010-7.397c.321-1.268 1.967-2.845 3.275-3.136a24.017 24.017 0 019.013 0c1.31.291 2.955 1.868 3.276 3.136a17.221 17.221 0 010 7.397z" fill="#fff"/><path d="M20.846 22.101c-.202-.061-.393-.102-.571-.176-1.845-.765-3.542-1.752-4.886-3.265-.765-.86-1.364-1.832-1.87-2.86-.24-.488-.441-.995-.647-1.498-.188-.46.088-.933.38-1.28a3.005 3.005 0 011.006-.755c.298-.143.591-.06.808.191.47.545.901 1.118 1.25 1.75.215.389.156.864-.233 1.128-.095.064-.18.14-.269.213a.88.88 0 00-.203.213.587.587 0 00-.04.515c.48 1.32 1.29 2.345 2.618 2.898.212.088.426.191.67.163.41-.048.543-.498.83-.733.281-.23.64-.232.942-.041.303.192.596.397.888.605.286.204.57.403.835.636.254.223.34.516.198.82-.262.555-.642 1.017-1.192 1.312-.154.083-.34.11-.514.164-.202-.061.174-.054 0 0zm-2.841-10.47c2.412.068 4.394 1.669 4.818 4.054.073.406.099.822.13 1.234.014.174-.084.338-.271.34-.194.003-.28-.159-.293-.332-.025-.343-.042-.688-.09-1.028-.25-1.798-1.682-3.284-3.471-3.603-.27-.048-.545-.061-.817-.09-.173-.018-.398-.028-.436-.242-.032-.18.12-.323.29-.332.047-.003.093 0 .14 0 2.412.067-.047 0 0 0z" fill="#fff"/><path d="M21.671 16.384c-.004.03-.006.1-.024.168-.064.242-.43.272-.515.028a.726.726 0 01-.03-.233c0-.511-.111-1.022-.369-1.466a2.729 2.729 0 00-1.144-1.074 3.287 3.287 0 00-.912-.28c-.137-.022-.276-.036-.415-.055-.167-.024-.256-.13-.248-.295a.26.26 0 01.288-.256c.554.03 1.089.15 1.581.411 1.001.53 1.573 1.367 1.74 2.484.007.05.02.1.023.152.01.125.016.25.025.416-.004.03-.01-.166 0 0z" fill="#fff"/><path d="M20.17 16.325c-.201.004-.31-.108-.33-.293-.014-.129-.026-.26-.057-.385a1.084 1.084 0 00-.4-.628 1.05 1.05 0 00-.326-.157c-.148-.043-.301-.031-.45-.067-.16-.04-.248-.17-.223-.32a.29.29 0 01.306-.233c.935.067 1.604.551 1.699 1.652.007.078.015.16-.003.234-.03.127-.123.191-.215.197-.202.004.092-.006 0 0zm.676 5.776c.174-.054-.202-.06 0 0zm-2.835-10.468zm-.006-.001h.006c.134.005 2.312.065-.006 0zm3.666 4.752c-.01-.165-.004.03 0 0z" fill="#fff"/><path d="M20.17 16.326l.01-.002h-.035l.026.002z" fill="#fff"/><path d="M20.17 16.326l-.025-.002a.362.362 0 00.026.002z" fill="#fff"/><path d="M20.18 16.324l-.01.002c.024-.002.022-.002.01-.002z" fill="#fff"/></svg>