<svg width="36" height="36" fill="none" xmlns="http://www.w3.org/2000/svg"><path d="M18.005 0h-.01C8.072 0 0 8.073 0 18c0 3.938 1.269 7.587 3.427 10.55l-2.244 6.687 6.92-2.212A17.844 17.844 0 0018.004 36C27.928 36 36 27.925 36 18S27.93 0 18.005 0z" fill="#4CAF50"/><path d="M28.478 25.418c-.434 1.227-2.158 2.244-3.532 2.54-.94.2-2.17.36-6.305-1.354-5.29-2.191-8.696-7.567-8.962-7.915-.254-.35-2.137-2.847-2.137-5.43 0-2.583 1.312-3.84 1.84-4.38.435-.444 1.152-.646 1.841-.646.223 0 .423.011.603.02.529.023.794.054 1.143.889.434 1.046 1.492 3.63 1.618 3.895.128.265.256.625.076.974-.168.36-.317.52-.582.826-.266.306-.518.54-.784.868-.242.286-.517.592-.211 1.12.306.518 1.364 2.244 2.92 3.63 2.01 1.789 3.639 2.36 4.221 2.603.435.18.952.137 1.27-.2.402-.434.9-1.154 1.406-1.863.36-.509.814-.572 1.291-.392.486.17 3.058 1.44 3.587 1.704.529.265.877.391 1.006.614.126.223.126 1.269-.309 2.497z" fill="#FAFAFA"/></svg>