<svg width="17" height="20" viewBox="0 0 17 20" xmlns="http://www.w3.org/2000/svg">
<path d="M9.16667 19.1667L9.16667 2.54208L15.23 8.90792C15.5475 9.24125 16.075 9.25417 16.4083 8.93667C16.7412 8.61958 16.7546 8.09208 16.4371 7.75833L9.51208 0.488333C9.19708 0.17375 8.77875 -3.44801e-07 8.33333 -3.6427e-07C7.88833 -3.83722e-07 7.46958 0.173749 7.14083 0.502916L0.229999 7.75875C0.0762497 7.92 -3.55228e-07 8.12667 -3.64262e-07 8.33333C-3.73878e-07 8.55333 0.0866657 8.77333 0.258749 8.93708C0.592083 9.25458 1.11917 9.24167 1.43667 8.90833L7.5 2.51583L7.5 19.1667C7.5 19.6267 7.87333 20 8.33333 20C8.79333 20 9.16667 19.6267 9.16667 19.1667Z" fill="#BF9475"/>
</svg>
