<svg width="16" height="16" viewBox="0 0 16 16" xmlns="http://www.w3.org/2000/svg">
    <path d="M14.0758 3.6664H11.7626V3.42876C11.7626 2.36705 10.9009 1.50537 9.83918 1.50537H6.16039C5.09825 1.50537 4.237 2.36705 4.237 3.42876V3.6664H1.92339C0.861249 3.6664 0 4.52765 0 5.58979V12.5712C0 13.633 0.861249 14.4946 1.92339 14.4946H14.0766C15.1388 14.4946 16 13.633 16 12.5712V5.58979C15.9991 4.52722 15.1379 3.6664 14.0758 3.6664ZM7.99915 12.4994C5.99541 12.4994 4.36608 10.8701 4.36608 8.86638C4.36608 6.86307 5.99541 5.23332 7.99915 5.23332C10.0029 5.23332 11.6322 6.86264 11.6322 8.86638C11.6322 10.8701 10.0025 12.4994 7.99915 12.4994ZM9.92253 8.86638C9.92253 9.92595 9.05914 10.7898 7.99915 10.7898C6.93915 10.7898 6.07576 9.92595 6.07576 8.86638C6.07576 7.80638 6.93915 6.94299 7.99915 6.94299C9.05914 6.94299 9.92253 7.80638 9.92253 8.86638Z"
          />
</svg>
