<svg width="24" height="24" viewBox="0 0 24 24" xmlns="http://www.w3.org/2000/svg">
<g clip-path="url(#clip0)">
<path d="M23.3408 20.1592L18.0908 14.9092C18.0762 14.8945 18.061 14.8807 18.0461 14.8666C18.9673 13.3783 19.5 11.6253 19.5 9.75C19.5 4.37405 15.1263 0 9.75 0C4.37367 0 0 4.37405 0 9.75C0 15.126 4.37367 19.5 9.75 19.5C11.6253 19.5 13.3783 18.9673 14.8666 18.046C14.8807 18.061 14.8945 18.0762 14.9092 18.0908L20.1592 23.3408C20.5983 23.7803 21.1743 24 21.75 24C22.3257 24 22.9017 23.7803 23.3408 23.3408C24.2197 22.4626 24.2197 21.0374 23.3408 20.1592ZM3 9.75C3 6.02784 6.02822 3 9.75 3C13.4718 3 16.5 6.02784 16.5 9.75C16.5 13.4722 13.4718 16.5 9.75 16.5C6.02822 16.5 3 13.4722 3 9.75Z" fill="white"/>
<path d="M12.75 8.25H11.25V6.75C11.25 5.92162 10.5784 5.25 9.75 5.25C8.92162 5.25 8.25 5.92162 8.25 6.75V8.25H6.75C5.92162 8.25 5.25 8.92162 5.25 9.75C5.25 10.5784 5.92162 11.25 6.75 11.25H8.25V12.75C8.25 13.5784 8.92162 14.25 9.75 14.25C10.5784 14.25 11.25 13.5784 11.25 12.75V11.25H12.75C13.5784 11.25 14.25 10.5784 14.25 9.75C14.25 8.92162 13.5784 8.25 12.75 8.25Z" fill="white"/>
</g>
<defs>
<clipPath id="clip0">
<rect width="24" height="24" fill="white"/>
</clipPath>
</defs>
</svg>
