<svg width="244" height="145" viewBox="0 0 244 145" fill="none" xmlns="http://www.w3.org/2000/svg">
<g clip-path="url(#clip0)">
<path d="M243.671 140.713C243.122 139.833 242.463 139.064 241.694 138.404C241.365 138.074 240.925 137.745 240.486 137.964C239.717 138.294 239.059 138.074 238.4 137.854C237.302 137.415 236.203 137.085 235.105 136.645C234.556 136.425 234.227 136.205 234.337 135.656C234.337 135.216 234.446 134.666 233.788 134.556C232.36 134.337 231.811 133.237 231.482 132.028C231.372 131.698 231.262 131.259 230.933 131.149C230.493 131.039 230.274 131.368 230.054 131.698C229.725 132.248 229.505 132.138 228.956 131.918C227.858 131.478 226.76 130.929 225.771 130.159C225.332 129.829 225.003 129.61 225.003 128.95C225.552 128.95 225.881 129.17 226.32 129.28C226.76 129.5 227.089 129.28 227.309 128.95C227.528 128.51 227.089 128.4 226.87 128.18C226.211 127.741 225.442 127.411 224.893 126.751C224.563 126.312 224.234 125.872 224.783 125.322C225.552 124.333 225.552 123.673 224.893 122.574C223.795 120.925 222.477 119.496 220.72 118.616C219.951 118.287 219.183 117.737 218.524 117.297C216.877 116.198 215.559 114.659 213.912 113.669C212.045 112.46 210.617 111.031 209.519 109.052C208.641 107.513 207.433 106.084 206.994 104.325C206.554 102.786 205.566 101.467 204.798 100.038C204.578 99.5982 204.139 99.3783 203.699 99.3783C202.382 99.5982 201.503 99.0485 200.625 98.1691C199.087 96.5201 197.221 95.4208 195.134 94.4314C194.036 93.8817 192.938 93.5519 192.059 92.8923C189.863 91.1334 187.338 90.3639 184.702 89.7043C184.153 89.4845 183.494 89.4845 182.835 89.5944C180.2 90.0341 178.004 89.2646 175.917 87.6156C175.478 87.2858 174.929 86.956 174.49 86.6262C172.184 85.3071 169.878 84.4276 167.242 84.4276C165.815 84.4276 164.277 84.3177 162.85 84.0978C161.642 83.9879 160.434 83.5481 159.336 82.9985C160.434 82.8885 161.642 82.7786 162.74 83.1084C164.497 83.6581 166.364 83.5481 168.121 83.2183C168.889 83.1084 169.658 82.8886 170.317 82.7786C171.964 82.4488 173.611 82.7786 175.258 82.7786C176.796 82.7786 178.223 82.5588 179.431 81.4594C180.2 80.7998 180.529 79.4807 180.09 78.931C179.321 78.0516 178.553 77.282 177.235 77.1721C175.368 77.0622 173.611 77.282 171.964 78.0516C171.086 78.3813 170.207 78.6012 169.329 78.6012C165.375 78.931 161.422 79.5906 157.798 81.5694C157.469 81.7892 157.03 81.8992 156.59 82.0091C156.371 82.119 156.151 82.119 155.932 82.229C156.481 79.5906 156.81 76.8423 157.03 74.094C157.689 75.1933 158.457 76.1827 159.336 77.1721C160.434 78.3813 161.312 78.0516 161.642 76.5125C161.642 76.2926 161.752 76.0728 161.861 75.743C162.191 76.0728 162.301 76.1827 162.52 76.4026C164.167 78.0516 164.716 78.1615 166.693 77.0622C166.803 76.9522 167.023 76.8423 167.132 76.8423C167.681 76.6224 168.121 76.2926 168.121 75.5231C168.121 74.7536 167.462 74.5337 166.913 74.4238C165.815 74.2039 164.716 73.9841 163.728 73.6543C163.509 73.6543 163.289 73.5443 163.289 73.3245C163.289 73.2146 163.509 73.1046 163.618 72.9947C164.387 72.555 165.046 72.1152 165.924 71.7854C167.132 71.3457 168.34 71.2358 169.438 72.0053C170.317 72.6649 171.195 72.9947 172.184 73.1046C172.733 73.2146 173.062 73.4344 173.392 73.9841C174.05 75.1933 174.709 76.4026 176.356 76.4026C176.796 76.4026 177.345 76.7324 177.564 76.1827C177.894 75.6331 177.674 75.0834 177.455 74.6437C177.125 74.094 176.686 73.7642 176.247 73.2146C176.796 72.8848 177.345 72.7748 177.674 73.1046C178.662 73.8741 179.87 74.094 180.859 74.6437C181.408 74.8635 181.737 75.3033 181.847 75.8529C181.957 76.5125 182.176 77.0622 182.396 77.7218C182.725 78.4913 183.384 79.0409 184.263 79.0409C185.251 79.0409 185.91 78.4913 186.13 77.5019C186.239 76.9522 186.569 77.0622 187.008 77.1721C188.985 77.7218 190.412 78.7111 191.071 80.6899C191.291 81.3495 191.73 82.0091 192.059 82.6687C192.279 83.1084 192.718 83.4382 193.267 83.3283C193.816 83.2184 193.816 82.6687 193.816 82.229C193.816 81.0197 193.267 80.0303 192.389 79.2608C191.291 78.1615 190.193 76.9522 188.326 76.4026C189.095 76.1827 189.644 75.9629 190.193 75.8529C190.742 75.6331 191.071 75.4132 191.071 74.7536C191.071 74.2039 190.961 73.6543 190.412 73.3245C190.193 73.2146 189.863 73.1046 189.534 72.9947C187.667 72.555 185.91 72.7748 184.043 72.6649C183.604 72.6649 183.055 72.7748 182.725 73.1046C181.957 73.7642 181.078 73.7642 180.2 73.3245C179.321 72.9947 178.443 72.3351 177.674 72.3351C175.368 72.555 173.282 71.4556 171.086 71.1258C170.866 71.1258 170.646 71.0159 170.207 70.906C171.854 70.4663 173.172 70.1365 174.599 70.4663C174.819 70.4663 175.039 70.6861 175.149 70.4663C175.258 70.2464 175.258 69.9166 175.149 69.6967C174.599 68.9272 173.831 68.7074 172.952 68.9272C172.293 69.0372 171.635 69.3669 170.976 69.6967C169.438 70.4663 167.791 71.0159 166.034 70.906C164.497 70.7961 162.96 70.4663 161.532 70.906C161.422 70.906 161.203 70.906 160.983 70.906C160.104 70.5762 159.336 70.7961 158.677 71.4557C158.347 71.7854 157.908 72.0053 157.469 72.2252C157.359 72.3351 157.14 72.445 157.03 72.555C157.14 70.7961 157.249 69.0371 157.249 67.1683C158.238 67.9378 159.336 68.8173 160.324 69.5868C161.093 70.1365 161.532 69.8067 161.532 68.9272C161.422 67.9378 161.093 67.1683 160.214 66.7286C159.446 66.3988 158.677 66.1789 157.908 65.9591C157.689 65.9591 157.359 65.7392 157.249 65.8491C157.249 65.5193 157.249 65.1895 157.249 64.9697C157.469 64.9697 157.689 64.8597 157.908 64.7498C159.006 64.0902 160.214 63.8704 161.422 64.0902C162.52 64.3101 163.509 64.9697 164.387 65.6293C165.156 66.1789 166.034 66.2889 166.913 66.1789C167.572 66.069 168.121 65.8491 168.779 65.8491C169.658 65.8491 169.987 65.0796 169.658 64.3101C169.219 63.5406 168.67 63.1008 167.791 62.881C167.242 62.6611 166.583 62.5512 166.034 62.4412C166.254 62.1114 166.583 62.0015 166.803 62.0015C168.45 61.4519 170.207 61.0121 171.964 60.6823C173.392 60.4625 174.599 60.4625 175.807 61.232C176.247 61.4519 176.686 61.5618 177.125 61.7817C177.345 61.8916 177.784 61.8916 177.674 62.2214C177.564 62.5512 177.235 62.4412 176.906 62.5512C176.466 62.6611 175.698 62.1114 175.698 62.771C175.698 63.3207 176.466 63.2108 177.015 63.3207H177.125C177.674 63.4306 178.223 63.2108 178.443 62.6611C178.662 62.1114 178.553 61.5618 178.113 61.232C177.784 60.9022 177.455 60.6823 176.906 60.2426C177.455 60.0227 177.894 59.9128 178.333 59.8029C179.212 59.583 179.98 59.1433 180.419 58.4837C181.298 57.1645 181.847 55.6255 183.275 54.6361C183.494 54.4162 183.494 54.0864 183.384 53.7566C183.165 53.5368 182.945 53.7566 182.725 53.8666C181.737 54.3063 180.859 54.8559 179.761 54.9659C178.662 55.0758 177.674 55.5155 176.796 56.395C176.356 56.8347 175.807 57.1645 175.149 57.7142C175.258 57.2744 175.258 57.1645 175.258 57.0546C175.258 56.9447 175.368 56.7248 175.368 56.6149C175.478 55.9553 175.368 55.1857 174.709 54.856C174.16 54.5262 173.501 54.6361 172.952 54.9659C171.415 55.9553 170.427 57.2745 169.987 59.0334C169.768 59.9128 169.438 60.2426 168.45 60.4625C166.693 60.7923 164.826 61.232 163.069 61.6717C160.983 62.2214 159.006 62.881 157.14 64.0902C157.14 64.0902 157.03 64.0902 157.03 64.2002C156.92 62.0015 156.81 59.8029 156.59 57.6042C156.7 57.6042 156.81 57.6042 156.92 57.6042C157.689 57.6042 158.347 57.8241 159.116 57.934C160.214 58.044 161.312 58.5936 162.301 58.044C163.069 57.6042 163.838 57.2744 164.716 56.9447C165.485 56.7248 165.375 56.2851 164.936 55.8453C164.716 55.6255 164.497 55.5155 164.277 55.4056C162.85 54.5262 161.312 54.0864 159.555 54.3063C158.677 54.4162 157.689 54.1964 156.81 54.5262C156.59 54.6361 156.371 54.6361 156.261 54.856C156.151 54.4162 156.151 54.0864 156.041 53.6467C156.151 53.6467 156.151 53.5368 156.261 53.5368C157.798 52.5474 159.226 51.4481 160.214 49.7991C160.763 48.9196 161.532 48.1501 162.41 47.4905C163.289 46.8309 164.167 46.6111 165.266 46.8309C166.473 47.0508 167.791 47.3806 169.109 46.9409C169.548 46.8309 169.768 46.9409 170.097 47.2707C170.866 48.1501 171.744 49.0296 172.623 50.019C173.941 51.4481 176.247 51.8878 178.004 51.1183C178.882 50.6785 178.992 50.3487 178.553 49.4693C177.894 48.0402 176.576 47.2707 175.368 46.3912C174.599 45.8415 173.831 46.3912 173.062 46.3912C172.843 46.3912 172.403 46.2813 172.403 46.721C172.403 47.1607 172.843 47.1607 173.062 47.0508C174.819 46.721 176.137 47.7104 177.345 48.6998C177.674 48.9196 178.113 49.1395 178.004 49.5792C177.894 50.019 177.345 49.909 177.015 49.909C176.686 49.909 176.356 49.909 176.137 50.019C173.941 50.019 172.403 49.3594 171.305 47.7104C171.195 47.6005 171.195 47.4905 171.195 47.2707C171.415 46.0614 171.195 45.8415 169.987 46.0614C168.23 46.3912 166.583 46.721 164.826 46.1713C163.948 45.8415 163.069 46.0614 162.301 46.6111C159.775 48.1501 157.908 50.3488 155.822 52.4375C155.163 48.8097 154.394 45.4018 153.296 42.1039C153.406 41.9939 153.516 41.7741 153.626 41.884C154.504 41.9939 155.492 41.4443 156.151 42.5436C157.14 43.9727 159.006 42.9833 159.336 41.884C159.555 41.2244 159.555 40.4549 159.336 39.7953C159.116 39.2456 159.336 38.9158 159.885 38.696C160.873 38.3662 161.422 37.7066 161.642 36.6073C161.752 35.7278 162.41 35.398 163.289 35.508C164.277 35.6179 165.266 35.508 166.144 35.1782C167.242 34.8484 167.462 34.1888 166.913 33.1994C166.583 32.6497 166.144 32.3199 165.595 31.9901C164.387 31.4405 163.069 31.7703 161.752 31.8802C161.312 31.8802 160.983 32.21 161.093 32.7597C161.203 33.5292 160.873 33.9689 160.104 34.0788C159.775 34.0788 159.336 34.1888 159.116 34.5186C158.677 35.1782 158.018 35.2881 157.469 35.1782C157.249 35.1782 157.03 35.1782 156.92 35.1782C156.7 35.1782 156.261 35.398 156.151 34.9583C156.041 34.7384 156.261 34.4086 156.481 34.1888C156.7 33.859 157.03 33.6391 157.359 33.3093C157.579 33.0895 157.579 32.7597 157.469 32.4299C157.359 32.21 157.14 31.9901 156.81 31.9901C155.712 32.1001 154.614 32.21 153.845 32.9795C153.077 33.6391 152.308 34.2987 151.649 35.0682C151.21 35.398 151.1 35.9477 151.21 36.3874C151.21 36.6073 151.32 36.7172 151.32 36.9371C143.852 18.1387 129.577 5.38666 113.105 5.38666C88.9469 5.38666 69.4005 32.9795 69.4005 66.9484C69.4005 71.2358 69.73 75.4132 70.279 79.4807C69.5104 78.2714 69.2907 76.8423 69.0711 75.3033C68.9613 74.2039 68.6319 73.1046 68.4122 72.0053C68.3024 71.4557 67.8632 71.2358 67.3141 71.4557C66.7651 71.5656 66.8749 72.0053 66.9847 72.445C67.0945 72.8848 67.3141 73.2146 67.5338 73.5443C68.1926 74.4238 68.1926 75.4132 68.1926 76.5125C67.8632 76.4026 67.7534 76.1827 67.5338 76.0728C66.4356 75.1933 65.9964 73.7642 65.0081 72.7748C63.3609 71.2358 62.7021 69.3669 62.8119 67.1683C62.8119 66.9484 62.8119 66.7286 62.8119 66.5087C62.8119 63.8704 61.2745 62.1114 59.6274 60.4625C59.1881 60.0227 58.7489 60.1327 58.6391 60.7923C58.5293 61.232 58.5293 61.7817 58.1998 62.2214C57.7606 62.0015 57.7606 61.6717 57.541 61.3419C56.4428 58.9234 55.3447 56.5049 54.2466 54.0864C53.8074 52.9871 53.1485 51.9977 52.27 51.2282C51.6112 50.6785 50.4032 50.4587 49.964 50.8984C49.3051 51.558 49.6346 52.2176 49.964 52.8772C50.5131 54.0864 51.3915 55.0758 52.3798 55.9553C53.5878 56.9447 54.4662 58.1539 55.0153 59.583C55.784 61.4519 56.7723 63.3207 58.09 64.9697C58.1998 65.0796 58.4194 65.1895 58.1998 65.4094C55.784 64.7498 53.3681 63.3207 51.721 61.7817C51.0621 61.1221 50.4032 61.1221 49.6346 61.3419C49.4149 61.4519 49.1953 61.5618 49.3051 61.7817C49.5248 62.5512 50.0738 62.9909 50.8425 63.1008C51.0621 63.1008 51.3915 63.1008 51.6112 63.3207C52.5995 64.5299 54.027 64.9697 55.4545 65.4094C57.4311 66.069 59.0783 67.3882 60.5059 68.8173C60.9451 69.257 61.1647 69.5868 60.2862 69.6967C59.9568 69.8067 59.5176 69.8067 59.2979 70.1365C58.4194 71.3457 57.6508 71.0159 56.6625 70.1365C56.0036 69.4769 54.7957 69.4769 53.9172 69.1471C53.4779 69.0372 53.1485 68.7074 52.7093 69.1471C52.3798 69.4769 52.3798 69.9166 52.4897 70.3563C52.5995 70.5762 52.7093 70.906 52.3798 71.0159C52.1602 71.1259 51.9406 70.906 51.8308 70.6861C51.1719 69.9166 50.7327 69.0372 50.5131 68.0478C49.964 66.1789 48.8659 64.5299 47.4383 63.2108C46.2304 62.2214 45.3519 61.1221 44.5833 59.8029C44.2538 59.2532 43.9244 58.7036 43.3753 58.2638C42.9361 57.934 42.4968 57.8241 41.9478 58.044C41.3987 58.2638 41.5085 58.7036 41.5085 59.1433C41.6184 59.9128 41.7282 60.6823 42.2772 61.3419C42.387 61.4519 42.6067 61.6717 42.387 61.8916C41.0693 61.0121 39.6418 60.2426 38.4338 59.1433C37.1161 58.044 35.5788 57.7142 33.9316 57.6042C32.9433 57.6042 32.7237 58.1539 33.0531 59.0334C33.4923 59.9128 34.261 60.5724 35.1395 60.9022C37.2259 61.7817 38.8731 63.6505 41.1791 64.0902C41.2889 64.0902 41.2889 64.2001 41.3987 64.3101C39.2025 63.6505 37.0063 63.4306 34.9199 62.4412C33.2727 61.6717 31.5158 61.0121 29.649 61.0121C28.441 61.0121 27.2331 60.9022 26.0252 61.0121C25.4761 61.0121 24.8173 61.232 24.7075 61.8916C24.5977 62.4412 25.2565 62.5512 25.586 62.771C26.6841 63.5406 28.1116 63.7604 29.3195 64.2002C28.6607 64.42 27.892 64.8597 27.2331 64.8597C24.2682 64.8597 21.7426 66.069 19.2169 67.4981C18.9973 67.608 18.6679 67.718 18.6679 68.1577C18.6679 68.4875 18.9973 68.7074 19.2169 68.8173C19.766 69.0371 20.315 69.257 20.8641 69.4769C20.5347 69.9166 20.0954 70.0265 19.6562 70.1365C18.7777 70.3563 17.8992 70.6861 17.0207 71.1258C14.8245 72.0053 13.5067 74.7536 14.0558 77.0622C14.2754 77.9416 14.495 78.0516 15.2637 77.5019C15.8128 77.0622 16.3618 76.7324 16.9109 76.4026C18.8875 75.1933 20.6445 73.6543 21.6328 71.5656C22.2916 70.2464 23.1701 69.257 24.4878 68.5974C25.586 68.0478 26.6841 67.3882 28.1116 66.9484C27.6724 67.608 27.2331 67.9378 26.6841 68.2676C25.0369 69.3669 24.378 70.7961 24.4878 72.7748C24.4878 73.2146 24.4878 73.8741 25.0369 74.094C25.586 74.3139 26.0252 73.9841 26.3546 73.6543C27.6724 72.555 28.5509 71.2358 29.2097 69.5868C29.649 68.4875 30.198 67.3882 30.8569 66.2889C31.7354 65.0796 32.7237 64.5299 34.1512 64.6399C34.7003 64.6399 34.9199 64.7498 34.7003 65.2995C34.3708 66.069 34.1512 66.8385 33.9316 67.4981C33.6022 68.3776 33.4923 69.1471 33.8218 70.0265C34.1512 71.0159 34.1512 72.1152 34.0414 73.1046C33.8218 74.9735 34.3708 75.6331 36.2376 75.743C36.5671 75.743 36.8965 75.743 37.2259 75.743C37.775 75.6331 38.1044 75.4132 38.324 74.9735C38.5437 74.4238 38.2142 74.094 37.8848 73.7642C37.2259 73.1046 36.6769 72.445 36.3474 71.6755C35.4689 69.6967 35.4689 67.718 35.9082 65.7392C36.1278 64.6399 36.3474 64.42 37.4455 64.7498C38.8731 65.0796 40.1908 65.4094 41.6184 65.8491C41.9478 65.9591 42.2772 65.9591 42.387 66.3988C41.838 66.5087 41.2889 66.3988 40.7399 66.2889C39.6418 66.069 38.6535 65.8491 37.5554 66.069C37.2259 66.1789 36.7867 66.1789 36.6769 66.5087C36.5671 66.9484 36.8965 67.2782 37.1161 67.4981C38.1044 68.4875 39.3123 68.9272 40.7399 69.257C42.6067 69.6967 44.5833 69.5868 46.5599 69.6967C47.2187 69.6967 47.8776 69.8067 48.5365 70.2464C50.4032 71.4557 52.3798 72.445 54.3564 73.3245C54.5761 73.4344 54.9055 73.4344 54.9055 73.8741C54.4662 73.9841 54.027 73.9841 53.5878 74.094C53.1485 74.2039 52.7093 74.4238 52.7093 74.9735C52.7093 75.5231 52.9289 75.9628 53.478 76.0728C54.027 76.1827 54.5761 76.4026 55.2349 76.2926C57.1017 76.1827 58.8587 76.1827 60.7255 75.6331C62.3726 75.1933 64.0198 75.5231 65.5572 76.5125C63.8002 77.282 62.2628 78.1615 60.2862 78.0516C59.5176 77.9416 58.7489 77.8317 57.9802 77.6118C56.6625 77.1721 56.1134 77.392 55.4545 78.4913C55.2349 78.931 55.0153 78.931 54.5761 78.8211C52.3798 78.1615 50.8425 78.8211 49.8542 80.9098C49.7444 81.2396 49.4149 81.5694 49.6346 81.8992C49.964 82.229 50.2934 82.0091 50.6229 81.8992C51.6112 81.5694 52.4897 81.1296 53.3681 80.58C53.9172 80.2502 54.5761 80.0303 55.2349 80.2502C57.541 80.9098 59.7372 80.6899 61.8236 79.2608C62.3726 78.8211 62.9217 78.4913 63.4707 78.1615C65.4473 76.8423 66.4356 77.0622 67.973 78.931C68.3024 79.2608 68.8515 79.7005 68.6319 80.1403C69.1809 79.3707 68.5221 79.1509 68.0828 79.1509C66.9847 79.0409 66.3258 79.4807 65.7768 80.3601C65.5572 80.7998 65.5572 81.1296 65.9964 81.4594C67.0945 82.3389 68.3024 82.7786 69.73 82.119C70.8281 81.5694 70.9379 81.6793 71.0477 82.8885C71.0477 82.9985 71.0477 83.1084 71.0477 83.2183C71.2673 84.7574 71.1575 84.7574 69.6202 84.4276C65.8866 83.6581 62.2628 83.5481 58.5293 84.4276C57.8704 84.6475 56.7723 84.6475 56.0036 83.8779C54.6859 82.6687 52.9289 82.119 51.2817 81.4594C50.8425 81.2396 50.2934 81.2396 49.8542 81.2396C48.3168 81.4594 48.207 81.6793 48.6463 83.1084C48.6463 83.2183 48.6463 83.3283 48.7561 83.3283C49.5248 84.5375 50.7327 86.0766 52.27 85.6368C52.8191 85.5269 53.3681 85.417 54.027 85.6368C52.9289 86.1865 51.8308 86.7362 50.7327 87.1759C49.6346 87.6156 48.7561 88.3851 48.0972 89.4845C47.7678 90.0341 47.4383 90.254 46.7795 90.254C41.838 90.3639 37.1161 89.5944 32.7237 87.066C32.6139 86.956 32.504 86.956 32.3942 86.8461C31.8452 86.6262 31.5158 86.8461 31.2961 87.3958C31.0765 87.9454 31.6256 87.9454 31.955 88.0553C34.0414 88.605 36.1278 89.3745 38.2142 89.9242C39.7516 90.3639 41.3987 90.9136 43.0459 91.0235C44.144 91.1334 45.2421 91.0235 46.6697 90.9136C45.2421 92.5625 43.9244 93.8817 41.9478 94.2115C40.3006 94.5413 38.6535 94.5413 37.0063 94.3215C35.2493 94.1016 34.9199 94.5413 34.9199 96.1903C34.9199 97.2896 35.3591 97.6194 36.4572 97.3995C37.2259 97.1797 37.8848 97.2896 38.7633 97.2896C36.5671 98.3889 35.1395 100.478 33.1629 101.687C31.8452 102.456 30.4176 102.566 28.9901 102.346C27.4527 102.017 25.9154 101.797 24.2682 101.467C23.7192 101.357 23.1701 101.357 22.6211 101.577C22.072 101.907 21.9622 102.237 22.4014 102.786C23.0603 103.446 23.829 103.776 24.5977 103.995C25.1467 104.105 25.8056 104.215 26.3546 104.435C24.378 105.315 22.5112 106.414 20.2052 105.644C17.2403 104.655 12.189 106.524 10.5419 109.272C10.5419 109.382 10.432 109.382 10.432 109.492C10.2124 109.932 9.99279 110.481 10.3222 110.921C10.7615 111.471 11.3105 111.581 11.9694 111.581C13.6166 111.471 14.7147 110.591 15.8128 109.492C17.5698 107.843 19.3267 106.304 22.072 106.854C22.4014 106.854 22.8407 106.744 22.8407 107.074C22.9505 107.513 22.5112 107.623 22.1818 107.733C20.2052 108.832 18.6679 110.481 17.0207 111.911C16.6913 112.24 16.252 112.68 16.5815 113.23C16.9109 113.779 17.5698 113.999 18.2286 113.889C19.2169 113.669 20.2052 113.34 20.8641 112.46C22.072 111.141 22.9505 109.602 23.829 108.063C24.378 107.074 25.1467 106.304 26.2448 105.754C27.6724 104.985 29.0999 104.215 30.5275 103.556C31.4059 103.116 32.3942 102.896 33.712 102.456C33.0531 103.446 32.3942 104.325 32.504 105.205C32.6139 106.854 31.955 107.513 30.4176 108.173C28.0018 109.272 25.6958 110.701 23.3897 111.911C21.6328 112.79 19.8758 113.669 18.6679 115.318C18.1188 116.088 18.1188 116.418 18.9973 116.857C20.5346 117.627 24.0486 116.967 25.1467 115.648C25.4761 115.208 25.4761 114.989 25.0369 114.659C24.4878 114.329 24.0486 114.439 23.7192 114.879C22.8407 116.528 21.1935 116.418 19.6562 116.418C18.8875 116.418 18.8875 116.088 19.2169 115.538C19.766 114.769 20.5346 114.109 21.3033 113.669C23.2799 112.57 25.3663 111.361 27.4527 110.262C29.4293 109.272 31.4059 108.063 33.712 107.733C34.5905 107.623 35.3591 107.074 36.018 106.524C37.0063 105.535 37.9946 104.655 38.8731 103.666C40.4104 101.907 41.9478 100.148 42.4968 97.7293C43.1557 95.2009 45.2421 93.8817 46.9991 92.2327C47.3285 92.0129 47.5482 92.0129 47.5482 92.4526C47.5482 92.6725 47.5482 92.8923 47.5482 93.1122C47.5482 93.6619 47.658 94.1016 48.207 94.3215C48.7561 94.5413 49.1953 93.9917 49.5248 93.5519C49.6346 93.3321 49.7444 93.2221 49.7444 93.0023C50.2934 91.0235 51.2817 89.2646 51.721 87.2858C51.8308 87.066 51.9406 86.8461 52.1602 86.7362C53.2583 86.0766 54.3564 85.417 55.6742 85.1971C56.0036 85.0872 56.4428 85.0872 56.6625 85.5269C56.9919 86.1865 57.4311 85.9666 57.8704 85.6368C58.4194 85.0872 59.0783 84.9772 59.847 84.8673C60.5059 84.7574 61.1647 84.6475 61.7138 84.4276C63.91 83.6581 65.9964 84.3177 68.0828 84.7574C66.3258 85.0872 64.6787 85.8567 63.1413 86.6262C62.0432 87.1759 60.9451 87.3958 59.7372 87.1759C59.2979 87.066 58.8587 87.2858 58.4194 87.5057C57.6508 87.8355 57.6508 88.1653 58.1998 88.8249C58.4194 89.0447 58.8587 89.1547 58.7489 89.4845C58.6391 89.8143 58.09 89.7043 57.8704 89.5944C57.4311 89.5944 57.1017 89.4845 56.6625 89.4845C55.784 89.5944 55.0153 89.9242 54.9055 90.8036C54.7957 92.1228 53.9172 92.6725 52.7093 92.8923C51.6112 93.1122 50.5131 93.442 49.8542 94.4314C49.1953 95.2009 48.4266 95.7506 47.5482 96.0804C46.5599 96.5201 45.7912 97.2896 45.4618 98.3889C45.2421 99.2684 44.8029 99.818 44.144 100.258C42.9361 101.137 41.9478 102.346 41.2889 103.776C41.0693 104.215 40.8497 104.655 41.2889 104.985C41.7282 105.425 42.1674 105.644 42.8263 105.534C43.0459 105.425 43.3753 105.315 43.595 105.205C44.5833 104.545 45.5716 104.325 46.7795 104.435C47.658 104.545 48.4266 104.215 49.0855 103.556C49.5248 103.116 49.964 102.676 50.4032 102.127C51.721 100.368 53.478 99.818 55.6742 99.928C55.4545 100.148 55.3447 100.478 55.1251 100.697C54.9055 101.027 54.9055 101.247 55.3447 101.357C56.4428 101.687 57.541 102.017 58.6391 101.577C59.1881 101.357 59.7372 101.247 60.396 101.247C59.0783 102.566 57.7606 103.446 56.0036 103.556C55.5644 103.556 55.1251 103.666 54.6859 103.886C53.3681 104.655 52.0504 105.205 50.7327 105.864C49.3051 106.634 47.8776 107.403 46.2304 107.513C43.7048 107.623 41.2889 108.173 38.7633 108.723C38.1044 108.832 37.5554 108.942 37.1161 108.393C36.7867 108.063 36.3474 107.953 35.7984 108.063C35.1395 108.173 34.7003 108.503 34.1512 108.832C32.0648 110.042 30.5275 112.02 28.1116 112.9C27.5626 113.12 27.6724 113.45 28.0018 113.669C28.3312 113.889 28.3312 114.109 28.1116 114.439C26.9037 115.978 25.586 117.407 23.829 118.397C20.8641 119.936 17.8992 121.585 14.7147 122.684C13.3969 123.124 12.2988 123.893 11.5301 125.102C10.9811 125.872 10.432 126.641 9.77317 127.191C9.44374 127.521 9.11431 127.851 9.33393 128.4C9.66336 128.95 9.99279 129.17 10.6517 129.06C11.4203 128.95 12.189 128.73 12.8479 128.29C15.4833 126.861 17.5698 124.882 19.4365 122.464C20.315 121.365 21.6328 121.145 23.0603 120.485C22.6211 121.475 22.1818 122.024 21.6328 122.464C19.9856 123.673 18.009 124.663 16.8011 126.422C15.0441 128.95 13.5067 131.698 12.189 134.447C11.8596 134.996 11.7498 135.546 12.189 136.205C12.7381 136.865 13.2871 136.645 13.946 136.425C16.8011 135.546 18.4482 133.347 19.6562 130.819C20.4248 129.06 21.3033 127.301 22.5112 125.762C23.0603 124.992 23.4995 124.223 23.829 123.343C24.4878 121.585 25.2565 119.936 26.5743 118.506C27.892 117.077 29.4293 115.648 30.8569 114.329C31.4059 113.889 31.8452 113.34 32.7237 113.01C32.6139 113.56 32.2844 113.779 31.955 113.999C29.4293 115.868 27.892 118.506 26.3546 121.145C26.0252 121.694 26.0252 122.134 26.4644 122.684C26.9037 123.234 27.3429 123.234 27.892 123.014C29.3195 122.354 30.6373 121.365 31.6256 120.265C33.0531 118.616 34.1512 116.638 34.7003 114.549C35.1395 112.79 36.3474 111.361 37.775 110.481C39.3123 109.492 41.2889 109.822 43.1557 109.712C43.0459 110.152 42.8263 110.042 42.6067 110.152C40.6301 110.591 39.2025 111.691 37.775 113.12C36.018 114.989 35.1395 117.407 33.712 119.496C32.9433 120.595 32.2844 121.914 31.6256 123.014C31.0765 123.893 31.1863 124.113 32.1746 124.443C33.3825 124.882 34.3708 124.773 35.3591 123.893C36.4572 123.014 37.1161 121.914 37.775 120.815C39.4221 117.957 41.0693 115.208 43.0459 112.68C44.0342 111.471 45.1323 110.481 46.6697 109.932C47.3285 109.712 47.8776 109.382 48.4266 108.942C48.9757 108.393 49.6346 108.063 50.4032 107.733C52.1602 106.854 54.027 106.084 55.784 105.205C56.7723 104.765 57.7606 104.765 58.7489 104.765C57.9802 105.315 57.2115 105.864 56.4428 106.304C54.4663 107.403 52.5995 108.723 51.1719 110.481C49.7444 112.24 48.6463 114.219 47.1089 115.868C46.8893 116.088 46.7795 116.308 46.6697 116.528C46.2304 117.627 46.5599 118.177 47.658 118.287C48.9757 118.397 50.0738 117.847 50.9523 116.967C51.721 116.198 52.4897 115.318 53.1485 114.549C55.784 111.691 58.3096 108.832 60.1764 105.315C60.1764 105.205 60.2862 105.095 60.5059 105.205C59.9568 106.854 59.4077 108.503 58.6391 110.042C57.7606 112.13 56.4428 113.889 55.5644 115.978C55.4545 116.198 55.2349 116.528 55.5644 116.857C55.8938 117.077 56.2232 117.077 56.4428 116.748C57.3213 115.868 58.3096 115.208 58.9685 114.219C59.9568 112.57 61.1647 111.141 62.5923 110.042C63.3609 109.382 63.91 108.613 64.1296 107.623C64.3492 106.414 64.6787 105.205 65.0081 103.995C65.0081 103.776 65.4473 103.446 65.0081 103.336C64.6787 103.226 64.5689 103.556 64.459 103.886C64.3492 104.215 64.2394 104.545 64.2394 104.875C63.91 106.304 63.2511 107.623 62.153 108.613C60.5059 110.152 59.1881 112.02 58.09 113.999C57.8704 114.439 57.541 114.769 57.1017 115.099C56.9919 114.769 57.2115 114.659 57.3213 114.439C58.7489 112.35 59.9568 110.152 61.1647 107.953C61.9334 106.524 62.2628 104.985 62.8119 103.446C62.9217 103.116 63.1413 102.676 62.7021 102.456C61.9334 102.127 62.2628 101.797 62.5923 101.357C63.91 99.3783 65.8866 97.9492 67.0945 95.7506C67.6436 94.7612 68.5221 93.9917 69.4005 93.2221C70.1692 92.4526 70.8281 91.793 71.9262 91.1334C71.8164 91.6831 71.5968 91.903 71.3771 92.2327C70.279 93.8817 69.1809 95.5307 68.0828 97.1797C67.2043 98.6088 66.5455 100.038 66.4356 101.687C66.3258 102.566 66.6553 102.896 67.4239 102.786C68.4122 102.676 69.2907 102.127 69.8398 101.247C70.0594 101.027 70.279 100.698 69.9496 100.368C69.6202 100.038 69.2907 100.258 68.9613 100.588C68.5221 101.137 68.0828 101.687 67.6436 102.127C67.5338 102.237 67.3141 102.456 67.0945 102.346C66.8749 102.237 66.9847 102.017 67.0945 101.797C67.4239 100.478 68.1926 99.2684 68.9613 98.1691C70.3888 96.0804 71.8164 94.1016 72.9145 91.793C73.0243 91.4632 73.3537 91.1334 73.3537 90.6937C80.162 112.35 95.5356 127.521 113.435 127.521C126.942 127.521 138.911 118.946 146.927 105.425C147.147 106.524 147.257 107.513 147.696 108.613C147.915 109.272 148.464 109.602 149.014 109.932C149.453 110.152 149.892 110.042 150.112 109.602C150.441 108.832 150.661 108.063 150.441 107.293C150.331 106.744 150.221 106.304 150.112 105.644C152.637 108.173 153.845 111.141 153.955 114.439C153.955 114.989 153.955 115.648 154.175 116.198C154.614 117.517 154.614 118.836 154.394 120.155C154.175 121.255 154.614 122.134 155.273 122.904C155.822 123.563 156.59 123.673 157.14 123.014C158.567 121.145 159.555 119.166 159.006 116.638C158.897 116.198 158.677 115.758 158.787 115.318C159.336 115.428 159.665 115.868 159.995 116.198C160.653 116.748 161.093 117.627 161.971 117.957C162.85 118.287 163.179 118.836 163.399 119.716C163.509 120.595 163.728 121.475 164.387 122.134C165.375 123.124 165.815 124.443 166.144 125.762C166.583 127.191 167.023 128.51 167.462 129.939C167.681 130.819 168.121 131.478 168.779 132.138C169.219 132.578 169.658 132.908 170.207 132.688C170.866 132.468 171.415 132.028 171.525 131.259C171.635 129.39 171.525 127.631 170.097 126.202C169.768 125.872 169.219 125.542 169.109 124.882C172.513 125.322 172.403 125.102 173.062 128.29C173.062 128.51 173.172 128.73 173.172 129.06C173.172 129.61 173.392 130.049 173.721 130.379C174.599 131.478 175.588 132.578 176.796 133.457C177.345 133.787 177.784 134.117 178.443 133.677C179.102 133.237 179.102 132.578 178.882 131.918C178.113 129.719 177.125 127.631 175.039 126.202C174.599 125.872 174.599 125.762 174.929 125.322C175.368 124.773 175.698 124.223 175.368 123.563C174.929 122.464 174.16 121.585 172.952 121.255C171.305 120.815 169.768 120.045 168.34 119.276C167.462 118.836 166.583 118.397 165.595 118.287C164.607 118.177 164.058 117.627 163.509 116.857C163.838 116.748 164.058 116.857 164.387 116.857C166.034 117.077 167.572 117.297 169.219 117.187C169.987 117.077 170.756 116.967 171.525 116.748C172.513 116.418 172.952 115.648 172.293 114.989C169.768 112.24 167.023 109.822 162.85 110.371C161.971 110.481 161.422 110.152 161.312 109.162C161.093 106.854 159.446 105.315 157.908 103.886C157.689 103.666 157.359 103.336 156.92 103.666C156.481 103.995 156.7 104.435 157.03 104.655C157.798 105.644 158.567 106.524 159.336 107.513C159.885 108.173 160.214 108.832 160.214 109.712C157.798 108.832 155.273 106.414 153.955 103.776C153.845 103.556 153.845 103.006 153.406 103.226C152.967 103.336 153.186 103.776 153.186 104.105C153.186 104.325 153.296 104.545 153.406 104.655C154.175 106.414 155.383 107.843 157.03 108.942C157.359 109.162 157.689 109.272 157.908 109.712C156.59 109.492 155.163 109.382 154.284 108.283C153.186 107.074 151.429 106.194 151.429 104.215C151.429 104.105 151.32 103.995 151.21 103.886C150.661 103.336 150.112 102.676 149.563 102.127C149.453 102.017 149.343 101.907 149.233 101.797C149.782 100.697 150.331 99.4883 150.88 98.3889C150.88 98.4989 150.99 98.4989 150.99 98.6088C151.32 99.0485 151.649 99.4883 151.869 100.038C152.527 101.467 153.845 102.017 155.053 102.896C155.492 103.226 155.712 102.896 155.932 102.456C155.822 102.346 155.712 102.237 155.602 102.017C155.163 101.577 154.724 101.137 154.284 100.807C153.296 100.038 152.527 99.0485 151.649 98.1691C151.539 98.0591 151.32 97.9492 151.21 97.9492C151.869 96.4102 152.527 94.8711 153.077 93.2221C153.077 94.1016 153.406 94.7612 154.175 95.4208C155.053 96.1903 155.492 97.1797 155.602 98.3889C155.602 99.0485 155.932 99.5982 156.261 100.148C156.81 101.027 157.469 100.698 158.238 100.478C158.897 100.258 159.226 99.818 159.006 99.0485C158.238 97.0697 157.798 94.981 157.469 92.7824C157.359 92.3427 157.14 92.3427 156.92 92.5625C156.261 93.442 156.261 92.6725 156.041 92.2327C155.273 90.9136 155.602 89.2646 154.833 87.9454C154.724 87.7255 154.833 87.3958 155.163 87.1759C155.822 88.0554 156.481 88.9348 156.81 90.0341C156.92 90.3639 156.81 90.8036 157.359 90.6937C157.798 90.6937 158.238 90.4738 158.238 89.9242C158.347 88.605 158.457 87.2858 157.359 86.2964C156.81 85.8567 156.261 85.3071 155.712 84.9773C155.602 84.9773 155.602 84.8673 155.492 84.8673C155.602 84.2077 155.822 83.5481 155.932 82.8885C156.041 83.1084 156.261 83.2184 156.481 83.3283C157.689 84.3177 159.116 84.8673 160.544 85.417C162.85 86.2964 164.826 89.4845 164.607 92.0129C164.387 93.8817 164.607 95.6406 165.485 97.2896C165.815 97.8393 165.924 98.3889 166.034 99.0485C166.254 101.027 167.023 102.786 168.889 103.886C170.097 104.545 171.195 104.105 171.635 102.786C172.074 101.467 172.074 100.148 171.305 98.9386C169.878 96.63 168.56 94.3215 167.462 91.793C166.583 89.9242 165.266 88.1653 164.167 86.2964C164.058 86.0766 163.838 85.9666 163.948 85.7468C164.058 85.5269 164.387 85.6368 164.497 85.6368C165.156 85.7468 165.815 85.8567 166.364 85.8567C167.352 85.8567 167.901 86.2964 168.121 87.1759C168.56 88.3851 169.109 89.4845 170.207 90.1441C171.305 90.8036 171.854 91.6831 171.744 93.0023C171.635 93.8817 172.074 94.7612 172.293 95.6406C172.733 96.9598 172.952 98.3889 172.952 99.818C172.952 100.807 173.172 101.797 173.392 102.786C173.501 103.226 173.611 103.776 174.16 103.886C174.599 103.995 175.039 103.556 175.258 103.226C176.027 102.127 176.466 100.917 176.466 99.4883C176.356 97.8393 175.917 96.1903 175.478 94.6513C174.819 92.1228 173.611 89.9242 171.305 88.605C170.646 88.1653 169.987 87.7255 169.548 86.956C169.438 86.7362 169.219 86.6262 169.329 86.4064C169.438 86.1865 169.768 86.2964 169.987 86.2964C170.756 86.4064 171.525 86.6262 172.293 86.956C174.709 87.8355 177.125 90.4738 176.796 93.8817C176.576 95.5307 177.015 97.0697 177.674 98.6088C177.894 99.0485 178.004 99.3783 178.004 99.818C178.333 102.017 178.333 104.105 177.784 106.304C177.674 106.854 177.674 107.403 178.113 107.733C178.553 108.173 179.212 108.063 179.651 107.843C180.859 107.293 181.188 106.304 181.298 105.095C181.408 103.336 181.298 101.687 180.749 100.038C180.639 99.5982 180.639 98.8287 180.09 98.9386C179.651 99.0485 180.09 99.7081 180.2 100.148C180.639 102.346 180.639 104.435 179.651 106.414C179.541 106.634 179.541 106.854 179.212 106.854C178.992 106.854 178.882 106.524 178.882 106.304C178.882 105.644 178.882 104.985 178.992 104.325C179.102 102.017 179.212 99.7081 178.113 97.3995C177.564 96.3002 177.455 95.2009 177.894 93.9917C178.443 94.4314 178.662 94.8711 178.992 95.4208C179.102 95.6406 179.212 95.7506 179.541 95.6406C179.761 95.5307 179.87 95.4208 179.761 95.3108C179.212 94.4314 179.541 93.3321 179.321 92.3427C179.212 91.903 178.772 91.1334 178.992 90.9136C179.321 90.4738 179.98 91.0235 180.529 91.0235C181.737 91.0235 182.616 91.793 182.945 93.0023C183.055 93.5519 183.165 93.9917 183.384 94.5413C184.702 96.9598 184.812 99.5982 184.592 102.237C184.373 104.435 184.922 106.634 186.349 108.393C187.228 109.602 188.875 109.382 189.644 108.063C189.863 107.513 189.973 107.074 190.083 106.414C190.083 103.006 188.765 100.038 187.447 97.0698C187.008 95.9704 186.349 94.981 186.13 93.8817C186.02 93.442 185.8 92.7824 186.349 92.4526C186.898 92.1228 187.228 92.7824 187.667 93.1122C188.106 93.5519 188.436 94.1016 188.985 94.5413C189.863 95.2009 190.412 95.8605 190.632 96.8499C190.632 97.0697 190.632 97.5095 191.071 97.3995C191.401 97.2896 191.401 96.9598 191.401 96.63C191.291 96.0804 191.181 95.5307 191.291 94.8711C193.267 96.1903 194.805 99.7081 194.256 101.687C193.926 100.807 193.707 100.038 193.377 99.2684C193.158 98.9386 193.158 98.279 192.499 98.3889C191.84 98.4989 191.84 99.1584 191.84 99.7081C191.84 101.027 192.279 102.127 192.828 103.336C193.487 104.985 194.036 106.744 193.158 108.613C192.828 109.272 192.499 109.162 192.169 108.723C191.73 108.173 191.51 107.513 191.401 106.854C191.181 105.205 191.181 103.446 191.291 101.797C191.291 101.577 191.51 101.247 191.181 101.137C190.852 101.027 190.852 101.467 190.742 101.687C190.522 103.226 190.522 104.875 190.522 106.414C190.522 107.293 190.742 108.063 191.291 108.723C191.95 109.602 192.718 109.602 193.487 108.723C193.926 108.173 194.036 107.513 194.475 106.854C194.805 108.503 194.695 109.932 194.695 111.471C194.695 112.13 194.695 112.68 195.134 113.23C196.122 114.219 196.562 115.538 196.562 116.857C196.562 117.407 196.562 118.067 197.221 118.287C197.879 118.506 198.319 118.177 198.868 117.847C199.307 117.517 199.636 117.187 199.856 116.638C200.295 115.648 200.295 114.549 200.185 113.56C200.076 111.691 200.076 109.822 200.405 108.063C200.844 105.425 200.185 103.116 198.538 101.137C197.879 100.368 197.33 99.4882 196.671 98.6088C196.562 98.4989 196.342 98.279 196.562 98.0591C196.891 98.1691 197.111 98.3889 197.33 98.6088C198.099 99.928 199.307 100.478 200.625 100.917C201.503 101.247 202.162 101.797 202.601 102.566C203.15 103.556 203.48 104.655 204.358 105.315C205.237 106.084 205.347 106.854 204.907 107.843C204.578 108.832 204.248 109.822 204.358 110.811C204.578 112.79 204.358 114.769 203.809 116.748C203.48 118.067 203.59 119.496 204.139 120.815C204.358 121.365 204.798 121.475 205.347 121.365C206.225 121.035 206.774 120.265 207.104 119.496C208.092 117.407 208.202 115.208 207.982 113.01C207.872 111.911 207.872 110.811 207.762 109.712C208.641 111.471 209.519 113.12 210.508 114.659C210.508 114.659 210.508 114.769 210.508 114.879C210.508 116.088 210.727 117.187 210.398 118.397C210.068 119.606 209.519 120.705 209.19 121.914C208.531 124.113 208.421 126.422 208.97 128.62C209.19 129.61 209.629 130.489 209.849 131.478C209.959 131.918 209.849 132.468 210.398 132.578C211.057 132.688 211.386 132.248 211.825 131.808C212.155 131.478 212.265 131.039 212.374 130.709C212.594 130.049 212.594 129.28 212.704 128.51C213.143 125.762 213.033 123.014 212.265 120.155C211.935 118.836 211.825 117.517 211.716 116.088C211.825 116.088 211.935 115.978 211.935 115.978C212.704 116.857 213.473 117.737 214.131 118.726C215.339 120.375 216.108 122.024 215.669 124.223C215.449 125.212 215.779 126.202 216.218 127.081C216.987 128.84 217.096 130.489 215.779 132.028C214.9 133.127 214.68 134.447 215.12 135.876C215.449 136.755 216.108 137.085 216.877 136.425C217.426 135.876 217.975 135.326 218.085 134.447C218.304 133.457 218.194 132.358 218.304 131.259C218.743 132.138 218.853 132.908 218.853 133.677C218.743 135.106 218.414 136.425 218.304 137.745C218.304 137.964 218.194 138.184 218.414 138.294C218.743 138.404 218.853 138.074 218.853 137.854C219.073 136.755 219.293 135.656 219.402 134.556C219.732 132.468 219.512 130.489 219.402 128.4C219.402 128.071 219.402 127.521 219.842 127.521C220.171 127.521 220.281 127.961 220.391 128.29C220.5 128.73 220.61 129.17 220.5 129.61C220.281 130.599 220.391 131.588 220.391 132.688C220.171 135.986 219.842 139.393 218.524 142.472C218.304 143.021 218.304 143.571 218.853 143.791C219.512 144.121 220.061 144.34 220.83 144.34C221.379 144.34 221.818 144.23 222.148 143.681C222.807 142.472 222.916 141.152 222.916 139.833C222.807 137.305 223.026 134.886 223.356 132.358C223.356 132.028 223.465 131.808 223.685 131.698C224.014 131.588 224.124 131.918 224.234 132.028C225.113 132.798 225.222 133.787 225.113 134.886C224.893 136.535 224.893 138.184 225.332 139.833C225.771 141.482 226.65 143.021 228.077 144.121C228.517 144.45 229.066 144.56 229.615 144.23C230.164 144.011 230.054 143.461 230.164 143.021C230.164 142.582 230.164 142.142 230.054 141.702C229.944 140.163 229.834 138.624 229.615 137.085C230.713 138.074 231.701 139.174 232.58 140.493C233.239 141.482 234.227 141.922 235.325 142.032C237.631 142.142 239.827 142.142 242.133 142.581C242.902 142.801 243.451 142.252 243.89 141.592C244.11 141.702 243.89 141.262 243.671 140.713ZM163.509 80.7999C165.485 80.1403 167.462 79.5906 169.548 79.5906C170.427 79.5906 171.305 79.2608 172.184 78.931C173.721 78.2714 175.368 78.1615 176.906 78.2714C177.894 78.2714 178.553 78.931 179.102 79.5906C179.431 80.0303 179.102 80.2502 178.772 80.3601C178.004 80.6899 177.015 80.7998 176.247 81.0197C173.501 81.5694 170.756 82.0091 168.011 82.5588C165.705 82.9985 163.399 82.5588 160.983 82.119C161.752 81.4594 162.63 81.1296 163.509 80.7999ZM190.083 73.8741C190.412 73.9841 190.742 74.2039 190.742 74.5337C190.742 74.8635 190.522 74.9735 190.302 74.9735C188.106 75.4132 186.02 75.4132 183.714 74.6437C185.91 73.4344 187.996 73.2146 190.083 73.8741ZM185.471 76.6224C185.69 76.7324 185.91 76.9522 185.8 77.282C185.69 77.6118 185.361 77.5019 185.032 77.5019C183.933 77.5019 182.725 76.4026 182.396 75.0834C183.604 75.4132 184.482 75.9628 185.471 76.6224ZM167.132 75.6331C165.595 76.1827 163.399 75.6331 162.52 74.5337C164.167 74.5337 165.595 74.9735 167.132 75.6331ZM160.324 72.3351C161.532 71.6755 162.74 71.2358 164.167 71.4557C164.277 71.4557 164.497 71.4556 164.607 71.5656C164.716 71.6755 164.607 71.7854 164.497 71.8954C163.618 72.3351 162.96 73.1046 161.861 73.2146C161.422 73.1046 160.983 72.9947 160.544 72.8848C160.434 72.8848 160.214 72.7748 160.214 72.6649C160.104 72.445 160.214 72.3351 160.324 72.3351ZM160.324 74.094C160.653 74.094 160.983 74.2039 160.983 74.6437C160.983 75.1933 161.312 75.8529 160.653 76.2926C160.214 76.6224 159.885 76.2926 159.665 75.9629C159.116 75.4132 158.787 74.7536 158.238 73.9841C159.006 74.094 159.665 74.094 160.324 74.094ZM180.969 55.6255C180.09 57.0546 178.333 57.934 176.356 57.8241C177.564 56.395 179.212 55.9553 180.969 55.6255ZM171.415 58.1539C172.074 56.8347 173.172 56.0652 174.49 55.2957C174.929 55.0758 175.039 55.2957 175.039 55.7354C174.929 57.2745 173.392 58.8135 171.744 58.8135C171.415 58.8135 171.195 58.7036 171.415 58.1539ZM163.948 62.881C165.485 63.1008 166.913 63.4306 168.45 63.7604C168.779 63.8704 169.329 63.8704 169.219 64.3101C169.219 64.7498 168.67 64.8597 168.34 64.8597C168.23 64.8597 168.011 64.8597 167.901 64.8597C165.485 65.8491 163.838 64.3101 161.861 63.1008C162.52 62.881 163.289 62.771 163.948 62.881ZM163.289 32.9795C163.509 32.5398 163.838 32.7597 164.167 32.7597C164.277 32.7597 164.497 32.7597 164.607 32.7597C164.716 32.7597 164.936 32.7597 165.046 32.7597C165.375 32.7597 165.815 32.5398 165.924 32.8696C166.034 33.3093 165.595 33.5292 165.375 33.6391C165.046 33.859 164.607 33.9689 164.277 34.0788C163.948 34.1888 163.509 34.2987 163.289 33.9689C163.069 33.7491 163.179 33.3093 163.289 32.9795ZM153.735 38.3662C154.724 38.4761 155.492 38.1463 155.932 37.1569C156.151 36.7172 156.81 36.9371 157.03 37.2669C157.359 38.0364 157.908 38.696 158.567 39.2456C158.787 39.3556 158.677 39.6854 158.677 39.9052C158.677 40.4549 158.347 40.8946 157.798 41.2244C157.359 41.3343 157.03 41.3343 156.81 40.8946C156.261 39.5754 155.273 39.0258 153.955 39.3556C153.516 39.4655 153.516 39.1357 153.406 38.9158C153.186 38.4761 153.406 38.3662 153.735 38.3662ZM51.6112 51.0083C52.7093 51.8878 53.3681 53.207 53.6976 54.5262C52.5995 53.5368 51.6112 52.5474 51.6112 51.0083ZM20.315 71.2358C19.4365 72.2252 18.4482 72.9947 17.3501 73.7642C17.0207 73.9841 16.6913 74.094 16.3618 73.8741C16.0324 73.6543 16.252 73.2146 16.3618 72.8848C16.4716 72.555 16.6913 72.1152 17.0207 72.0053C18.2286 71.3457 19.5464 70.7961 20.8641 70.2464C20.7543 70.7961 20.4248 71.0159 20.315 71.2358ZM22.7309 67.718C21.9622 68.1577 21.5229 68.0478 20.6445 67.3882C22.9505 66.6186 24.8173 64.7498 27.4527 65.0796C25.8056 65.6293 24.2682 66.7286 22.7309 67.718ZM27.1233 71.6755C26.9037 71.7854 26.7939 72.1152 26.4644 72.0053C26.2448 71.8954 26.2448 71.5656 26.2448 71.2358C26.3546 70.5762 26.6841 70.0265 27.1233 69.5868C27.6724 68.8173 28.441 68.3776 29.2097 67.8279C28.8803 69.257 28.3312 70.6861 27.1233 71.6755ZM27.7822 61.6717C30.0882 61.5618 32.3942 61.0121 34.5905 62.4412C32.6139 63.1008 29.0999 62.771 27.7822 61.6717ZM37.1161 73.6543C37.3357 74.2039 37.0063 74.5337 36.3474 74.3139C35.6886 74.094 35.3591 73.5444 35.3591 72.8848C35.3591 72.1152 35.3591 71.3457 35.6886 70.4663C36.5671 71.5656 36.7867 72.6649 37.1161 73.6543ZM34.9199 57.6042C37.9946 58.5936 40.1908 60.7923 42.7165 62.5512C40.5203 62.4412 35.1395 59.1433 34.9199 57.6042ZM39.3123 65.7392C41.9478 65.8491 44.4734 66.2889 46.8893 68.0478C44.0342 67.718 41.2889 68.0478 39.3123 65.7392ZM44.4734 61.232C47.3285 62.6611 48.4266 65.5193 49.8542 68.1577C47.3285 66.3988 46.5599 63.3207 44.4734 61.232ZM59.7372 63.4306C59.7372 63.1008 59.5176 62.771 59.847 62.5512C60.1764 62.4412 60.2862 62.771 60.5059 62.881C62.0432 63.8704 62.153 65.4094 62.153 66.9484C61.2745 65.8491 60.0666 64.9697 59.7372 63.4306ZM54.1368 69.5868C54.9055 69.8067 55.6742 70.0265 56.4428 70.3563C56.7723 70.4663 57.1017 70.6861 56.9919 71.0159C56.9919 71.4556 56.5527 71.4557 56.1134 71.4557C55.0153 71.4557 54.2466 70.6861 54.1368 69.5868ZM59.5176 74.2039C58.4194 74.4238 57.3213 74.5337 56.2232 74.4238C55.784 74.4238 55.3447 74.4238 54.9055 73.9841C56.4428 73.7642 57.8704 73.4344 59.4077 73.4344C59.6274 73.4344 59.9568 73.3245 59.9568 73.6543C60.0666 74.094 59.7372 74.2039 59.5176 74.2039ZM62.8119 72.6649C62.0432 72.445 61.3843 72.2252 60.7255 71.7854C60.396 71.5656 60.396 71.2358 60.5059 71.0159C60.7255 70.5762 61.0549 70.5762 61.3843 70.5762C62.4825 70.5762 63.3609 71.3457 63.3609 72.3351C63.3609 72.6649 63.0315 72.6649 62.8119 72.6649ZM51.9406 79.5906C51.721 79.5906 51.5014 79.8105 51.3915 79.5906C51.2817 79.3707 51.5014 79.1509 51.721 79.0409C52.4897 78.4913 53.3681 78.3813 54.3564 78.8211C53.5878 79.2608 52.8191 79.3707 51.9406 79.5906ZM56.9919 77.6118C58.6391 77.7218 60.0666 78.1615 61.604 77.7218C60.6157 78.8211 57.9802 78.8211 56.9919 77.6118ZM50.2934 83.6581C49.6346 83.768 48.9757 82.9985 48.8659 82.3389C48.8659 81.7892 49.3051 81.8992 49.6346 81.8992C50.2934 82.0091 51.0621 82.229 51.6112 82.5588C52.27 82.8885 52.8191 83.3283 53.478 83.768C52.3798 83.768 51.3915 83.5481 50.2934 83.6581ZM15.4833 109.052C14.3852 109.822 13.2871 110.701 11.8596 110.811C11.64 110.811 11.4203 110.921 11.2007 110.701C11.0909 110.481 11.2007 110.262 11.4203 110.042C11.64 109.712 11.9694 109.382 12.189 109.162C13.8362 107.843 15.703 106.854 17.7894 106.304C18.4482 106.084 19.2169 106.084 19.8758 106.414C18.009 106.634 16.9109 108.173 15.4833 109.052ZM18.009 113.56C17.7894 113.56 17.5698 113.669 17.4599 113.56C17.3501 113.34 17.5698 113.12 17.6796 113.01C18.8875 111.911 20.2052 110.811 21.523 109.712C20.7543 111.581 19.9856 113.12 18.009 113.56ZM23.7192 103.446C23.4995 103.336 23.1701 103.226 23.1701 102.896C23.1701 102.566 23.6094 102.456 23.829 102.456C25.0369 102.346 26.2448 102.786 27.4527 103.006C28.0018 103.116 28.5509 103.116 29.3195 103.556C27.3429 103.995 25.4761 104.105 23.7192 103.446ZM36.3474 96.8499C35.7984 96.8499 35.9082 96.4102 35.7984 96.0804C35.6886 95.6406 36.018 95.2009 36.4572 95.2009C37.0063 95.091 37.4455 95.091 37.9946 95.2009C39.0927 95.3108 40.1908 95.4208 41.2889 95.3108C39.8614 96.63 38.1044 96.8499 36.3474 96.8499ZM40.081 100.807C38.8731 102.676 37.3357 104.435 35.7984 106.084C35.1395 106.744 34.3708 107.074 33.712 107.513C33.2727 107.733 33.0531 107.623 33.1629 107.074C33.3825 105.974 33.6022 104.765 34.261 103.776C35.4689 102.017 36.7867 100.368 38.6535 99.1584C39.7516 98.4989 40.8497 97.6194 42.0576 96.74C41.5085 98.279 40.8497 99.5982 40.081 100.807ZM46.1206 102.566C45.1323 103.556 43.9244 104.325 42.7165 105.095C42.7165 105.095 42.6067 105.095 42.4968 105.205C42.1674 105.205 42.2772 104.985 42.2772 104.765C42.9361 103.446 43.9244 102.237 45.3519 101.577C45.5716 101.467 45.901 101.357 46.1206 101.687C46.3402 101.907 46.3402 102.237 46.1206 102.566ZM11.2007 128.18C12.4086 125.762 14.7147 124.113 18.2286 123.343C16.4716 125.432 13.1773 127.741 11.2007 128.18ZM16.6913 133.897C15.703 135.106 14.3852 135.766 12.9577 136.315C12.4086 136.535 12.4086 136.315 12.5184 135.876V135.766C14.3852 132.028 16.1422 128.29 19.766 125.762C19.8758 125.652 19.9856 125.652 20.315 125.542C18.8875 128.4 18.6679 131.478 16.6913 133.897ZM28.5509 121.145C29.5392 118.506 31.5158 116.748 33.4923 114.989C32.3942 117.517 31.0765 119.826 28.5509 121.145ZM40.081 114.109C38.6535 115.538 37.2259 117.077 36.1278 118.836C35.9082 119.166 35.6886 119.606 35.3591 119.386C35.0297 119.166 35.4689 118.726 35.5788 118.506C36.5671 116.088 38.324 114.109 40.4104 112.46C40.8497 112.13 41.2889 111.691 42.1674 111.691C41.3987 112.57 40.8497 113.34 40.081 114.109ZM55.6742 110.262C53.9172 112.46 52.1602 114.549 50.1836 116.528C49.6346 117.077 48.9757 117.517 48.207 117.737C47.658 117.957 47.4383 117.737 47.658 117.187C47.7678 116.967 47.7678 116.857 47.8776 116.638C49.964 114.109 51.6112 111.031 54.3564 109.052C55.4545 108.283 56.5527 107.403 57.6508 106.634C57.7606 106.744 57.7606 106.744 57.8704 106.854C57.2115 108.173 56.5527 109.272 55.6742 110.262ZM170.097 130.159C170.097 130.379 170.097 130.489 170.097 130.709C170.097 131.039 170.427 131.588 169.987 131.698C169.548 131.918 169.329 131.368 169.109 131.039C168.999 130.929 168.889 130.709 168.779 130.599C168.121 128.73 167.572 126.861 166.913 125.102C167.023 125.102 167.132 124.992 167.132 124.992C168.56 126.422 170.317 127.741 170.097 130.159ZM178.004 133.017C176.356 132.248 174.27 129.06 173.831 126.422C175.807 127.301 178.333 131.259 178.004 133.017ZM165.266 118.946C166.034 119.166 166.803 119.386 167.462 119.826C168.779 120.705 170.207 121.365 171.854 121.804C172.952 122.134 173.611 123.014 174.38 123.893C174.49 124.003 174.49 124.223 174.49 124.333C174.38 124.882 174.27 125.432 173.501 124.992C171.964 123.893 170.207 123.673 168.45 123.234C166.364 122.794 165.485 121.145 164.826 119.386C164.607 118.836 164.936 118.946 165.266 118.946ZM157.469 111.141C159.336 111.581 161.312 111.801 163.289 111.801C165.485 111.801 167.242 112.79 168.889 114.219C169.548 114.769 170.097 115.428 170.866 116.198C165.156 117.077 160.873 114.549 156.7 111.361C157.03 110.921 157.249 111.031 157.469 111.141ZM157.03 114.989C157.249 115.978 157.689 116.967 157.798 117.957C158.018 119.606 157.359 121.145 156.7 122.574C156.481 123.014 156.261 122.794 156.041 122.574C155.492 121.804 155.383 121.035 155.602 120.265C155.932 118.836 155.932 117.407 155.492 115.978C155.163 114.769 155.163 113.45 154.943 112.02C156.041 112.9 156.7 113.779 157.03 114.989ZM149.892 107.953C150.002 108.173 149.892 108.393 149.892 108.723C149.892 108.942 149.782 109.272 149.563 109.272C149.233 109.272 149.233 108.942 149.123 108.723C149.014 108.393 148.904 107.953 148.904 107.513C148.904 106.634 148.794 105.864 148.464 104.985C148.245 104.655 148.245 104.215 148.684 103.666C149.233 105.315 149.563 106.634 149.892 107.953ZM157.249 55.1857C158.347 54.9659 159.446 54.9659 160.544 55.2957C161.093 55.5155 162.191 55.5155 161.971 56.1751C161.861 56.7248 160.873 56.5049 160.214 56.395C159.116 56.1751 158.128 56.1751 157.03 56.1751C156.92 56.1751 156.81 56.1751 156.7 56.1751C156.7 55.8453 156.59 55.5155 156.59 55.1857C156.81 55.2957 157.03 55.1857 157.249 55.1857ZM70.1692 80.9098C69.6202 81.2396 69.0711 81.3495 68.7417 81.3495C67.973 81.3495 67.4239 81.1296 66.9847 80.7999C66.8749 80.6899 66.5455 80.58 66.6553 80.3601C66.7651 80.0303 66.9847 80.0303 67.2043 80.0303C68.1926 80.2502 69.1809 79.9204 70.1692 80.2502C70.3888 80.3601 70.7183 80.3601 70.7183 80.58C70.7183 80.7999 70.3888 80.7998 70.1692 80.9098ZM66.4356 86.7362C67.5338 86.4064 68.5221 86.1865 69.73 86.0766C68.7417 86.6262 67.7534 87.066 66.6553 87.2858C66.4356 87.2858 66.1062 87.3958 65.9964 87.066C65.8866 86.8461 66.216 86.7362 66.4356 86.7362ZM57.541 94.2115C57.9802 93.5519 58.1998 92.7824 59.0783 92.2327C58.8587 93.2221 58.5293 93.8817 57.9802 94.5413C57.8704 94.6513 57.7606 94.981 57.4311 94.7612C57.3213 94.6512 57.4311 94.4314 57.541 94.2115ZM55.784 94.3215C56.0036 94.2115 56.1134 94.4314 56.0036 94.5413C55.8938 95.2009 55.3447 95.3108 54.7957 95.5307C54.7957 95.4208 54.6859 95.3108 54.6859 95.3108C54.9055 94.7612 55.2349 94.4314 55.784 94.3215ZM50.6229 96.8499C50.4032 96.8499 49.964 96.9598 49.8542 96.63C49.7444 96.3002 50.0738 96.1903 50.1836 95.9704C50.8425 95.091 51.8308 94.5413 52.8191 94.3215C53.1485 94.2115 53.4779 94.2115 53.3681 94.7612C53.1485 95.7506 51.721 96.8499 50.6229 96.8499ZM54.2466 99.4883C53.9172 99.7081 53.478 99.7081 53.478 99.1584C53.478 98.1691 54.5761 96.63 55.4545 96.4102C55.8938 96.3002 56.1134 96.3002 56.1134 96.74C55.6742 97.7293 55.2349 98.8287 54.2466 99.4883ZM57.4311 102.017C57.3213 102.017 57.1017 102.017 56.9919 102.127C56.6625 102.127 56.333 102.237 56.1134 101.907C56.0036 101.577 56.333 101.467 56.5527 101.247C58.9685 98.1691 61.8236 95.8605 65.5572 94.7612C65.7768 94.7612 65.8866 94.6513 66.1062 94.6513C66.1062 94.6513 66.216 94.6513 66.3258 94.6513C64.459 98.3889 61.604 101.137 57.4311 102.017ZM71.5968 90.6937C70.279 91.2434 69.1809 92.1228 68.0828 93.1122C67.6436 93.442 67.2043 93.7718 66.6553 93.7718C63.8002 94.1016 61.2745 95.2009 59.0783 97.0698C58.4194 97.6194 57.6508 98.279 56.7723 98.9386C57.1017 97.8393 57.2115 97.0697 57.9802 96.4102C59.7372 95.091 61.604 93.7718 63.2511 92.2327C64.1296 91.3533 64.5689 90.5838 64.1296 89.4845C64.0198 89.1547 64.0198 88.9348 64.459 88.8249C65.4473 88.4951 66.3258 88.0553 67.3141 87.9454C68.8515 87.8355 70.0594 87.066 71.2673 86.2964C71.5968 86.0766 71.7066 85.8567 71.9262 85.6368C72.2556 87.1759 72.6949 88.7149 73.1341 90.254C72.8047 90.0341 72.1458 90.3639 71.5968 90.6937ZM113.545 126.861C90.045 126.861 70.8281 99.7081 70.8281 66.2889C70.8281 32.8696 89.9352 5.71645 113.545 5.71645C137.044 5.71645 156.261 32.8696 156.261 66.2889C156.261 99.7081 137.044 126.861 113.545 126.861ZM166.583 93.2221C167.242 95.091 168.23 96.74 168.999 98.4989C169.548 99.818 169.878 101.247 169.878 102.676C169.878 102.896 169.878 103.226 169.658 103.336C169.329 103.556 169.109 103.226 168.889 103.116C167.681 102.127 167.242 100.807 167.023 99.3783C166.913 98.9386 167.023 98.6088 166.803 98.279C165.485 96.3002 165.266 94.1016 165.266 91.793C165.266 91.4632 165.266 91.2434 165.156 90.6937C165.705 91.5732 166.254 92.3427 166.583 93.2221ZM174.05 94.2115C174.819 96.5201 175.588 98.8287 175.478 101.247C175.478 102.017 175.149 102.676 174.49 103.336C173.941 99.818 174.05 96.0804 172.513 92.6725C173.392 93.0023 173.831 93.5519 174.05 94.2115ZM185.91 97.7293C186.898 99.7081 187.996 101.577 188.436 103.776C188.655 104.875 188.655 105.864 188.326 106.964C188.216 107.403 188.106 107.953 187.667 107.953C187.228 107.953 187.008 107.513 186.788 107.074C186.13 105.864 185.69 104.545 185.581 103.116C185.581 101.357 185.91 99.5982 185.91 97.7293ZM198.099 104.325C198.868 105.974 199.087 107.733 199.087 109.492C198.978 111.361 199.087 113.12 198.978 114.989C198.978 115.758 198.868 116.638 198.319 117.297C198.319 116.967 198.319 116.748 198.319 116.418C198.319 114.879 197.879 113.669 196.342 113.01C195.683 112.68 195.244 112.24 195.464 111.471C195.793 109.492 195.573 107.623 195.244 105.754C194.915 103.776 195.464 101.797 195.573 99.7081C196.342 101.247 197.221 102.786 198.099 104.325ZM206.554 117.737C206.445 118.726 206.115 119.606 205.566 120.485C205.237 120.925 205.017 120.925 204.798 120.375C204.358 119.276 204.248 118.177 204.468 117.077C205.017 115.099 205.347 113.01 205.786 111.031C206.005 110.371 206.005 109.602 205.786 108.942C205.676 108.503 205.566 108.063 205.896 107.623C206.554 108.832 206.664 110.152 206.664 111.471C206.774 113.56 206.774 115.648 206.554 117.737ZM211.057 132.028C210.947 132.138 210.947 132.358 210.727 132.358C210.508 132.358 210.508 132.138 210.508 131.918C209.959 128.73 209.3 125.432 210.288 122.134C210.398 121.804 210.398 121.585 210.508 121.255C210.947 122.244 210.947 123.234 211.057 124.333C211.276 126.422 211.386 128.4 211.496 130.489C211.386 131.039 211.276 131.588 211.057 132.028ZM216.108 136.425C215.559 135.436 215.559 134.007 216.218 133.237C216.547 132.798 216.767 133.127 216.877 133.457C217.316 134.227 216.987 135.546 216.108 136.425ZM221.928 140.823C221.818 141.482 221.708 142.032 221.159 142.362C220.61 142.691 220.281 142.582 220.281 141.922C220.281 141.812 220.281 141.812 220.281 141.702C220.5 139.943 221.05 138.184 221.159 136.425C221.489 137.854 222.148 139.284 221.928 140.823ZM223.246 124.773C220.61 124.333 218.743 122.794 217.316 120.595C216.437 119.276 215.449 117.957 214.571 116.638C214.571 116.528 214.68 116.528 214.68 116.418C215.449 116.857 216.108 117.407 216.877 117.847C218.194 118.616 219.622 119.276 220.94 119.936C222.367 120.595 223.136 121.914 223.905 123.124C224.014 123.343 224.124 123.673 224.014 124.003C224.124 124.663 223.905 124.882 223.246 124.773ZM228.736 143.571C226.65 141.812 226.101 138.954 226.76 135.766C227.528 136.535 228.846 141.592 228.736 143.571ZM227.638 133.017C229.285 134.007 230.933 134.886 232.47 135.876C232.47 135.986 232.36 135.986 232.36 136.096C229.944 136.096 227.968 134.886 227.638 133.017ZM242.353 141.922C240.047 141.262 237.631 141.372 235.215 141.152C234.666 141.152 234.227 140.933 233.788 140.713C232.47 139.723 231.482 138.514 230.493 137.195C231.701 137.415 232.909 137.525 234.007 137.964C235.215 138.514 236.423 138.844 237.631 139.174C238.18 139.284 238.729 139.393 239.278 139.284C240.486 138.954 242.572 140.493 242.682 141.812C242.792 142.032 242.572 141.922 242.353 141.922Z" fill="#BF9475"/>
<path d="M187.118 56.285C187.887 56.285 188.655 55.9552 189.314 55.8453C190.632 55.5155 191.84 55.0758 193.158 55.4056C194.256 55.6255 195.134 55.2957 196.122 54.6361C196.781 54.0864 197.44 53.5367 197.989 52.8772C198.648 52.1076 199.417 51.6679 200.405 51.448C201.174 51.3381 202.052 51.2282 202.931 51.3381C205.127 51.448 207.323 51.2282 209.519 51.448C209.959 51.448 210.398 51.448 210.508 51.0083C210.618 50.4587 210.178 50.2388 209.849 50.1289C208.641 49.4693 207.323 49.2494 206.115 49.5792C205.566 49.5792 205.127 49.5792 204.798 49.4693C204.358 49.4693 203.919 49.3593 203.48 49.2494C203.15 49.1395 202.492 49.3593 202.601 48.6997C202.711 48.26 203.26 47.9302 203.809 47.9302C203.919 47.9302 204.029 48.0402 204.029 48.0402C204.578 48.26 204.798 47.9302 204.578 47.4905C204.358 46.9408 203.919 46.3912 203.15 46.3912C202.052 46.5011 201.064 47.4905 200.954 48.5898C200.954 48.9196 201.174 49.5792 200.405 49.5792C199.746 49.5792 199.087 49.7991 198.758 48.9196C198.209 47.6004 197.001 47.3806 196.013 48.3699C195.464 48.8097 195.134 49.3593 194.915 50.0189C194.695 50.6785 194.256 51.1182 193.597 51.558C193.048 51.8878 192.499 52.1076 192.609 51.0083C192.609 50.4587 192.389 49.909 191.73 49.7991C191.071 49.6891 190.852 50.2388 190.632 50.5686C190.303 51.2282 189.973 51.7778 189.863 52.5474C189.753 53.2069 189.314 53.7566 188.655 53.9765C187.996 54.1963 187.338 54.6361 186.679 54.9659C186.349 55.1857 186.13 55.4056 186.24 55.8453C186.459 56.395 186.789 56.285 187.118 56.285Z" fill="#BF9475"/>
<path d="M20.315 91.0235C20.6444 90.8037 20.8641 90.5838 21.0837 90.254C21.5229 89.8143 21.3033 89.3746 20.7543 89.2646C20.4248 89.1547 19.9856 89.1547 19.5463 89.1547C17.5697 89.2646 15.7029 88.9348 13.7263 88.8249C10.9811 88.715 8.2358 88.715 5.71014 90.1441C4.2826 91.0235 2.85506 91.903 1.42752 92.8924C0.988273 93.2222 0.549029 93.552 0.219596 93.9917C-0.219648 94.7612 -2.58409e-05 95.3109 0.768651 95.6407C1.31771 95.8605 1.86676 95.7506 2.41582 95.6407C4.72185 95.091 6.47882 93.8818 8.12599 92.2328C8.67504 91.6831 9.2241 91.5732 9.99277 91.7931C9.66334 92.2328 9.33391 92.1229 9.00447 92.3427C8.12599 92.7824 7.46712 93.442 7.35731 94.4314C7.2475 95.5307 7.57693 95.7506 8.67504 95.6407C10.7615 95.4208 12.738 94.7612 14.8245 94.1016C16.6912 93.442 18.4482 92.0129 20.315 91.0235ZM2.306 94.3215C1.97657 94.4314 1.31771 94.7612 1.20789 94.3215C0.988273 93.9917 1.53733 93.6619 1.86676 93.442C3.51393 92.5626 5.16109 91.5732 6.69844 90.3639C6.80826 90.254 7.02788 90.0341 7.35731 90.254C5.81996 91.903 4.2826 93.442 2.306 94.3215ZM8.2358 90.254C9.99277 89.4845 11.6399 89.4845 13.3969 89.8143C12.2988 91.0235 10.432 91.2434 8.2358 90.254ZM16.252 90.6937C14.0558 92.8924 12.0792 93.7718 9.55353 94.1016C9.88296 92.6725 14.1656 90.4739 16.252 90.6937Z" fill="#BF9475"/>
<path d="M18.558 83.768C17.4598 84.0978 16.5814 84.8674 15.9225 85.8567C15.5931 86.4064 15.5931 86.8461 16.3617 86.8461C18.558 87.066 20.6444 87.2859 22.8406 87.2859C25.3662 87.2859 27.7821 86.6263 30.1979 86.4064C31.8451 86.1865 33.4922 85.7468 35.0296 86.8461C35.359 87.066 35.6885 86.8461 36.0179 86.6263C36.2375 86.4064 36.567 86.0766 36.4571 85.7468C36.3473 85.3071 35.9081 85.417 35.5787 85.417C35.2492 85.3071 35.0296 85.3071 34.7002 85.3071C32.7236 85.0872 31.5156 83.9879 30.9666 82.1191C30.5273 80.6899 29.7587 79.5906 28.1115 79.2608C27.5625 79.1509 27.0134 79.041 26.5742 79.5906C26.1349 80.1403 25.9153 80.7999 26.2447 81.4595C26.5742 82.3389 27.1232 82.9985 27.8919 83.5482C28.3311 83.878 28.6606 84.3177 28.7704 84.8674C28.0017 84.8674 27.3428 84.6475 26.684 84.3177C24.0485 83.1084 21.3032 83.1084 18.558 83.768ZM28.5508 82.9985C28.2213 82.6687 27.8919 82.4489 27.6723 82.0091C27.3428 81.4595 26.7938 80.9098 27.4526 80.3602C28.2213 79.7006 28.4409 80.6899 28.7704 81.0197C29.7587 81.8992 30.4175 82.8886 30.747 84.2078C30.1979 83.5482 29.2096 83.5482 28.5508 82.9985ZM26.4643 86.1865C24.2681 86.4064 22.1817 86.4064 19.9855 86.1865C19.7659 86.1865 19.3266 86.1865 19.2168 85.8567C19.107 85.417 19.4364 85.3071 19.7659 85.1972C21.6327 83.9879 23.6093 83.9879 25.6957 84.6475C26.5742 84.9773 27.4526 85.3071 28.5508 85.527C27.6723 86.0766 27.0134 86.1865 26.4643 86.1865Z" fill="#BF9475"/>
<path d="M161.312 98.3889C161.093 98.3889 160.983 98.169 160.873 98.0591C160.653 97.6194 160.543 97.0697 160.543 96.5201C160.434 95.3108 160.104 94.2115 159.445 93.2221C159.116 92.7824 158.896 92.4526 158.347 92.7824C157.798 93.1122 158.018 93.442 158.128 93.8817C158.786 95.3108 159.445 96.7399 159.994 98.169C160.104 98.4988 160.434 98.8286 160.653 99.1584C161.202 99.818 161.861 99.7081 162.191 98.8286C162.41 98.279 162.52 97.7293 162.52 97.0697C162.081 94.6512 161.422 92.2327 159.885 90.144C159.665 89.8142 159.555 89.2646 159.006 89.5944C158.457 89.9242 158.896 90.254 159.006 90.5838C159.885 92.2327 160.543 93.9916 161.093 95.7505C161.312 96.4101 161.422 97.0697 161.312 97.7293C161.532 98.0591 161.532 98.279 161.312 98.3889Z" fill="#BF9475"/>
<path d="M189.863 89.1547C188.875 88.9348 187.887 88.7149 187.008 88.1653C185.032 87.066 182.945 86.6262 180.859 86.5163C180.42 86.5163 180.2 86.5163 179.98 86.4064C179.651 86.4064 179.321 86.5163 179.321 86.8461C179.321 87.1759 179.651 87.1759 179.87 87.2858C180.2 87.3958 180.639 87.5057 180.969 87.5057C184.702 88.1653 188.216 89.0447 191.73 90.4739C191.95 90.5838 192.059 90.5838 192.169 90.4739C192.279 90.254 192.169 90.0341 191.95 89.9242C191.291 89.7043 190.632 89.2646 189.863 89.1547Z" fill="#BF9475"/>
<path d="M182.725 57.6043C182.616 58.044 182.945 58.2639 183.384 58.3738C184.153 58.5937 184.922 58.9235 185.69 59.1433C186.459 59.3632 187.228 59.5831 187.996 59.5831C188.545 59.5831 189.094 59.4731 189.204 58.8135C189.314 58.2639 189.094 57.8242 188.436 57.6043C187.996 57.4944 187.667 57.2745 187.228 57.1646C187.008 57.0546 186.788 56.9447 186.679 57.2745C186.569 57.4944 186.788 57.6043 187.008 57.7142C187.557 57.9341 188.106 58.044 188.436 58.4837C187.228 58.5937 186.13 58.3738 185.141 57.9341C184.592 57.7142 184.153 57.3844 183.494 57.2745C183.274 57.2745 182.835 57.0546 182.725 57.6043Z" fill="#BF9475"/>
<path d="M75.9892 101.797C76.3187 101.027 76.6481 100.368 76.6481 99.4883C76.6481 99.0485 76.4285 98.9386 75.9892 98.9386C75.0009 98.9386 74.0126 100.588 74.4519 101.467C74.6715 101.797 74.8911 101.907 75.3304 101.907C75.55 102.017 75.8794 102.017 75.9892 101.797Z" fill="#BF9475"/>
<path d="M196.232 91.9029C195.793 91.4632 195.244 91.3533 194.695 91.1334C194.475 91.1334 194.365 91.3533 194.256 91.4632C194.146 91.9029 194.475 92.1228 194.805 92.3427C195.793 92.8923 196.781 93.3321 197.66 93.8817C197.879 93.9917 198.099 94.1016 198.209 93.8817C198.428 93.6619 198.099 93.442 197.989 93.442C197.33 93.0023 196.781 92.4526 196.232 91.9029Z" fill="#BF9475"/>
<path d="M113.545 131.478C98.6102 131.478 85.3231 121.694 76.648 106.524C76.4284 106.744 76.099 106.964 75.7695 107.183C84.5544 122.574 98.171 132.468 113.435 132.468C126.063 132.468 137.593 125.652 146.158 114.659C145.939 114.439 145.719 114.109 145.5 113.779C137.154 124.663 125.953 131.478 113.545 131.478Z" fill="#BF9475"/>
<path d="M113.544 0.989386C128.918 0.989386 142.535 11.213 151.1 27.1532C151.319 26.8234 151.539 26.4936 151.869 26.2737C142.974 10.3336 129.138 0 113.544 0C89.3861 0 69.4005 24.6247 65.9963 56.5049C66.3258 56.5049 66.765 56.5049 67.0944 56.6149C70.3888 25.1744 89.9351 0.989386 113.544 0.989386Z" fill="#BF9475"/>
<path d="M90.3744 70.906C89.3861 70.0265 88.837 68.8173 88.9468 67.2782C88.9468 66.5087 89.0567 65.7392 89.3861 64.7498C90.2646 61.6717 92.0215 58.7036 94.657 55.6255C97.2925 52.5474 100.257 50.3488 103.662 48.6998C105.968 47.6005 108.164 47.0508 110.031 47.0508C110.799 47.0508 111.568 47.1607 112.117 47.3806C112.886 47.6005 113.545 47.9303 114.094 48.37C114.752 48.8097 115.192 49.3594 115.521 49.7991L115.741 50.1289L116.07 49.5792C116.619 48.6998 117.388 47.8203 118.266 46.9409C119.145 46.0614 120.133 45.2919 121.121 44.6323C121.561 44.3025 122.11 44.0826 122.659 43.7529C123.208 43.533 123.647 43.3131 123.977 43.2032C124.416 43.0933 124.635 43.0933 124.745 43.0933C125.184 43.0933 125.514 43.2032 125.734 43.4231C125.953 43.6429 126.063 43.9727 126.063 44.3025C126.063 45.072 125.624 45.8416 124.745 46.721C123.867 47.6005 122.769 48.37 121.451 48.9196C120.353 49.4693 119.364 49.6892 118.596 49.6892C117.937 49.6892 117.498 49.4693 117.278 49.1395L117.058 48.9196L116.729 49.4693C116.18 50.3488 115.96 50.8984 115.851 51.1183C115.741 51.3381 115.741 51.4481 115.631 51.4481C115.521 51.4481 115.411 51.4481 115.301 51.3381C115.192 51.2282 115.082 51.1183 115.082 50.8984C115.192 50.5686 114.972 50.1289 114.533 49.4693C114.094 48.8097 113.545 48.37 112.995 48.1501C112.227 47.7104 111.238 47.4905 110.031 47.4905C108.932 47.4905 107.834 47.6005 106.736 47.9303C104.65 48.5898 102.563 49.6892 100.367 51.2282C98.171 52.7673 96.1944 54.6361 94.4374 56.7248C92.6804 58.8135 91.3627 60.9022 90.4842 63.1008C89.8253 64.6399 89.4959 66.069 89.4959 67.3882C89.4959 68.5974 89.7155 69.5868 90.2646 70.3563C90.7038 67.8279 93.2295 64.3101 97.8415 59.8029C99.7083 57.9341 101.905 56.5049 104.32 55.2957C106.736 54.0864 108.932 53.5368 111.019 53.5368C112.337 53.5368 113.435 53.8666 114.423 54.5262C115.521 55.2957 116.07 56.395 116.07 57.7142C116.07 58.7036 115.741 59.693 115.082 60.7923C114.423 62.0015 113.325 63.3207 111.897 64.7498C110.47 66.1789 108.932 67.2782 107.175 68.2676C106.736 68.5974 105.968 68.9272 104.979 69.4769C103.991 69.9166 103.112 70.3563 102.344 70.5762C100.806 71.1259 99.3789 71.5656 98.171 71.7855C96.963 72.0053 95.7551 72.1152 94.5472 72.1152C92.9 72.2252 91.3627 71.7855 90.3744 70.906ZM98.5004 71.3457C100.148 70.906 101.905 70.3563 103.662 69.5868C105.418 68.8173 107.066 67.9378 108.383 67.0584C109.701 66.069 111.019 65.0796 112.117 63.8704C113.215 62.6611 114.094 61.5618 114.752 60.5724C115.301 59.583 115.521 58.5936 115.631 57.6043C115.631 56.8347 115.411 56.0652 115.082 55.5156C114.643 54.9659 114.094 54.5262 113.215 54.4162C112.446 54.1964 111.788 54.1964 111.348 54.1964C109.152 54.1964 106.736 54.856 104.101 56.2851C101.465 57.7142 99.0495 59.4731 96.963 61.6717C95.3159 63.3207 93.8883 64.9697 92.7902 66.6187C91.6921 68.2676 91.0333 69.4769 90.9234 70.2464C90.9234 70.4663 90.9234 70.5762 90.9234 70.5762L91.4725 70.4663C91.5823 70.4663 91.6921 70.3563 91.8019 70.3563C91.9117 70.3563 92.0215 70.3563 92.1314 70.4663C92.2412 70.4663 92.2412 70.5762 92.351 70.6861C92.351 70.7961 92.2412 70.7961 91.9117 70.906C91.5823 71.0159 91.3627 71.0159 91.2529 71.0159H90.9234L91.4725 71.2358C92.2412 71.5656 93.3393 71.7855 94.5472 71.7855C95.6453 71.7855 96.963 71.6755 98.5004 71.3457ZM120.682 48.9196C121.561 48.5898 122.439 48.1501 123.318 47.4905C123.977 47.0508 124.526 46.3912 124.965 45.8416C125.404 45.182 125.624 44.7422 125.624 44.3025C125.624 43.9727 125.404 43.7529 125.075 43.7529C124.416 43.7529 123.208 44.1926 121.671 45.182C120.902 45.6217 120.133 46.2813 119.255 47.0508C118.376 47.8203 117.937 48.2601 118.047 48.37C118.047 48.37 118.047 48.5899 117.937 48.8097C117.827 49.0296 117.717 49.2494 117.717 49.2494C117.717 49.3594 117.717 49.3594 117.827 49.3594C117.937 49.3594 118.047 49.3594 118.266 49.3594C119.035 49.4693 119.804 49.2494 120.682 48.9196Z" fill="#BF9475" stroke="#C9A88B" stroke-width="0.25" stroke-miterlimit="10"/>
<path d="M92.0216 86.7362C91.5823 85.7468 91.2529 84.5375 91.3627 83.2184C91.3627 81.7893 91.6921 80.2502 92.351 78.7112C93.0099 77.1721 93.8884 75.6331 95.0963 74.3139C97.2925 71.6755 100.038 69.5868 103.222 67.9379C106.407 66.2889 109.701 65.2995 113.105 65.0796C114.313 65.0796 115.192 64.9697 115.851 64.9697C118.047 64.9697 119.914 65.4094 121.341 66.069C122.878 66.7286 123.757 67.8279 124.086 69.257C124.196 69.257 124.306 69.0372 124.526 68.8173C124.745 68.5975 125.075 68.2677 125.404 68.0478C127.381 66.179 129.248 64.6399 131.114 63.4307C132.212 62.6611 133.091 62.2214 133.75 62.0016C134.299 61.7817 134.958 61.6718 135.726 61.6718C136.385 61.6718 137.154 61.8916 137.813 62.4413L138.142 62.6611L139.021 61.8916L140.229 60.9022C140.338 60.7923 140.558 60.6824 140.778 60.6824C140.887 60.6824 140.997 60.6824 141.107 60.7923C141.217 60.9022 141.327 60.9022 141.327 60.9022C141.327 61.0122 141.217 61.1221 140.997 61.4519C140.778 61.7817 140.668 61.8916 140.558 61.8916C140.338 62.0016 140.009 62.2214 139.46 62.7711C138.911 63.2108 138.691 63.5406 138.691 63.6505C138.581 63.7605 138.472 63.8704 138.362 63.8704C137.374 64.7498 136.385 65.6293 135.287 66.7286C131.663 70.1365 128.259 73.6543 124.965 77.1721L123.757 78.6012C122.549 79.8105 122 80.4701 122.11 80.4701C125.734 77.5019 128.479 75.3033 130.455 73.7642C132.432 72.2252 134.299 71.016 136.056 69.9166C136.824 69.4769 137.264 69.257 137.483 69.257C137.703 69.257 137.813 69.367 137.813 69.4769C137.813 69.5868 137.703 69.8067 137.374 70.1365C135.617 72.1153 134.079 73.8742 133.091 75.4132C130.016 79.8105 128.479 83.3283 128.479 86.0766C128.479 87.2858 128.808 88.1653 129.577 88.605L130.565 88.9348C130.895 89.0448 131.114 89.0447 131.224 89.1547C131.334 89.2646 131.444 89.2646 131.334 89.3745C131.224 89.4845 131.005 89.4845 130.455 89.3745C129.906 89.2646 129.577 89.1547 129.138 88.9348C128.04 88.3852 127.491 87.3958 127.6 85.9667C127.6 85.1971 127.82 84.2078 128.149 83.1084C129.357 79.3708 131.773 75.4132 135.397 71.016C133.86 72.0053 132.212 73.2146 130.455 74.5338C128.149 76.1827 125.185 78.7112 121.561 82.0091C121.231 82.229 121.012 82.4489 120.682 82.7786C120.353 82.9985 120.243 83.2184 120.133 83.2184C120.023 83.2184 119.914 83.2184 119.804 83.1084C119.694 83.1084 119.694 82.9985 119.694 82.8886C119.694 82.7786 119.914 82.4488 120.353 81.8992C121.78 80.0303 123.867 77.6119 126.392 74.7536C129.028 71.8954 131.883 69.0372 134.958 66.069L135.946 65.0796C136.166 64.8598 136.495 64.53 136.934 64.0903C137.374 63.6505 137.593 63.4307 137.703 63.3207C137.813 63.2108 137.703 63.2108 137.703 63.1009C137.374 62.6611 136.824 62.5512 136.275 62.4413C135.177 62.4413 133.86 62.9909 132.212 63.9803C131.334 64.6399 130.455 65.1896 129.577 65.9591C128.698 66.6187 127.6 67.6081 126.173 69.0372L124.526 70.5762C124.526 73.1047 123.098 75.8529 120.463 78.8211C117.827 81.7893 114.643 84.3177 110.909 86.4064C107.176 88.4951 103.881 89.4845 101.026 89.4845H99.8182C98.8299 89.8143 97.8416 89.9242 96.8533 89.9242C95.865 89.9242 95.0963 89.7043 94.4374 89.3745C93.3393 88.4951 92.5706 87.7256 92.0216 86.7362ZM96.414 89.2646C97.0729 89.2646 97.8416 89.1547 98.6102 88.9348C97.5121 88.715 96.7435 88.3852 96.1944 87.8355C95.6453 87.2858 95.4257 86.5163 95.4257 85.6369C95.4257 85.1971 95.5355 84.8673 95.6453 84.3177C96.0846 82.9985 96.9631 81.6793 98.2808 80.2502C99.2691 79.1509 100.697 77.9416 102.673 76.6225C104.54 75.3033 106.407 74.204 108.164 73.3245C109.921 72.4451 111.129 72.1153 111.788 72.2252C111.897 72.2252 112.117 72.3351 112.227 72.4451C112.337 72.555 112.446 72.6649 112.446 72.7749C112.446 72.7749 112.337 72.8848 112.227 72.7749C112.117 72.7749 112.007 72.7749 111.897 72.6649C111.788 72.555 111.678 72.555 111.568 72.555C111.239 72.555 110.47 72.7749 109.482 73.1047C108.493 73.5444 107.395 73.9841 106.297 74.6437C101.026 77.6119 97.8416 80.58 96.414 83.4382C95.9748 84.3177 95.7552 84.9773 95.7552 85.6369C95.7552 86.2965 95.865 86.8461 96.3042 87.2858C96.6336 87.7256 97.1827 88.0554 97.9514 88.2752C98.6102 88.4951 99.0495 88.4951 99.1593 88.4951C99.2691 88.4951 99.5985 88.3852 100.038 88.2752C102.563 87.2858 105.309 85.5269 108.493 83.1084C111.678 80.6899 115.741 77.0622 120.792 72.2252L123.428 69.6968C123.208 68.2677 122.439 67.1683 121.122 66.5088C119.804 65.8492 118.157 65.5194 116.07 65.4094C113.545 65.4094 110.689 65.7392 107.505 66.6187C104.43 67.4981 101.685 69.0372 99.0495 71.016C96.414 72.9947 94.4374 75.4132 93.0099 78.1615C92.1314 79.8105 91.6922 81.5694 91.5823 83.3283C91.5823 84.7574 91.802 85.9667 92.4608 87.066C93.1197 88.1653 93.9982 88.8249 95.3159 89.0448C95.7552 89.1547 95.9748 89.2646 96.414 89.2646ZM101.356 88.715C102.014 88.715 102.783 88.605 103.662 88.3852C106.407 87.7256 109.372 86.2965 112.556 84.3177C115.741 82.229 118.376 80.0303 120.463 77.5019C122.549 74.9735 123.647 72.6649 123.757 70.6862L123.098 71.3457C122.329 72.1153 121.231 73.1047 119.694 74.5338C118.157 75.9629 116.839 77.1721 115.631 78.2714C110.14 83.1084 105.638 86.4064 102.014 88.1653L100.916 88.715H101.356Z" fill="#BF9475" stroke="#BF9475" stroke-width="0.25" stroke-miterlimit="10"/>
</g>
<defs>
<clipPath id="clip0">
<rect width="244" height="145" fill="white"/>
</clipPath>
</defs>
</svg>
