<svg width="580" height="124" viewBox="0 0 580 124" fill="none" xmlns="http://www.w3.org/2000/svg">
<g clip-path="url(#clip0)">
<path d="M238.302 67.707C238.042 67.9664 237.521 68.2258 237 68.4852C236.479 69.004 236.219 69.2635 235.958 69.2635C234.656 70.3011 233.614 71.0794 232.573 71.8576C223.457 78.6024 216.425 82.2342 211.477 82.753C210.175 82.753 209.393 82.753 208.873 82.2342C208.352 81.7153 208.352 80.6777 209.133 79.1212C210.175 76.7865 212.519 74.1923 216.425 71.3388C223.718 66.4099 226.322 62.7781 224.499 59.9245C224.239 59.4057 223.718 59.1463 223.197 59.1463C220.853 58.6275 215.905 60.7028 208.091 65.6317L206.529 66.6693C207.31 65.8911 208.091 64.8534 209.133 63.8158C210.175 62.7781 211.217 61.9999 211.737 61.481C215.123 58.6275 219.29 56.8116 223.718 55.7739C223.978 55.7739 224.239 55.7739 224.499 55.5145C225.02 55.5145 226.322 55.2551 226.322 55.2551V54.7363H225.02C223.718 54.7363 222.416 54.7363 220.853 54.9957C217.207 55.2551 212.519 57.8492 206.789 62.2593C204.445 64.3346 201.841 66.9287 199.497 69.7823C199.236 69.7823 199.236 69.7823 198.976 70.0417C197.153 70.5605 195.069 70.3011 193.246 69.5229C194.288 66.1505 194.288 63.8158 192.725 63.0375C191.944 62.5187 190.642 62.2593 189.6 64.0752C189.079 64.8534 188.558 65.6317 188.558 66.6693V66.9287C188.298 66.9287 188.037 66.6693 188.037 66.6693C186.475 66.6693 184.391 68.2258 181.526 71.3388C179.443 72.8953 177.099 74.7112 174.234 76.7865C166.681 82.2342 163.556 83.0124 162.254 82.4936C161.733 82.2342 161.212 81.7153 161.212 80.9371C160.952 79.3806 162.254 77.5647 164.858 75.23C167.463 72.3764 171.369 69.2635 176.318 65.8911C179.443 63.5563 180.745 61.2216 179.703 59.1463C178.662 57.071 176.578 56.8116 173.192 58.1086C170.067 59.1463 166.16 61.481 161.993 65.3722C160.691 66.6693 159.649 67.4476 159.129 68.2258C141.419 83.0124 125.532 92.6107 111.208 96.2425C105.218 97.799 100.009 98.0584 96.1021 97.0208C89.0702 95.4643 85.1636 90.7948 83.8614 83.0124C82.5592 75.23 84.3823 67.4476 89.3307 60.184C93.4977 53.4392 99.2274 47.7321 106.52 43.5814C113.812 39.1714 121.886 36.5773 130.48 35.5396C134.387 35.2802 137.252 35.799 138.293 36.8367C139.596 38.1337 140.637 38.3932 141.419 38.1337C142.2 38.1337 142.721 37.8743 142.981 37.3555C143.242 37.0961 143.502 36.5773 142.981 35.799C142.721 35.2802 142.2 34.7614 141.419 34.5019C140.116 33.7237 139.335 32.686 139.335 31.6484C139.075 29.3137 140.116 26.2007 142.721 23.0877C143.242 22.3095 144.284 21.2718 145.065 20.4936L158.868 19.7153C165.9 18.6777 172.151 16.8618 176.839 14.527C181.787 11.9329 184.391 9.33876 184.391 6.22579C183.87 3.37224 181.266 2.07516 176.839 2.07516C172.411 2.07516 167.202 3.37224 161.212 5.18814C155.222 7.26345 150.534 9.33876 147.409 11.6735C144.804 13.4894 142.2 15.8241 139.596 18.6777H136.47C132.303 18.9371 123.969 17.64 111.729 15.3053C102.353 13.7488 93.4977 12.9706 84.9032 12.9706C65.8911 12.9706 49.4833 16.3429 35.9405 23.3471C21.6163 30.3513 10.9382 40.7279 3.90634 54.2174C2.08326 57.5898 1.0415 60.7028 0.260182 63.5563C-0.000257552 64.3346 -0.000257552 65.1128 0.520622 65.3722H0.781063C1.0415 65.3722 1.30194 65.3722 2.3437 61.9999C5.46898 54.2174 9.37558 47.2132 14.3239 41.7655C19.2723 36.0584 24.7415 31.389 30.2108 27.7572C43.2328 19.7153 59.3801 15.3053 77.8713 14.2676C85.1636 14.0082 94.0186 14.527 104.436 15.8241C106.78 16.0835 110.426 16.6024 115.114 17.64C119.802 18.6777 123.709 19.1965 126.313 19.4559C130.48 19.9747 134.647 20.2342 138.033 19.9747L137.252 21.5312C135.689 25.163 135.429 28.7948 135.949 32.686L130.741 32.4266C126.574 32.4266 122.927 32.686 120.063 33.4643C113.291 34.7614 107.041 37.3555 101.05 41.2467C95.0603 45.1379 90.3724 50.0668 86.7263 55.5145C81.257 64.0752 79.1735 72.8953 80.2153 81.4559C80.9966 88.2007 84.3823 93.1296 89.5911 96.2425C92.9768 98.3178 96.8834 99.3555 101.311 99.3555C104.436 99.3555 107.822 98.8367 111.729 97.799C124.751 94.4266 140.637 85.0877 159.129 70.3011C159.389 70.3011 159.649 70.0417 160.17 69.5229C163.817 66.1505 167.723 63.0375 171.63 60.4434C173.192 59.4057 174.755 58.8869 176.318 58.8869C177.099 58.8869 177.62 58.8869 177.62 59.1463C177.62 59.4057 177.88 59.6651 176.839 60.9622C175.797 62.2593 173.192 64.3346 169.025 67.1881C164.598 70.0417 161.733 72.6358 160.431 74.9706C159.91 76.0082 159.649 77.0459 159.389 78.343C159.129 79.64 159.649 80.9371 160.17 82.2342C160.952 83.2718 161.993 84.0501 163.296 84.0501C166.421 84.0501 171.369 81.4559 178.141 76.5271C177.099 78.343 176.578 79.64 176.839 80.6777C177.099 82.2342 178.141 83.0124 179.703 83.0124C179.964 83.0124 180.224 83.0124 180.485 83.0124C181.526 83.0124 183.35 82.2342 186.214 80.1589C188.558 78.0835 190.121 76.2676 191.423 74.7112C192.204 73.6735 192.986 72.6358 193.507 71.3388C195.33 71.8576 196.892 72.117 198.715 72.117C198.195 72.8953 197.413 73.9329 196.892 74.7112C185.433 90.7948 177.359 101.431 172.932 106.1C163.556 116.217 153.92 121.665 144.544 122.443C143.242 122.443 142.46 122.184 141.94 121.925L141.419 121.406L140.898 121.925V122.184C140.898 122.962 141.419 123.74 143.242 123.74C146.627 123.74 150.274 122.962 154.18 121.665C159.649 119.849 164.077 117.515 167.723 114.661C171.369 111.807 175.536 107.657 180.224 102.468C181.266 101.171 183.87 97.799 187.517 92.8701C191.163 87.9413 194.809 83.2718 197.934 79.1212C201.32 74.9706 203.403 72.3764 204.185 71.5982C206.529 69.2635 208.612 67.4476 210.435 66.1505C219.03 60.7028 221.895 59.9245 223.197 60.184C223.457 60.184 223.457 60.4434 223.718 60.4434C223.978 60.7028 223.978 61.481 221.895 63.5563C220.332 65.3722 218.509 66.9287 216.425 68.2258C210.956 71.8576 207.831 75.4894 207.05 79.1212C206.529 81.7153 207.05 83.5312 209.133 84.0501C210.956 84.5689 213.561 84.5689 216.425 83.2718C224.239 80.1589 231.791 75.7488 238.823 69.5229C239.865 68.4852 239.865 68.2258 239.865 67.9664C239.865 67.707 239.865 67.1881 239.605 67.1881C238.823 67.4476 238.563 67.4476 238.302 67.707ZM191.163 70.8199C189.079 74.4517 186.735 77.5647 184.131 79.64C182.568 80.9371 181.266 81.4559 180.485 81.7153C180.224 81.7153 179.964 81.7153 179.703 81.9748C179.443 81.9748 179.182 81.7153 179.182 81.7153C178.922 81.4559 179.182 79.8994 183.35 74.7112C184.912 73.1547 186.214 71.5982 187.777 70.8199L189.34 69.7823C189.6 70.3011 190.121 70.5605 190.381 70.8199H191.163ZM192.204 65.8911V66.9287C192.204 67.1881 192.204 67.4476 192.204 67.9664C192.204 68.2258 192.204 68.4852 191.944 68.7446C191.944 69.004 191.944 69.2635 191.684 69.5229V69.7823C191.423 69.7823 191.163 69.5229 190.902 69.004C190.381 68.4852 190.381 67.4476 190.642 66.4099C190.642 65.8911 190.902 65.6317 191.163 65.3722C191.684 64.8534 191.684 64.8534 191.684 64.8534C191.684 64.8534 191.944 65.1128 191.944 65.3722C192.204 65.3722 192.204 65.6317 192.204 65.8911ZM145.846 19.1965L146.107 18.6777C146.367 18.1588 147.409 17.3806 150.274 15.5647C152.618 14.0082 156.003 12.1923 160.431 10.117C167.723 6.74462 173.713 4.92872 178.141 4.92872C179.443 4.92872 180.745 5.18814 182.047 5.44755C182.568 5.96638 183.089 6.48521 182.308 7.78228C181.526 9.07935 181.006 9.85759 180.224 10.3764C178.401 11.9329 176.318 13.23 174.234 14.2676C167.984 16.8618 161.473 18.4183 154.701 18.6777L145.846 19.1965Z" fill="#BF9475"/>
<path d="M300.287 68.4853C300.287 68.4853 300.287 68.2259 299.766 67.9665C299.505 67.9665 298.724 67.9665 295.338 71.0794C282.577 82.2342 274.503 87.9414 271.638 87.9414C271.117 87.9414 270.597 87.6819 270.336 87.4225C270.076 87.1631 270.076 86.6443 270.336 85.866C271.117 83.0125 273.722 79.6401 277.889 76.0083L282.056 71.8577C282.577 71.3388 283.879 70.0418 282.837 69.2635C281.795 68.4853 280.233 69.0041 277.889 71.0794C274.764 73.6736 272.159 75.7489 269.815 76.7865C264.346 79.6401 263.304 79.1213 263.304 78.8619C263.304 78.8619 263.044 78.6024 264.606 76.7865C265.648 75.4895 266.95 74.1924 268.773 72.6359C270.597 71.0794 271.638 70.0418 272.159 69.5229C272.941 68.4853 273.461 67.4476 273.201 66.6694C273.201 66.1506 272.68 65.8911 272.159 65.6317C271.899 65.3723 271.378 65.3723 270.857 65.6317C270.336 65.8911 270.076 66.1506 269.815 66.41C269.555 66.6694 269.294 66.9288 269.034 67.4476C268.774 67.707 268.513 67.9665 268.253 68.2259C264.346 72.1171 262.262 74.4518 261.742 75.4895C260.7 77.5648 260.439 79.1213 261.481 79.8995C262.783 81.1966 266.169 80.4183 271.378 77.8242L270.857 78.343C267.471 83.0125 266.43 86.3849 268.253 88.4602C268.773 89.2384 269.815 89.7572 270.857 89.7572C271.378 89.7572 272.159 89.7573 272.941 89.4978C276.587 88.4602 283.098 84.0501 292.213 76.2677C296.38 72.6359 298.724 70.5606 299.505 70.0418C300.287 69.2635 300.287 68.7447 300.287 68.4853Z" fill="#BF9475"/>
<path d="M478.168 96.7614C477.907 96.7614 477.386 96.7614 476.345 97.5396C470.875 100.912 466.448 102.987 463.062 103.766C457.072 105.063 452.124 103.766 448.738 100.393C445.352 97.0208 444.05 92.6108 444.832 87.4225C445.092 86.1254 445.352 84.8283 445.873 83.2719C446.394 81.7154 446.655 80.4183 447.175 79.3807C447.696 78.343 448.217 77.0459 448.999 75.4894C449.78 73.933 450.561 72.6359 451.082 71.8576C451.603 71.0794 452.384 69.7823 453.426 67.9664C454.468 66.1505 455.249 65.1129 455.77 64.594C456.291 64.0752 457.072 62.7781 458.374 60.9622C459.677 59.1463 460.458 57.8493 460.718 57.5899C465.406 51.1045 468.011 47.7321 468.532 46.9539C469.573 45.9162 470.615 44.3597 472.438 42.5438C474.001 40.4685 475.563 38.912 477.126 37.0961C478.689 35.5397 479.73 33.9832 480.772 32.4267C485.981 25.9413 485.721 25.6819 485.46 25.4225C485.46 25.4225 485.2 25.1631 484.939 25.1631C484.418 25.1631 483.116 25.4225 478.168 28.7949C477.907 29.0543 474.782 31.389 469.052 36.0585C449.78 51.3639 435.456 62.7781 426.08 69.5229C424.517 70.82 422.434 72.6359 419.569 74.9706C416.704 77.3053 414.881 78.8618 413.579 79.8995C411.756 81.456 409.412 83.0125 407.068 84.5689C402.119 87.1631 400.557 87.6819 400.036 87.6819C399.515 87.6819 399.254 87.4225 398.994 86.9037C398.473 85.6066 399.255 82.753 401.338 78.343C402.64 75.7489 404.203 73.6735 405.505 71.5982C410.714 64.5941 417.746 56.0334 426.601 45.3974C436.758 32.9455 444.311 23.0878 448.999 16.6024L448.478 16.0836L444.571 20.2342C427.642 37.8744 414.62 52.1422 405.766 62.7781C400.296 69.5229 396.65 75.23 395.087 79.6401C394.046 83.5313 394.306 86.1254 395.869 87.9413C397.952 90.2761 400.817 90.2761 404.203 88.2007C404.463 88.2007 404.984 87.9413 416.704 78.8618C418.267 77.5648 424.517 72.6359 435.195 64.3346C445.873 56.0334 454.207 49.548 459.937 45.138L462.021 43.5815C466.708 39.9497 469.834 37.3556 471.917 35.7991L460.458 49.548C452.905 58.6275 447.175 67.707 443.529 76.5271C439.883 85.3472 439.883 92.6108 443.79 98.3179C446.394 101.95 449.78 104.284 453.947 105.322C455.51 105.581 457.072 105.841 458.635 105.841C461.239 105.841 463.844 105.322 466.448 104.284C469.052 103.506 472.959 101.431 477.907 98.3179L478.168 98.0585C478.689 97.0208 478.428 96.7614 478.168 96.7614Z" fill="#BF9475"/>
<path d="M420.09 41.5062C424.777 36.5773 427.903 33.205 429.465 31.6485C433.632 26.7196 437.279 23.3472 439.623 21.0125C441.967 18.6778 443.79 17.1213 445.092 16.0836L450.822 12.1924L460.979 9.33885C464.364 7.52295 466.187 6.74471 466.448 6.4853C469.052 4.92881 470.355 3.37233 470.355 1.81584C470.355 1.55643 470.355 1.29701 470.094 1.0376C470.094 0.778185 469.834 0.518771 469.313 0.259357C467.49 -0.518886 461.76 2.33467 452.384 8.3012C448.478 10.8953 441.446 12.4518 431.289 13.2301C422.954 13.7489 413.839 13.4895 404.463 12.4518C395.087 11.4142 384.67 10.1171 373.21 8.3012C362.011 6.4853 352.896 5.18823 346.646 4.6694C331.019 3.11291 317.216 3.11291 305.496 4.15057C286.484 5.70706 269.816 10.8953 256.012 19.456C248.72 23.3472 242.209 29.3137 236.479 36.3179C230.75 43.3221 227.624 50.5857 227.624 57.5899C227.624 59.4058 227.885 60.7029 228.406 61.9999C228.927 63.297 229.447 64.0753 229.968 64.3347C230.489 64.8535 231.01 64.8535 231.271 64.8535H231.791H232.052C232.573 64.5941 232.573 64.3347 232.573 64.0753C232.573 63.5564 232.312 63.0376 231.271 62.2594C229.187 60.184 229.447 55.774 231.791 48.7698C233.615 43.5815 237 38.3932 241.428 33.7238C252.627 22.0502 267.211 13.7489 284.921 9.07944C301.589 4.6694 322.164 3.89116 346.385 6.4853C350.813 7.00413 359.928 8.3012 373.471 10.3765C387.014 12.4518 398.473 13.7489 407.588 14.5271C416.964 15.3054 426.08 15.3054 434.935 14.5271C438.06 14.2677 441.706 13.7489 445.352 12.7112L442.227 15.046C438.581 17.6401 432.591 23.6066 423.996 32.4267C410.193 46.9539 400.296 57.0711 394.566 62.2594C379.982 74.4518 367.22 83.5313 356.542 89.2384C345.864 95.205 333.623 99.615 320.341 102.728C317.737 103.247 314.872 103.766 312.007 103.766C307.84 104.284 304.454 104.025 301.85 103.247C299.766 102.469 298.464 101.431 297.943 99.8744C297.943 99.8744 297.683 99.615 297.683 98.8368C297.683 98.0585 297.422 97.5397 297.162 97.0209C296.901 96.2426 296.381 95.9832 295.86 95.9832C295.078 95.9832 294.557 96.2426 294.557 97.0209C294.557 97.5397 294.557 98.0585 294.818 98.8368C295.078 99.3556 295.339 99.8744 295.599 100.393C295.86 100.912 296.12 101.171 296.12 101.431C298.204 104.544 302.371 106.1 308.1 106.1C325.289 105.841 344.041 100.134 364.095 88.979C377.898 81.1966 393.004 69.0041 409.151 52.661C411.756 50.3263 415.141 46.4351 420.09 41.5062ZM453.686 9.59827L464.104 3.63174C467.229 2.07526 468.011 2.07526 468.531 2.07526C468.531 2.33467 468.271 2.8535 466.448 4.40998C464.885 5.70706 462.802 6.74471 460.718 7.52296C458.374 8.3012 456.03 9.07944 453.686 9.59827Z" fill="#BF9475"/>
<path d="M579.479 67.707C579.219 67.4476 578.698 67.707 577.917 68.2258L575.573 70.82C570.885 75.4894 566.718 79.1212 563.071 81.9748C556.3 86.9037 553.696 87.9413 552.393 87.6819C551.873 87.6819 551.612 87.4225 551.352 87.1631C551.091 86.3848 551.091 84.8284 553.175 80.4183C553.435 79.8995 553.956 79.1212 554.477 78.6024C554.998 77.8242 555.519 77.3053 556.3 76.5271C556.821 75.7489 557.342 75.23 557.863 74.7112C558.904 73.4141 559.425 72.3765 559.165 71.8576C559.165 71.5982 559.165 71.0794 559.686 70.3012C560.988 68.7447 561.248 67.4476 560.728 65.8911C560.467 65.1129 559.946 64.594 559.425 64.0752C558.123 63.5564 556.04 63.8158 553.175 65.1129C551.352 65.8911 549.529 66.9288 548.226 67.9664C547.966 67.9664 547.966 68.2258 547.706 68.2258C546.403 69.2635 545.101 70.3012 544.059 71.5982C531.037 83.5313 522.964 89.4978 519.838 89.4978C519.578 89.4978 519.578 89.4978 519.578 89.4978C519.578 89.2384 519.318 88.4601 520.88 85.866C521.662 84.8283 523.745 81.7154 527.391 76.7865C527.391 76.7865 528.433 75.7489 535.725 67.4476C535.986 66.9288 536.246 66.9288 536.246 66.6694C536.246 66.4099 535.986 66.1505 535.465 65.8911C534.944 65.3723 534.684 65.3723 534.684 65.3723C533.902 65.1129 533.381 65.1129 532.6 65.3723C531.819 65.6317 531.037 66.4099 530.256 67.1882C529.475 67.9664 528.954 68.4853 528.954 68.7447C525.829 71.3388 524.005 72.8953 523.485 73.4141C515.151 79.8995 513.588 79.8995 513.327 79.8995C513.327 79.8995 513.327 79.3807 513.848 78.8618C514.369 77.8242 514.63 77.5648 514.89 77.3053C515.671 76.0083 516.453 74.7112 517.494 73.6735C517.755 73.6735 518.276 73.1547 519.057 72.1171C519.838 71.3388 520.359 70.82 520.62 70.3012C521.141 69.7823 521.401 69.5229 521.401 69.0041C521.401 68.4853 521.401 68.2258 521.141 67.707C520.88 67.1882 520.359 67.1882 519.838 67.1882C519.318 67.1882 518.276 67.707 514.63 72.1171C513.848 73.1547 513.067 73.933 512.025 74.4518L509.421 76.2677C507.337 77.8242 505.775 78.8618 504.733 79.3807C501.868 80.6777 501.347 80.4183 501.087 80.1589C501.087 79.6401 501.608 78.343 504.472 74.7112C504.733 74.4518 505.775 73.4141 510.723 67.9664C511.504 66.9288 512.546 65.8911 513.327 64.8535L514.109 62.2593C514.109 61.9999 513.588 61.4811 512.807 61.4811C512.286 61.4811 511.765 61.4811 511.244 61.9999L506.035 67.707C503.952 70.0417 502.129 72.1171 500.826 74.1924C497.18 77.5648 494.055 80.4183 491.19 82.4936C484.419 87.4225 481.814 88.4601 480.512 88.2007C479.991 88.2007 479.731 87.9413 479.47 87.6819C479.21 86.9037 479.21 85.3472 481.293 80.9371C481.554 80.4183 482.075 79.6401 482.595 79.1212C483.116 78.343 483.637 77.8242 484.419 77.0459C484.939 76.2677 485.46 75.7489 485.981 75.23C487.023 73.933 487.544 72.8953 487.283 72.3765C487.283 72.1171 487.283 71.5982 487.804 70.82C489.106 69.2635 489.367 67.9664 488.846 66.4099C488.586 65.6317 488.065 65.1129 487.544 64.594C486.242 64.0752 484.158 64.3346 481.293 65.6317C476.605 67.707 472.959 70.3012 470.615 73.933C469.834 75.4894 469.313 77.0459 469.053 78.6024C469.053 80.1589 469.573 81.1966 470.615 81.7154C471.657 82.2342 473.22 81.9748 475.043 81.1966C475.824 80.9371 476.866 80.4183 478.428 79.3807C477.908 80.1589 477.647 81.1966 477.387 82.4936C476.866 84.3095 476.866 86.3848 477.387 88.2007C477.908 89.4978 478.949 90.276 480.512 90.276C481.293 90.276 482.075 90.0166 483.116 89.7572C485.2 89.2384 488.065 87.4225 491.711 84.3095C493.794 82.753 496.138 80.6777 498.482 78.6024C498.222 79.3807 498.222 79.8995 498.222 80.1589C498.222 80.9371 498.743 81.7154 499.524 82.4936C500.566 83.0124 502.128 82.4936 504.472 81.1966C505.775 80.6777 508.119 78.8618 511.504 76.5271L511.244 77.3053C510.202 79.1212 510.202 80.6777 511.244 81.9748C511.765 82.4936 513.327 82.2342 515.932 81.1966C516.192 80.9371 516.713 80.6777 518.276 79.6401C519.578 78.8618 520.62 78.0836 521.401 77.8242L524.787 75.23L522.703 78.0836C520.62 81.1966 519.057 83.7907 518.276 85.866C517.234 88.7196 517.234 90.7949 518.536 91.8325C518.797 92.092 519.318 92.3514 520.099 92.3514C522.703 92.3514 528.173 89.4978 541.715 77.3053C541.455 77.8242 541.455 78.6024 541.455 79.1212C541.455 80.6777 541.976 81.7154 543.018 82.2342C544.059 82.753 545.622 82.4936 547.445 81.7154C548.226 81.456 549.268 80.9371 550.831 79.8995C550.31 80.6777 550.05 81.7154 549.789 83.0125C549.268 84.8284 549.268 86.9037 549.789 88.7196C550.31 90.0166 551.352 90.7949 552.914 90.7949C553.696 90.7949 554.477 90.5355 555.519 90.276C557.602 89.7572 560.467 87.9413 564.113 84.8284C566.457 83.0125 569.062 80.9371 571.666 78.343L578.958 71.3388C580.261 70.3012 580.261 70.0417 580.261 69.7823C580 67.9664 579.74 67.9664 579.479 67.707ZM555.779 71.8576C554.737 72.6359 553.956 73.1547 553.696 73.4141C550.31 76.2677 549.789 76.5271 549.789 76.7865C547.445 78.343 546.664 78.8618 546.664 78.8618C544.32 79.6401 544.059 79.3807 543.799 79.3807C543.538 78.6024 543.799 77.0459 546.924 73.6735C549.529 70.82 552.133 68.4853 554.737 67.1882C557.863 65.3723 558.384 65.6317 558.644 65.8911C558.904 66.1505 559.165 66.4099 559.425 66.6694C559.686 67.4476 559.165 68.4853 558.123 69.7823C557.602 70.3012 556.821 71.0794 555.779 71.8576ZM483.377 71.8576C482.335 72.6359 481.554 73.1547 481.293 73.4141C477.908 76.2677 477.387 76.5271 477.387 76.7865C475.043 78.343 474.261 78.8618 474.261 78.8618C471.917 79.6401 471.657 79.3807 471.397 79.3807C471.136 78.6024 471.397 77.0459 474.522 73.6735C477.126 70.82 479.731 68.4853 482.335 67.1882C485.46 65.3723 485.981 65.6317 486.242 65.8911C486.502 66.1505 486.763 66.4099 487.023 66.6694C487.283 67.4476 486.763 68.4853 485.721 69.7823C485.2 70.3012 484.419 71.0794 483.377 71.8576Z" fill="#BF9475"/>
</g>
<defs>
<clipPath id="clip0">
<rect width="580" height="124" fill="white"/>
</clipPath>
</defs>
</svg>
