<svg width="540" height="121" viewBox="0 0 540 121" fill="none" xmlns="http://www.w3.org/2000/svg">
<path d="M106.609 113.188C117.674 114.799 129.92 113.188 143.455 108.139C156.99 103.09 170.096 96.2148 182.664 87.4062C200.926 75.2676 212.312 61.625 216.824 46.6934C219.939 36.2734 220.047 27.7871 217.254 21.0195C212.85 10.8145 204.041 4.58398 191.043 2.32812C185.672 1.25391 180.301 0.824219 175.037 0.931641C164.832 1.03906 153.23 3.50977 140.018 8.23633C131.316 11.5664 124.334 14.7891 118.855 17.6895C116.922 18.6562 113.807 19.0859 109.402 18.9785H88.1328C63.6406 18.6562 44.5195 21.6641 30.6621 27.7871C26.9023 29.3984 23.6797 31.0098 20.9941 32.8359C11.3262 39.1738 4.98828 46.1562 1.87305 53.5684C0.261719 57.3281 -0.167969 60.6582 0.583984 63.4512C0.90625 64.6328 1.33594 65.0625 2.08789 64.9551C2.19531 64.9551 2.19531 64.8477 2.08789 64.5254C1.76562 63.7734 1.55078 63.1289 1.44336 62.5918C1.33594 62.0547 1.44336 60.6582 1.76562 58.6172C2.08789 56.5762 2.83984 54.2129 3.80664 51.5273C5.20312 48.1973 8.42578 44.3301 13.4746 39.9258C22.3906 31.9766 34.6367 26.2832 50.2129 22.9531C62.1367 20.5898 76.6387 19.623 93.8262 20.0527C97.0488 20.1602 103.172 20.2676 112.088 20.2676L114.236 20.0527L108.758 23.8125C105.428 26.1758 99.627 30.9023 91.3555 37.8848C85.5547 43.041 79.6465 49.0566 73.6309 55.9316C61.0625 71.293 54.9395 83.3242 55.3691 91.8105C55.6914 93.8516 56.1211 95.4629 56.6582 96.4297C58.4844 99.6523 62.2441 101.156 67.8301 100.834C79.3242 100.297 90.1738 96.1074 100.594 88.373C111.014 80.6387 121.541 70.0039 132.283 56.3613C134.646 53.4609 137.225 49.916 140.018 45.834C142.811 41.752 145.496 37.9922 148.074 34.6621C150.652 31.332 153.875 27.8945 157.85 24.2422C162.576 20.0527 168.377 16.6152 175.252 13.9297C177.293 13.0703 178.904 12.4258 179.871 11.9961C182.557 10.5996 183.523 9.63281 182.664 8.88086C181.805 8.34375 178.904 9.20312 174.07 11.5664C170.525 12.9629 166.766 14.0371 162.684 14.5742L155.594 15.6484C139.373 17.4746 127.449 18.6562 119.607 19.1934L128.094 14.7891C137.654 10.2773 146.57 7.05469 154.949 5.12109C165.369 2.86523 175.037 2.00586 183.846 2.54297C192.762 3.50977 199.852 5.55078 205.33 8.66602C210.916 11.9961 214.461 17.4746 215.965 24.8867C217.361 32.4062 216.717 38.959 213.924 44.5449C208.445 57.7578 198.455 69.8965 184.061 81.0684C166.014 95.1406 149.148 104.379 133.465 108.568C126.053 110.609 118.748 111.684 111.443 111.791C105.965 111.576 101.99 110.609 99.3047 108.998C96.082 106.957 94.6855 104.379 95.1152 101.479C95.1152 101.156 95.0078 100.941 94.9004 100.834H94.4707C93.9336 101.156 93.6113 101.371 93.6113 101.693C93.5039 102.23 93.3965 102.768 93.3965 103.52L94.041 105.023C94.1484 105.775 94.793 106.85 95.7598 108.139C97.8008 110.502 101.453 112.221 106.609 113.188ZM72.2344 99.3301C66.1113 100.082 61.8145 99.4375 59.4512 97.5039C56.873 95.5703 56.0137 92.4551 56.873 88.0508C57.625 83.9688 58.9141 79.9941 60.8477 76.0195C64.1777 69.6816 69.6562 62.2695 77.498 53.5684C83.4062 47.0156 90.1738 40.4629 98.0156 33.9102C100.379 31.8691 103.709 29.3984 107.898 26.2832C113.162 22.8457 116.385 20.8047 117.566 20.2676L126.16 19.623C131.316 19.3008 135.184 19.0859 137.869 18.7637L164.188 16.1855L163.113 16.6152C156.775 21.2344 152.586 24.6719 150.545 26.9277C149.148 28.3242 147.107 30.5801 144.637 33.4805C142.166 36.4883 140.555 38.4219 139.803 39.2812C132.176 48.8418 126.268 56.1465 122.186 60.9805C117.137 66.8887 112.947 71.6152 109.51 75.375C106.072 79.1348 101.561 83.2168 96.082 87.5137C90.4961 91.8105 85.0176 95.0332 79.5391 97.0742C78.3574 97.6113 75.8867 98.3633 72.2344 99.3301ZM210.701 102.338C207.049 104.164 205.223 103.949 205.223 101.693C205.115 98.3633 208.123 93.3145 214.461 86.5469C216.287 84.6133 217.469 83.3242 217.898 82.6797C218.221 82.0352 218.328 81.1758 218.006 80.209C217.469 78.3828 217.146 77.0938 217.039 76.2344C216.932 75.1602 216.717 74.4082 216.395 73.9785C216.072 73.5488 215.643 73.4414 214.891 73.7637C214.354 73.7637 214.139 74.1934 214.461 75.0527C214.461 75.8047 214.139 76.5566 213.494 77.2012C212.742 77.8457 212.42 78.2754 212.42 78.3828L213.172 79.0273C213.279 78.9199 213.494 78.7051 213.709 78.5977C213.924 78.4902 214.139 78.2754 214.246 78.168C214.568 78.168 214.891 78.4902 215.32 79.2422C215.428 79.7793 215.535 80.3164 215.535 80.8535C215.428 81.2832 213.816 83.002 210.916 85.9023C204.363 92.7773 201.57 98.1484 202.752 101.908C203.934 105.453 207.371 105.668 212.957 102.768C217.576 100.297 224.666 95.0332 234.227 86.7617C235.086 86.0098 236.053 85.2578 237.02 84.291C237.986 83.4316 239.061 82.4648 240.242 81.2832C241.424 80.209 242.283 79.3496 242.82 78.8125C243.68 77.9531 244.109 77.416 244.109 77.3086C244.109 76.5566 243.572 76.5566 242.605 77.3086L239.705 80.209C231.434 87.6211 225.525 92.6699 222.195 95.248C218.758 97.9336 214.891 100.297 210.701 102.338ZM291.59 77.3086C290.73 78.168 289.549 78.9199 288.152 79.6719C286.004 80.7461 284.285 81.498 282.996 81.9277C280.74 83.1094 277.84 84.291 274.295 85.4727L275.799 77.5234L276.443 75.5898C276.551 75.2676 277.303 74.4082 278.592 73.1191C284.93 67.8555 288.797 63.8809 290.086 61.1953C290.623 59.584 290.408 58.6172 289.441 58.1875C288.367 57.7578 287.293 57.8652 286.111 58.4023C282.781 60.1211 280.203 61.9473 278.377 63.8809C276.551 65.8145 275.154 68.5 273.973 72.0449C273.65 73.2266 273.221 74.1934 272.684 75.0527C272.361 75.6973 271.932 76.127 271.18 76.4492C265.701 80.209 262.693 82.3574 262.156 82.7871C261.297 83.3242 260.33 83.9688 259.363 84.6133C258.289 85.3652 257.107 86.1172 255.926 86.8691C254.637 87.6211 253.67 88.2656 252.918 88.6953C249.695 90.6289 247.01 92.1328 244.754 93.3145C240.994 95.248 238.094 95.7852 236.16 94.9258C234.871 94.1738 234.979 92.4551 236.375 89.6621C236.912 88.6953 238.094 87.1914 239.705 85.2578L243.895 83.8613C248.943 82.1426 252.811 79.7793 255.281 76.8789C256.033 76.127 256.57 75.375 256.678 74.8379C257 74.0859 257 73.4414 256.678 72.6895C255.926 71.7227 254.637 71.293 252.703 71.6152C247.01 72.4746 241.639 76.0195 236.59 82.1426C233.797 85.7949 232.508 89.0176 232.615 91.8105C232.723 93.3145 233.152 94.4961 234.012 95.3555C235.193 96.5371 236.697 96.9668 238.631 96.6445C241.746 96.2148 244.754 95.0332 247.654 93.0996C252.488 90.4141 258.934 86.332 266.99 80.8535L272.684 77.0938C272.576 78.2754 272.361 79.457 272.039 80.6387C271.717 81.9277 271.502 83.1094 271.287 84.291C271.072 85.4727 270.857 86.332 270.75 86.7617C259.686 90.9512 252.166 94.8184 248.084 98.1484C243.68 102.016 241.531 105.883 241.639 109.857C241.746 111.469 242.283 112.865 243.25 113.832C245.076 115.121 247.654 115.336 250.984 114.369C254.314 113.402 257.215 111.898 259.686 109.857C267.098 104.701 271.717 97.6113 273.328 88.6953L273.758 86.7617C284.822 82.1426 290.945 79.3496 292.234 78.3828C292.879 78.0605 293.201 77.7383 293.201 77.3086C293.094 76.5566 292.557 76.5566 291.59 77.3086ZM278.377 68.9297C280.203 65.5996 282.244 62.9141 284.607 60.9805C286.434 59.6914 287.615 59.1543 288.367 59.4766C289.656 60.0137 288.797 61.8398 285.896 64.7402L282.137 68.2852L276.873 73.1191L278.377 68.9297ZM242.391 81.2832C245.291 78.3828 247.762 76.2344 249.803 74.8379C252.488 73.4414 254.207 72.7969 255.066 73.1191C256.248 73.4414 256.033 74.4082 254.637 76.0195C253.348 77.6309 251.199 79.1348 248.191 80.7461C245.184 82.3574 242.605 83.3242 240.564 83.6465L242.391 81.2832ZM262.371 104.164C258.289 107.816 255.818 109.965 254.852 110.502C251.521 112.758 248.299 113.725 245.184 113.617C243.787 113.51 242.928 112.328 242.605 110.18C242.283 108.031 242.605 106.42 243.465 105.238C245.936 100.619 250.984 96.4297 258.826 92.6699C259.041 92.5625 262.908 90.9512 270.535 87.8359C269.031 94.6035 266.346 100.082 262.371 104.164ZM269.461 107.709C270.213 108.461 271.717 108.139 274.08 106.957C279.344 104.809 283.748 100.834 287.078 94.9258L289.764 91.166L304.266 84.6133C311.785 80.8535 315.867 78.4902 316.404 77.3086C316.297 76.4492 315.76 76.3418 314.793 77.0938C313.182 78.3828 309.744 80.4238 304.48 83.2168C299.217 86.1172 294.49 88.2656 290.408 89.6621L295.242 80.209C295.672 79.5645 296.746 78.5977 298.357 77.3086C298.68 77.2012 299.109 76.8789 299.754 76.3418C300.398 75.8047 301.15 75.2676 302.01 74.5156C302.762 73.8711 303.621 73.2266 304.48 72.4746C306.521 70.8633 307.596 69.4668 307.596 68.2852C307.273 66.9961 306.199 66.5664 304.266 66.9961C302.439 67.748 301.15 68.3926 300.291 69.1445C298.25 70.7559 296.531 72.582 295.135 74.5156C293.738 76.5566 292.127 79.1348 290.516 82.3574C288.797 85.5801 287.615 87.7285 287.078 88.9102C286.971 89.2324 286.756 89.5547 286.648 89.877C286.004 90.8438 285.037 91.7031 283.748 92.4551C278.807 95.1406 274.832 97.9336 271.717 101.049C268.602 104.164 267.85 106.42 269.461 107.709ZM296.746 77.3086L302.547 69.7891C302.869 69.4668 303.084 69.252 303.406 69.1445C305.447 67.9629 306.414 67.8555 306.414 68.7148C306.307 69.0371 305.555 70.0039 304.266 71.4004L301.365 73.7637L296.746 77.3086ZM271.072 106.957C269.676 107.064 269.354 106.312 270.105 104.594C271.932 101.264 276.98 97.3965 285.359 92.8848L282.459 97.2891C280.418 100.512 278.162 102.982 275.477 104.809C274.51 105.668 273.006 106.42 271.072 106.957ZM375.057 109.643C381.609 107.709 390.096 103.627 400.516 97.5039C410.828 91.3809 420.281 84.7207 428.982 77.5234C429.52 77.0938 429.734 76.5566 429.627 76.0195C429.627 75.5898 429.52 75.4824 429.197 75.5898C428.23 76.127 427.264 76.9863 426.082 77.9531C415.018 86.6543 402.986 94.4961 389.988 101.693C383.865 105.238 377.742 107.494 371.834 108.676C365.818 109.857 360.34 109.105 355.506 106.312C353.035 104.057 351.639 100.727 351.316 96.2148C351.102 89.0176 353.465 81.3906 358.299 73.1191C367.645 57.8652 379.031 44.7598 392.459 33.6953L393.533 32.8359C402.234 35.7363 409.217 37.6699 414.48 38.5293C420.389 39.2812 426.189 39.0664 431.883 37.8848C444.021 35.1992 453.582 29.1836 460.457 19.8379C463.035 16.0781 463.572 12.3184 462.176 8.66602C459.275 2.32812 448.748 2.11328 430.701 8.02148C425.867 9.63281 419.959 11.9961 412.977 15.3262C405.887 18.6562 400.516 21.5566 396.863 24.0273C395.359 25.1016 393.963 26.0684 392.674 27.0352C391.385 28.002 390.525 28.5391 390.203 28.8613C389.773 29.1836 389.451 29.291 389.344 29.291C379.676 24.8867 372.264 21.8789 367.107 20.2676C350.027 14.5742 331.98 15.2188 313.074 22.0938C304.266 25.1016 296.531 29.0762 289.764 33.9102C286.434 36.166 283.963 37.8848 282.352 39.1738C280.633 40.5703 278.807 42.6113 276.873 45.5117C274.832 48.4121 273.973 51.0977 274.295 53.7832L274.51 55.502C275.369 57.9727 276.658 59.3691 278.484 59.4766H278.914C279.236 59.1543 279.236 58.9395 278.914 58.6172C278.807 58.5098 278.592 58.2949 278.27 58.1875L278.055 57.9727C276.229 56.791 275.477 55.0723 275.584 52.9238C275.691 50.8828 276.336 48.8418 277.518 46.8008C278.699 44.7598 279.773 43.2559 280.955 42.2891C287.508 36.2734 295.564 31.0098 305.125 26.498C308.67 24.8867 312.322 23.4902 316.297 22.3086C334.451 16.1855 352.068 16.1855 369.148 22.5234C373.553 24.0273 376.775 25.3164 378.816 26.2832L384.939 28.8613L387.84 30.2578C387.84 30.3652 387.518 30.7949 386.98 31.332C386.443 31.8691 385.477 32.7285 384.08 33.8027C382.684 34.9844 381.717 35.8438 380.965 36.5957C371.619 45.5117 364.529 53.6758 359.48 60.9805C355.184 67.4258 352.068 73.6562 350.027 79.6719C347.986 85.6875 347.342 91.2734 348.094 96.5371C348.846 101.801 351.209 105.668 355.291 108.354C360.125 111.469 366.678 111.898 375.057 109.643ZM412.225 36.8105C407.82 36.2734 402.986 34.877 397.508 32.8359L395.145 31.9766L397.508 30.043C406.316 22.6309 418.67 16.0781 434.676 10.3848C445.203 6.51758 452.938 5.33594 457.771 6.73242C460.027 7.5918 461.209 8.77344 461.531 10.1699C462.068 12.4258 461.316 15.2188 459.383 18.7637C455.408 25.1016 448.641 30.1504 439.08 33.9102C430.379 37.6699 421.463 38.6367 412.225 36.8105ZM446.277 76.2344C443.807 78.4902 441.658 79.6719 439.939 79.8867C437.576 80.4238 435.213 80.209 432.85 79.2422C434.139 75.2676 434.031 72.7969 432.635 71.8301C431.453 71.0781 430.379 71.5078 429.412 72.9043C428.768 73.6562 428.445 74.623 428.445 75.5898C428.445 76.3418 428.553 76.7715 428.66 77.0938C428.338 76.3418 427.908 76.0195 427.371 76.0195C425.652 76.0195 422.967 78.0605 419.422 82.25C415.77 86.4395 414.051 89.5547 414.373 91.5957C414.803 93.4219 415.984 94.1738 417.918 93.8516C419.1 93.8516 421.141 92.7773 424.256 90.7363C426.834 88.4805 428.768 86.4395 430.057 84.6133C430.916 83.4316 431.775 82.0352 432.635 80.4238C436.395 81.8203 439.832 81.7129 443.055 79.8867C443.807 79.457 445.096 78.5977 446.707 77.3086C447.029 76.9863 447.137 76.6641 447.137 76.2344C447.137 75.8047 446.814 75.8047 446.277 76.2344ZM431.775 78.8125L431.346 78.5977C431.023 78.4902 430.701 78.168 430.271 77.7383C429.734 76.9863 429.52 75.8047 429.842 74.4082C429.949 73.8711 430.271 73.4414 430.701 73.1191C431.561 72.1523 432.098 72.1523 432.42 73.334C432.527 73.6562 432.635 73.9785 432.635 74.3008C432.635 74.623 432.635 75.0527 432.635 75.375C432.635 75.8047 432.635 76.2344 432.527 76.5566C432.42 76.8789 432.42 77.2012 432.312 77.416C432.205 77.6309 432.205 77.8457 432.098 78.168C431.99 78.4902 431.883 78.7051 431.775 78.8125ZM422.967 90.3066C421.141 91.7031 419.744 92.5625 418.562 92.6699C418.24 92.6699 418.025 92.7773 417.918 92.8848C415.662 92.8848 416.951 89.9844 421.678 84.0762C423.396 82.1426 425.115 80.6387 426.727 79.457L428.875 77.9531C429.197 78.4902 429.734 78.9199 430.271 79.2422L431.346 79.8867C428.982 84.291 426.189 87.8359 422.967 90.3066ZM444.344 119.311C446.277 121.137 448.855 121.029 452.186 119.096C454.012 118.129 455.73 116.947 457.449 115.551C459.061 114.262 461.102 112.65 463.357 110.609C465.613 108.568 467.117 107.279 467.869 106.742C476.248 99.8672 482.156 94.8184 485.701 91.5957L492.254 85.2578L499.344 78.8125C499.344 78.7051 499.451 78.4902 499.666 78.3828C499.881 78.2754 500.096 78.0605 500.203 77.8457C500.311 77.6309 500.418 77.416 500.418 77.3086C500.311 76.4492 499.773 76.5566 498.807 77.5234L490.75 85.043C484.842 90.6289 479.471 95.4629 474.637 99.5449C470.447 103.305 465.936 107.172 461.209 110.932C459.168 112.865 457.127 114.584 454.871 115.98C452.186 117.807 450.037 118.773 448.641 119.096C447.352 119.418 446.385 118.988 445.633 118.021C443.699 115.551 444.021 110.717 446.707 103.734C448.318 99.6523 450.896 95.1406 454.227 90.0918C454.549 89.6621 455.086 88.6953 455.838 87.2988C456.59 85.9023 457.234 84.8281 457.771 84.0762C458.201 83.3242 458.846 82.4648 459.705 81.3906C460.564 80.4238 461.424 79.6719 462.283 79.2422L466.688 76.8789C472.166 74.1934 479.793 69.5742 489.783 62.8066C508.26 50.1309 522.869 37.4551 533.611 24.6719C537.156 20.5898 539.09 17.2598 539.52 14.7891C539.842 12.9629 539.197 11.5664 537.693 10.5996C536.189 9.74023 534.363 9.84766 532.322 10.8145C527.488 13.1777 520.506 17.6895 511.375 24.457C504.822 29.291 497.41 35.5215 489.354 43.1484C484.949 47.123 477.43 54.9648 466.902 66.5664L462.068 72.0449C462.068 71.4004 461.961 70.9707 461.639 70.6484C460.779 69.4668 459.275 69.0371 457.234 69.3594C453.904 69.7891 450.252 71.8301 446.385 75.375C442.41 79.0273 439.725 82.3574 438.328 85.4727C436.824 89.4473 436.932 91.918 438.758 92.8848C440.691 93.8516 443.055 93.3145 445.848 91.3809C446.277 91.0586 446.814 90.6289 447.459 90.0918C448.104 89.5547 448.748 89.0176 449.285 88.4805C449.822 88.0508 450.145 87.7285 450.252 87.6211L453.26 84.8281L449.393 90.9512L446.062 96.8594C444.129 100.941 442.84 105.346 442.088 110.072C441.551 114.154 442.303 117.27 444.344 119.311ZM462.283 77.7383L466.688 71.8301C468.514 69.7891 471.199 66.6738 474.852 62.5918C478.934 58.1875 482.049 54.9648 484.09 52.9238C487.205 49.8086 491.932 45.4043 498.377 39.4961C502.996 35.1992 510.193 29.291 520.184 21.6641C520.291 21.5566 521.15 20.8047 522.654 19.623C524.051 18.4414 525.555 17.3672 526.951 16.4004C528.348 15.4336 529.959 14.4668 531.785 13.5C533.611 12.5332 535.008 11.9961 535.975 11.9961C536.941 11.9961 537.693 12.4258 538.23 13.2852C538.768 15.1113 537.586 17.7969 534.471 21.4492C532.107 24.6719 529.207 28.002 525.877 31.332C512.234 45.1895 496.658 57.6504 479.041 68.5C475.496 70.6484 471.629 72.7969 467.439 75.0527L462.283 77.7383ZM442.732 92.0254C441.873 92.4551 441.229 92.5625 440.906 92.4551C440.584 92.3477 440.369 91.918 440.369 91.3809C440.369 90.8438 440.477 90.1992 440.584 89.6621C440.691 89.125 440.906 88.6953 441.014 88.2656C442.41 85.5801 443.592 83.7539 444.559 82.5723C446.707 79.8867 448.748 77.6309 450.682 76.0195C454.012 72.9043 456.697 71.293 458.631 71.1855C459.598 71.0781 460.242 71.4004 460.564 72.2598C460.672 72.7969 460.564 73.5488 460.135 74.4082C457.879 78.3828 455.086 81.9277 451.541 85.043C447.352 88.8027 444.344 91.166 442.732 92.0254ZM500.848 94.4961C502.029 94.0664 504.285 92.7773 507.615 90.7363C510.945 88.6953 513.201 87.084 514.49 86.1172C516.854 84.291 518.572 83.002 519.539 82.1426L523.729 78.8125C524.588 77.9531 525.018 77.416 525.018 77.3086C525.018 76.5566 524.48 76.5566 523.514 77.3086C521.365 79.5645 517.713 82.4648 512.557 86.1172C504.5 91.8105 498.807 94.6035 495.584 94.2812C493.973 94.1738 493.328 92.6699 493.758 89.877C493.865 88.9102 494.402 87.7285 495.369 86.332C496.229 84.9355 496.766 84.291 497.088 84.291C501.062 84.3984 505.145 82.7871 509.227 79.2422C510.945 77.6309 512.02 75.9121 512.557 73.9785C513.094 72.0449 512.557 70.7559 511.16 70.2188C509.227 69.7891 506.111 71.293 501.922 74.623C500.203 75.9121 498.377 77.6309 496.443 79.8867L494.725 81.9277C492.469 84.6133 491.287 86.8691 490.965 88.4805C490.643 90.5215 491.072 92.1328 492.039 93.3145C493.543 95.7852 496.443 96.1074 500.848 94.4961ZM497.732 83.4316L500.848 79.6719C502.029 78.2754 503.748 76.6641 506.004 75.0527C508.26 73.4414 509.979 72.582 510.945 72.2598C511.697 72.2598 511.912 72.582 511.805 73.334C511.482 76.127 508.689 79.0273 503.533 82.1426C501.6 83.1094 499.666 83.5391 497.732 83.4316Z" fill="#BF9475"/>
</svg>
