<svg width="426" height="130" viewBox="0 0 426 130" fill="none" xmlns="http://www.w3.org/2000/svg">
<path d="M39.1738 128.219C33.0508 127.252 28.1094 124.996 24.457 121.451C23.2754 120.27 22.5234 120.055 22.416 120.592C22.3086 120.699 22.6309 121.129 23.3828 121.881C30.2578 129.615 41.8594 131.334 58.0801 126.93C70.8633 123.6 82.1426 117.369 91.918 108.453C99.8672 101.471 108.246 90.9434 117.055 76.9785C118.881 74.1855 121.459 69.8887 125.004 64.0879C128.549 58.2871 131.342 53.668 133.598 50.123C135.746 46.5781 138.754 42.6035 142.514 38.1992C146.273 33.7949 150.033 30.1426 154.008 27.2422C160.453 22.623 167.543 20.1523 175.385 20.0449C175.814 20.0449 176.996 20.0449 178.93 20.0449C180.756 20.0449 182.152 19.9375 183.012 19.8301C183.764 19.7227 184.945 19.5078 186.342 19.293C187.738 19.0781 188.92 18.6484 189.887 18.1113C190.854 17.5742 191.82 17.0371 192.68 16.2852C180.219 19.5078 165.609 19.1855 148.959 15.4258C144.125 14.3516 136.928 12.5254 127.475 9.83984C117.914 7.1543 110.717 5.32812 105.883 4.36133C88.0508 0.386719 69.5742 -0.580078 50.3457 1.35352L45.2969 1.99805C32.2988 3.60938 22.2012 6.83203 15.0039 11.666C10.2773 14.7812 6.51758 18.6484 3.72461 23.4824C0.931641 28.3164 -0.25 33.3652 0.179688 38.5215C0.179688 40.9922 1.03906 42.7109 2.65039 43.5703C1.36133 39.3809 1.25391 35.084 2.43555 30.6797C3.61719 26.3828 5.6582 22.5156 8.77344 19.1855C15.1113 12.7402 22.3086 8.33594 30.3652 5.97266C51.5273 0.171875 74.4082 -0.365234 99.2227 4.36133C104.379 5.43555 114.584 8.01367 129.838 12.0957C144.984 16.2852 156.693 18.7559 164.965 19.6152C159.916 21.2266 155.189 23.4824 150.785 26.3828C146.381 29.2832 142.191 33.043 138.217 37.6621C134.242 42.2812 130.912 46.3633 128.441 49.8008C125.863 53.2383 122.533 57.9648 118.559 64.0879C114.477 70.2109 111.576 74.5078 109.75 76.9785C102.982 86.3242 97.5039 93.6289 93.3145 98.7852C84.8281 109.957 76.2344 117.584 67.5332 121.666C56.2539 127.037 46.8008 129.186 39.1738 128.219ZM148.529 70.8555C149.496 70.4258 149.711 69.5664 149.174 68.3848C148.852 67.6328 148.422 67.5254 147.67 67.8477C146.918 68.2773 146.381 69.0293 145.951 69.9961C145.844 70.4258 145.736 70.748 145.736 71.0703C145.629 71.9297 146.596 71.8223 148.529 70.8555ZM127.689 101.686C130.912 102.545 138.432 99.1074 150.141 91.2656C153.686 88.7949 157.982 85.4648 163.031 81.3828C163.676 80.9531 163.998 80.5234 163.998 80.0938C163.891 79.2344 163.354 79.3418 162.387 80.3086C157.23 84.9277 149.711 90.1914 139.936 96.0996C134.672 99.3223 130.697 100.826 127.904 100.504C125.004 100.074 126.078 96.7441 131.234 90.6211C131.771 89.8691 132.846 88.6875 134.457 87.0762C138.217 83.5312 140.795 80.7383 142.191 78.8047C142.514 78.4824 142.621 78.1602 142.621 78.0527C142.621 77.5156 142.299 77.1934 141.762 77.1934C140.795 77.0859 139.828 77.1934 138.861 77.623C137.68 78.5898 136.928 79.2344 136.498 79.6641L132.094 84.0684C131.342 84.8203 129.945 86.4316 127.904 89.1172C125.863 91.9102 124.682 94.4883 124.574 96.959C124.467 99.4297 125.434 100.934 127.689 101.686ZM174.955 107.594C176.352 110.064 180.971 108.561 188.598 102.975C192.357 100.074 196.762 96.207 201.811 91.4805C203.314 90.1914 205.463 88.2578 208.148 85.7871C210.834 83.3164 212.66 81.7051 213.52 80.9531C213.842 80.6309 213.842 80.416 213.734 80.3086C213.734 79.9863 213.52 79.8789 213.09 79.8789C212.982 79.8789 212.768 79.9863 212.445 80.3086L206.859 85.3574C201.596 90.5137 197.514 94.3809 194.398 96.8516C184.408 105.016 178.607 108.561 176.781 107.594C176.459 106.842 176.459 106.09 176.566 105.338C176.674 104.586 177.426 103.404 178.607 101.793C179.789 100.182 180.756 98.8926 181.615 97.8184C182.475 96.8516 183.441 95.7773 184.623 94.5957L186.234 92.6621L192.143 86.2168C195.043 83.3164 196.332 81.168 195.902 79.8789C195.795 79.5566 195.58 79.3418 195.258 79.2344C193.969 78.1602 189.135 80.2012 180.756 85.3574L183.764 81.5977C187.201 77.5156 189.135 74.9375 189.564 73.9707C189.887 73.4336 189.994 72.8965 190.102 72.252C190.209 71.6074 190.102 71.0703 189.887 70.5332C189.564 69.9961 189.135 69.8887 188.383 69.9961C185.59 70.3184 182.475 71.7148 178.93 74.1855C173.881 77.5156 168.188 82.2422 162.064 88.2578C160.668 89.5469 159.594 90.7285 158.734 91.6953L161.312 86.4316C162.816 84.1758 165.717 80.9531 170.121 76.5488C173.129 73.6484 175.17 71.9297 176.137 71.5C176.889 71.1777 177.211 70.748 177.318 69.9961C177.426 69.3516 177.104 68.9219 176.352 68.8145C175.707 68.9219 174.955 69.0293 174.096 69.3516C172.484 70.1035 169.906 72.1445 166.361 75.6895C159.164 82.8867 155.834 88.4727 156.264 92.4473C156.371 93.6289 156.693 94.3809 157.123 94.7031C157.445 95.0254 157.982 95.0254 158.52 94.5957C159.057 94.2734 159.379 94.0586 159.379 93.7363C159.271 93.4141 159.486 92.9844 160.238 92.2324C162.709 88.6875 167.113 84.3906 173.451 79.3418C179.789 74.4004 184.408 71.6074 187.309 71.0703C187.846 70.9629 188.168 71.0703 188.168 71.3926C188.168 71.7148 188.061 72.252 187.738 72.7891C187.631 73.1113 186.664 74.0781 185.053 75.9043C183.334 77.7305 181.508 79.6641 179.467 81.8125C177.426 84.0684 176.137 85.4648 175.707 86.002C173.666 88.043 172.484 90.1914 172.377 92.2324C172.27 93.5215 172.807 93.5215 174.096 92.2324C176.352 89.7617 179.037 87.5059 182.26 85.5723C184.623 83.9609 187.201 82.457 189.887 81.0605C192.572 79.6641 194.076 79.3418 194.398 79.8789C194.506 80.3086 193.324 81.8125 190.854 84.2832C183.227 91.9102 178.285 97.9258 175.922 102.33C174.74 104.693 174.418 106.412 174.955 107.594ZM324.057 34.1172C323.949 34.1172 323.52 34.4395 322.982 34.9766C321.801 36.1582 319.545 37.3398 316.322 38.5215C313.744 39.4883 311.273 40.1328 308.91 40.2402C303.002 40.6699 298.598 40.5625 295.697 40.0254L303.109 32.6133C305.043 30.5723 306.332 28.8535 307.084 27.457C308.051 25.7383 307.621 24.8789 305.795 24.8789C303.969 24.8789 301.176 26.5977 297.416 29.9277L288.607 37.6621L286.459 36.9102C270.453 32.291 258.852 29.9277 251.654 29.9277C245.209 29.9277 239.086 30.6797 233.393 32.0762C231.459 32.6133 229.74 33.1504 228.344 33.6875C220.824 36.373 215.131 39.5957 211.371 43.3555C209.76 44.9668 208.686 46.5781 207.934 48.1895C207.611 48.7266 207.504 49.2637 207.504 49.6934C207.504 50.0156 207.719 50.2305 208.148 50.3379C208.578 50.4453 208.9 50.4453 209.008 50.123C209.115 50.0156 209.223 49.8008 209.223 49.4785C209.223 48.5117 210.082 47.0078 211.693 45.0742C214.379 41.7441 218.676 38.8438 224.369 36.4805C239.086 30.3574 253.266 29.0684 266.693 32.6133L270.99 33.6875C277.543 35.5137 282.27 36.9102 285.385 38.0918L287.533 38.9512L283.344 42.2812L277.006 48.1895C270.775 53.8828 264.008 60.543 256.703 68.1699C255.414 69.2441 253.588 70.6406 251.117 72.3594C248.646 74.1855 247.357 75.1523 247.25 75.2598C240.912 79.8789 233.607 84.7129 225.229 89.6543C216.742 94.5957 211.264 97.0664 208.578 97.0664C206.967 97.0664 206.322 95.6699 206.752 92.877C206.967 91.9102 207.504 90.7285 208.363 89.332C209.223 87.9355 209.76 87.291 210.082 87.291C214.057 87.3984 218.139 85.7871 222.221 82.2422C223.939 80.6309 225.014 78.9121 225.551 76.9785C226.088 75.0449 225.551 73.7559 224.154 73.2188C222.221 72.7891 219.105 74.293 214.916 77.623C212.875 79.2344 210.619 81.5977 208.041 84.7129C205.463 87.8281 204.066 90.084 203.959 91.4805C203.529 94.5957 204.066 96.6367 205.463 97.6035C206.859 98.6777 209.33 98.6777 212.982 97.4961C218.031 95.4551 225.98 90.9434 236.723 84.0684C242.738 80.3086 247.572 77.0859 251.225 74.4004L245.961 80.3086C241.342 85.7871 237.26 91.373 233.607 97.2812C228.881 104.908 225.873 111.139 224.584 116.188C224.154 118.014 224.047 119.84 224.154 121.451C224.799 125.963 226.84 127.896 230.385 127.359C231.996 127.037 234.359 125.855 237.582 123.6C241.342 121.021 245.209 118.121 249.076 114.791C252.836 111.568 257.133 107.809 261.859 103.619C266.479 99.4297 270.131 96.207 272.602 94.166C278.08 89.4395 282.699 85.1426 286.459 81.3828C286.996 80.8457 287.211 80.416 287.104 80.0938C286.996 79.5566 286.674 79.4492 286.244 79.8789L280.014 85.5723C275.932 89.5469 264.33 99.8594 245.102 116.402C239.408 121.559 234.359 124.889 230.17 126.285C229.096 126.607 228.344 126.5 227.914 126.07C226.303 124.459 226.41 121.559 228.344 117.477C228.666 116.725 229.311 115.221 230.277 112.965C231.244 110.709 231.996 108.883 232.748 107.594C235.648 102.33 239.623 96.207 244.457 89.332C245.639 87.5059 249.076 83.1016 254.77 76.1191C259.818 69.7812 264.33 65.1621 268.412 62.2617L277.436 55.709C278.617 54.7422 282.914 51.1973 290.219 45.0742L294.838 41.0996L297.846 41.5293C301.283 41.8516 304.936 41.7441 308.695 41.3145C311.811 40.8848 314.604 40.2402 317.289 39.3809C319.867 38.5215 322.23 37.0176 324.486 34.7617C324.594 34.6543 324.701 34.4395 324.701 34.332C324.594 34.2246 324.379 34.1172 324.057 34.1172ZM294.408 39.5957L291.508 38.7363C291.938 38.1992 292.582 37.4473 293.549 36.6953C294.408 35.9434 295.482 35.084 296.664 34.0098C297.846 33.043 298.705 32.1836 299.242 31.6465L302.465 28.8535C304.936 26.8125 306.225 26.168 306.225 27.0273C306.332 27.7793 305.473 28.9609 303.646 30.7871L298.812 35.6211C296.449 37.9844 294.945 39.2734 294.408 39.5957ZM290.219 43.5703L282.914 49.4785C277.65 53.668 273.676 56.6758 270.99 58.502L282.484 47.1152L286.674 43.3555L290.434 40.0254L293.227 40.8848L290.219 43.5703ZM213.842 82.6719C215.023 81.2754 216.742 79.6641 218.998 78.0527C221.254 76.4414 222.973 75.582 223.939 75.2598C224.691 75.2598 224.906 75.582 224.799 76.334C224.477 79.127 221.684 82.0273 216.527 85.1426C214.594 86.1094 212.66 86.5391 210.727 86.4316L213.842 82.6719ZM294.301 103.189C296.664 102.438 299.887 100.396 304.076 97.0664C306.762 95.0254 309.662 92.5547 312.562 89.7617L320.941 81.8125C321.908 80.9531 322.338 80.416 322.338 80.3086C322.23 79.5566 321.693 79.5566 320.727 80.3086L317.934 83.209C312.455 88.5801 307.729 92.7695 303.646 95.8848C297.309 100.611 293.227 102.867 291.293 102.545C288.93 102.438 289.145 99.4297 291.938 93.7363C292.367 92.9844 292.904 92.2324 293.441 91.4805C293.979 90.7285 294.73 89.9766 295.482 89.0098C296.234 88.1504 296.771 87.5059 297.201 87.0762C298.383 85.6797 298.812 84.6055 298.705 84.0684C298.598 83.5312 298.812 82.8867 299.242 82.0273C300.531 80.416 300.854 78.8047 300.316 77.1934C299.564 74.7227 296.879 74.5078 292.152 76.5488C286.889 78.8047 282.914 81.9199 280.229 86.002C279.262 87.8281 278.725 89.4395 278.617 91.0508C278.51 92.6621 279.047 93.7363 280.229 94.166C281.41 94.5957 283.021 94.3809 285.062 93.5215C286.029 93.1992 287.748 92.2324 290.219 90.4062C289.252 91.5879 288.607 93.3066 288.07 95.3477C287.533 97.4961 287.641 99.6445 288.178 101.686C289.037 103.727 291.078 104.156 294.301 103.189ZM281.195 92.877C280.658 91.5879 281.84 89.2246 284.848 85.7871C287.748 82.457 290.756 79.8789 293.656 78.2676C296.342 76.6562 297.953 76.2266 298.49 76.7637C299.994 77.623 299.779 79.3418 297.846 81.8125C297.416 82.5645 296.557 83.3164 295.375 84.2832C294.086 85.25 293.334 85.8945 293.012 86.2168C290.219 88.5801 288.715 89.8691 288.607 89.9766C286.352 91.4805 285.17 92.3398 284.848 92.4473C282.592 93.1992 281.303 93.3066 281.195 92.877ZM299.457 112.213C302.143 115.113 307.621 114.576 315.893 110.387C324.164 106.305 331.361 100.182 337.484 91.9102C342.748 90.6211 346.938 89.332 350.053 87.9355C353.168 86.6465 356.391 84.498 359.936 81.5977C360.795 80.7383 361.117 80.2012 361.01 80.0938C361.01 79.2344 360.58 79.2344 359.721 80.0938C357.68 81.8125 356.498 82.7793 356.176 82.8867C351.449 86.1094 345.434 88.6875 338.129 90.6211L339.311 88.4727L340.385 86.002C342.211 82.3496 343.07 79.4492 342.748 77.1934C342.748 76.2266 342.426 75.3672 341.674 74.6152C340.385 73.6484 337.914 74.293 334.262 76.4414C330.502 78.6973 326.527 82.1348 322.123 86.8613C321.586 87.6133 320.834 88.5801 319.975 89.6543C319.008 90.8359 318.363 91.6953 317.934 92.4473L317.074 93.3066C319.115 88.1504 323.734 81.4902 330.932 73.2188C342.963 60.0059 350.268 52.916 352.738 51.9492C364.232 47.3301 375.727 40.7773 387.006 32.0762C399.574 21.8711 406.342 14.5664 407.523 10.377C408.383 6.61719 407.738 4.79102 405.697 4.79102C404.408 4.89844 402.582 5.65039 400.219 7.04688L397.104 9.19531C380.453 21.9785 365.951 33.7949 353.598 44.8594C340.492 56.8906 327.816 70.6406 315.463 86.2168C313.637 88.9023 312.133 91.6953 311.166 94.8105C308.266 95.9922 305.58 97.6035 303.109 99.6445C300.639 101.793 299.135 103.727 298.598 105.553C297.523 107.809 297.846 109.957 299.457 112.213ZM352.953 50.3379C371.967 32.8281 385.502 21.0117 393.344 14.7812C398.607 10.5918 401.83 8.22852 403.119 7.47656C405.59 5.97266 406.664 6.29492 406.342 8.55078C406.127 12.8477 400.541 19.5078 389.477 28.4238C380.346 36.2656 368.207 43.5703 352.953 50.3379ZM318.578 93.5215C320.941 89.8691 323.949 86.3242 327.602 82.7793C331.254 79.3418 334.691 77.0859 337.914 75.9043C338.988 75.582 339.633 75.582 339.955 75.7969C340.277 76.0117 340.277 76.4414 340.17 77.1934C340.17 77.9453 338.988 80.5234 336.625 84.9277C335.014 87.6133 333.51 89.8691 332.221 91.4805L325.023 92.6621L318.578 93.5215ZM303.002 112.643C299.887 112.32 298.705 110.709 299.242 107.594C299.35 103.404 303.324 99.5371 311.166 95.8848V100.934C311.488 102.115 311.811 102.975 312.133 103.512C312.455 104.049 312.885 104.156 313.207 103.941C313.529 103.727 313.852 103.082 314.174 102.115C315.57 98.248 316.752 95.7773 317.719 94.8105L319.652 94.3809C321.049 94.0586 325.023 93.5215 331.576 92.6621L330.932 93.7363C330.502 94.4883 329.535 95.5625 328.031 97.1738C326.42 98.7852 324.594 100.504 322.553 102.33C314.066 109.527 307.514 112.965 303.002 112.643ZM349.838 113.502C350.59 113.609 351.664 113.609 353.061 113.287C354.457 112.857 355.746 112.213 356.928 111.461C358.109 110.709 359.721 109.635 361.547 108.238C363.373 106.842 364.555 106.09 364.984 105.768C370.248 101.686 374.115 98.5703 376.586 96.3145L381.42 92.2324C382.602 91.0508 384.535 89.2246 387.006 86.8613C389.477 84.498 391.41 82.7793 392.699 81.8125C393.559 80.9531 393.988 80.416 393.988 80.3086C393.881 79.7715 393.344 79.7715 392.484 80.3086L389.584 83.209C383.783 88.7949 378.412 93.5215 373.578 97.4961C369.174 101.256 365.736 103.941 363.373 105.553C358.324 109.42 354.672 111.676 352.416 112.213C349.945 112.965 348.441 111.998 348.012 109.527C347.475 105.768 349.086 100.611 352.846 94.166C355.531 89.7617 358.002 86.2168 360.365 83.4238C364.34 78.375 367.025 75.3672 368.314 74.1855C370.463 71.9297 373.9 69.2441 378.627 66.0215C387.113 60.4355 394.525 54.8496 400.648 49.2637C406.234 44.5371 412.572 38.4141 419.77 31.002C422.133 28.7461 423.744 26.7051 424.604 25.0938C424.926 24.6641 425.141 24.127 425.355 23.375C425.57 22.7305 425.785 22.0859 425.893 21.334C426 20.582 426 20.0449 425.678 19.6152C425.355 19.1855 424.818 19.0781 423.959 19.1855C423.314 19.1855 422.455 19.5078 421.273 20.0449C420.092 20.582 419.232 21.1191 418.695 21.5488C405.59 30.6797 391.088 43.6777 375.297 60.543C371.752 64.3027 366.703 70.1035 359.936 78.0527C356.82 81.9199 354.564 84.9277 353.061 86.9688C351.449 89.1172 349.838 92.125 348.119 96.0996C346.293 100.074 345.541 103.834 345.648 107.164C345.648 110.924 347.045 113.072 349.838 113.502ZM375.512 66.2363L377.768 63.5508L385.824 54.957C390.121 50.123 395.062 45.1816 400.648 40.0254C401.508 39.166 403.227 37.5547 405.697 35.1914C408.168 32.8281 410.102 31.002 411.391 29.7129C412.68 28.5312 414.398 27.0273 416.547 25.2012C418.588 23.4824 420.629 22.0859 422.562 20.9043C423.744 20.1523 424.389 20.2598 424.389 21.1191C424.926 23.0527 423.207 25.8457 419.125 29.498C412.572 36.2656 406.664 41.959 401.508 46.6855C400.756 47.2227 396.566 50.6602 389.154 56.7832C387.221 58.3945 384.32 60.4355 380.561 62.9062L375.512 66.2363ZM394.096 97.4961C395.277 97.0664 397.533 95.7773 400.863 93.7363C404.193 91.6953 406.449 90.084 407.738 89.1172C410.102 87.291 411.82 86.002 412.787 85.1426L416.977 81.8125C417.836 80.9531 418.266 80.416 418.266 80.3086C418.266 79.5566 417.729 79.5566 416.762 80.3086C414.613 82.5645 410.961 85.4648 405.805 89.1172C397.748 94.8105 392.055 97.6035 388.832 97.2812C387.221 97.1738 386.576 95.6699 387.006 92.877C387.113 91.9102 387.65 90.7285 388.617 89.332C389.477 87.9355 390.014 87.291 390.336 87.291C394.311 87.3984 398.393 85.7871 402.475 82.2422C404.193 80.6309 405.268 78.9121 405.805 76.9785C406.342 75.0449 405.805 73.7559 404.408 73.2188C402.475 72.7891 399.359 74.293 395.17 77.623C393.451 78.9121 391.625 80.6309 389.691 82.8867L387.973 84.9277C385.717 87.6133 384.535 89.8691 384.213 91.4805C383.891 93.5215 384.32 95.1328 385.287 96.3145C386.791 98.7852 389.691 99.1074 394.096 97.4961ZM390.98 86.4316L394.096 82.6719C395.277 81.2754 396.996 79.6641 399.252 78.0527C401.508 76.4414 403.227 75.582 404.193 75.2598C404.945 75.2598 405.16 75.582 405.053 76.334C404.73 79.127 401.938 82.0273 396.781 85.1426C394.848 86.1094 392.914 86.5391 390.98 86.4316Z" fill="#BF9475"/>
</svg>
