<svg width="398" height="122" viewBox="0 0 398 122" fill="none" xmlns="http://www.w3.org/2000/svg">
<path d="M101.492 106.643C108.045 104.709 116.531 100.627 126.951 94.5039C137.264 88.3809 146.717 81.7207 155.418 74.5234C155.955 74.0938 156.17 73.5566 156.062 73.0195C156.062 72.5898 155.955 72.4824 155.633 72.5898C154.666 73.127 153.699 73.9863 152.518 74.9531C141.453 83.6543 129.422 91.4961 116.424 98.6934C110.301 102.238 104.178 104.494 98.2695 105.676C92.2539 106.857 86.7754 106.105 81.9414 103.312C79.4707 101.057 78.0742 97.7266 77.752 93.2148C77.5371 86.0176 79.9004 78.3906 84.7344 70.1191C94.0801 54.8652 105.467 41.7598 118.895 30.6953L119.969 29.8359C128.67 32.7363 135.652 34.6699 140.916 35.5293C146.824 36.2812 152.625 36.0664 158.318 34.8848C170.457 32.1992 180.018 26.1836 186.893 16.8379C189.471 13.0781 190.008 9.31836 188.611 5.66602C185.711 -0.671875 175.184 -0.886719 157.137 5.02148C152.303 6.63281 146.395 8.99609 139.412 12.3262C132.322 15.6562 126.951 18.5566 123.299 21.0273C121.795 22.1016 120.398 23.0684 119.109 24.0352C117.82 25.002 116.961 25.5391 116.639 25.8613C116.209 26.1836 115.887 26.291 115.779 26.291C106.111 21.8867 98.6992 18.8789 93.543 17.2676C76.4629 11.5742 58.416 12.2188 39.5098 19.0938C30.7012 22.1016 22.9668 26.0762 16.1992 30.9102C12.8691 33.166 10.3984 34.8848 8.78711 36.1738C7.06836 37.5703 5.24219 39.6113 3.30859 42.5117C1.26758 45.4121 0.408203 48.0977 0.730469 50.7832L0.945312 52.502C1.80469 54.9727 3.09375 56.3691 4.91992 56.4766H5.34961C5.67188 56.1543 5.67188 55.9395 5.34961 55.6172C5.24219 55.5098 5.02734 55.2949 4.70508 55.1875L4.49023 54.9727C2.66406 53.791 1.91211 52.0723 2.01953 49.9238C2.12695 47.8828 2.77148 45.8418 3.95312 43.8008C5.13477 41.7598 6.20898 40.2559 7.39062 39.2891C13.9434 33.2734 22 28.0098 31.5605 23.498C35.1055 21.8867 38.7578 20.4902 42.7324 19.3086C60.8867 13.1855 78.5039 13.1855 95.584 19.5234C99.9883 21.0273 103.211 22.3164 105.252 23.2832L111.375 25.8613L114.275 27.2578C114.275 27.3652 113.953 27.7949 113.416 28.332C112.879 28.8691 111.912 29.7285 110.516 30.8027C109.119 31.9844 108.152 32.8438 107.4 33.5957C98.0547 42.5117 90.9648 50.6758 85.916 57.9805C81.6191 64.4258 78.5039 70.6562 76.4629 76.6719C74.4219 82.6875 73.7773 88.2734 74.5293 93.5371C75.2812 98.8008 77.6445 102.668 81.7266 105.354C86.5605 108.469 93.1133 108.898 101.492 106.643ZM138.66 33.8105C134.256 33.2734 129.422 31.877 123.943 29.8359L121.58 28.9766L123.943 27.043C132.752 19.6309 145.105 13.0781 161.111 7.38477C171.639 3.51758 179.373 2.33594 184.207 3.73242C186.463 4.5918 187.645 5.77344 187.967 7.16992C188.504 9.42578 187.752 12.2188 185.818 15.7637C181.844 22.1016 175.076 27.1504 165.516 30.9102C156.814 34.6699 147.898 35.6367 138.66 33.8105ZM172.713 73.2344C170.242 75.4902 168.094 76.6719 166.375 76.8867C164.012 77.4238 161.648 77.209 159.285 76.2422C160.574 72.2676 160.467 69.7969 159.07 68.8301C157.889 68.0781 156.814 68.5078 155.848 69.9043C155.203 70.6562 154.881 71.623 154.881 72.5898C154.881 73.3418 154.988 73.7715 155.096 74.0938C154.773 73.3418 154.344 73.0195 153.807 73.0195C152.088 73.0195 149.402 75.0605 145.857 79.25C142.205 83.4395 140.486 86.5547 140.809 88.5957C141.238 90.4219 142.42 91.1738 144.354 90.8516C145.535 90.8516 147.576 89.7773 150.691 87.7363C153.27 85.4805 155.203 83.4395 156.492 81.6133C157.352 80.4316 158.211 79.0352 159.07 77.4238C162.83 78.8203 166.268 78.7129 169.49 76.8867C170.242 76.457 171.531 75.5977 173.143 74.3086C173.465 73.9863 173.572 73.6641 173.572 73.2344C173.572 72.8047 173.25 72.8047 172.713 73.2344ZM158.211 75.8125L157.781 75.5977C157.459 75.4902 157.137 75.168 156.707 74.7383C156.17 73.9863 155.955 72.8047 156.277 71.4082C156.385 70.8711 156.707 70.4414 157.137 70.1191C157.996 69.1523 158.533 69.1523 158.855 70.334C158.963 70.6562 159.07 70.9785 159.07 71.3008C159.07 71.623 159.07 72.0527 159.07 72.375C159.07 72.8047 159.07 73.2344 158.963 73.5566C158.855 73.8789 158.855 74.2012 158.748 74.416C158.641 74.6309 158.641 74.8457 158.533 75.168C158.426 75.4902 158.318 75.7051 158.211 75.8125ZM149.402 87.3066C147.576 88.7031 146.18 89.5625 144.998 89.6699C144.676 89.6699 144.461 89.7773 144.354 89.8848C142.098 89.8848 143.387 86.9844 148.113 81.0762C149.832 79.1426 151.551 77.6387 153.162 76.457L155.311 74.9531C155.633 75.4902 156.17 75.9199 156.707 76.2422L157.781 76.8867C155.418 81.291 152.625 84.8359 149.402 87.3066ZM290.232 28.1172C289.91 28.1172 289.373 28.4395 288.836 28.9766C285.936 31.877 281.316 33.7031 274.979 34.2402C268.533 34.6699 264.129 34.5625 261.766 34.0254L269.285 26.6133C271.219 24.5723 272.508 22.8535 273.26 21.457C274.119 19.7383 273.689 18.8789 271.971 18.8789C270.145 18.8789 267.352 20.5977 263.592 23.9277L254.783 31.6621L252.527 30.9102C236.521 26.291 225.027 23.9277 217.83 23.9277C211.385 23.9277 205.262 24.6797 199.568 26.0762C197.635 26.6133 195.916 27.1504 194.52 27.6875C187 30.373 181.307 33.5957 177.547 37.3555C175.936 38.9668 174.754 40.5781 174.002 42.1895C173.68 42.7266 173.572 43.2637 173.572 43.6934C173.572 44.0156 173.787 44.2305 174.217 44.3379C174.646 44.4453 174.969 44.4453 175.076 44.123C175.291 44.0156 175.398 43.8008 175.398 43.4785C175.291 42.5117 176.15 41.0078 177.762 39.0742C180.555 35.7441 184.852 32.8438 190.545 30.4805C205.262 24.3574 219.334 23.0684 232.762 26.6133L237.166 27.6875C239.1 28.2246 241.785 29.084 245.223 30.0508C248.66 31.125 250.701 31.7695 251.453 32.0918L253.709 32.7363L249.52 36.2812L243.074 42.1895C236.736 47.9902 229.861 54.8652 222.234 62.8145L193.123 85.4805C182.166 93.9668 175.828 98.0488 174.002 97.6191C173.035 96.8672 172.928 95.6855 173.787 93.8594C174.646 92.1406 176.258 89.8848 178.621 87.0918C179.266 86.3398 180.125 85.2656 181.092 83.9766C181.951 83.0098 182.596 82.2578 183.025 81.8281C186.785 77.209 187.537 74.6309 185.496 74.0938C183.992 73.6641 180.555 75.0605 175.076 78.2832C174.539 78.6055 173.895 78.9277 173.25 79.3574C172.605 79.7871 172.176 80.1094 171.854 80.2168L171.424 80.4316C171.746 79.8945 173.25 77.8535 176.043 74.5234C180.018 69.7969 181.736 67.1113 181.307 66.5742C180.555 65.6074 179.158 66.1445 177.117 68.1855C174.754 70.0117 172.176 72.8047 169.383 76.5645C166.59 80.3242 164.871 83.0098 164.334 84.6211C163.582 87.3066 163.797 88.7031 164.764 89.0254C165.73 89.4551 166.268 89.0254 166.375 87.7363C166.482 86.5547 168.309 84.6211 171.746 82.1504C175.184 79.6797 178.621 77.6387 181.951 76.0273C182.811 75.5977 183.562 75.4902 184.1 75.5977C185.174 75.9199 184.852 76.8867 183.025 78.2832C180.447 80.5391 177.977 83.2246 175.613 86.4473C170.457 93.6445 169.812 97.6191 173.572 98.4785C174.539 98.8008 176.043 98.4785 178.084 97.5117C180.125 96.5449 182.273 95.2559 184.744 93.4297C187.107 91.7109 189.363 90.0996 191.404 88.4883C193.445 86.9844 195.594 85.373 197.85 83.5469C199.998 81.7207 201.18 80.7539 201.502 80.4316C203.113 79.25 205.799 77.3164 209.344 74.6309C212.889 71.9453 215.359 70.0117 216.756 68.8301C215.789 70.1191 214.178 71.9453 212.137 74.3086C207.518 79.7871 203.436 85.373 199.783 91.2812C195.057 98.9082 192.049 105.139 190.76 110.188C190.33 112.014 190.223 113.84 190.33 115.451C190.867 119.963 192.908 121.896 196.453 121.359C198.064 121.037 200.535 119.855 203.758 117.6C207.518 115.021 211.385 112.121 215.145 108.791C218.904 105.568 223.201 101.809 227.928 97.6191C232.547 93.4297 236.199 90.207 238.67 88.166C244.148 83.4395 248.768 79.1426 252.527 75.3828C253.172 74.8457 253.387 74.416 253.279 74.0938C253.064 73.5566 252.742 73.4492 252.312 73.8789L246.189 79.5723C231.795 93 220.086 103.205 211.17 110.402C201.18 118.244 195.486 121.467 194.09 120.07C192.049 118.029 193.66 111.799 198.924 101.594C201.072 97.4043 204.939 91.2812 210.525 83.332C211.707 81.5059 215.145 77.1016 220.838 70.1191C225.887 63.7812 230.398 59.1621 234.48 56.2617L243.504 49.709C244.686 48.7422 248.982 45.1973 256.287 39.0742L260.906 35.0996L264.021 35.5293C267.352 35.8516 271.004 35.7441 274.764 35.3145C277.879 34.8848 280.672 34.2402 283.357 33.3809C286.043 32.5215 288.406 31.0176 290.662 28.7617C290.77 28.6543 290.877 28.4395 290.877 28.332C290.77 28.2246 290.555 28.1172 290.232 28.1172ZM260.477 33.5957L257.576 32.7363C258.113 32.1992 258.758 31.4473 259.617 30.6953C260.477 29.9434 261.551 29.084 262.732 28.0098C263.914 27.043 264.773 26.1836 265.311 25.6465L268.641 22.8535C271.111 20.8125 272.4 20.168 272.4 21.0273C272.4 21.7793 271.541 22.9609 269.715 24.7871L264.881 29.6211C262.518 31.9844 261.014 33.2734 260.477 33.5957ZM256.287 37.5703L249.09 43.4785C243.826 47.668 239.852 50.6758 237.166 52.502L248.66 41.1152L252.742 37.3555L256.502 34.0254L259.402 34.8848L256.287 37.5703ZM260.477 97.1895C262.84 96.4375 266.062 94.3965 270.252 91.0664C272.938 89.0254 275.838 86.5547 278.738 83.7617L287.117 75.8125C288.084 74.9531 288.514 74.416 288.514 74.3086C288.406 73.5566 287.869 73.5566 286.902 74.3086L284.109 77.209C278.631 82.5801 273.904 86.7695 269.822 89.8848C263.484 94.6113 259.402 96.8672 257.469 96.5449C255.105 96.4375 255.32 93.4297 258.113 87.7363C258.543 86.9844 259.08 86.2324 259.617 85.4805C260.154 84.7285 260.906 83.9766 261.658 83.0098C262.41 82.1504 262.947 81.5059 263.377 81.0762C264.559 79.6797 264.988 78.6055 264.881 78.0684C264.773 77.5312 264.988 76.8867 265.418 76.0273C266.707 74.416 267.029 72.8047 266.492 71.1934C265.74 68.7227 263.055 68.5078 258.328 70.5488C253.064 72.8047 249.09 75.9199 246.404 80.002C245.438 81.8281 244.9 83.4395 244.793 85.0508C244.686 86.6621 245.223 87.7363 246.404 88.166C247.586 88.5957 249.197 88.3809 251.238 87.5215C252.205 87.1992 253.924 86.2324 256.395 84.4062C255.428 85.5879 254.783 87.3066 254.246 89.3477C253.709 91.4961 253.816 93.6445 254.354 95.6855C255.213 97.7266 257.254 98.1562 260.477 97.1895ZM247.371 86.877C246.834 85.5879 248.016 83.2246 251.023 79.7871C253.924 76.457 256.932 73.8789 259.832 72.2676C262.518 70.6562 264.129 70.2266 264.666 70.7637C266.17 71.623 265.955 73.3418 264.021 75.8125C263.592 76.5645 262.732 77.3164 261.551 78.2832C260.262 79.25 259.51 79.8945 259.188 80.2168C256.395 82.5801 254.891 83.8691 254.783 83.9766C252.527 85.4805 251.346 86.3398 251.023 86.4473C248.768 87.1992 247.479 87.3066 247.371 86.877ZM303.016 121.359C304.627 121.037 307.098 119.855 310.32 117.6C314.08 115.021 317.947 112.121 321.707 108.791C325.467 105.568 329.764 101.809 334.49 97.6191C339.109 93.4297 342.762 90.207 345.232 88.166C350.711 83.4395 355.33 79.1426 359.09 75.3828C359.734 74.8457 359.949 74.416 359.842 74.0938C359.627 73.5566 359.305 73.4492 358.875 73.8789L352.752 79.5723C348.133 83.9766 336.531 94.2891 317.732 110.402C308.172 118.674 302.479 121.896 300.652 120.07C298.396 117.814 300.008 111.691 305.486 101.594C308.387 96.3301 312.254 90.207 317.088 83.332C318.27 81.5059 321.707 77.1016 327.4 70.1191C332.449 63.7812 336.961 59.1621 341.043 56.2617L350.066 49.709C351.248 48.7422 355.545 45.1973 362.85 39.0742L367.469 35.0996L370.584 35.5293C373.914 35.8516 377.566 35.7441 381.326 35.3145C384.441 34.8848 387.234 34.2402 389.92 33.3809C392.605 32.5215 394.969 31.0176 397.225 28.7617C397.332 28.6543 397.439 28.4395 397.439 28.332C397.332 28.2246 397.117 28.1172 396.795 28.1172C396.58 28.1172 396.15 28.4395 395.613 28.9766C394.432 30.1582 392.283 31.3398 389.061 32.5215C386.375 33.4883 383.904 34.1328 381.541 34.2402C375.633 34.6699 371.229 34.5625 368.328 34.0254L375.848 26.6133C377.781 24.5723 379.07 22.8535 379.822 21.457C380.682 19.7383 380.252 18.8789 378.533 18.8789C376.707 18.8789 373.914 20.5977 370.154 23.9277L361.346 31.6621L359.09 30.9102C343.084 26.291 331.59 23.9277 324.393 23.9277C317.947 23.9277 311.824 24.6797 306.131 26.0762C304.197 26.6133 302.479 27.1504 301.082 27.6875C293.562 30.373 287.869 33.5957 284.109 37.3555C282.498 38.9668 281.316 40.5781 280.564 42.1895C280.242 42.7266 280.135 43.2637 280.135 43.6934C280.135 44.0156 280.35 44.2305 280.779 44.3379C281.209 44.4453 281.531 44.4453 281.639 44.123C281.854 44.0156 281.961 43.8008 281.961 43.4785C281.854 42.5117 282.713 41.0078 284.324 39.0742C287.117 35.7441 291.414 32.8438 297.107 30.4805C311.824 24.3574 325.896 23.0684 339.324 26.6133L343.729 27.6875C350.174 29.5137 354.9 30.9102 358.016 32.0918L360.271 32.9512L356.082 36.2812L349.637 42.1895C341.473 49.8164 334.705 56.4766 329.227 62.3848C327.4 63.7812 325.467 65.2852 323.211 66.8965C320.955 68.6152 318.484 70.334 316.014 72.0527C313.543 73.8789 311.717 75.0605 310.75 75.8125C310.428 76.1348 308.494 77.5312 304.842 80.2168C301.082 82.9023 297.967 84.9434 295.281 86.5547C292.596 88.166 290.018 89.4551 287.654 90.3145C284.539 91.6035 282.713 91.4961 282.176 90.0996C281.209 88.0586 282.283 84.8359 285.398 80.4316C287.869 77.209 290.018 74.9531 291.629 73.6641C296.785 69.0449 299.9 67.9707 300.867 70.334C301.189 70.8711 300.652 72.0527 299.363 73.8789C297.967 75.7051 296.248 77.209 294.207 78.498C294.314 78.6055 294.637 78.7129 294.959 78.8203C295.281 78.9277 296.033 78.498 297 77.6387C297.967 76.8867 299.041 75.7051 300.223 74.3086C301.619 72.4824 302.156 71.0859 301.834 69.9043C301.512 68.7227 300.223 68.1855 298.182 68.1855C296.248 68.0781 293.777 68.9375 290.877 70.5488C287.977 72.4824 285.398 75.0605 283.035 78.2832C281.424 80.4316 280.35 82.4727 279.92 84.4062C279.598 86.6621 279.705 88.2734 280.135 89.4551C281.424 92.4629 284.432 93 289.158 91.0664C293.133 89.4551 300.33 84.8359 310.75 77.4238C315.799 73.9863 320.311 70.7637 324.393 67.6484L318.699 74.3086C314.08 79.7871 309.998 85.373 306.346 91.2812C301.619 98.9082 298.611 105.139 297.322 110.188C296.893 112.014 296.785 113.84 296.893 115.451C297.43 119.963 299.471 121.896 303.016 121.359ZM367.039 33.5957L364.139 32.7363C364.676 32.1992 365.32 31.4473 366.18 30.6953C367.039 29.9434 368.113 29.084 369.295 28.0098C370.477 27.043 371.336 26.1836 371.873 25.6465L375.203 22.8535C377.674 20.8125 378.963 20.168 378.963 21.0273C378.963 21.7793 378.104 22.9609 376.277 24.7871L371.443 29.6211C369.08 31.9844 367.576 33.2734 367.039 33.5957ZM343.729 52.502L355.223 41.1152L359.305 37.3555L363.064 34.0254L365.965 34.8848L362.85 37.5703L355.652 43.4785C350.389 47.668 346.414 50.6758 343.729 52.502Z" fill="#BF9475"/>
</svg>
