<svg width="421" height="138" viewBox="0 0 421 138" fill="none" xmlns="http://www.w3.org/2000/svg">
<path d="M6.16016 129.426C7.77148 129.748 10.2422 129.748 13.4648 129.426C29.2559 127.922 45.7988 119.543 62.9863 104.289C65.6719 102.033 68.25 99.5625 70.7207 96.877C73.1914 94.1914 75.6621 91.291 78.1328 88.0684C80.6035 84.8457 82.752 82.0527 84.3633 79.7969C85.9746 77.541 88.123 74.3184 91.0234 70.3438C93.9238 66.3691 95.9648 63.4688 97.2539 61.6426C103.699 52.7266 109.822 44.8848 115.73 38.1172C118.953 34.1426 121.854 31.0273 124.324 28.6641C126.795 26.3008 130.77 22.9707 136.033 18.7812C136.141 18.6738 137.967 18.1367 141.404 17.2773C144.842 16.5254 147.85 15.5586 150.535 14.5918C157.303 11.9062 161.707 9.54297 163.748 7.28711C164.5 6.53516 165.037 5.67578 165.574 4.60156C166.111 3.63477 166.111 2.66797 165.789 1.80859C165.467 0.949219 164.607 0.519531 163.318 0.519531C162.459 0.519531 160.848 0.841797 158.484 1.37891C155.369 2.3457 152.361 3.74219 149.246 5.56836C143.553 8.89844 139.256 11.6914 136.463 13.9473C134.637 15.3438 133.455 16.2031 132.703 16.5254C131.951 16.8477 130.34 17.0625 127.869 17.3848C124.754 17.8145 120.672 18.3516 115.408 19.1035C110.145 19.8555 106.17 20.3926 103.699 20.7148C90.0566 22.4336 75.2324 25.7637 59.4414 30.5977C51.707 33.2832 45.3691 35.7539 40.5352 38.2246C35.7012 40.6953 31.082 44.0254 26.6777 48.4297C24.8516 50.2559 22.8105 52.5117 20.7695 55.3047C18.2988 58.957 17.332 61.8574 17.8691 64.1133C17.8691 64.6504 18.084 64.9727 18.5137 64.9727C18.8359 64.9727 19.0508 64.7578 19.1582 64.3281C19.1582 64.2207 19.1582 63.8984 19.0508 63.5762C18.9434 63.2539 18.9434 63.0391 18.9434 62.7168L19.373 60.998C20.125 59.0645 20.6621 57.8828 20.9844 57.4531C21.9512 55.4121 23.4551 53.4785 25.3887 51.5449C33.4453 42.8438 46.6582 35.8613 65.1348 30.5977C71.043 28.9863 75.6621 27.6973 78.9922 26.8379C86.5117 25.0117 102.088 22.4336 125.721 19.2109L130.555 18.5664C130.018 18.6738 129.373 19.1035 128.514 19.8555L127.439 20.9297C126.043 21.7891 124.754 22.7559 123.572 23.9375C122.391 25.1191 121.209 26.1934 120.242 27.0527C119.168 28.0195 117.986 29.2012 116.59 30.5977C115.193 32.1016 114.012 33.2832 113.26 34.0352C112.508 34.7871 111.326 36.0762 109.93 37.7949C108.426 39.6211 107.352 40.8027 106.814 41.4473C106.17 42.1992 105.096 43.4883 103.484 45.4219C101.873 47.4629 100.799 48.6445 100.477 49.0742C100.154 49.5039 99.0801 50.793 97.4688 53.0488C95.75 55.3047 94.7832 56.4863 94.4609 56.8086C89.1973 63.6836 83.1816 71.8477 76.6289 81.4082C71.9023 88.498 66.6387 95.1582 60.7305 101.496C53.4258 109.553 45.2617 115.891 36.1309 120.725C27 125.559 18.9434 128.137 11.9609 128.566C9.91992 128.889 8.20117 128.889 6.91211 128.781C4.97852 128.459 3.36719 127.707 2.07812 126.74C1.75586 126.418 1.43359 126.096 1.11133 125.666L0.896484 125.451C0.574219 125.451 0.466797 125.559 0.466797 125.881C0.359375 125.988 0.466797 126.311 0.896484 126.74C2.29297 128.244 4.11914 129.104 6.16016 129.426ZM138.611 16.5254L145.057 11.4766C152.039 6.75 157.303 3.84961 160.633 2.88281C162.996 2.45312 164.285 2.45312 164.393 2.88281C164.822 4.49414 162.996 6.42773 158.914 8.79102C153.006 12.3359 146.238 14.9141 138.611 16.5254ZM98.4355 99.0254C99.2949 99.4551 99.832 99.0254 100.047 97.7363C100.154 96.5547 101.98 94.6211 105.418 92.1504C108.855 89.6797 112.293 87.6387 115.623 86.0273C116.482 85.5977 117.234 85.4902 117.771 85.5977C118.846 85.9199 118.523 86.8867 116.697 88.2832C114.119 90.5391 111.648 93.2246 109.285 96.4473C104.129 103.645 103.484 107.619 107.244 108.479C108.211 108.801 109.715 108.479 111.756 107.512C113.797 106.545 116.053 105.148 118.631 103.215C121.102 101.281 123.357 99.5625 125.291 97.9512C127.225 96.4473 129.373 94.7285 131.629 92.6875C133.885 90.7539 135.066 89.7871 135.174 89.7871L140.652 85.168L141.189 84.7383C141.297 84.6309 141.404 84.416 141.404 84.3086C141.404 84.2012 141.297 84.0938 141.189 84.0938L140.867 83.8789C140.438 83.8789 140.115 83.9863 139.793 84.3086C137.967 85.9199 136.141 87.4238 134.314 88.8203C132.488 90.3242 131.092 91.5059 130.125 92.3652C129.051 93.332 127.977 94.2988 126.795 95.2656C116.268 103.967 109.93 108.049 107.674 107.619C106.707 106.867 106.6 105.686 107.459 103.859C108.318 102.141 109.93 99.8848 112.293 97.0918C112.938 96.3398 113.797 95.2656 114.764 93.9766C115.623 93.0098 116.268 92.2578 116.697 91.8281C120.457 87.209 121.209 84.6309 119.168 84.0938C117.664 83.6641 114.227 85.0605 108.748 88.2832C108.211 88.6055 107.566 88.9277 106.922 89.3574C106.277 89.7871 105.848 90.1094 105.525 90.2168L105.096 90.4316C105.418 89.8945 106.922 87.8535 109.715 84.5234C113.689 79.7969 115.408 77.1113 114.979 76.5742C114.227 75.6074 112.83 76.1445 110.789 78.1855C108.426 80.0117 105.848 82.8047 103.055 86.5645C100.262 90.3242 98.543 93.0098 98.0059 94.6211C97.2539 97.3066 97.4688 98.7031 98.4355 99.0254ZM204.354 31.6719C203.816 29.416 201.238 29.7383 196.619 32.4238C192.537 34.8945 189.1 37.3652 186.307 39.8359C175.994 48.752 169.441 54.5527 166.648 57.2383C162.029 61.6426 155.047 68.4102 145.809 77.6484C141.297 82.2676 137.967 85.8125 135.926 88.498L124.861 102.57C119.812 104.396 114.871 106.223 110.145 107.834C107.781 108.801 106.6 109.445 106.6 109.553C106.6 109.66 106.6 109.768 106.707 109.875C106.814 109.982 106.922 110.09 107.137 110.09C107.244 110.09 107.459 110.09 107.674 110.09C107.889 110.09 108.211 109.982 108.748 109.768C109.285 109.66 109.822 109.445 110.574 109.338C111.219 109.23 111.971 109.016 112.83 108.693C114.979 108.156 117.342 108.156 119.812 108.693L114.549 115.783C111.863 119.113 108.748 124.484 105.096 131.789C104.666 132.756 104.451 133.723 104.451 134.904C104.344 136.838 105.203 137.805 106.814 137.805C110.359 137.59 115.301 133.938 121.639 126.955C127.225 120.939 128.514 115.998 125.613 112.023C125.076 111.486 124.539 110.842 124.002 110.305L125.613 108.049L127.332 105.686C128.191 104.611 129.48 103.752 131.092 103C134.314 101.711 138.504 99.9922 143.553 97.8438C148.602 95.8027 152.791 93.8691 156.336 92.2578C161.492 89.8945 165.145 87.6387 167.186 85.5977C167.723 85.0605 168.045 84.6309 168.045 84.3086C167.938 83.4492 167.508 83.4492 166.648 84.3086C164.93 86.0273 162.244 87.8535 158.592 89.7871C158.27 89.8945 149.031 93.9766 130.662 101.926L133.455 98.3809C135.281 96.0176 137.215 93.5469 139.256 90.9688C141.297 88.3906 142.586 86.9941 143.123 86.6719C153.543 80.4414 162.352 74.5332 169.334 68.9473C177.605 62.502 185.662 55.1973 193.504 46.9258C195.76 44.6699 198.123 41.9844 200.594 38.7617C203.387 35.2168 204.676 32.8535 204.354 31.6719ZM193.074 45.8516C182.977 57.1309 169.227 68.625 151.932 80.1191C149.676 81.7305 147.312 83.127 144.949 84.3086L148.172 80.5488C149.998 78.8301 153.65 75.0703 159.236 69.2695C164.822 63.4688 169.227 59.0645 172.449 55.9492C173.416 54.875 174.92 53.3711 176.854 51.5449C178.68 49.7188 180.398 48.1074 182.01 46.4961C183.621 44.9922 185.125 43.7031 186.521 42.5215C187.381 41.7695 188.67 40.6953 190.389 39.1914C192 37.6875 193.289 36.6133 194.148 35.8613C198.445 32.3164 201.346 30.9199 202.742 31.6719C202.85 32.209 202.957 32.5312 203.064 32.7461C203.172 32.9609 202.957 33.498 202.42 34.3574C201.883 35.2168 201.453 35.9688 201.023 36.6133C200.594 37.3652 199.949 38.2246 199.09 39.1914C198.123 40.1582 197.371 41.0176 196.834 41.5547C196.297 42.1992 195.545 42.9512 194.793 43.918C193.934 44.8848 193.396 45.5293 193.074 45.8516ZM118.738 107.404C117.557 107.082 116.375 107.082 115.193 107.189L119.812 105.686C121.316 105.148 122.605 104.719 123.572 104.289L120.672 108.049L118.738 107.404ZM108.426 108.479L110.145 107.834C109.822 107.834 109.607 107.941 109.285 108.049C108.963 108.156 108.748 108.371 108.426 108.479ZM124.432 112.453C125.828 114.816 125.828 117.717 124.217 121.262C123.465 122.658 122.283 124.484 120.457 126.525C115.623 132.111 111.648 135.334 108.426 136.193C106.6 136.838 106.062 135.979 106.814 133.615C107.137 132.863 109.07 129.748 112.615 124.162C114.334 121.369 116.482 118.469 119.168 115.354C120.672 113.527 121.961 112.131 123.143 111.164C123.25 111.057 123.68 111.486 124.432 112.453ZM188.025 83.2344C185.555 85.4902 183.406 86.6719 181.688 86.8867C179.324 87.4238 176.961 87.209 174.598 86.2422C175.887 82.2676 175.779 79.7969 174.383 78.8301C173.201 78.0781 172.127 78.5078 171.16 79.9043C170.516 80.6562 170.193 81.623 170.193 82.5898C170.193 83.3418 170.301 83.7715 170.408 84.0938C170.086 83.3418 169.656 83.0195 169.119 83.0195C167.4 83.0195 164.715 85.0605 161.17 89.25C157.518 93.4395 155.799 96.5547 156.121 98.5957C156.551 100.422 157.732 101.174 159.666 100.852C160.848 100.852 162.889 99.7773 166.004 97.7363C168.582 95.4805 170.516 93.4395 171.805 91.6133C172.664 90.4316 173.523 89.0352 174.383 87.4238C178.143 88.8203 181.58 88.7129 184.803 86.8867C185.555 86.457 186.844 85.5977 188.455 84.3086C188.777 83.9863 188.885 83.6641 188.885 83.2344C188.885 82.8047 188.562 82.8047 188.025 83.2344ZM173.523 85.8125L173.094 85.5977C172.771 85.4902 172.449 85.168 172.02 84.7383C171.482 83.9863 171.268 82.8047 171.59 81.4082C171.697 80.8711 172.02 80.4414 172.449 80.1191C173.309 79.1523 173.846 79.1523 174.168 80.334C174.275 80.6562 174.383 80.9785 174.383 81.3008C174.383 81.623 174.383 82.0527 174.383 82.375C174.383 82.8047 174.383 83.2344 174.275 83.5566C174.168 83.8789 174.168 84.2012 174.061 84.416C173.953 84.6309 173.953 84.8457 173.846 85.168C173.738 85.4902 173.631 85.7051 173.523 85.8125ZM164.715 97.3066C162.889 98.7031 161.492 99.5625 160.311 99.6699C159.988 99.6699 159.773 99.7773 159.666 99.8848C157.41 99.8848 158.699 96.9844 163.426 91.0762C165.145 89.1426 166.863 87.6387 168.475 86.457L170.623 84.9531C170.945 85.4902 171.482 85.9199 172.02 86.2422L173.094 86.8867C170.73 91.291 167.938 94.8359 164.715 97.3066ZM183.836 109.338C180.184 111.164 178.357 110.949 178.357 108.693C178.25 105.363 181.258 100.314 187.596 93.5469C189.422 91.6133 190.604 90.3242 191.033 89.6797C191.355 89.0352 191.463 88.1758 191.141 87.209C190.604 85.3828 190.281 84.0938 190.174 83.2344C190.066 82.1602 189.852 81.4082 189.529 80.9785C189.207 80.5488 188.777 80.4414 188.025 80.7637C187.488 80.7637 187.273 81.1934 187.596 82.0527C187.596 82.8047 187.273 83.5566 186.629 84.2012C185.877 84.8457 185.555 85.2754 185.555 85.3828L186.307 86.0273C186.414 85.9199 186.629 85.7051 186.844 85.5977C187.059 85.4902 187.273 85.2754 187.381 85.168C187.703 85.168 188.025 85.4902 188.455 86.2422C188.562 86.7793 188.67 87.3164 188.67 87.8535C188.562 88.2832 186.951 90.002 184.051 92.9023C177.498 99.7773 174.705 105.148 175.887 108.908C177.068 112.453 180.506 112.668 186.092 109.768C190.711 107.297 197.801 102.033 207.361 93.7617C208.221 93.0098 209.188 92.2578 210.154 91.291C211.121 90.4316 212.195 89.4648 213.377 88.2832C214.559 87.209 215.418 86.3496 215.955 85.8125C216.814 84.9531 217.244 84.416 217.244 84.3086C217.244 83.5566 216.707 83.5566 215.74 84.3086L212.84 87.209C204.568 94.6211 198.66 99.6699 195.33 102.248C191.893 104.934 188.025 107.297 183.836 109.338ZM228.201 111.594C229.598 114.064 234.217 112.561 241.844 106.975C245.604 104.074 250.008 100.207 255.057 95.4805C256.561 94.1914 258.709 92.2578 261.395 89.7871C264.08 87.3164 265.906 85.7051 266.766 84.9531C267.088 84.6309 267.088 84.416 266.98 84.3086C266.98 83.9863 266.766 83.8789 266.336 83.8789C266.229 83.8789 266.014 83.9863 265.691 84.3086L260.105 89.3574C254.842 94.5137 250.76 98.3809 247.645 100.852C237.654 109.016 231.854 112.561 230.027 111.594C229.705 110.842 229.705 110.09 229.812 109.338C229.92 108.586 230.672 107.404 231.854 105.793C233.035 104.182 234.002 102.893 234.861 101.818C235.721 100.852 236.688 99.7773 237.869 98.5957L239.48 96.6621L245.389 90.2168C248.289 87.3164 249.578 85.168 249.148 83.8789C249.041 83.5566 248.826 83.3418 248.504 83.2344C247.215 82.1602 242.381 84.2012 234.002 89.3574L237.01 85.5977C240.447 81.5156 242.381 78.9375 242.811 77.9707C243.133 77.4336 243.24 76.8965 243.348 76.252C243.455 75.6074 243.348 75.0703 243.133 74.5332C242.811 73.9961 242.381 73.8887 241.629 73.9961C238.836 74.3184 235.721 75.7148 232.176 78.1855C227.127 81.5156 221.434 86.2422 215.311 92.2578C213.914 93.5469 212.84 94.7285 211.98 95.6953L214.559 90.4316C216.062 88.1758 218.963 84.9531 223.367 80.5488C226.375 77.6484 228.416 75.9297 229.383 75.5C230.135 75.1777 230.457 74.748 230.564 73.9961C230.672 73.3516 230.35 72.9219 229.598 72.8145C228.953 72.9219 228.201 73.0293 227.342 73.3516C225.73 74.1035 223.152 76.1445 219.607 79.6895C212.41 86.8867 209.08 92.4727 209.51 96.4473C209.617 97.6289 209.939 98.3809 210.369 98.7031C210.691 99.0254 211.229 99.0254 211.766 98.5957C212.303 98.2734 212.625 98.0586 212.625 97.7363C212.518 97.4141 212.732 96.9844 213.484 96.2324C215.955 92.6875 220.359 88.3906 226.697 83.3418C233.035 78.4004 237.654 75.6074 240.555 75.0703C241.092 74.9629 241.414 75.0703 241.414 75.3926C241.414 75.7148 241.307 76.252 240.984 76.7891C240.877 77.1113 239.91 78.0781 238.299 79.9043C236.58 81.7305 234.754 83.6641 232.713 85.8125C230.672 88.0684 229.383 89.4648 228.953 90.002C226.912 92.043 225.73 94.1914 225.623 96.2324C225.516 97.5215 226.053 97.5215 227.342 96.2324C229.598 93.7617 232.283 91.5059 235.506 89.5723C237.869 87.9609 240.447 86.457 243.133 85.0605C245.818 83.6641 247.322 83.3418 247.645 83.8789C247.752 84.3086 246.57 85.8125 244.1 88.2832C236.473 95.9102 231.531 101.926 229.168 106.33C227.986 108.693 227.664 110.412 228.201 111.594ZM273.855 107.189C276.219 106.438 279.441 104.396 283.631 101.066C286.316 99.0254 289.217 96.5547 292.117 93.7617L300.496 85.8125C301.463 84.9531 301.893 84.416 301.893 84.3086C301.785 83.5566 301.248 83.5566 300.281 84.3086L297.488 87.209C292.01 92.5801 287.283 96.7695 283.201 99.8848C276.863 104.611 272.781 106.867 270.848 106.545C268.484 106.438 268.699 103.43 271.492 97.7363C271.922 96.9844 272.459 96.2324 272.996 95.4805C273.533 94.7285 274.285 93.9766 275.037 93.0098C275.789 92.1504 276.326 91.5059 276.756 91.0762C277.938 89.6797 278.367 88.6055 278.26 88.0684C278.152 87.5312 278.367 86.8867 278.797 86.0273C280.086 84.416 280.408 82.8047 279.871 81.1934C279.119 78.7227 276.434 78.5078 271.707 80.5488C266.443 82.8047 262.469 85.9199 259.783 90.002C258.816 91.8281 258.279 93.4395 258.172 95.0508C258.064 96.6621 258.602 97.7363 259.783 98.166C260.965 98.5957 262.576 98.3809 264.617 97.5215C265.584 97.1992 267.303 96.2324 269.773 94.4062C268.807 95.5879 268.162 97.3066 267.625 99.3477C267.088 101.496 267.195 103.645 267.732 105.686C268.592 107.727 270.633 108.156 273.855 107.189ZM260.75 96.877C260.213 95.5879 261.395 93.2246 264.402 89.7871C267.303 86.457 270.311 83.8789 273.211 82.2676C275.896 80.6562 277.508 80.2266 278.045 80.7637C279.549 81.623 279.334 83.3418 277.4 85.8125C276.971 86.5645 276.111 87.3164 274.93 88.2832C273.641 89.25 272.889 89.8945 272.566 90.2168C269.773 92.5801 268.27 93.8691 268.162 93.9766C265.906 95.4805 264.725 96.3398 264.402 96.4473C262.146 97.1992 260.857 97.3066 260.75 96.877ZM282.986 131.359C284.598 131.037 287.068 129.855 290.184 127.6C296.092 123.41 307.693 113.527 325.203 98.166C326.814 96.6621 329.178 94.5137 332.293 91.7207C335.408 88.9277 337.664 86.7793 339.061 85.3828C339.598 84.8457 339.812 84.416 339.705 84.0938C339.598 83.5566 339.275 83.4492 338.846 83.8789L332.723 89.5723C318.328 103 306.619 113.205 297.703 120.402C287.713 128.244 281.912 131.467 280.516 130.07C278.475 128.029 280.086 121.799 285.35 111.594C288.25 106.33 292.225 100.207 297.059 93.332C297.811 92.1504 301.248 87.7461 307.371 80.1191C313.064 73.5664 317.684 68.9473 321.014 66.2617L330.037 59.709C332.938 57.3457 337.234 53.8008 342.82 49.0742L347.439 45.0996L350.555 45.5293C353.885 45.8516 357.537 45.7441 361.297 45.3145C364.412 44.8848 367.205 44.2402 369.891 43.3809C373.436 42.1992 375.799 40.6953 377.088 38.7617C377.195 38.6543 377.303 38.4395 377.303 38.332C377.195 38.2246 376.98 38.1172 376.658 38.1172C376.336 38.2246 376.014 38.5469 375.584 38.9766C373.865 40.4805 371.717 41.6621 369.031 42.5215C366.346 43.4883 363.875 44.1328 361.512 44.2402C356.893 44.7773 352.488 44.7773 348.299 44.0254L355.818 36.6133C357.752 34.5723 359.041 32.8535 359.793 31.457C360.33 29.7383 359.793 28.8789 358.396 28.8789C357.215 28.8789 354.422 30.5977 350.018 33.9277L341.316 41.6621L339.061 40.9102C324.773 36.0762 313.172 33.8203 304.256 33.9277C297.596 34.25 291.58 34.8945 286.102 36.0762C284.061 36.6133 282.342 37.1504 280.945 37.6875C274.07 39.9434 268.484 43.166 264.08 47.3555C262.469 48.9668 261.287 50.5781 260.535 52.1895C260.213 52.7266 260.105 53.2637 260.105 53.6934C260.213 54.0156 260.535 54.2305 260.857 54.3379C261.18 54.4453 261.502 54.4453 261.609 54.123L261.824 53.6934C261.824 53.5859 261.824 53.4785 261.824 53.4785C262.039 52.2969 262.898 50.9004 264.295 49.0742C267.625 45.4219 271.922 42.5215 277.078 40.4805C290.506 34.7871 304.578 33.498 319.295 36.6133L323.699 37.6875C330.145 39.5137 334.871 40.9102 337.986 42.0918L340.135 42.9512L335.945 46.2812L329.607 52.1895C315.643 65.1875 305.33 75.9297 298.562 84.3086C294.051 89.7871 289.969 95.373 286.316 101.281C281.59 108.908 278.582 115.139 277.293 120.188C276.756 122.014 276.648 123.84 276.756 125.451C277.4 129.963 279.441 131.896 282.986 131.359ZM347.01 43.5957L344.109 42.7363C344.539 42.1992 345.184 41.4473 346.15 40.6953C347.01 39.9434 348.084 39.084 349.266 38.0098C350.447 37.043 351.307 36.1836 351.844 35.6465L355.174 32.8535C357.645 30.8125 358.826 30.168 358.826 31.0273C358.934 31.457 358.074 32.7461 356.248 34.7871L351.414 39.6211C349.051 41.877 347.547 43.166 347.01 43.5957ZM323.699 62.502L335.086 51.1152L339.275 47.3555L343.035 44.0254L345.936 44.8848L342.82 47.5703L335.516 53.4785C330.467 57.8828 326.492 60.8906 323.699 62.502ZM350.662 74.8555C351.629 74.4258 351.844 73.5664 351.307 72.3848C350.984 71.6328 350.555 71.5254 349.803 71.8477C349.051 72.2773 348.514 73.0293 348.084 73.9961C347.977 74.4258 347.869 74.748 347.869 75.0703C347.762 75.9297 348.729 75.8223 350.662 74.8555ZM329.822 105.686C333.045 106.545 340.564 103.107 352.273 95.2656C355.818 92.7949 360.115 89.4648 365.164 85.3828C365.809 84.9531 366.131 84.5234 366.131 84.0938C366.023 83.2344 365.486 83.3418 364.52 84.3086C359.363 88.9277 351.844 94.1914 342.068 100.1C336.805 103.322 332.83 104.826 330.037 104.504C327.137 104.074 328.211 100.744 333.367 94.6211C333.904 93.8691 334.979 92.6875 336.59 91.0762C340.35 87.5312 342.928 84.7383 344.324 82.8047C344.646 82.4824 344.754 82.1602 344.754 82.0527C344.754 81.5156 344.432 81.1934 343.895 81.1934C342.928 81.0859 341.961 81.1934 340.994 81.623C339.812 82.5898 339.061 83.2344 338.631 83.6641L334.227 88.0684C333.475 88.8203 332.078 90.4316 330.037 93.1172C327.996 95.9102 326.814 98.4883 326.707 100.959C326.6 103.43 327.566 104.934 329.822 105.686ZM385.896 83.2344C383.426 85.4902 381.277 86.6719 379.559 86.8867C377.195 87.4238 374.832 87.209 372.469 86.2422C373.758 82.2676 373.65 79.7969 372.254 78.8301C371.072 78.0781 369.998 78.5078 369.031 79.9043C368.387 80.6562 368.064 81.623 368.064 82.5898C368.064 83.3418 368.172 83.7715 368.279 84.0938C367.957 83.3418 367.527 83.0195 366.99 83.0195C365.271 83.0195 362.586 85.0605 359.041 89.25C355.389 93.4395 353.67 96.5547 353.992 98.5957C354.422 100.422 355.604 101.174 357.537 100.852C358.719 100.852 360.76 99.7773 363.875 97.7363C366.453 95.4805 368.387 93.4395 369.676 91.6133C370.535 90.4316 371.395 89.0352 372.254 87.4238C376.014 88.8203 379.451 88.7129 382.674 86.8867C383.426 86.457 384.715 85.5977 386.326 84.3086C386.648 83.9863 386.756 83.6641 386.756 83.2344C386.756 82.8047 386.434 82.8047 385.896 83.2344ZM371.395 85.8125L370.965 85.5977C370.643 85.4902 370.32 85.168 369.891 84.7383C369.354 83.9863 369.139 82.8047 369.461 81.4082C369.568 80.8711 369.891 80.4414 370.32 80.1191C371.18 79.1523 371.717 79.1523 372.039 80.334C372.146 80.6562 372.254 80.9785 372.254 81.3008C372.254 81.623 372.254 82.0527 372.254 82.375C372.254 82.8047 372.254 83.2344 372.146 83.5566C372.039 83.8789 372.039 84.2012 371.932 84.416C371.824 84.6309 371.824 84.8457 371.717 85.168C371.609 85.4902 371.502 85.7051 371.395 85.8125ZM362.586 97.3066C360.76 98.7031 359.363 99.5625 358.182 99.6699C357.859 99.6699 357.645 99.7773 357.537 99.8848C355.281 99.8848 356.57 96.9844 361.297 91.0762C363.016 89.1426 364.734 87.6387 366.346 86.457L368.494 84.9531C368.816 85.4902 369.354 85.9199 369.891 86.2422L370.965 86.8867C368.602 91.291 365.809 94.8359 362.586 97.3066ZM377.947 99.0254C378.807 99.4551 379.344 99.0254 379.559 97.7363C379.666 96.5547 381.492 94.6211 384.93 92.1504C388.367 89.6797 391.805 87.6387 395.135 86.0273C395.994 85.5977 396.746 85.4902 397.283 85.5977C398.357 85.9199 398.035 86.8867 396.209 88.2832C393.631 90.5391 391.16 93.2246 388.797 96.4473C383.641 103.645 382.996 107.619 386.756 108.479C387.723 108.801 389.227 108.479 391.268 107.512C393.309 106.545 395.564 105.148 398.143 103.215C400.613 101.281 402.869 99.5625 404.803 97.9512C406.736 96.4473 408.885 94.7285 411.141 92.6875C413.396 90.7539 414.578 89.7871 414.686 89.7871L420.164 85.168L420.701 84.7383C420.809 84.6309 420.916 84.416 420.916 84.3086C420.916 84.2012 420.809 84.0938 420.701 84.0938L420.379 83.8789C419.949 83.8789 419.627 83.9863 419.305 84.3086C417.479 85.9199 415.652 87.4238 413.826 88.8203C412 90.3242 410.604 91.5059 409.637 92.3652C408.562 93.332 407.488 94.2988 406.307 95.2656C395.779 103.967 389.441 108.049 387.186 107.619C386.219 106.867 386.111 105.686 386.971 103.859C387.83 102.141 389.441 99.8848 391.805 97.0918C392.449 96.3398 393.309 95.2656 394.275 93.9766C395.135 93.0098 395.779 92.2578 396.209 91.8281C399.969 87.209 400.721 84.6309 398.68 84.0938C397.176 83.6641 393.738 85.0605 388.26 88.2832C387.723 88.6055 387.078 88.9277 386.434 89.3574C385.789 89.7871 385.359 90.1094 385.037 90.2168L384.607 90.4316C384.93 89.8945 386.434 87.8535 389.227 84.5234C393.201 79.7969 394.92 77.1113 394.49 76.5742C393.738 75.6074 392.342 76.1445 390.301 78.1855C387.938 80.0117 385.359 82.8047 382.566 86.5645C379.773 90.3242 378.055 93.0098 377.518 94.6211C376.766 97.3066 376.98 98.7031 377.947 99.0254Z" fill="#BF9475"/>
</svg>
