<svg width="602" height="169" viewBox="0 0 602 169" fill="none" xmlns="http://www.w3.org/2000/svg">
<path d="M127.641 117.592C139.242 116.732 151.166 111.254 163.52 101.264C173.725 92.8848 183.07 83.5391 191.449 73.334C203.158 58.7246 211 45.7266 214.975 34.2324C216.371 30.3652 217.123 26.9277 217.23 23.8125C217.23 23.4902 217.23 23.0605 217.338 22.416C217.445 21.7715 217.445 21.3418 217.445 21.0195L220.023 18.9785C222.494 16.9375 224.213 14.5742 224.965 11.6738C225.717 8.77344 224.965 6.30273 222.709 4.26172C219.916 1.89844 215.512 1.14648 209.496 2.00586C203.48 2.97266 197.357 4.58398 191.02 7.05469C184.682 9.52539 178.881 12.4258 173.617 15.6484C166.312 20.375 160.189 24.7793 155.355 28.8613C153.637 30.4727 151.596 31.2246 149.232 31.1172C144.398 30.3652 138.598 29.1836 132.045 27.5723C128.715 26.7129 123.881 25.209 117.65 23.168C111.42 21.127 107.445 19.8379 105.834 19.4082C95.3066 16.293 87.7871 14.3594 83.168 13.6074C78.5488 12.8555 72.5332 12.5332 64.9062 12.6406C43.7441 12.6406 26.127 17.3672 12.1621 26.7129C1.3125 34.3398 -2.01758 41 2.06445 46.9082C2.38672 47.3379 2.70898 47.6602 3.03125 47.7676C3.35352 47.875 3.67578 47.875 3.7832 47.5527C3.89062 47.123 3.89062 46.8008 3.7832 46.6934C2.92383 43.4707 2.60156 41.3223 2.70898 40.3555C3.24609 38.5293 4.21289 36.4883 5.60938 34.4473C10.6582 28.8613 17.3184 24.5645 25.5898 21.4492C44.1738 14.7891 63.2949 12.748 82.7383 15.4336C89.8281 16.5078 98.6367 18.7637 109.164 22.3086C119.691 25.6387 126.029 27.6797 128.07 28.2168C132.045 29.3984 137.738 30.7949 145.043 32.1914L150.307 32.8359L144.398 38.0996C137.094 44.4375 130.541 51.3125 124.848 58.6172C111.312 75.5898 106.264 90.9512 109.809 104.809C112.064 114.047 117.973 118.344 127.641 117.592ZM158.471 32.6211C158.148 32.6211 159.115 31.6543 161.156 29.8281C163.197 28.002 166.42 25.5312 170.932 22.3086C175.336 19.0859 180.062 15.9707 185.111 13.0703C190.053 10.1699 196.068 7.69922 203.158 5.87305C210.141 4.04688 215.512 3.72461 219.164 4.69141C221.957 5.6582 223.354 7.48438 223.354 10.1699C223.354 12.2109 222.279 14.5742 220.023 17.0449C219.486 17.582 218.52 18.334 217.23 19.1934C216.693 17.9043 215.941 16.4004 214.975 14.7891C213.793 13.6074 213.041 13.3926 212.611 13.9297C212.289 14.4668 212.396 15.3262 212.826 16.6152C212.826 17.3672 213.041 17.7969 213.471 17.9043C213.578 18.0117 213.793 18.1191 214.115 18.1191C214.438 18.1191 214.652 18.1191 214.76 18.1191C215.082 18.4414 215.189 18.7637 215.189 19.1934L215.404 20.2676C211.645 22.7383 209.174 24.3496 207.992 24.8867C201.762 28.2168 195.316 30.7949 188.549 32.4062C180.062 34.3398 170.072 34.4473 158.471 32.6211ZM132.26 115.336C123.773 117.162 117.973 116.195 115.072 112.543C113.676 110.287 112.816 107.816 112.494 105.023C111.527 94.8184 114.105 84.9355 120.229 75.2676C124.848 67.6406 132.26 58.4023 142.357 47.3379C145.365 44.3301 150.307 40.0332 157.182 34.4473L162.445 35.0918C165.775 35.5215 170.287 35.6289 175.98 35.4141C181.674 35.3066 186.723 34.6621 191.234 33.4805C200.043 31.6543 207.562 28.2168 213.686 23.3828L215.619 22.0938L215.404 24.8867L215.189 27.3574L214.115 31.7617C213.148 35.4141 211.752 38.7441 210.141 41.6445L207.992 45.6191C201.869 57.2207 194.242 68.1777 185.219 78.4902C176.088 88.9102 166.42 97.6113 156 104.809C147.943 110.502 140.102 114.047 132.26 115.336ZM210.033 100.834C214.115 99.6523 221.42 94.6035 232.055 85.4727C232.592 85.043 234.418 83.4316 237.533 80.6387C240.004 78.5977 241.078 77.416 240.648 77.0938C240.326 76.9863 239.896 77.2012 239.145 77.9531C237.963 78.9199 236.781 79.7793 235.814 80.6387C220.99 93.6367 211.859 100.189 208.529 100.189C206.811 100.189 206.166 99.3301 206.596 97.5039C207.562 94.1738 210.463 90.3066 215.189 86.1172L219.809 81.498C220.99 80.3164 221.312 79.457 220.883 79.0273C219.916 78.2754 218.197 79.0273 215.834 81.0684C212.289 84.1836 209.281 86.332 206.596 87.6211C201.869 90.0918 199.184 90.8438 198.646 89.877C198.324 89.4473 198.861 88.4805 200.15 87.084C201.332 85.6875 202.943 84.0762 204.984 82.25C206.918 80.4238 208.207 79.1348 208.744 78.5977C210.033 76.9863 210.141 75.8047 208.959 75.2676C208.207 74.9453 207.025 75.6973 205.199 77.5234C200.795 81.9277 198.324 84.7207 197.787 85.6875C196.605 87.9434 196.498 89.4473 197.357 90.3066C198.861 91.918 203.158 90.6289 210.355 86.5469L208.1 88.9102C204.232 94.0664 203.266 97.7188 205.199 99.9746C206.166 101.264 207.777 101.586 210.033 100.834ZM236.996 102.338C233.344 104.164 231.518 103.949 231.518 101.693C231.41 98.3633 234.418 93.3145 240.756 86.5469C242.582 84.6133 243.764 83.3242 244.193 82.6797C244.516 82.0352 244.623 81.1758 244.301 80.209C243.764 78.3828 243.441 77.0938 243.334 76.2344C243.227 75.1602 243.012 74.4082 242.689 73.9785C242.367 73.5488 241.938 73.4414 241.186 73.7637C240.648 73.7637 240.434 74.1934 240.756 75.0527C240.756 75.8047 240.434 76.5566 239.789 77.2012C239.037 77.8457 238.715 78.2754 238.715 78.3828L239.467 79.0273C239.574 78.9199 239.789 78.7051 240.004 78.5977C240.219 78.4902 240.434 78.2754 240.541 78.168C240.863 78.168 241.186 78.4902 241.615 79.2422C241.723 79.7793 241.83 80.3164 241.83 80.8535C241.723 81.2832 240.111 83.002 237.211 85.9023C230.658 92.7773 227.865 98.1484 229.047 101.908C230.229 105.453 233.666 105.668 239.252 102.768C243.871 100.297 250.961 95.0332 260.521 86.7617C261.381 86.0098 262.348 85.2578 263.314 84.291C264.281 83.4316 265.355 82.4648 266.537 81.2832C267.719 80.209 268.578 79.3496 269.115 78.8125C269.975 77.9531 270.404 77.416 270.404 77.3086C270.404 76.5566 269.867 76.5566 268.9 77.3086L266 80.209C257.729 87.6211 251.82 92.6699 248.49 95.248C245.053 97.9336 241.186 100.297 236.996 102.338ZM454.096 124.359C459.682 123.5 473.754 112.543 496.42 91.3809C502.865 85.4727 507.484 81.1758 510.277 78.3828C510.814 77.8457 511.029 77.416 510.922 77.0938C510.814 76.5566 510.492 76.4492 510.062 76.8789L503.832 82.5723C496.42 89.7695 484.711 100.082 468.92 113.402C462.367 118.881 457.426 122.104 453.881 123.285C452.914 123.607 452.162 123.5 451.732 123.07C450.121 121.459 450.229 118.559 452.162 114.477C452.484 113.725 453.129 112.221 454.096 109.965C455.062 107.709 455.814 105.883 456.566 104.594C459.467 99.3301 463.334 93.207 468.168 86.332C469.35 84.5059 472.895 80.1016 478.588 73.1191C483.637 66.7812 488.148 62.1621 492.23 59.2617L501.254 52.709C502.436 51.7422 506.625 48.1973 513.93 42.0742L518.549 38.0996L521.664 38.5293C524.994 38.8516 528.646 38.7441 532.406 38.3145C535.521 37.8848 538.314 37.2402 541 36.3809C543.686 35.5215 546.049 34.0176 548.305 31.7617C548.412 31.6543 548.52 31.4395 548.52 31.332C548.412 31.2246 548.197 31.1172 547.875 31.1172C547.768 31.1172 547.338 31.4395 546.801 31.9766C545.619 33.1582 543.363 34.3398 540.141 35.5215C537.455 36.4883 534.984 37.1328 532.621 37.2402C526.82 37.6699 522.416 37.5625 519.516 37.0254L526.928 29.6133C528.861 27.5723 530.15 25.8535 530.902 24.457C531.762 22.7383 531.332 21.8789 529.613 21.8789C527.787 21.8789 524.994 23.5977 521.234 26.9277L512.426 34.6621L510.277 33.9102C494.271 29.291 482.67 26.9277 475.473 26.9277C469.027 26.9277 462.904 27.6797 457.211 29.0762C455.277 29.6133 453.559 30.1504 452.162 30.6875C444.643 33.373 438.949 36.5957 435.189 40.3555C433.578 41.9668 432.396 43.5781 431.645 45.1895C431.322 45.7266 431.215 46.2637 431.215 46.6934C431.215 47.0156 431.43 47.2305 431.859 47.3379C432.182 47.4453 432.504 47.4453 432.826 47.123C432.934 47.0156 433.041 46.8008 433.041 46.4785C432.934 45.5117 433.793 44.0078 435.404 42.0742C438.197 38.7441 442.494 35.8438 448.188 33.4805C462.904 27.3574 476.977 26.0684 490.404 29.6133L494.809 30.6875C501.254 32.5137 505.98 33.9102 509.096 35.0918L511.352 35.9512L507.162 39.2812L500.824 45.1895C493.197 52.6016 487.504 58.1875 483.852 61.9473C468.49 71.7227 454.633 77.2012 442.494 78.3828C431.43 79.457 421.332 78.7051 412.094 76.2344C406.83 74.7305 403.5 73.7637 402.211 73.334L409.516 60.9805C413.598 53.1387 418.539 45.5117 424.447 37.8848L428.207 33.6953L440.883 31.1172C453.021 27.4648 460.971 24.6719 464.945 22.7383C470.424 20.0527 475.258 17.3672 479.447 14.5742C483.422 11.6738 486.107 8.45117 487.396 5.12109C488.256 2.00586 486.322 0.609375 481.596 0.931641C473.432 0.931641 464.408 3.50977 454.418 8.77344C444.428 14.0371 435.082 20.6973 426.381 28.6465C425.199 29.7207 423.91 30.7949 422.621 31.7617L408.334 33.0508C395.443 32.7285 383.734 31.332 373.207 28.6465C370.844 28.1094 366.762 26.9277 361.068 25.3164C355.375 23.7051 351.078 22.6309 348.393 21.9863C345.707 21.3418 341.84 20.375 336.791 19.0859C331.742 17.9043 327.445 16.9375 324.008 16.4004C320.57 15.8633 316.596 15.4336 312.191 14.8965C307.68 14.3594 303.383 14.1445 299.193 14.252C295.004 14.3594 290.707 14.5742 286.518 15.0039C270.619 16.8301 257.836 20.4824 248.168 26.0684C232.914 34.9844 224.965 45.7266 224.213 58.1875C224.213 58.7246 224.213 59.4766 224.32 60.3359C224.428 61.3027 224.535 62.377 224.643 63.666C224.75 64.9551 225.18 65.9219 225.717 66.459C226.254 67.1035 226.791 67.2109 227.328 66.7812C227.328 66.459 227.221 65.9219 226.898 65.1699C226.576 64.418 226.469 63.8809 226.469 63.4512C226.469 63.1289 226.469 62.5918 226.361 61.8398C226.254 61.0879 226.254 60.6582 226.254 60.3359C226.254 58.0801 226.469 55.9316 226.898 53.998C227.758 49.2715 229.584 45.1895 232.377 41.8594C240.756 31.0098 252.25 23.8125 266.752 20.0527C281.254 16.293 296.4 15.2188 312.406 16.6152C324.867 17.7969 336.791 19.9453 348.285 23.168C361.82 27.1426 373.1 30.043 382.123 31.8691C391.146 33.6953 400.707 34.6621 410.805 34.6621C414.564 34.5547 418.002 34.3398 420.902 33.9102C416.713 38.7441 411.127 46.6934 404.145 57.543C403.285 58.832 401.996 60.9805 400.277 63.8809C398.451 66.7812 397.055 69.252 395.873 71.1855L392.113 70.0039C391.039 69.6816 388.461 68.9297 384.271 67.748C380.082 66.5664 377.396 65.8145 376.107 65.4922C374.711 65.1699 372.133 64.5254 368.373 63.5586C364.506 62.5918 361.713 61.9473 359.994 61.625C358.168 61.3027 355.59 60.873 352.26 60.3359C348.93 59.7988 346.137 59.3691 343.881 59.2617C341.625 59.1543 338.939 59.0469 336.039 59.0469C333.139 59.0469 330.238 59.1543 327.445 59.4766C312.299 60.873 300.375 64.8477 291.566 71.6152C285.873 76.127 282.543 82.1426 281.576 89.5547C280.609 97.0742 282.436 103.52 286.947 108.783C294.252 117.162 304.887 121.459 318.852 121.781C334.535 121.889 349.789 117.699 364.506 109.213C379.223 100.727 391.254 89.5547 400.492 75.5898C400.6 75.4824 401.244 75.4824 402.211 75.8047C406.508 76.9863 411.986 78.168 418.539 79.457C438.305 83.3242 458.5 79.1348 479.018 66.7812L469.779 77.3086C465.16 82.7871 461.078 88.373 457.426 94.2812C452.699 101.908 449.691 108.139 448.402 113.188C447.973 115.014 447.865 116.84 447.973 118.451C448.51 122.963 450.551 124.896 454.096 124.359ZM429.496 31.5469L434.975 26.9277C444.965 18.4414 454.74 11.9961 464.086 7.5918C467.309 6.08789 471.391 4.79883 476.439 3.83203C481.381 2.86523 484.389 2.86523 485.355 3.83203C485.893 4.79883 485.248 6.30273 483.422 8.34375C481.488 10.3848 479.125 12.3184 476.332 14.1445C470.209 18.1191 464.838 20.9121 460.434 22.7383C456.029 24.5645 449.584 26.8203 441.205 29.291C439.164 29.9355 435.189 30.6875 429.496 31.5469ZM518.119 36.5957L515.326 35.7363C515.756 35.1992 516.4 34.4473 517.26 33.6953C518.119 32.9434 519.193 32.084 520.375 31.0098C521.557 30.043 522.416 29.1836 522.953 28.6465L526.283 25.8535C528.754 23.8125 530.043 23.168 530.043 24.0273C530.043 24.7793 529.184 25.9609 527.357 27.7871L522.523 32.6211C520.16 34.9844 518.656 36.2734 518.119 36.5957ZM494.809 55.502L506.303 44.1152L510.492 40.3555L514.145 37.0254L517.045 37.8848L513.93 40.5703L506.732 46.4785C501.469 50.668 497.494 53.6758 494.809 55.502ZM332.279 118.451C325.941 119.311 319.496 119.633 312.943 119.418C306.283 119.203 300.053 117.162 294.252 113.402C288.451 109.643 284.799 104.594 283.402 98.1484C282.113 92.6699 282.65 87.4062 285.014 82.5723C287.27 77.7383 290.922 73.7637 295.971 70.6484C310.043 61.8398 327.23 58.7246 347.641 61.1953C358.275 62.4844 371.488 65.5996 387.279 70.6484L391.898 72.0449L394.691 72.9043C389.213 81.1758 384.164 87.7285 379.76 92.5625C375.248 97.5039 370.092 101.801 364.184 105.453C354.516 111.576 343.881 115.98 332.279 118.451ZM530.795 76.2344C528.324 78.4902 526.176 79.6719 524.457 79.8867C522.094 80.4238 519.73 80.209 517.367 79.2422C518.656 75.2676 518.549 72.7969 517.152 71.8301C515.971 71.0781 514.896 71.5078 513.93 72.9043C513.285 73.6562 512.963 74.623 512.963 75.5898C512.963 76.3418 513.07 76.7715 513.178 77.0938C512.855 76.3418 512.426 76.0195 511.889 76.0195C510.17 76.0195 507.484 78.0605 503.939 82.25C500.287 86.4395 498.568 89.5547 498.891 91.5957C499.32 93.4219 500.502 94.1738 502.436 93.8516C503.617 93.8516 505.658 92.7773 508.773 90.7363C511.352 88.4805 513.285 86.4395 514.574 84.6133C515.434 83.4316 516.293 82.0352 517.152 80.4238C520.912 81.8203 524.35 81.7129 527.572 79.8867C528.324 79.457 529.613 78.5977 531.225 77.3086C531.547 76.9863 531.654 76.6641 531.654 76.2344C531.654 75.8047 531.332 75.8047 530.795 76.2344ZM516.293 78.8125L515.863 78.5977C515.541 78.4902 515.219 78.168 514.789 77.7383C514.252 76.9863 514.037 75.8047 514.359 74.4082C514.467 73.8711 514.789 73.4414 515.219 73.1191C516.078 72.1523 516.615 72.1523 516.938 73.334C517.045 73.6562 517.152 73.9785 517.152 74.3008C517.152 74.623 517.152 75.0527 517.152 75.375C517.152 75.8047 517.152 76.2344 517.045 76.5566C516.938 76.8789 516.938 77.2012 516.83 77.416C516.723 77.6309 516.723 77.8457 516.615 78.168C516.508 78.4902 516.4 78.7051 516.293 78.8125ZM507.484 90.3066C505.658 91.7031 504.262 92.5625 503.08 92.6699C502.758 92.6699 502.543 92.7773 502.436 92.8848C500.18 92.8848 501.469 89.9844 506.195 84.0762C507.914 82.1426 509.633 80.6387 511.244 79.457L513.393 77.9531C513.715 78.4902 514.252 78.9199 514.789 79.2422L515.863 79.8867C513.5 84.291 510.707 87.8359 507.484 90.3066ZM526.605 102.338C522.953 104.164 521.127 103.949 521.127 101.693C521.02 98.3633 524.027 93.3145 530.365 86.5469C532.191 84.6133 533.373 83.3242 533.803 82.6797C534.125 82.0352 534.232 81.1758 533.91 80.209C533.373 78.3828 533.051 77.0938 532.943 76.2344C532.836 75.1602 532.621 74.4082 532.299 73.9785C531.977 73.5488 531.547 73.4414 530.795 73.7637C530.258 73.7637 530.043 74.1934 530.365 75.0527C530.365 75.8047 530.043 76.5566 529.398 77.2012C528.646 77.8457 528.324 78.2754 528.324 78.3828L529.076 79.0273C529.184 78.9199 529.398 78.7051 529.613 78.5977C529.828 78.4902 530.043 78.2754 530.15 78.168C530.473 78.168 530.795 78.4902 531.225 79.2422C531.332 79.7793 531.439 80.3164 531.439 80.8535C531.332 81.2832 529.721 83.002 526.82 85.9023C520.268 92.7773 517.475 98.1484 518.656 101.908C519.838 105.453 523.275 105.668 528.861 102.768C533.48 100.297 540.57 95.0332 550.131 86.7617C550.99 86.0098 551.957 85.2578 552.924 84.291C553.891 83.4316 554.965 82.4648 556.146 81.2832C557.328 80.209 558.188 79.3496 558.725 78.8125C559.584 77.9531 560.014 77.416 560.014 77.3086C560.014 76.5566 559.477 76.5566 558.51 77.3086L555.609 80.209C547.338 87.6211 541.43 92.6699 538.1 95.248C534.662 97.9336 530.795 100.297 526.605 102.338ZM601.156 76.8789C601.049 76.7715 600.727 76.8789 600.297 77.3086C599.76 77.7383 598.9 78.5977 597.719 79.8867C596.537 81.2832 594.926 82.7871 593.1 84.5059C591.166 86.332 588.803 88.373 586.01 90.7363C582.465 93.5293 574.73 98.2559 562.699 104.809L557.113 107.709C557.221 107.494 557.65 106.957 558.295 105.99C558.832 105.023 559.691 103.734 560.766 102.016C561.84 100.404 563.236 98.3633 564.848 96C572.689 84.8281 578.705 77.3086 582.895 73.5488C584.291 72.1523 584.936 71.1855 584.828 70.6484C584.398 69.4668 582.572 70.1113 579.35 72.4746C577.309 74.1934 574.945 76.4492 572.152 79.2422C569.145 82.25 566.889 84.1836 565.492 85.043L559.369 88.6953C555.072 91.0586 552.709 91.7031 552.279 90.7363C552.172 90.4141 552.172 90.0918 552.279 89.6621C552.387 88.4805 555.18 85.043 560.443 79.457C560.766 79.0273 561.41 78.3828 562.484 77.5234C563.451 76.6641 564.311 75.9121 564.955 75.1602C565.6 74.5156 565.922 73.9785 565.922 73.5488C566.029 72.3672 565.062 71.9375 563.129 72.2598C562.377 72.3672 560.658 73.8711 558.08 76.7715C555.395 79.6719 553.246 82.3574 551.42 84.8281C550.883 85.6875 550.346 86.6543 550.023 87.8359C549.701 89.0176 549.701 90.0918 550.131 91.0586C550.561 92.0254 551.42 92.4551 552.709 92.4551C554.643 92.5625 559.369 90.1992 566.781 85.4727C566.352 86.0098 563.881 89.877 559.262 97.0742C554.643 104.271 552.172 108.031 552.064 108.139L550.131 110.932C535.307 119.311 526.713 124.037 524.35 125.219C513.93 130.912 505.873 136.605 500.18 142.191C491.801 150.463 487.504 157.338 487.182 162.924C486.859 166.146 488.041 167.973 490.727 168.402C492.445 168.725 495.99 167.65 501.254 165.287C512.533 160.023 524.779 149.174 537.777 132.738C546.479 121.781 551.527 115.336 552.924 113.402C553.568 112.65 554.213 111.898 554.965 110.932C555.717 110.072 556.146 109.535 556.254 109.428L575.375 99.3301C582.787 95.0332 589.34 89.9844 595.033 84.291L600.297 79.0273C601.264 78.0605 601.586 77.3086 601.156 76.8789ZM542.396 121.996C531.225 137.143 521.664 148.207 513.607 155.189C505.229 162.387 498.139 166.361 492.23 167.113C491.371 167.221 490.619 167.113 490.082 166.791C487.396 165.609 487.826 161.742 491.156 155.189C492.123 152.934 494.379 150.033 497.709 146.381C502.328 141.547 508.129 136.82 515.111 132.094C518.119 130.053 529.506 123.715 549.271 112.973C547.875 115.229 545.619 118.236 542.396 121.996Z" fill="#BF9475"/>
</svg>
