<svg width="479" height="117" viewBox="0 0 479 117" fill="none" xmlns="http://www.w3.org/2000/svg">
<path d="M127.408 116.592C139.01 115.732 150.934 110.254 163.287 100.264C173.492 91.8848 182.838 82.5391 191.217 72.334C202.926 57.7246 210.768 44.7266 214.742 33.2324C216.139 29.3652 216.891 25.9277 216.998 22.8125C216.998 22.4902 216.998 22.0605 217.105 21.416C217.213 20.7715 217.213 20.3418 217.213 20.0195L219.791 17.9785C222.262 15.9375 223.98 13.5742 224.732 10.6738C225.484 7.77344 224.732 5.30273 222.477 3.26172C219.684 0.898438 215.279 0.146484 209.264 1.00586C203.248 1.97266 197.125 3.58398 190.787 6.05469C184.449 8.52539 178.648 11.4258 173.385 14.6484C166.08 19.375 159.957 23.7793 155.123 27.8613C153.404 29.4727 151.363 30.2246 149 30.1172C144.166 29.3652 138.365 28.1836 131.812 26.5723C128.482 25.7129 123.648 24.209 117.418 22.168C111.188 20.127 107.213 18.8379 105.602 18.4082C95.0742 15.293 87.5547 13.3594 82.9355 12.6074C78.3164 11.8555 72.3008 11.5332 64.6738 11.6406C43.5117 11.6406 25.8945 16.3672 11.9297 25.7129C1.08008 33.3398 -2.25 40 1.83203 45.9082C2.1543 46.3379 2.47656 46.6602 2.79883 46.7676C3.12109 46.875 3.44336 46.875 3.55078 46.5527C3.6582 46.123 3.6582 45.8008 3.55078 45.6934C2.69141 42.4707 2.36914 40.3223 2.47656 39.3555C3.01367 37.5293 3.98047 35.4883 5.37695 33.4473C10.4258 27.8613 17.0859 23.5645 25.3574 20.4492C43.9414 13.7891 63.0625 11.748 82.5059 14.4336C89.5957 15.5078 98.4043 17.7637 108.932 21.3086C119.459 24.6387 125.797 26.6797 127.838 27.2168C131.812 28.3984 137.506 29.7949 144.811 31.1914L150.074 31.8359L144.166 37.0996C136.861 43.4375 130.309 50.3125 124.615 57.6172C111.08 74.5898 106.031 89.9512 109.576 103.809C111.832 113.047 117.74 117.344 127.408 116.592ZM158.238 31.6211C157.916 31.6211 158.883 30.6543 160.924 28.8281C162.965 27.002 166.188 24.5312 170.699 21.3086C175.104 18.0859 179.83 14.9707 184.879 12.0703C189.82 9.16992 195.836 6.69922 202.926 4.87305C209.908 3.04688 215.279 2.72461 218.932 3.69141C221.725 4.6582 223.121 6.48438 223.121 9.16992C223.121 11.2109 222.047 13.5742 219.791 16.0449C219.254 16.582 218.287 17.334 216.998 18.1934C216.461 16.9043 215.709 15.4004 214.742 13.7891C213.561 12.6074 212.809 12.3926 212.379 12.9297C212.057 13.4668 212.164 14.3262 212.594 15.6152C212.594 16.3672 212.809 16.7969 213.238 16.9043C213.346 17.0117 213.561 17.1191 213.883 17.1191C214.205 17.1191 214.42 17.1191 214.527 17.1191C214.85 17.4414 214.957 17.7637 214.957 18.1934L215.172 19.2676C211.412 21.7383 208.941 23.3496 207.76 23.8867C201.529 27.2168 195.084 29.7949 188.316 31.4062C179.83 33.3398 169.84 33.4473 158.238 31.6211ZM132.027 114.336C123.541 116.162 117.74 115.195 114.84 111.543C113.443 109.287 112.584 106.816 112.262 104.023C111.295 93.8184 113.873 83.9355 119.996 74.2676C124.615 66.6406 132.027 57.4023 142.125 46.3379C145.133 43.3301 150.074 39.0332 156.949 33.4473L162.213 34.0918C165.543 34.5215 170.055 34.6289 175.748 34.4141C181.441 34.3066 186.49 33.6621 191.002 32.4805C199.811 30.6543 207.33 27.2168 213.453 22.3828L215.387 21.0938L215.172 23.8867L214.957 26.3574L213.883 30.7617C212.916 34.4141 211.52 37.7441 209.908 40.6445L207.76 44.6191C201.637 56.2207 194.01 67.1777 184.986 77.4902C175.855 87.9102 166.188 96.6113 155.768 103.809C147.711 109.502 139.869 113.047 132.027 114.336ZM209.801 99.834C213.883 98.6523 221.188 93.6035 231.822 84.4727C232.359 84.043 234.186 82.4316 237.301 79.6387C239.771 77.5977 240.846 76.416 240.416 76.0938C240.094 75.9863 239.664 76.2012 238.912 76.9531C237.73 77.9199 236.549 78.7793 235.582 79.6387C220.758 92.6367 211.627 99.1895 208.297 99.1895C206.578 99.1895 205.934 98.3301 206.363 96.5039C207.33 93.1738 210.23 89.3066 214.957 85.1172L219.576 80.498C220.758 79.3164 221.08 78.457 220.65 78.0273C219.684 77.2754 217.965 78.0273 215.602 80.0684C212.057 83.1836 209.049 85.332 206.363 86.6211C201.637 89.0918 198.951 89.8438 198.414 88.877C198.092 88.4473 198.629 87.4805 199.918 86.084C201.1 84.6875 202.711 83.0762 204.752 81.25C206.686 79.4238 207.975 78.1348 208.512 77.5977C209.801 75.9863 209.908 74.8047 208.727 74.2676C207.975 73.9453 206.793 74.6973 204.967 76.5234C200.562 80.9277 198.092 83.7207 197.555 84.6875C196.373 86.9434 196.266 88.4473 197.125 89.3066C198.629 90.918 202.926 89.6289 210.123 85.5469L207.867 87.9102C204 93.0664 203.033 96.7188 204.967 98.9746C205.934 100.264 207.545 100.586 209.801 99.834ZM236.764 101.338C233.111 103.164 231.285 102.949 231.285 100.693C231.178 97.3633 234.186 92.3145 240.523 85.5469C242.35 83.6133 243.531 82.3242 243.961 81.6797C244.283 81.0352 244.391 80.1758 244.068 79.209C243.531 77.3828 243.209 76.0938 243.102 75.2344C242.994 74.1602 242.779 73.4082 242.457 72.9785C242.135 72.5488 241.705 72.4414 240.953 72.7637C240.416 72.7637 240.201 73.1934 240.523 74.0527C240.523 74.8047 240.201 75.5566 239.557 76.2012C238.805 76.8457 238.482 77.2754 238.482 77.3828L239.234 78.0273C239.342 77.9199 239.557 77.7051 239.771 77.5977C239.986 77.4902 240.201 77.2754 240.309 77.168C240.631 77.168 240.953 77.4902 241.383 78.2422C241.49 78.7793 241.598 79.3164 241.598 79.8535C241.49 80.2832 239.879 82.002 236.979 84.9023C230.426 91.7773 227.633 97.1484 228.814 100.908C229.996 104.453 233.434 104.668 239.02 101.768C243.639 99.2969 250.729 94.0332 260.289 85.7617C261.148 85.0098 262.115 84.2578 263.082 83.291C264.049 82.4316 265.123 81.4648 266.305 80.2832C267.486 79.209 268.346 78.3496 268.883 77.8125C269.742 76.9531 270.172 76.416 270.172 76.3086C270.172 75.5566 269.635 75.5566 268.668 76.3086L265.768 79.209C257.496 86.6211 251.588 91.6699 248.258 94.248C244.82 96.9336 240.953 99.2969 236.764 101.338ZM432.164 6.5918C431.627 5.30273 429.693 4.6582 426.363 4.55078C423.893 4.55078 421.529 4.76562 419.059 5.08789C416.588 5.51758 414.654 5.94727 413.15 6.26953C411.539 6.5918 409.605 7.23633 407.135 8.20312C404.664 9.16992 403.053 9.81445 402.086 10.2441C401.119 10.7812 399.293 11.6406 396.607 12.9297C393.922 14.3262 392.096 15.1855 391.236 15.6152C388.014 17.0117 383.932 19.4824 379.098 23.0273C376.197 25.0684 372.223 26.25 367.389 26.5723C360.621 27.2168 349.449 26.5723 333.766 24.6387C330.221 24.1016 324.85 23.3496 317.545 22.3828C310.133 21.416 304.654 20.6641 301.002 20.2344C285.426 18.5156 273.824 18.3008 266.412 19.5898C246.969 22.9199 233.111 30.6543 225.055 42.6855C221.295 48.5938 220.436 54.0723 222.691 59.1211C222.799 59.2285 223.014 59.2285 223.229 58.9062C223.443 58.584 223.551 58.3691 223.551 58.0469C223.551 57.7246 223.443 57.2949 223.229 56.7578C223.014 56.2207 222.906 55.8984 222.906 55.791C222.047 53.2129 222.906 49.5605 225.592 44.834C226.881 42.3633 229.674 39.1406 233.863 35.166C242.242 27.8613 252.77 23.0273 265.553 20.6641C274.039 19.0527 286.822 19.375 303.688 21.7383C330.973 25.3906 347.73 27.3242 353.854 27.4316C358.902 27.7539 363.521 27.8613 367.711 27.8613L373.619 27.2168L373.189 27.6465C372.867 27.9688 372.438 28.291 371.9 28.8281C371.256 29.3652 370.826 29.7949 370.504 30.1172C370.182 30.5469 369.537 31.2988 368.463 32.373C367.281 33.5547 366.637 34.3066 366.314 34.7363L345.689 59.1211L343.004 58.6914C340.963 58.3691 336.666 58.7988 330.221 59.7656C326.891 60.7324 324.527 61.8066 323.238 63.0957C323.131 63.2031 323.023 63.5254 323.023 63.9551C323.023 64.4922 323.238 64.8145 323.668 64.8145C323.99 64.8145 324.205 64.5996 324.312 64.1699C324.42 63.7402 324.85 63.3105 325.387 62.8809C326.031 62.5586 326.783 62.3438 327.643 62.0215C331.188 60.8398 333.336 60.1953 334.195 60.1953L339.244 59.9805C341.178 59.873 343.004 59.873 344.83 59.9805C344.508 60.0879 343.756 60.625 342.574 61.8066C342.037 62.3438 338.814 66.2109 333.121 73.3008C327.428 80.498 321.949 86.4062 316.9 91.0254C311.744 95.752 305.299 99.6191 297.672 102.627C289.938 105.742 283.385 106.602 277.906 105.312C277.369 105.205 276.725 104.99 276.188 104.775C275.543 104.561 275.006 104.346 274.684 104.238C274.361 104.131 273.932 103.916 273.609 103.701C273.287 103.486 272.965 103.271 272.75 103.164C272.535 103.057 272.32 102.842 272.213 102.734C271.676 102.412 271.354 102.412 271.354 102.734C271.139 103.057 271.354 103.379 272.105 103.809C272.75 104.238 273.287 104.561 273.717 104.668C281.344 106.387 286.93 106.924 290.26 106.387C308.844 102.305 328.18 87.9102 348.482 63.3105L351.168 60.1953L360.406 59.3359C358.473 61.377 357.184 63.7402 356.432 66.4258C355.465 70.4004 356.109 72.334 358.473 72.334C358.795 72.334 358.795 72.2266 358.473 71.9043C357.291 70.7227 357.506 68.7891 359.117 65.9961C360.729 63.2031 362.662 60.8398 365.025 58.9062C366.314 57.9395 367.604 56.9727 369 56.2207C370.289 55.4688 371.148 55.0391 371.471 54.8242C371.793 54.6094 371.9 54.3945 371.793 54.0723C370.934 53.2129 369.537 53.2129 367.496 54.0723C365.455 54.9316 363.414 56.2207 361.48 57.832C360.729 58.3691 357.506 58.9062 351.598 59.3359C354.391 56.1133 357.184 52.6758 360.084 49.1309C362.984 45.5859 365.455 42.4707 367.711 39.7852C369.859 37.0996 372.545 34.0918 375.768 30.7617C378.023 28.291 380.924 26.7871 384.576 26.3574C399.938 23.9941 414.01 19.0527 426.578 11.6406C426.686 11.5332 427.115 11.3184 427.867 10.9961C428.512 10.6738 429.049 10.3516 429.479 10.0293C429.908 9.70703 430.445 9.38477 430.982 9.0625C431.52 8.74023 431.842 8.31055 432.057 7.88086C432.271 7.45117 432.271 7.02148 432.164 6.5918ZM430.768 7.88086C430.768 8.63281 430.338 9.27734 429.479 9.92188C428.619 10.6738 427.223 11.3184 425.289 11.9629C423.355 12.6074 422.281 13.0371 421.959 13.1445C406.598 19.1602 396.5 22.4902 391.666 23.2422C390.592 23.3496 389.303 23.6719 387.691 23.9941C386.08 24.4238 384.684 24.7461 383.502 25.0684L381.783 25.2832L386.832 21.5234C390.592 18.623 394.029 16.3672 397.145 14.9707C410.68 8.63281 420.67 5.30273 427.115 5.19531C429.371 5.30273 430.66 5.83984 430.982 6.80664L430.768 7.88086ZM379.957 66.8555C380.924 66.4258 381.139 65.5664 380.602 64.3848C380.279 63.6328 379.85 63.5254 379.098 63.8477C378.346 64.2773 377.809 65.0293 377.379 65.9961C377.271 66.4258 377.164 66.748 377.164 67.0703C377.057 67.9297 378.023 67.8223 379.957 66.8555ZM359.117 97.6855C362.34 98.5449 369.859 95.1074 381.568 87.2656C385.113 84.7949 389.41 81.4648 394.459 77.3828C395.104 76.9531 395.426 76.5234 395.426 76.0938C395.318 75.2344 394.781 75.3418 393.814 76.3086C388.658 80.9277 381.139 86.1914 371.363 92.0996C366.1 95.3223 362.125 96.8262 359.332 96.5039C356.432 96.0742 357.506 92.7441 362.662 86.6211C363.199 85.8691 364.273 84.6875 365.885 83.0762C369.645 79.5312 372.223 76.7383 373.619 74.8047C373.941 74.4824 374.049 74.1602 374.049 74.0527C374.049 73.5156 373.727 73.1934 373.189 73.1934C372.223 73.0859 371.256 73.1934 370.289 73.623C369.107 74.5898 368.355 75.2344 367.926 75.6641L363.521 80.0684C362.77 80.8203 361.373 82.4316 359.332 85.1172C357.291 87.9102 356.109 90.4883 356.002 92.959C355.895 95.4297 356.861 96.9336 359.117 97.6855ZM384.254 109.502C385.006 109.609 386.08 109.609 387.477 109.287C388.873 108.857 390.162 108.213 391.344 107.461C392.525 106.709 394.137 105.635 395.963 104.238C397.789 102.842 398.971 102.09 399.4 101.768C404.664 97.6855 408.531 94.5703 411.002 92.3145L415.836 88.2324C417.018 87.0508 418.951 85.2246 421.422 82.8613C423.893 80.498 425.826 78.7793 427.115 77.8125C427.975 76.9531 428.404 76.416 428.404 76.3086C428.297 75.7715 427.76 75.7715 426.9 76.3086L424 79.209C418.199 84.7949 412.828 89.5215 407.994 93.4961C403.59 97.2559 400.152 99.9414 397.789 101.553C392.74 105.42 389.088 107.676 386.832 108.213C384.361 108.965 382.857 107.998 382.428 105.527C381.891 101.768 383.502 96.6113 387.262 90.166C389.947 85.7617 392.418 82.2168 394.781 79.4238C398.756 74.375 401.441 71.3672 402.73 70.1855C404.879 67.9297 408.316 65.2441 413.043 62.0215C421.529 56.4355 428.941 50.8496 435.064 45.2637C440.65 40.5371 446.988 34.4141 454.186 27.002C456.549 24.7461 458.16 22.7051 459.02 21.0938C459.342 20.6641 459.557 20.127 459.771 19.375C459.986 18.7305 460.201 18.0859 460.309 17.334C460.416 16.582 460.416 16.0449 460.094 15.6152C459.771 15.1855 459.234 15.0781 458.375 15.1855C457.73 15.1855 456.871 15.5078 455.689 16.0449C454.508 16.582 453.648 17.1191 453.111 17.5488C440.006 26.6797 425.504 39.6777 409.713 56.543C406.168 60.3027 401.119 66.1035 394.352 74.0527C391.236 77.9199 388.98 80.9277 387.477 82.9688C385.865 85.1172 384.254 88.125 382.535 92.0996C380.709 96.0742 379.957 99.834 380.064 103.164C380.064 106.924 381.461 109.072 384.254 109.502ZM409.928 62.2363L412.184 59.5508L420.24 50.957C424.537 46.123 429.479 41.1816 435.064 36.0254C435.924 35.166 437.643 33.5547 440.113 31.1914C442.584 28.8281 444.518 27.002 445.807 25.7129C447.096 24.5312 448.814 23.0273 450.963 21.2012C453.004 19.4824 455.045 18.0859 456.979 16.9043C458.16 16.1523 458.805 16.2598 458.805 17.1191C459.342 19.0527 457.623 21.8457 453.541 25.498C446.988 32.2656 441.08 37.959 435.924 42.6855C435.172 43.2227 430.982 46.6602 423.57 52.7832C421.637 54.3945 418.736 56.4355 414.977 58.9062L409.928 62.2363ZM439.469 103.594C440.865 106.064 445.484 104.561 453.111 98.9746C456.871 96.0742 461.275 92.207 466.324 87.4805C467.828 86.1914 469.977 84.2578 472.662 81.7871C475.348 79.3164 477.174 77.7051 478.033 76.9531C478.355 76.6309 478.355 76.416 478.248 76.3086C478.248 75.9863 478.033 75.8789 477.604 75.8789C477.496 75.8789 477.281 75.9863 476.959 76.3086L471.373 81.3574C466.109 86.5137 462.027 90.3809 458.912 92.8516C448.922 101.016 443.121 104.561 441.295 103.594C440.973 102.842 440.973 102.09 441.08 101.338C441.188 100.586 441.939 99.4043 443.121 97.793C444.303 96.1816 445.27 94.8926 446.129 93.8184C446.988 92.8516 447.955 91.7773 449.137 90.5957L450.748 88.6621L456.656 82.2168C459.557 79.3164 460.846 77.168 460.416 75.8789C460.309 75.5566 460.094 75.3418 459.771 75.2344C458.482 74.1602 453.648 76.2012 445.27 81.3574L448.277 77.5977C451.715 73.5156 453.648 70.9375 454.078 69.9707C454.4 69.4336 454.508 68.8965 454.615 68.252C454.723 67.6074 454.615 67.0703 454.4 66.5332C454.078 65.9961 453.648 65.8887 452.896 65.9961C450.104 66.3184 446.988 67.7148 443.443 70.1855C438.395 73.5156 432.701 78.2422 426.578 84.2578C425.182 85.5469 424.107 86.7285 423.248 87.6953L425.826 82.4316C427.33 80.1758 430.23 76.9531 434.635 72.5488C437.643 69.6484 439.684 67.9297 440.65 67.5C441.402 67.1777 441.725 66.748 441.832 65.9961C441.939 65.3516 441.617 64.9219 440.865 64.8145C440.221 64.9219 439.469 65.0293 438.609 65.3516C436.998 66.1035 434.42 68.1445 430.875 71.6895C423.678 78.8867 420.348 84.4727 420.777 88.4473C420.885 89.6289 421.207 90.3809 421.637 90.7031C421.959 91.0254 422.496 91.0254 423.033 90.5957C423.57 90.2734 423.893 90.0586 423.893 89.7363C423.785 89.4141 424 88.9844 424.752 88.2324C427.223 84.6875 431.627 80.3906 437.965 75.3418C444.303 70.4004 448.922 67.6074 451.822 67.0703C452.359 66.9629 452.682 67.0703 452.682 67.3926C452.682 67.7148 452.574 68.252 452.252 68.7891C452.145 69.1113 451.178 70.0781 449.566 71.9043C447.848 73.7305 446.021 75.6641 443.98 77.8125C441.939 80.0684 440.65 81.4648 440.221 82.002C438.18 84.043 436.998 86.1914 436.891 88.2324C436.783 89.5215 437.32 89.5215 438.609 88.2324C440.865 85.7617 443.551 83.5059 446.773 81.5723C449.137 79.9609 451.715 78.457 454.4 77.0605C457.086 75.6641 458.59 75.3418 458.912 75.8789C459.02 76.3086 457.838 77.8125 455.367 80.2832C447.74 87.9102 442.799 93.9258 440.436 98.3301C439.254 100.693 438.932 102.412 439.469 103.594Z" fill="#BF9475"/>
</svg>
