<svg width="216" height="60" viewBox="0 0 216 60" fill="none" xmlns="http://www.w3.org/2000/svg">
<mask id="path-1-inside-1" fill="white">
<path fill-rule="evenodd" clip-rule="evenodd" d="M197 0C201.418 0 205 3.58172 205 8V43.6603C207.109 47.8656 213.234 49.0887 215.294 49.5C217.485 50.8125 208.94 53.5286 204.757 53.9639C203.882 57.4326 200.741 60 197 60H8.00002C3.58173 60 1.52588e-05 56.4183 1.52588e-05 52V8C1.52588e-05 3.58172 3.58174 0 8.00002 0H197Z"/>
</mask>
<path d="M205 43.6603L203.212 44.557C203.073 44.2787 203 43.9716 203 43.6603H205ZM215.294 49.5L215.685 47.5387C215.91 47.5836 216.125 47.6666 216.322 47.7843L215.294 49.5ZM204.757 53.9639L202.818 53.4744C203.023 52.6605 203.715 52.0615 204.55 51.9746L204.757 53.9639ZM203 8C203 4.68629 200.314 2 197 2V-2C202.523 -2 207 2.47715 207 8H203ZM203 43.6603V8H207V43.6603H203ZM206.788 42.7637C207.533 44.2488 209.079 45.3585 210.956 46.1657C212.797 46.9578 214.66 47.3339 215.685 47.5387L214.902 51.4613C213.868 51.2548 211.639 50.8138 209.375 49.8401C207.147 48.8817 204.577 47.2771 203.212 44.557L206.788 42.7637ZM216.322 47.7843C216.949 48.1604 217.832 49.0224 217.617 50.3668C217.459 51.3521 216.756 51.9751 216.408 52.2526C215.586 52.9093 214.336 53.4753 213.12 53.9327C210.605 54.8791 207.255 55.7147 204.964 55.9531L204.55 51.9746C206.442 51.7777 209.456 51.0377 211.711 50.189C212.881 49.749 213.617 49.3626 213.912 49.1274C214.123 48.9589 213.76 49.1509 213.667 49.7347C213.516 50.6777 214.186 51.1677 214.266 51.2157L216.322 47.7843ZM197 58C199.803 58 202.161 56.0763 202.818 53.4744L206.696 54.4533C205.602 58.7889 201.679 62 197 62V58ZM8.00002 58H197V62H8.00002V58ZM2.00002 52C2.00002 55.3137 4.68629 58 8.00002 58V62C2.47716 62 -1.99998 57.5229 -1.99998 52H2.00002ZM2.00002 8V52H-1.99998V8H2.00002ZM8.00002 2C4.68631 2 2.00002 4.68629 2.00002 8H-1.99998C-1.99998 2.47715 2.47717 -2 8.00002 -2V2ZM197 2H8.00002V-2H197V2Z" fill="#BF9475" fill-opacity="0.5" mask="url(#path-1-inside-1)"/>
</svg>
