<svg width="151" height="50" viewBox="0 0 151 50" fill="none" xmlns="http://www.w3.org/2000/svg">
<g opacity="0.8">
<mask id="path-1-inside-1" fill="white">
<path fill-rule="evenodd" clip-rule="evenodd" d="M18.3529 0C13.9346 0 10.3529 3.58172 10.3529 8V34.1614C8.03149 37.9643 2.32512 39.1056 0.352878 39.5C-1.7859 40.7832 6.32138 43.4082 10.5876 43.9314C11.4516 47.4166 14.6005 50 18.3529 50H142.353C146.771 50 150.353 46.4183 150.353 42V8C150.353 3.58172 146.771 0 142.353 0H18.3529Z"/>
</mask>
<path d="M10.3529 34.1614L12.06 35.2034C12.2515 34.8896 12.3529 34.5291 12.3529 34.1614H10.3529ZM0.352878 39.5L-0.0393537 37.5388C-0.264137 37.5838 -0.479518 37.6671 -0.676087 37.785L0.352878 39.5ZM10.5876 43.9314L12.5288 43.4501C12.3293 42.6454 11.654 42.0472 10.831 41.9463L10.5876 43.9314ZM12.3529 8C12.3529 4.68629 15.0392 2 18.3529 2V-2C12.83 -2 8.35288 2.47715 8.35288 8H12.3529ZM12.3529 34.1614V8H8.35288V34.1614H12.3529ZM8.64579 33.1193C7.80759 34.4925 6.25923 35.5174 4.45918 36.26C2.69207 36.9891 0.941402 37.3427 -0.0393537 37.5388L0.74511 41.4612C1.73659 41.2629 3.82523 40.8486 5.98471 39.9577C8.11125 39.0804 10.5768 37.6332 12.06 35.2034L8.64579 33.1193ZM-0.676087 37.785C-1.28389 38.1497 -2.15013 38.9791 -1.97984 40.2942C-1.85125 41.2872 -1.16393 41.9211 -0.824359 42.2018C-0.0296429 42.8586 1.18193 43.4179 2.35025 43.8673C4.78022 44.8022 8.0328 45.6331 10.3441 45.9165L10.831 41.9463C8.87616 41.7065 5.942 40.9633 3.78647 40.1341C2.66204 39.7015 1.98118 39.3312 1.72399 39.1186C1.53761 38.9646 1.90912 39.1787 1.98705 39.7806C2.10668 40.7045 1.45495 41.1711 1.38184 41.215L-0.676087 37.785ZM18.3529 48C15.5413 48 13.1769 46.0643 12.5288 43.4501L8.64634 44.4126C9.72628 48.7689 13.6598 52 18.3529 52V48ZM142.353 48H18.3529V52H142.353V48ZM148.353 42C148.353 45.3137 145.667 48 142.353 48V52C147.876 52 152.353 47.5228 152.353 42H148.353ZM148.353 8V42H152.353V8H148.353ZM142.353 2C145.667 2 148.353 4.68629 148.353 8H152.353C152.353 2.47715 147.876 -2 142.353 -2V2ZM18.3529 2H142.353V-2H18.3529V2Z" fill="#BF9475" fill-opacity="0.5" mask="url(#path-1-inside-1)"/>
</g>
</svg>
