<svg width="261" height="46" viewBox="0 0 261 46" fill="none" xmlns="http://www.w3.org/2000/svg">
<mask id="path-1-inside-1" fill="white">
<path fill-rule="evenodd" clip-rule="evenodd" d="M242 0C246.418 0 250 3.58172 250 8V29.6603C252.109 33.8656 258.234 35.0887 260.294 35.5C262.485 36.8125 253.94 39.5286 249.757 39.9639C248.882 43.4326 245.741 46 242 46H8C3.58173 46 0 42.4183 0 38V8C0 3.58172 3.58173 0 8 0H242Z"/>
</mask>
<path d="M250 29.6603L248.212 30.557C248.073 30.2787 248 29.9716 248 29.6603H250ZM260.294 35.5L260.685 33.5387C260.91 33.5836 261.125 33.6666 261.322 33.7843L260.294 35.5ZM249.757 39.9639L247.818 39.4744C248.023 38.6605 248.715 38.0615 249.55 37.9746L249.757 39.9639ZM248 8C248 4.68629 245.314 2 242 2V-2C247.523 -2 252 2.47715 252 8H248ZM248 29.6603V8H252V29.6603H248ZM251.788 28.7637C252.533 30.2488 254.079 31.3585 255.956 32.1657C257.797 32.9578 259.66 33.3339 260.685 33.5387L259.902 37.4613C258.868 37.2548 256.639 36.8138 254.375 35.8401C252.147 34.8817 249.577 33.2771 248.212 30.557L251.788 28.7637ZM261.322 33.7843C261.949 34.1604 262.832 35.0224 262.617 36.3668C262.459 37.3521 261.756 37.9751 261.408 38.2526C260.586 38.9093 259.336 39.4753 258.12 39.9327C255.605 40.8791 252.255 41.7147 249.964 41.9531L249.55 37.9746C251.442 37.7777 254.456 37.0377 256.711 36.189C257.881 35.749 258.617 35.3626 258.912 35.1274C259.123 34.9589 258.76 35.1509 258.667 35.7347C258.516 36.6777 259.186 37.1677 259.266 37.2157L261.322 33.7843ZM242 44C244.803 44 247.161 42.0763 247.818 39.4744L251.696 40.4533C250.602 44.7889 246.679 48 242 48V44ZM8 44H242V48H8V44ZM2 38C2 41.3137 4.68629 44 8 44V48C2.47714 48 -2 43.5228 -2 38H2ZM2 8V38H-2V8H2ZM8 2C4.68629 2 2 4.68629 2 8H-2C-2 2.47715 2.47714 -2 8 -2V2ZM242 2H8V-2H242V2Z" fill="#BF9475" fill-opacity="0.5" mask="url(#path-1-inside-1)"/>
</svg>
