<svg width="220" height="46" viewBox="0 0 220 46" fill="none" xmlns="http://www.w3.org/2000/svg">
<g opacity="0.8">
<mask id="path-1-inside-1" fill="white">
<path fill-rule="evenodd" clip-rule="evenodd" d="M18 0C13.5817 0 10 3.58172 10 8V30.6854C7.4979 34.071 2.23145 35.1243 0.352878 35.5C-1.72639 36.7475 5.87815 39.2631 10.2228 39.8829C11.0695 43.3926 14.2303 46 18 46H212C216.418 46 220 42.4183 220 38V8C220 3.58172 216.418 0 212 0H18Z"/>
</mask>
<path d="M10 30.6854L11.6084 31.8741C11.8628 31.5299 12 31.1133 12 30.6854H10ZM0.352878 35.5L-0.0393524 33.5388C-0.264136 33.5838 -0.479518 33.6671 -0.676087 33.785L0.352878 35.5ZM10.2228 39.8829L12.1671 39.4139C11.9749 38.6174 11.3164 38.0186 10.5053 37.9029L10.2228 39.8829ZM12 8C12 4.68629 14.6863 2 18 2V-2C12.4772 -2 8 2.47715 8 8H12ZM12 30.6854V8H8V30.6854H12ZM8.39158 29.4967C7.46326 30.7528 5.92341 31.6863 4.21034 32.3603C2.5263 33.0229 0.893708 33.3522 -0.0393524 33.5388L0.745109 37.4612C1.69062 37.2721 3.63054 36.8869 5.6749 36.0825C7.69022 35.2896 10.0346 34.0036 11.6084 31.8741L8.39158 29.4967ZM-0.676087 33.785C-1.26031 34.1355 -2.10744 34.9259 -1.98978 36.2044C-1.89764 37.2056 -1.23026 37.8533 -0.898823 38.1389C-0.13562 38.7967 1.03193 39.3479 2.14448 39.7871C4.47327 40.7065 7.61221 41.5307 9.94041 41.8629L10.5053 37.9029C8.48878 37.6153 5.65311 36.8719 3.61327 36.0666C2.5415 35.6435 1.92624 35.2931 1.71261 35.109C1.55564 34.9737 1.9361 35.2154 1.99338 35.8378C2.07618 36.7375 1.44625 37.1764 1.38184 37.215L-0.676087 33.785ZM18 44C15.1753 44 12.8021 42.0462 12.1671 39.4139L8.27862 40.3519C9.33698 44.739 13.2852 48 18 48V44ZM212 44H18V48H212V44ZM218 38C218 41.3137 215.314 44 212 44V48C217.523 48 222 43.5228 222 38H218ZM218 8V38H222V8H218ZM212 2C215.314 2 218 4.68629 218 8H222C222 2.47715 217.523 -2 212 -2V2ZM18 2H212V-2H18V2Z" fill="#BF9475" fill-opacity="0.5" mask="url(#path-1-inside-1)"/>
</g>
</svg>
