<svg width="36" height="36" viewBox="0 0 36 36" fill="none" xmlns="http://www.w3.org/2000/svg">
<path d="M18 36C27.9411 36 36 27.9411 36 18C36 8.05887 27.9411 0 18 0C8.05887 0 0 8.05887 0 18C0 27.9411 8.05887 36 18 36Z" fill="#6F3FAA"/>
<path d="M27.5222 12.6507L27.5163 12.6269C27.0354 10.6826 24.8671 8.59625 22.8758 8.16221L22.8534 8.15757C19.6327 7.54318 16.367 7.54318 13.147 8.15757L13.1239 8.16221C11.1333 8.59625 8.96494 10.6827 8.48337 12.6269L8.47803 12.6507C7.88346 15.3659 7.88346 18.1197 8.47803 20.8349L8.48337 20.8587C8.94448 22.72 10.9513 24.7105 12.8682 25.2579V27.4283C12.8682 28.2139 13.8255 28.5997 14.3699 28.0328L16.5689 25.747C17.0459 25.7737 17.5231 25.7886 18.0002 25.7886C19.6214 25.7886 21.2433 25.6352 22.8533 25.3281L22.8758 25.3235C24.867 24.8894 27.0353 22.803 27.5163 20.8587L27.5222 20.835C28.1167 18.1197 28.1167 15.3661 27.5222 12.6507ZM25.7819 20.4412C25.4608 21.7097 23.8145 23.2867 22.5064 23.5781C20.794 23.9038 19.0679 24.0429 17.3435 23.9952C17.3092 23.9942 17.2762 24.0076 17.2524 24.0322C17.0076 24.2833 15.6468 25.6804 15.6468 25.6804L13.9391 27.4332C13.8142 27.5634 13.5948 27.4747 13.5948 27.2951V23.6996C13.5948 23.6402 13.5524 23.5898 13.494 23.5782C13.4937 23.5781 13.4934 23.5781 13.4931 23.578C12.185 23.2866 10.5392 21.7097 10.2176 20.4412C9.68241 17.9868 9.68241 15.4988 10.2176 13.0444C10.5392 11.7759 12.185 10.199 13.4931 9.90758C16.4839 9.33875 19.5163 9.33875 22.5065 9.90758C23.8152 10.199 25.4609 11.7759 25.782 13.0444C26.3177 15.4988 26.3177 17.9869 25.7819 20.4412Z" fill="white"/>
<path d="M20.8455 22.101C20.6444 22.0399 20.4528 21.9989 20.2747 21.9252C18.4303 21.16 16.733 20.1728 15.3885 18.6596C14.624 17.7991 14.0255 16.8276 13.5197 15.7995C13.2798 15.3119 13.0776 14.8053 12.8716 14.3019C12.6837 13.8429 12.9604 13.3687 13.2518 13.0228C13.5253 12.6981 13.8772 12.4498 14.2583 12.2666C14.5557 12.1237 14.849 12.2062 15.0663 12.4582C15.5358 13.0033 15.9673 13.5762 16.3165 14.208C16.5313 14.5966 16.4723 15.0717 16.083 15.3361C15.9884 15.4004 15.9022 15.4759 15.8141 15.5485C15.7367 15.6121 15.664 15.6764 15.611 15.7625C15.5142 15.9201 15.5095 16.106 15.5718 16.2774C16.0519 17.5965 16.861 18.6224 18.1888 19.175C18.4013 19.2633 18.6146 19.3662 18.8594 19.3377C19.2694 19.2899 19.4021 18.8401 19.6894 18.6052C19.9702 18.3757 20.329 18.3726 20.6315 18.564C20.934 18.7556 21.2272 18.961 21.5187 19.1688C21.8049 19.3727 22.0897 19.572 22.3536 19.8045C22.6075 20.0281 22.6949 20.3213 22.5519 20.6245C22.2903 21.1801 21.9096 21.6421 21.3605 21.9371C21.2055 22.0202 21.0203 22.0472 20.8455 22.101C20.6444 22.0399 21.0203 22.0472 20.8455 22.101Z" fill="white"/>
<path d="M18.0049 11.6313C20.4173 11.699 22.3988 13.2999 22.8234 15.6849C22.8957 16.0913 22.9215 16.5067 22.9537 16.9193C22.9673 17.0927 22.869 17.2575 22.6818 17.2598C22.4884 17.2622 22.4014 17.1003 22.3888 16.927C22.364 16.5837 22.3467 16.2388 22.2994 15.8985C22.0497 14.1014 20.6168 12.6146 18.828 12.2956C18.5588 12.2476 18.2834 12.235 18.0107 12.2064C17.8384 12.1883 17.6127 12.1779 17.5745 11.9636C17.5425 11.784 17.6941 11.641 17.8652 11.6317C17.9115 11.629 17.9583 11.6312 18.0049 11.6313C20.4174 11.699 17.9583 11.6312 18.0049 11.6313Z" fill="white"/>
<path d="M21.6711 16.384C21.6671 16.4141 21.6651 16.4849 21.6474 16.5516C21.5834 16.7937 21.2161 16.824 21.1316 16.5797C21.1065 16.5072 21.1028 16.4247 21.1027 16.3466C21.1018 15.8357 20.9908 15.3253 20.7331 14.8807C20.4682 14.4237 20.0635 14.0397 19.589 13.8072C19.3019 13.6667 18.9917 13.5793 18.6771 13.5274C18.5396 13.5046 18.4007 13.4909 18.2625 13.4716C18.0951 13.4483 18.0057 13.3417 18.0137 13.1767C18.0211 13.0222 18.1341 12.9109 18.3025 12.9205C18.8561 12.9519 19.3909 13.0717 19.8831 13.3323C20.884 13.8623 21.4558 14.6989 21.6227 15.8161C21.6302 15.8668 21.6423 15.9169 21.6462 15.9676C21.6556 16.0929 21.6616 16.2184 21.6711 16.384C21.6671 16.414 21.6616 16.2184 21.6711 16.384Z" fill="white"/>
<path d="M20.1707 16.3253C19.9689 16.329 19.8609 16.2172 19.84 16.0323C19.8256 15.9033 19.8141 15.7725 19.7833 15.647C19.7227 15.3997 19.5913 15.1706 19.3833 15.0191C19.2851 14.9476 19.1738 14.8955 19.0573 14.8617C18.9093 14.8189 18.7555 14.8307 18.6079 14.7946C18.4475 14.7553 18.3588 14.6253 18.384 14.4749C18.4069 14.338 18.5401 14.2311 18.6898 14.242C19.6251 14.3095 20.2936 14.793 20.389 15.8941C20.3958 15.9718 20.4037 16.0539 20.3864 16.1283C20.3568 16.2554 20.2626 16.3191 20.1707 16.3253C19.9689 16.3289 20.2626 16.3191 20.1707 16.3253Z" fill="white"/>
<path d="M20.8455 22.1013C21.0203 22.0474 20.6444 22.0402 20.8455 22.1013V22.1013Z" fill="white"/>
<path d="M18.0111 11.6331C18.0091 11.6331 18.0071 11.6329 18.0051 11.6329C18.0031 11.6327 18.0056 11.6329 18.0111 11.6331Z" fill="white"/>
<path d="M18.0051 11.6318C18.0072 11.6318 18.0091 11.632 18.0112 11.632C18.145 11.6368 20.3225 11.6968 18.0051 11.6318Z" fill="white"/>
<path d="M21.6712 16.3842C21.6616 16.2187 21.6672 16.4142 21.6712 16.3842V16.3842Z" fill="white"/>
<path d="M20.1707 16.3259C20.1739 16.3257 20.1769 16.3241 20.1799 16.3237C20.1714 16.3237 20.1583 16.3239 20.1449 16.3244C20.1536 16.3246 20.1616 16.326 20.1707 16.3259Z" fill="white"/>
<path d="M20.1707 16.3257C20.1617 16.3258 20.1536 16.3245 20.1449 16.3242C20.1012 16.3254 20.0562 16.3277 20.1707 16.3257Z" fill="white"/>
<path d="M20.18 16.3237C20.1768 16.3241 20.1738 16.3257 20.1708 16.3259C20.1944 16.3243 20.1924 16.3237 20.18 16.3237Z" fill="white"/>
</svg>
